<svg xmlns="http://www.w3.org/2000/svg" xmlns:xlink="http://www.w3.org/1999/xlink" width="190" height="104" viewBox="0 0 190 104">
  <defs>
    <clipPath id="clip-path">
      <rect id="Rect치ngulo_88846" data-name="Rect치ngulo 88846" width="101.904" height="101.925" fill="none"/>
    </clipPath>
  </defs>
  <g id="Grupo_138496" data-name="Grupo 138496" transform="translate(-285.049 -411)">
    <rect id="Rect치ngulo_41122" data-name="Rect치ngulo 41122" width="190" height="104" transform="translate(285.049 411)" fill="none"/>
    <g id="Grupo_117447" data-name="Grupo 117447" transform="translate(-3337.23 1038.208)" opacity="0.3">
      <path id="Trazado_158283" data-name="Trazado 158283" d="M3677.784-530.075h0a16.354,16.354,0,0,0,23.129,0l67.216-67.214a16.357,16.357,0,0,0,0-23.129,16.355,16.355,0,0,0-23.129,0L3677.784-553.2A16.353,16.353,0,0,0,3677.784-530.075Z" transform="translate(14.296)" fill="#fc4b52"/>
      <path id="Trazado_158284" data-name="Trazado 158284" d="M3652.069-530.075h0a16.354,16.354,0,0,0,23.129,0l67.216-67.214a16.358,16.358,0,0,0,0-23.129,16.355,16.355,0,0,0-23.129,0L3652.069-553.2A16.354,16.354,0,0,0,3652.069-530.075Z" transform="translate(0)" fill="#feca2e"/>
    </g>
    <g id="Grupo_138497" data-name="Grupo 138497" transform="translate(329.049 411)">
      <g id="Grupo_140611" data-name="Grupo 140611" clip-path="url(#clip-path)">
        <path id="Trazado_213784" data-name="Trazado 213784" d="M0,152.767c1.714-1.736,3.438-3.463,5.138-5.213a2.614,2.614,0,0,1,2.13-.562c2.285,0,2.285,0,2.285-2.294q0-7.364,0-14.729c0-1.562.524-2.083,2.083-2.086,1.824,0,3.648-.007,5.473,0a.829.829,0,0,0,.926-.507,4.594,4.594,0,0,1,3.715-2.646c.406-.057.509-.162.58-.571a4.767,4.767,0,0,1,9.474-.017c.067.386.132.532.563.589a4.6,4.6,0,0,1,3.772,2.717c.211.453.506.431.87.431q2.736,0,5.472,0c1.568,0,2.1.523,2.1,2.072,0,5.374.015,10.748-.015,16.122,0,.7.11,1.07.9.923a6.787,6.787,0,0,1,.695-.009A3.858,3.858,0,0,1,49.6,148c.256-.028.37.087.344.342a32.039,32.039,0,0,0,3.346,3.481,2.717,2.717,0,0,1,.862,2.113c-.043,2.119,0,4.24-.026,6.359a1.535,1.535,0,0,0,.549,1.281c1.668,1.512,3.308,3.055,4.952,4.594,1.178,1.1,1.189,1.865.056,3.011-.769.777-1.544,1.547-2.318,2.319-1.236,1.234-1.721,1.275-3.227.2v1.4c0,4.869-.023,9.738.02,14.607a2.479,2.479,0,0,1-1.015,2.281H42.394c-1.042-.249-1.293-1.027-1.3-1.959-.022-2.452,0-4.9-.01-7.357-.005-1.479-.035-1.514-1.489-1.514q-12.525,0-25.05,0c-1.454,0-1.484.035-1.489,1.514-.008,2.452.011,4.9-.01,7.357-.008.932-.259,1.711-1.3,1.959H1a1.236,1.236,0,0,1-1-1V152.767" transform="translate(0 -88.069)"/>
        <path id="Trazado_213785" data-name="Trazado 213785" d="M322.008,32.449a2.484,2.484,0,0,1-2.285,1.015c-5.936-.039-11.873-.019-17.809-.02-1.7,0-2.2-.49-2.2-2.174q0-3.433,0-6.866c0-1.435.285-1.8,1.657-2.152l3.93-1.015c-.235-.82-.819-1.44-.839-2.272-.006-.25-.281-.248-.446-.334a4.722,4.722,0,0,1-2.662-3.716.742.742,0,0,0-.611-.715,1.5,1.5,0,0,1-1.027-1.54c0-2.587,0-5.175-.006-7.762a1.774,1.774,0,0,1,1.155-1.69q2.846-1.4,5.679-2.835c.187-.095.464-.1.533-.372h1.194A35.382,35.382,0,0,1,312.9.985a2.216,2.216,0,0,0,1.726-.176A10.21,10.21,0,0,1,316.634,0h1.194a2.7,2.7,0,0,1,1.291.858c.94,1.128,2.311,1.88,2.889,3.322v9.157c-.168.24-.116.634-.4.766-.862.4-1.03,1.2-1.29,1.984a4.527,4.527,0,0,1-2.043,2.467c-.85.507-.955,1.383-1.3,2.137-.179.389.223.482.507.555,1.053.272,2.107.542,3.166.793a1.664,1.664,0,0,1,1.365,1.252Z" transform="translate(-220.104)"/>
        <path id="Trazado_213786" data-name="Trazado 213786" d="M322.012,170.356a2.484,2.484,0,0,1-2.284,1.015c-5.935-.039-11.87-.019-17.806-.02-1.7,0-2.2-.49-2.2-2.169q0-3.432,0-6.865c0-1.4.237-1.724,1.543-2.169.593-.2,1.182-.417,1.774-.626-.26-.522-.526-1.042-.778-1.568a9.407,9.407,0,0,1,1.919-10.887,1.389,1.389,0,0,0,.491-1.515,6.234,6.234,0,0,1,2.667-6.574,6.363,6.363,0,0,1,7.028-.022,6.25,6.25,0,0,1,2.71,6.559,1.4,1.4,0,0,0,.477,1.515,9.5,9.5,0,0,1,1.476,11.77c-.132.223-.26.448-.393.677,1.167.567,2.576.551,3.378,1.722Z" transform="translate(-220.108 -101.278)"/>
        <path id="Trazado_213787" data-name="Trazado 213787" d="M300.66,304.432a2.431,2.431,0,0,1-1.015-2.282c.061-2.285.046-4.573.007-6.859a1.916,1.916,0,0,1,1.259-2.022c.547-.23,1.063-.531,1.6-.791a.526.526,0,0,0,.345-.538c-.007-.3-.183-.362-.421-.452a3.965,3.965,0,0,1,.009-7.55c.384-.139.411-.35.409-.664-.006-.895-.013-1.79,0-2.684a4.758,4.758,0,0,1,4.772-4.817q3.18-.041,6.361,0a4.761,4.761,0,0,1,4.783,4.806c.015.895,0,1.79.006,2.684,0,.252-.07.537.3.639a4.317,4.317,0,0,1,2.881,3.012v1.593a3.626,3.626,0,0,1-2.359,3.108c-.61.266-.462.533-.01.8a13.853,13.853,0,0,0,1.316.668,1.762,1.762,0,0,1,1.054,1.2v9.157a1.235,1.235,0,0,1-.995,1Z" transform="translate(-220.052 -202.507)"/>
        <path id="Trazado_213788" data-name="Trazado 213788" d="M63.986,0c.913.221,1.844.388,2.737.672A14.343,14.343,0,1,1,60.188.182C60.342.159,60.526.2,60.6,0Z" transform="translate(-35.325)"/>
        <path id="Trazado_213789" data-name="Trazado 213789" d="M186.47,218.774l-.344-.342c-.585-1.772,0-2.6,1.849-2.6,2.553,0,5.106-.016,7.659.005a7.906,7.906,0,0,1,7.76,7.728c.028,3.714-.008,7.428.013,11.142.018,3.142,2.339,5.225,5.728,4.927-.738-.688-1.377-1.243-1.967-1.845a1.61,1.61,0,1,1,2.245-2.288q2.309,2.262,4.571,4.572a1.584,1.584,0,0,1-.039,2.519q-2.229,2.272-4.5,4.5a1.615,1.615,0,1,1-2.238-2.3c.573-.582,1.184-1.126,1.984-1.881a11.224,11.224,0,0,1-3.286-.322,7.951,7.951,0,0,1-5.683-7.649c-.012-3.515,0-7.03,0-10.545,0-3.416-1.947-5.376-5.335-5.38-2.288,0-4.575-.007-6.863,0a3.6,3.6,0,0,1-1.549-.244" transform="translate(-136.528 -158.496)"/>
        <path id="Trazado_213790" data-name="Trazado 213790" d="M209.134,55.9c-3.764-.087-5.779,1.889-5.782,5.342,0,3.516.01,7.032,0,10.547a7.91,7.91,0,0,1-7.927,7.971c-2.553.014-5.107.006-7.66,0-1.267,0-1.936-.572-1.921-1.617.014-1.024.687-1.564,1.971-1.566,2.387,0,4.775.005,7.163,0a4.855,4.855,0,0,0,5.192-5.227c.007-3.45,0-6.9,0-10.349a7.908,7.908,0,0,1,8.185-8.312.934.934,0,0,0,.614-.206c-.617-.572-1.256-1.122-1.845-1.721a1.61,1.61,0,1,1,2.237-2.3q2.31,2.262,4.572,4.573a1.582,1.582,0,0,1-.034,2.519q-2.229,2.273-4.5,4.5a1.615,1.615,0,1,1-2.239-2.3c.573-.583,1.189-1.124,1.979-1.866" transform="translate(-136.477 -35.176)"/>
        <path id="Trazado_213791" data-name="Trazado 213791" d="M209.132,172.6c-.806-.768-1.435-1.332-2.021-1.936a1.61,1.61,0,1,1,2.257-2.277q2.309,2.263,4.571,4.573a1.57,1.57,0,0,1,.018,2.449q-2.292,2.35-4.641,4.644a1.581,1.581,0,0,1-2.309.064,1.606,1.606,0,0,1,.086-2.378c.589-.609,1.225-1.172,2.047-1.953h-1.348q-10.047,0-20.094,0c-1.18,0-1.852-.585-1.859-1.58s.657-1.6,1.834-1.6q6.914-.008,13.827,0h7.632" transform="translate(-136.476 -123.234)"/>
        <path id="Trazado_213792" data-name="Trazado 213792" d="M51.036,250.049c.118,1.822.525,2.195,2.4,2.2,1.751,0,3.5.008,5.254,0,1.36-.008,1.927-.571,1.935-1.928q.016-2.875,0-5.751c-.009-1.29-.59-1.853-1.889-1.873-.958-.015-1.915-.022-2.873-.033a7.673,7.673,0,0,1,1.985-3.122c.364-.011.729-.015,1.093-.034a1.6,1.6,0,0,0,1.682-1.692c.031-.828.026-1.657.037-2.486a29.127,29.127,0,0,1,2.551-4.1c.436-.7.9-1.381,1.369-2.055.2-.281.333-.673.8-.626a2.783,2.783,0,0,0,.87,1.3c1.126,1.03,2.214,2.1,3.361,3.108a1.609,1.609,0,0,1,.585,1.375c-.03,2.023.023,4.049-.027,6.071a2.834,2.834,0,0,0,.928,2.291c1.651,1.585,3.235,3.239,4.872,4.839a1.723,1.723,0,0,1,.6,1.378c-.037,1.89-.049,3.783,0,5.673.02.725-.224.862-.9.86q-13.434-.033-26.869.005c-.841,0-1.059-.267-.882-1.015a27.842,27.842,0,0,1,2.617-4.151.458.458,0,0,1,.5-.234" transform="translate(-35.148 -167.838)" fill="#c93c41"/>
        <path id="Trazado_213793" data-name="Trazado 213793" d="M65.387,179.519c-1.564,1.991-2.815,4.2-4.284,6.253-.131.183-.288.348-.433.522-.011-1.159-.016-2.319-.033-3.478-.019-1.3-.584-1.884-1.878-1.893q-2.883-.02-5.766,0c-1.345.008-1.96.586-1.885,1.961.053.97-.179,1.434-1.214,1.225a1.536,1.536,0,0,0-.4,0c-.512.035-1.023.074-1.535.111-.021-.593-.059-1.186-.059-1.779,0-6.562.013-13.125-.023-19.687,0-.808.236-1.011.992-.959a19.1,19.1,0,0,0,2.781,0c.805-.063,1.161.146,1.038,1.009a2.079,2.079,0,0,0,.148,1.265,1.646,1.646,0,0,0,1.618.93c5.169,0,10.338.005,15.508-.006,1.223,0,1.789-.609,1.819-1.854.032-1.326.032-1.326,1.382-1.326.828,0,1.662.058,2.484-.016.842-.077,1.065.252.876,1.007a42.481,42.481,0,0,1-3.487,5.458.66.66,0,0,1-.505.275c-2.178-.125-4.357-.041-6.536-.061a3.79,3.79,0,0,0-.4.014c-.913.088-1.452.584-1.436,1.321.015.7.528,1.175,1.4,1.244.79.062,1.584,0,2.376.028a10.958,10.958,0,0,1,2.464.109.421.421,0,0,1,.226.642,7.3,7.3,0,0,1-2.024,2.688c-.491.011-.983.014-1.473.034a1.6,1.6,0,0,0-1.716,1.722c-.029,1.081-.023,2.163-.033,3.245" transform="translate(-35.161 -118.809)" fill="#fc4b52"/>
        <path id="Trazado_213794" data-name="Trazado 213794" d="M11.951,244.287c0-2.022.013-4.044-.01-6.065a1.39,1.39,0,0,1,.455-1.132,20.816,20.816,0,0,0,2.168-2.186,3.216,3.216,0,0,1,3.114-1.225c.52.048.658.175.652.682-.024,2.287-.014,4.574-.009,6.861,0,1.239.5,1.929,1.44,2.024s1.53-.5,1.753-1.723a2.268,2.268,0,0,1,3.01-1.435c.224.128.161.339.162.525,0,1.591-.011,3.182.013,4.773a1.1,1.1,0,0,1-.445.834c-1.522,1.524-3.052,3.04-4.564,4.574a1.318,1.318,0,0,1-1.039.437c-1.988-.023-3.977-.041-5.964.007-.646.015-.758-.2-.748-.786.034-2.054.013-4.11.013-6.165" transform="translate(-8.766 -171.591)" fill="#f9c7b1"/>
        <path id="Trazado_213795" data-name="Trazado 213795" d="M167.785,314.487c0-2.585.037-5.171-.021-7.755-.019-.854.256-1.062,1.064-1.028,1.488.063,2.982.042,4.472.006.616-.015.872.123.869.811q-.04,7.954-.005,15.908c0,.563-.1.841-.753.824q-2.434-.063-4.87,0c-.64.016-.771-.236-.765-.813.024-2.651.01-5.3.01-7.954" transform="translate(-123.202 -224.501)" fill="#00587e"/>
        <path id="Trazado_213796" data-name="Trazado 213796" d="M18.322,319.757c0,2.32-.025,4.64.015,6.959.012.7-.122,1.006-.914.973-1.555-.064-3.114-.039-4.67-.008-.578.012-.816-.127-.813-.765q.035-7.208,0-14.415c0-.528.109-.779.708-.767q2.484.051,4.969,0c.6-.012.713.236.709.766-.02,2.419-.009,4.838-.009,7.257" transform="translate(-8.769 -228.931)" fill="#00587e"/>
        <path id="Trazado_213797" data-name="Trazado 213797" d="M125.924,177.331a28.746,28.746,0,0,0,1.987-3.122c.228-.317.579-.256.9-.287,1.453-.142,1.871-.82,1.349-2.2a.909.909,0,0,1-.1-.474,67.791,67.791,0,0,1,3.781-5.638q.017,8.053.028,16.1c0,.2.14.505-.176.591-.25.068-.421-.152-.588-.307-1.068-.993-2.2-1.926-3.181-3a4.318,4.318,0,0,0-4-1.671" transform="translate(-92.476 -121.622)" fill="#c93c41"/>
        <path id="Trazado_213798" data-name="Trazado 213798" d="M84.157,139.885c-1.857,0-3.715-.022-5.572.013-.569.011-.709-.164-.713-.72-.016-2.006.415-2.477,2.408-2.478,1.96,0,2.382-.425,2.384-2.392,0-.1,0-.2,0-.3.007-1.346.568-2.08,1.59-2.082s1.587.741,1.595,2.08a11.913,11.913,0,0,0,.015,1.193,1.544,1.544,0,0,0,1.47,1.484,7.121,7.121,0,0,0,.895.014c1.969,0,2.391.45,2.413,2.377.007.64-.15.842-.813.825-1.889-.047-3.781-.016-5.671-.016" transform="translate(-57.187 -96.885)" fill="#feeb00"/>
        <path id="Trazado_213799" data-name="Trazado 213799" d="M153.9,254.122c-1.566,0-2.883-.016-4.2.01a1.09,1.09,0,0,1-.843-.42c-1.542-1.549-3.083-3.1-4.639-4.633a1.215,1.215,0,0,1-.4-.952c.017-2.55.027-5.1-.005-7.651-.007-.582.184-.7.727-.7,2-.014,2.437.392,2.448,2.414.008,1.457.043,2.915.01,4.372a2.347,2.347,0,0,0,.836,1.914c1.976,1.808,3.923,3.648,6.065,5.647" transform="translate(-105.614 -176.086)" fill="#f9c7b1"/>
        <path id="Trazado_213800" data-name="Trazado 213800" d="M163.378,233.811c1.214,0,2.265.013,3.315-.008a.963.963,0,0,1,.76.375,8.406,8.406,0,0,0,1.131,1.111,5.359,5.359,0,0,1,2.177,6.311c-2.36-2.6-5.5-4.425-7.383-7.789" transform="translate(-119.982 -171.701)" fill="#f9c7b1"/>
        <path id="Trazado_213801" data-name="Trazado 213801" d="M167.9,258.011c1.645,1.537,3.234,3.024,4.826,4.508q3.271,3.05,6.545,6.1c.276.257.679.452.19.927-.4.386-.621.512-1.1.055-3.17-3.011-6.358-6.006-9.589-8.952a2.315,2.315,0,0,1-.871-2.635" transform="translate(-123.21 -189.478)" fill="#feca2e"/>
        <path id="Trazado_213802" data-name="Trazado 213802" d="M51.091,299.877c-1.026,1.2-1.749,2.606-2.686,3.865-.134.181-.288.347-.432.52-.011-1.391-.014-2.782-.037-4.173a1.088,1.088,0,0,1,.343-.878c.9-.874,1.776-1.775,2.812-2.816Z" transform="translate(-35.203 -217.666)" fill="#fc4b52"/>
        <path id="Trazado_213803" data-name="Trazado 213803" d="M73.567,245.824c1.551,0,1.551,0,1.551,1.534,0,1.651,0,1.651-1.633,1.651-1.551,0-1.551,0-1.551-1.534,0-1.651,0-1.651,1.633-1.651" transform="translate(-52.827 -180.528)" fill="#fefefe"/>
        <path id="Trazado_213804" data-name="Trazado 213804" d="M73.479,296.975c-1.545,0-1.545,0-1.545-1.541,0-1.644,0-1.644,1.64-1.644,1.545,0,1.545,0,1.545,1.541,0,1.644,0,1.644-1.64,1.644" transform="translate(-52.827 -215.754)" fill="#fefefe"/>
        <path id="Trazado_213805" data-name="Trazado 213805" d="M75.523,269.841a29,29,0,0,1-1.985,3.122c-1.6.081-1.6.081-1.6-1.56,0-1.593,0-1.6,1.607-1.592.661,0,1.321.02,1.982.03" transform="translate(-52.827 -198.144)" fill="#fc4b52"/>
        <path id="Trazado_213806" data-name="Trazado 213806" d="M128.332,223.3a8.96,8.96,0,0,1-.794.7c-.22.155-.342-.107-.472-.223q-.588-.526-1.146-1.083a.746.746,0,0,1-.1-.91c.162-.269.621-.218.81-.082a19.963,19.963,0,0,1,1.632,1.409c.041.036.042.117.066.19" transform="translate(-92.321 -162.727)" fill="#feca2e"/>
        <path id="Trazado_213807" data-name="Trazado 213807" d="M327.594,17.555c0,.762-.021,1.525.005,2.286.035,1.022-.771.733-1.184.635-.672-.159-1.788.709-1.975-.626-.133-.947.093-1.991-1.079-2.421-1.153-.423-1.761.441-2.435,1.113-.916.912-1.832,1.823-2.739,2.744-.27.274-.517.522-.926.235a6.878,6.878,0,0,0-4.744-1c-.638.054-.882-.156-.858-.825.046-1.291.034-2.585,0-3.876a.948.948,0,0,1,.618-1c1.255-.6,2.5-1.226,3.732-1.864a1.885,1.885,0,0,1,1.438-.111c1.18.317,2.4.522,3.547.918a3.948,3.948,0,0,0,3.847-.44c.6-.431.963-.183,1.519.214,1.491,1.064,1.273,2.544,1.231,4.018" transform="translate(-228.875 -9.366)" fill="#12263f"/>
        <path id="Trazado_213808" data-name="Trazado 213808" d="M325.72,49.508a2.03,2.03,0,0,0,2.13,1.19c.694-.036,1.393.022,2.087-.016.666-.036.628.253.4.7a1.656,1.656,0,0,1-1.336.9c-1.249.2-1.72.669-1.647,1.9a5.6,5.6,0,0,1-.858,2.591c-.129.3-.4.287-.674.285-.828-.005-1.657,0-2.485,0a2.243,2.243,0,0,1-2.372-2.31c-.011-.165,0-.331,0-.5-.018-1.313-.391-1.759-1.7-1.974a1.658,1.658,0,0,1-1.4-1.109c-.125-.332-.052-.45.326-.492a3.434,3.434,0,0,1,1.955.584c2.758,1.375,2.562,1.61,4.863-.776a9.283,9.283,0,0,0,.715-.979" transform="translate(-233.39 -36.358)" fill="#f9c7b1"/>
        <path id="Trazado_213809" data-name="Trazado 213809" d="M317.131,89.546c-.651,1.31-1.137,2.4-1.721,3.434-.592,1.05-.835,2.02.447,3.039-1.408,0-2.552-.017-3.695.008-.44.01-.47-.21-.467-.551.011-1.36,0-2.72.006-4.081,0-.257-.041-.494.346-.585,1.634-.383,3.259-.807,5.084-1.266" transform="translate(-228.903 -65.761)" fill="#dff7f9"/>
        <path id="Trazado_213810" data-name="Trazado 213810" d="M352.512,96c1.306-1.047,1-2.045.4-3.113-.58-1.028-1.059-2.112-1.679-3.367,1.843.462,3.5.882,5.163,1.289.276.067.26.26.261.453,0,1.426-.005,2.851.007,4.277,0,.332-.09.474-.447.468-1.146-.017-2.293-.006-3.7-.006" transform="translate(-257.936 -65.74)" fill="#dff7f9"/>
        <path id="Trazado_213811" data-name="Trazado 213811" d="M338.556,97.479a11.266,11.266,0,0,0,.807,1.549c.684.9.017,1.346-.53,1.861-.281.265-.51.109-.659-.118-.248-.377-.968-.511-.681-1.165s.637-1.282,1.063-2.127" transform="translate(-247.799 -71.587)" fill="#869495"/>
        <path id="Trazado_213812" data-name="Trazado 213812" d="M317.747,180.9a6.309,6.309,0,0,1,3.219-6.268,6.021,6.021,0,0,1,6.828.356c2,1.4,2.779,3.406,2.638,6.072-.822-1.065-1.8-.91-2.752-.915-1.328-.008-1.778-.392-2-1.682a1.589,1.589,0,0,0-3.17-.036c-.236,1.35-.667,1.709-2.065,1.719-1.647.012-1.647.012-2.7.754" transform="translate(-233.341 -127.587)" fill="#12263f"/>
        <path id="Trazado_213813" data-name="Trazado 213813" d="M332.736,211.225c-.63,0-1.261-.011-1.89,0-.918.019-1.331-.434-1.29-1.334a.9.9,0,0,0,0-.2c-.2-1.122.18-1.546,1.37-1.96a4.946,4.946,0,0,1,3.646,0c1.213.419,1.455.872,1.375,1.976-.09,1.229-.3,1.513-1.518,1.517-.564,0-1.128,0-1.691,0" transform="translate(-241.982 -152.3)" fill="#f9c7b1"/>
        <path id="Trazado_213814" data-name="Trazado 213814" d="M315.83,235.364c-1.378,0-2.468-.024-3.556.011-.489.016-.609-.152-.6-.617q.042-2.03,0-4.062c-.008-.447.142-.66.581-.743a7.266,7.266,0,0,0,.934-.318c1.253-.421,1.637-.285,2.5.729.222.26.069.415.007.614a15.505,15.505,0,0,1-.522,1.6,2.079,2.079,0,0,0,.653,2.791" transform="translate(-228.887 -168.476)" fill="#fec0c2"/>
        <path id="Trazado_213815" data-name="Trazado 213815" d="M356.086,235.043a2.057,2.057,0,0,0,.662-2.737,9.394,9.394,0,0,1-.313-.936,1.761,1.761,0,0,1,.926-2.327c.43-.2.814.1,1.2.229,1.66.535,1.658.541,1.658,2.231,0,.957-.021,1.915.009,2.872.015.48-.073.708-.635.683-1.081-.048-2.165-.014-3.51-.014" transform="translate(-261.503 -168.155)" fill="#fec0c2"/>
        <path id="Trazado_213816" data-name="Trazado 213816" d="M332.919,153.092a7.409,7.409,0,0,0-2.5.33c-.645.19-.746-.109-.712-.646a3.194,3.194,0,0,1,6.36.041c.03.6-.171.762-.756.594a6.971,6.971,0,0,0-2.391-.319" transform="translate(-242.125 -110.084)" fill="#12263f"/>
        <path id="Trazado_213817" data-name="Trazado 213817" d="M338.3,237.8c-.41-.035-1.287-1.3-1.163-1.705.184-.6.409-1.182.584-1.782.094-.324.222-.513.6-.511a.564.564,0,0,1,.624.483c.181.632.42,1.248.605,1.879.121.41-.863,1.669-1.25,1.636" transform="translate(-247.58 -171.697)" fill="#fc4b52"/>
        <path id="Trazado_213818" data-name="Trazado 213818" d="M314.956,307.48c2.743.68,5.392,1.348,8.048,1.99a14.525,14.525,0,0,0,3.88.758.728.728,0,0,1,.8.816c-.02.506-.369.716-.867.766-2.124.217-2.3.418-2.3,2.57,0,.365.01.73,0,1.094a1.016,1.016,0,0,1-1.107,1.105c-2.453.012-4.906.019-7.359,0a1.01,1.01,0,0,1-1.085-1.127c0-.6.009-1.194,0-1.791a1.638,1.638,0,0,0-1.823-1.85c-.1,0-.2,0-.3,0-.565.02-1.034-.162-1.035-.791s.455-.788,1.024-.809c1.422-.052,2-.449,2.115-1.439a11.974,11.974,0,0,0,.007-1.288" transform="translate(-228.986 -225.807)" fill="#f9c7b1"/>
        <path id="Trazado_213819" data-name="Trazado 213819" d="M333.275,290.5c0,1.621,0,1.621-1.591,1.222-2.34-.587-4.684-1.159-7.017-1.777-.328-.087-.879.058-.933-.522a1.455,1.455,0,0,1,.531-1.233,1.913,1.913,0,0,1,1.39-.412c1.789.011,3.579,0,5.368,0,1.772,0,2.247.471,2.251,2.221q0,.249,0,.5" transform="translate(-237.74 -211.338)" fill="#12263f"/>
        <path id="Trazado_213820" data-name="Trazado 213820" d="M315.721,350.491c-.036,1.691-1.818,3.126.054,4.831-1.344,0-2.48-.014-3.616.007-.422.008-.485-.2-.483-.548.011-1.459.029-2.918-.007-4.376-.015-.609.456-.648.8-.856.269-.162.526-.277.781.043a2.265,2.265,0,0,0,2.468.9" transform="translate(-228.884 -256.584)" fill="#a7e446"/>
        <path id="Trazado_213821" data-name="Trazado 213821" d="M356.375,355.444c1.822-1.687.081-3.151.005-4.786a2.678,2.678,0,0,0,2.533-.954c.38-.43,1.5.134,1.51.761.033,1.491,0,2.983.017,4.475,0,.391-.142.516-.521.51-1.115-.016-2.23-.006-3.544-.006" transform="translate(-261.715 -256.705)" fill="#a7e446"/>
        <path id="Trazado_213822" data-name="Trazado 213822" d="M338.246,357.708c-.339,0-1.325-1.161-1.23-1.5.2-.7.442-1.387.669-2.08a.505.505,0,0,1,.523-.371.542.542,0,0,1,.615.382c.223.693.472,1.379.668,2.08.094.338-.91,1.491-1.244,1.487" transform="translate(-247.493 -259.794)" fill="#64892a"/>
        <path id="Trazado_213823" data-name="Trazado 213823" d="M62.943,30.643a10.524,10.524,0,0,1-2.618-10.464,11.08,11.08,0,0,1,18.283-5.207A7.074,7.074,0,0,1,79.22,19.6,12.969,12.969,0,0,1,65.59,31.305a4.366,4.366,0,0,1-2.647-.663" transform="translate(-43.982 -8.75)" fill="#feca2e"/>
        <path id="Trazado_213824" data-name="Trazado 213824" d="M71.384,39.094a12.674,12.674,0,0,0,11.3-2.4,12.424,12.424,0,0,0,4.581-7.769,14.059,14.059,0,0,0-.219-5.5,11.087,11.087,0,1,1-15.665,15.67" transform="translate(-52.423 -17.202)" fill="#cba124"/>
        <path id="Trazado_213825" data-name="Trazado 213825" d="M112.631,308.941c-1,0-1.991.019-2.985-.006a1.592,1.592,0,1,1,.033-3.172q3.035-.03,6.07,0a1.592,1.592,0,1,1-.033,3.172c-1.028.022-2.056,0-3.085,0" transform="translate(-79.26 -224.535)"/>
        <path id="Trazado_213826" data-name="Trazado 213826" d="M110.325,251.818c1.615,0,2.358.5,2.362,1.587s-.756,1.6-2.351,1.6c-1.662,0-2.442-.53-2.41-1.638.031-1.074.767-1.549,2.4-1.548" transform="translate(-79.258 -184.93)" fill="#010000"/>
        <path id="Trazado_213827" data-name="Trazado 213827" d="M64.7,185.849c1.026,0,2.052-.021,3.077.007a1.559,1.559,0,0,1,1.684,1.673q.041,3.077,0,6.156a1.577,1.577,0,0,1-1.748,1.713q-3.027.031-6.055,0a1.575,1.575,0,0,1-1.734-1.725q-.034-3.028,0-6.057a1.6,1.6,0,0,1,1.8-1.763c.992-.018,1.985,0,2.978,0" transform="translate(-43.997 -136.479)"/>
        <path id="Trazado_213828" data-name="Trazado 213828" d="M116.839,186.1a1.694,1.694,0,0,1,.446,2.042,1.727,1.727,0,0,1-1.813.889c-.26-.011-.521.018-.782.028-1.619-.011-3.238-.017-4.857-.033-1.185-.012-1.883-.583-1.911-1.547-.029-1.006.691-1.629,1.919-1.635,1.884-.009,3.768.007,5.652-.009a3.334,3.334,0,0,1,1.345.265" transform="translate(-79.256 -136.477)"/>
        <path id="Trazado_213829" data-name="Trazado 213829" d="M99.063,27.664c0,.2,0,.4,0,.6,0,.628-.2,1.367.065,1.858.317.593,1.132.129,1.718.248a1.543,1.543,0,0,1,1.393,1.546,1.5,1.5,0,0,1-1.41,1.614c-1.155.055-2.317.057-3.473,0A1.409,1.409,0,0,1,95.9,32.071c-.045-2.183-.038-4.368-.006-6.552A1.515,1.515,0,0,1,97.5,24a1.547,1.547,0,0,1,1.555,1.584c.029.694.006,1.39.007,2.085" transform="translate(-70.404 -17.621)"/>
        <path id="Trazado_213830" data-name="Trazado 213830" d="M75.119,199.53c0,1.514,0,1.514-1.572,1.514-1.613,0-1.613,0-1.613-1.572,0-1.613,0-1.613,1.572-1.613,1.613,0,1.613,0,1.613,1.672" transform="translate(-52.827 -145.303)" fill="#fefefe"/>
      </g>
    </g>
  </g>
</svg>
