<svg xmlns="http://www.w3.org/2000/svg" xmlns:xlink="http://www.w3.org/1999/xlink" width="610" height="465.738" viewBox="0 0 610 465.738">
  <defs>
    <clipPath id="clip-path">
      <rect id="Rectángulo_88869" data-name="Rectángulo 88869" width="452.738" height="452.738" fill="#d3d0d0"/>
    </clipPath>
  </defs>
  <g id="Grupo_146846" data-name="Grupo 146846" transform="translate(-495 -789)">
    <g id="Grupo_140612" data-name="Grupo 140612" transform="translate(573.631 802)" clip-path="url(#clip-path)">
      <path id="Trazado_213831" data-name="Trazado 213831" d="M226.369,0a227.85,227.85,0,0,0-36.706,2.978c.223.4.443.807.656,1.207,4.839,9.079,7.771,19.191,11.839,28.682a196.8,196.8,0,0,1,24.211-1.5c107.694,0,195,87.3,195,195s-87.3,195-195,195-195-87.3-195-195A194.326,194.326,0,0,1,85.016,92.052l24.533,22.787,10.3-83.467L37.369,47.8,62.032,70.7A225.577,225.577,0,0,0,0,226.369c0,125.02,101.349,226.369,226.369,226.369S452.738,351.389,452.738,226.369,351.389,0,226.369,0" fill="#d3d0d0"/>
    </g>
    <g id="Trazado_219751" data-name="Trazado 219751" transform="translate(709 789)" fill="#ffedb6">
      <path d="M 169 71.5 L 21 71.5 C 18.36684989929199 71.5 15.81327533721924 70.98462677001953 13.41017532348633 69.96820068359375 C 11.08832454681396 68.98615264892578 9.002750396728516 67.57990264892578 7.211424827575684 65.78857421875 C 5.420100212097168 63.99724960327148 4.013850212097168 61.91167449951172 3.031800031661987 59.58982467651367 C 2.015374898910522 57.18672561645508 1.5 54.63314819335938 1.5 52 L 1.5 21 C 1.5 18.36684989929199 2.015374898910522 15.81327533721924 3.031800031661987 13.41017532348633 C 4.013850212097168 11.08832454681396 5.420100212097168 9.002750396728516 7.211424827575684 7.211424827575684 C 9.002750396728516 5.420100212097168 11.08832454681396 4.013850212097168 13.41017532348633 3.031800031661987 C 15.81327533721924 2.015374898910522 18.36684989929199 1.5 21 1.5 L 169 1.5 C 171.6331481933594 1.5 174.1867218017578 2.015374898910522 176.5898284912109 3.031800031661987 C 178.9116821289062 4.013850212097168 180.9972534179688 5.420100212097168 182.78857421875 7.211424827575684 C 184.5798950195312 9.002750396728516 185.9861450195312 11.08832454681396 186.9682006835938 13.41017532348633 C 187.984619140625 15.81327533721924 188.5 18.36684989929199 188.5 21 L 188.5 52 C 188.5 54.63314819335938 187.984619140625 57.18672561645508 186.9682006835938 59.58982467651367 C 185.9861450195312 61.91167449951172 184.5798950195312 63.99724960327148 182.78857421875 65.78857421875 C 180.9972534179688 67.57990264892578 178.9116821289062 68.98615264892578 176.5898284912109 69.96820068359375 C 174.1867218017578 70.98462677001953 171.6331481933594 71.5 169 71.5 Z" stroke="none"/>
      <path d="M 21 3 C 16.19203186035156 3 11.67184448242188 4.872314453125 8.272079467773438 8.272079467773438 C 4.872314453125 11.67184066772461 3 16.1920280456543 3 21 L 3 52 C 3 56.80797576904297 4.872314453125 61.32815551757812 8.272079467773438 64.72792053222656 C 11.67184448242188 68.127685546875 16.19203186035156 70 21 70 L 169 70 C 173.8079681396484 70 178.3281555175781 68.127685546875 181.7279205322266 64.72792053222656 C 185.127685546875 61.32815551757812 187 56.80797576904297 187 52 L 187 21 C 187 16.1920280456543 185.127685546875 11.67184066772461 181.7279205322266 8.272079467773438 C 178.3281555175781 4.872314453125 173.8079681396484 3 169 3 L 21 3 M 21 0 L 169 0 C 180.5979766845703 0 190 9.402027130126953 190 21 L 190 52 C 190 63.59797286987305 180.5979766845703 73 169 73 L 21 73 C 9.402023315429688 73 0 63.59797286987305 0 52 L 0 21 C 0 9.402027130126953 9.402023315429688 0 21 0 Z" stroke="none" fill="#cba124"/>
    </g>
    <g id="Trazado_219752" data-name="Trazado 219752" transform="translate(895 898)" fill="#dff7f9">
      <path d="M 169 71.5 L 21 71.5 C 18.36684989929199 71.5 15.81327533721924 70.98462677001953 13.41017532348633 69.96820068359375 C 11.08832454681396 68.98615264892578 9.002750396728516 67.57990264892578 7.211424827575684 65.78857421875 C 5.420100212097168 63.99724960327148 4.013850212097168 61.91167449951172 3.031800031661987 59.58982467651367 C 2.015374898910522 57.18672561645508 1.5 54.63314819335938 1.5 52 L 1.5 21 C 1.5 18.36684989929199 2.015374898910522 15.81327533721924 3.031800031661987 13.41017532348633 C 4.013850212097168 11.08832454681396 5.420100212097168 9.002750396728516 7.211424827575684 7.211424827575684 C 9.002750396728516 5.420100212097168 11.08832454681396 4.013850212097168 13.41017532348633 3.031800031661987 C 15.81327533721924 2.015374898910522 18.36684989929199 1.5 21 1.5 L 169 1.5 C 171.6331481933594 1.5 174.1867218017578 2.015374898910522 176.5898284912109 3.031800031661987 C 178.9116821289062 4.013850212097168 180.9972534179688 5.420100212097168 182.78857421875 7.211424827575684 C 184.5798950195312 9.002750396728516 185.9861450195312 11.08832454681396 186.9682006835938 13.41017532348633 C 187.984619140625 15.81327533721924 188.5 18.36684989929199 188.5 21 L 188.5 52 C 188.5 54.63314819335938 187.984619140625 57.18672561645508 186.9682006835938 59.58982467651367 C 185.9861450195312 61.91167449951172 184.5798950195312 63.99724960327148 182.78857421875 65.78857421875 C 180.9972534179688 67.57990264892578 178.9116821289062 68.98615264892578 176.5898284912109 69.96820068359375 C 174.1867218017578 70.98462677001953 171.6331481933594 71.5 169 71.5 Z" stroke="none"/>
      <path d="M 21 3 C 16.19203186035156 3 11.67184448242188 4.872314453125 8.272079467773438 8.272079467773438 C 4.872314453125 11.67184066772461 3 16.1920280456543 3 21 L 3 52 C 3 56.80797576904297 4.872314453125 61.32815551757812 8.272079467773438 64.72792053222656 C 11.67184448242188 68.127685546875 16.19203186035156 70 21 70 L 169 70 C 173.8079681396484 70 178.3281555175781 68.127685546875 181.7279205322266 64.72792053222656 C 185.127685546875 61.32815551757812 187 56.80797576904297 187 52 L 187 21 C 187 16.1920280456543 185.127685546875 11.67184066772461 181.7279205322266 8.272079467773438 C 178.3281555175781 4.872314453125 173.8079681396484 3 169 3 L 21 3 M 21 0 L 169 0 C 180.5979766845703 0 190 9.402027130126953 190 21 L 190 52 C 190 63.59797286987305 180.5979766845703 73 169 73 L 21 73 C 9.402023315429688 73 0 63.59797286987305 0 52 L 0 21 C 0 9.402027130126953 9.402023315429688 0 21 0 Z" stroke="none" fill="#1e99a2"/>
    </g>
    <g id="Trazado_219756" data-name="Trazado 219756" transform="translate(915 1041)" fill="#dff7f9">
      <path d="M 169 71.5 L 21 71.5 C 18.36684989929199 71.5 15.81327533721924 70.98462677001953 13.41017532348633 69.96820068359375 C 11.08832454681396 68.98615264892578 9.002750396728516 67.57990264892578 7.211424827575684 65.78857421875 C 5.420100212097168 63.99724960327148 4.013850212097168 61.91167449951172 3.031800031661987 59.58982467651367 C 2.015374898910522 57.18672561645508 1.5 54.63314819335938 1.5 52 L 1.5 21 C 1.5 18.36684989929199 2.015374898910522 15.81327533721924 3.031800031661987 13.41017532348633 C 4.013850212097168 11.08832454681396 5.420100212097168 9.002750396728516 7.211424827575684 7.211424827575684 C 9.002750396728516 5.420100212097168 11.08832454681396 4.013850212097168 13.41017532348633 3.031800031661987 C 15.81327533721924 2.015374898910522 18.36684989929199 1.5 21 1.5 L 169 1.5 C 171.6331481933594 1.5 174.1867218017578 2.015374898910522 176.5898284912109 3.031800031661987 C 178.9116821289062 4.013850212097168 180.9972534179688 5.420100212097168 182.78857421875 7.211424827575684 C 184.5798950195312 9.002750396728516 185.9861450195312 11.08832454681396 186.9682006835938 13.41017532348633 C 187.984619140625 15.81327533721924 188.5 18.36684989929199 188.5 21 L 188.5 52 C 188.5 54.63314819335938 187.984619140625 57.18672561645508 186.9682006835938 59.58982467651367 C 185.9861450195312 61.91167449951172 184.5798950195312 63.99724960327148 182.78857421875 65.78857421875 C 180.9972534179688 67.57990264892578 178.9116821289062 68.98615264892578 176.5898284912109 69.96820068359375 C 174.1867218017578 70.98462677001953 171.6331481933594 71.5 169 71.5 Z" stroke="none"/>
      <path d="M 21 3 C 16.19203186035156 3 11.67184448242188 4.872314453125 8.272079467773438 8.272079467773438 C 4.872314453125 11.67184066772461 3 16.1920280456543 3 21 L 3 52 C 3 56.80797576904297 4.872314453125 61.32815551757812 8.272079467773438 64.72792053222656 C 11.67184448242188 68.127685546875 16.19203186035156 70 21 70 L 169 70 C 173.8079681396484 70 178.3281555175781 68.127685546875 181.7279205322266 64.72792053222656 C 185.127685546875 61.32815551757812 187 56.80797576904297 187 52 L 187 21 C 187 16.1920280456543 185.127685546875 11.67184066772461 181.7279205322266 8.272079467773438 C 178.3281555175781 4.872314453125 173.8079681396484 3 169 3 L 21 3 M 21 0 L 169 0 C 180.5979766845703 0 190 9.402027130126953 190 21 L 190 52 C 190 63.59797286987305 180.5979766845703 73 169 73 L 21 73 C 9.402023315429688 73 0 63.59797286987305 0 52 L 0 21 C 0 9.402027130126953 9.402023315429688 0 21 0 Z" stroke="none" fill="#1e99a2"/>
    </g>
    <g id="Trazado_219761" data-name="Trazado 219761" transform="translate(830 1150)" fill="#dff7f9">
      <path d="M 169 71.5 L 21 71.5 C 18.36684989929199 71.5 15.81327533721924 70.98462677001953 13.41017532348633 69.96820068359375 C 11.08832454681396 68.98615264892578 9.002750396728516 67.57990264892578 7.211424827575684 65.78857421875 C 5.420100212097168 63.99724960327148 4.013850212097168 61.91167449951172 3.031800031661987 59.58982467651367 C 2.015374898910522 57.18672561645508 1.5 54.63314819335938 1.5 52 L 1.5 21 C 1.5 18.36684989929199 2.015374898910522 15.81327533721924 3.031800031661987 13.41017532348633 C 4.013850212097168 11.08832454681396 5.420100212097168 9.002750396728516 7.211424827575684 7.211424827575684 C 9.002750396728516 5.420100212097168 11.08832454681396 4.013850212097168 13.41017532348633 3.031800031661987 C 15.81327533721924 2.015374898910522 18.36684989929199 1.5 21 1.5 L 169 1.5 C 171.6331481933594 1.5 174.1867218017578 2.015374898910522 176.5898284912109 3.031800031661987 C 178.9116821289062 4.013850212097168 180.9972534179688 5.420100212097168 182.78857421875 7.211424827575684 C 184.5798950195312 9.002750396728516 185.9861450195312 11.08832454681396 186.9682006835938 13.41017532348633 C 187.984619140625 15.81327533721924 188.5 18.36684989929199 188.5 21 L 188.5 52 C 188.5 54.63314819335938 187.984619140625 57.18672561645508 186.9682006835938 59.58982467651367 C 185.9861450195312 61.91167449951172 184.5798950195312 63.99724960327148 182.78857421875 65.78857421875 C 180.9972534179688 67.57990264892578 178.9116821289062 68.98615264892578 176.5898284912109 69.96820068359375 C 174.1867218017578 70.98462677001953 171.6331481933594 71.5 169 71.5 Z" stroke="none"/>
      <path d="M 21 3 C 16.19203186035156 3 11.67184448242188 4.872314453125 8.272079467773438 8.272079467773438 C 4.872314453125 11.67184066772461 3 16.1920280456543 3 21 L 3 52 C 3 56.80797576904297 4.872314453125 61.32815551757812 8.272079467773438 64.72792053222656 C 11.67184448242188 68.127685546875 16.19203186035156 70 21 70 L 169 70 C 173.8079681396484 70 178.3281555175781 68.127685546875 181.7279205322266 64.72792053222656 C 185.127685546875 61.32815551757812 187 56.80797576904297 187 52 L 187 21 C 187 16.1920280456543 185.127685546875 11.67184066772461 181.7279205322266 8.272079467773438 C 178.3281555175781 4.872314453125 173.8079681396484 3 169 3 L 21 3 M 21 0 L 169 0 C 180.5979766845703 0 190 9.402027130126953 190 21 L 190 52 C 190 63.59797286987305 180.5979766845703 73 169 73 L 21 73 C 9.402023315429688 73 0 63.59797286987305 0 52 L 0 21 C 0 9.402027130126953 9.402023315429688 0 21 0 Z" stroke="none" fill="#1e99a2"/>
    </g>
    <g id="Trazado_219762" data-name="Trazado 219762" transform="translate(600 1161)" fill="#f2fbe3">
      <path d="M 169 71.5 L 21 71.5 C 18.36684989929199 71.5 15.81327533721924 70.98462677001953 13.41017532348633 69.96820068359375 C 11.08832454681396 68.98615264892578 9.002750396728516 67.57990264892578 7.211424827575684 65.78857421875 C 5.420100212097168 63.99724960327148 4.013850212097168 61.91167449951172 3.031800031661987 59.58982467651367 C 2.015374898910522 57.18672561645508 1.5 54.63314819335938 1.5 52 L 1.5 21 C 1.5 18.36684989929199 2.015374898910522 15.81327533721924 3.031800031661987 13.41017532348633 C 4.013850212097168 11.08832454681396 5.420100212097168 9.002750396728516 7.211424827575684 7.211424827575684 C 9.002750396728516 5.420100212097168 11.08832454681396 4.013850212097168 13.41017532348633 3.031800031661987 C 15.81327533721924 2.015374898910522 18.36684989929199 1.5 21 1.5 L 169 1.5 C 171.6331481933594 1.5 174.1867218017578 2.015374898910522 176.5898284912109 3.031800031661987 C 178.9116821289062 4.013850212097168 180.9972534179688 5.420100212097168 182.78857421875 7.211424827575684 C 184.5798950195312 9.002750396728516 185.9861450195312 11.08832454681396 186.9682006835938 13.41017532348633 C 187.984619140625 15.81327533721924 188.5 18.36684989929199 188.5 21 L 188.5 52 C 188.5 54.63314819335938 187.984619140625 57.18672561645508 186.9682006835938 59.58982467651367 C 185.9861450195312 61.91167449951172 184.5798950195312 63.99724960327148 182.78857421875 65.78857421875 C 180.9972534179688 67.57990264892578 178.9116821289062 68.98615264892578 176.5898284912109 69.96820068359375 C 174.1867218017578 70.98462677001953 171.6331481933594 71.5 169 71.5 Z" stroke="none"/>
      <path d="M 21 3 C 16.19203186035156 3 11.67184448242188 4.872314453125 8.272079467773438 8.272079467773438 C 4.872314453125 11.67184066772461 3 16.1920280456543 3 21 L 3 52 C 3 56.80797576904297 4.872314453125 61.32815551757812 8.272079467773438 64.72792053222656 C 11.67184448242188 68.127685546875 16.19203186035156 70 21 70 L 169 70 C 173.8079681396484 70 178.3281555175781 68.127685546875 181.7279205322266 64.72792053222656 C 185.127685546875 61.32815551757812 187 56.80797576904297 187 52 L 187 21 C 187 16.1920280456543 185.127685546875 11.67184066772461 181.7279205322266 8.272079467773438 C 178.3281555175781 4.872314453125 173.8079681396484 3 169 3 L 21 3 M 21 0 L 169 0 C 180.5979766845703 0 190 9.402027130126953 190 21 L 190 52 C 190 63.59797286987305 180.5979766845703 73 169 73 L 21 73 C 9.402023315429688 73 0 63.59797286987305 0 52 L 0 21 C 0 9.402027130126953 9.402023315429688 0 21 0 Z" stroke="none" fill="#a7e446"/>
    </g>
    <g id="Trazado_219757" data-name="Trazado 219757" transform="translate(495 1052)" fill="#f2fbe3">
      <path d="M 169 71.5 L 21 71.5 C 18.36684989929199 71.5 15.81327533721924 70.98462677001953 13.41017532348633 69.96820068359375 C 11.08832454681396 68.98615264892578 9.002750396728516 67.57990264892578 7.211424827575684 65.78857421875 C 5.420100212097168 63.99724960327148 4.013850212097168 61.91167449951172 3.031800031661987 59.58982467651367 C 2.015374898910522 57.18672561645508 1.5 54.63314819335938 1.5 52 L 1.5 21 C 1.5 18.36684989929199 2.015374898910522 15.81327533721924 3.031800031661987 13.41017532348633 C 4.013850212097168 11.08832454681396 5.420100212097168 9.002750396728516 7.211424827575684 7.211424827575684 C 9.002750396728516 5.420100212097168 11.08832454681396 4.013850212097168 13.41017532348633 3.031800031661987 C 15.81327533721924 2.015374898910522 18.36684989929199 1.5 21 1.5 L 169 1.5 C 171.6331481933594 1.5 174.1867218017578 2.015374898910522 176.5898284912109 3.031800031661987 C 178.9116821289062 4.013850212097168 180.9972534179688 5.420100212097168 182.78857421875 7.211424827575684 C 184.5798950195312 9.002750396728516 185.9861450195312 11.08832454681396 186.9682006835938 13.41017532348633 C 187.984619140625 15.81327533721924 188.5 18.36684989929199 188.5 21 L 188.5 52 C 188.5 54.63314819335938 187.984619140625 57.18672561645508 186.9682006835938 59.58982467651367 C 185.9861450195312 61.91167449951172 184.5798950195312 63.99724960327148 182.78857421875 65.78857421875 C 180.9972534179688 67.57990264892578 178.9116821289062 68.98615264892578 176.5898284912109 69.96820068359375 C 174.1867218017578 70.98462677001953 171.6331481933594 71.5 169 71.5 Z" stroke="none"/>
      <path d="M 21 3 C 16.19203186035156 3 11.67184448242188 4.872314453125 8.272079467773438 8.272079467773438 C 4.872314453125 11.67184066772461 3 16.1920280456543 3 21 L 3 52 C 3 56.80797576904297 4.872314453125 61.32815551757812 8.272079467773438 64.72792053222656 C 11.67184448242188 68.127685546875 16.19203186035156 70 21 70 L 169 70 C 173.8079681396484 70 178.3281555175781 68.127685546875 181.7279205322266 64.72792053222656 C 185.127685546875 61.32815551757812 187 56.80797576904297 187 52 L 187 21 C 187 16.1920280456543 185.127685546875 11.67184066772461 181.7279205322266 8.272079467773438 C 178.3281555175781 4.872314453125 173.8079681396484 3 169 3 L 21 3 M 21 0 L 169 0 C 180.5979766845703 0 190 9.402027130126953 190 21 L 190 52 C 190 63.59797286987305 180.5979766845703 73 169 73 L 21 73 C 9.402023315429688 73 0 63.59797286987305 0 52 L 0 21 C 0 9.402027130126953 9.402023315429688 0 21 0 Z" stroke="none" fill="#a7e446"/>
    </g>
    <g id="Trazado_219755" data-name="Trazado 219755" transform="translate(497 929)" fill="#f2fbe3">
      <path d="M 169 71.5 L 21 71.5 C 18.36684989929199 71.5 15.81327533721924 70.98462677001953 13.41017532348633 69.96820068359375 C 11.08832454681396 68.98615264892578 9.002750396728516 67.57990264892578 7.211424827575684 65.78857421875 C 5.420100212097168 63.99724960327148 4.013850212097168 61.91167449951172 3.031800031661987 59.58982467651367 C 2.015374898910522 57.18672561645508 1.5 54.63314819335938 1.5 52 L 1.5 21 C 1.5 18.36684989929199 2.015374898910522 15.81327533721924 3.031800031661987 13.41017532348633 C 4.013850212097168 11.08832454681396 5.420100212097168 9.002750396728516 7.211424827575684 7.211424827575684 C 9.002750396728516 5.420100212097168 11.08832454681396 4.013850212097168 13.41017532348633 3.031800031661987 C 15.81327533721924 2.015374898910522 18.36684989929199 1.5 21 1.5 L 169 1.5 C 171.6331481933594 1.5 174.1867218017578 2.015374898910522 176.5898284912109 3.031800031661987 C 178.9116821289062 4.013850212097168 180.9972534179688 5.420100212097168 182.78857421875 7.211424827575684 C 184.5798950195312 9.002750396728516 185.9861450195312 11.08832454681396 186.9682006835938 13.41017532348633 C 187.984619140625 15.81327533721924 188.5 18.36684989929199 188.5 21 L 188.5 52 C 188.5 54.63314819335938 187.984619140625 57.18672561645508 186.9682006835938 59.58982467651367 C 185.9861450195312 61.91167449951172 184.5798950195312 63.99724960327148 182.78857421875 65.78857421875 C 180.9972534179688 67.57990264892578 178.9116821289062 68.98615264892578 176.5898284912109 69.96820068359375 C 174.1867218017578 70.98462677001953 171.6331481933594 71.5 169 71.5 Z" stroke="none"/>
      <path d="M 21 3 C 16.19203186035156 3 11.67184448242188 4.872314453125 8.272079467773438 8.272079467773438 C 4.872314453125 11.67184066772461 3 16.1920280456543 3 21 L 3 52 C 3 56.80797576904297 4.872314453125 61.32815551757812 8.272079467773438 64.72792053222656 C 11.67184448242188 68.127685546875 16.19203186035156 70 21 70 L 169 70 C 173.8079681396484 70 178.3281555175781 68.127685546875 181.7279205322266 64.72792053222656 C 185.127685546875 61.32815551757812 187 56.80797576904297 187 52 L 187 21 C 187 16.1920280456543 185.127685546875 11.67184066772461 181.7279205322266 8.272079467773438 C 178.3281555175781 4.872314453125 173.8079681396484 3 169 3 L 21 3 M 21 0 L 169 0 C 180.5979766845703 0 190 9.402027130126953 190 21 L 190 52 C 190 63.59797286987305 180.5979766845703 73 169 73 L 21 73 C 9.402023315429688 73 0 63.59797286987305 0 52 L 0 21 C 0 9.402027130126953 9.402023315429688 0 21 0 Z" stroke="none" fill="#a7e446"/>
    </g>
    <path id="Trazado_219753" data-name="Trazado 219753" d="M.967,0V-12.8H5.089a6.064,6.064,0,0,1,3.05.769,5.406,5.406,0,0,1,2.114,2.171,6.554,6.554,0,0,1,.769,3.142v.589a6.592,6.592,0,0,1-.743,3.151A5.429,5.429,0,0,1,8.187-.8a5.93,5.93,0,0,1-3.01.8ZM4.052-10.415v8.042H5.124a2.4,2.4,0,0,0,2.039-.945,4.63,4.63,0,0,0,.712-2.808V-6.68a4.592,4.592,0,0,0-.712-2.795,2.442,2.442,0,0,0-2.074-.94ZM17.068.176a4.889,4.889,0,0,1-3.542-1.305,4.507,4.507,0,0,1-1.354-3.4v-.246a5.84,5.84,0,0,1,.541-2.575,3.955,3.955,0,0,1,1.578-1.727,4.763,4.763,0,0,1,2.461-.611,4.117,4.117,0,0,1,3.164,1.244,4.887,4.887,0,0,1,1.16,3.467v1.151H15.188a2.135,2.135,0,0,0,.694,1.257,2.066,2.066,0,0,0,1.389.457,2.662,2.662,0,0,0,2.2-.984l1.354,1.6A3.784,3.784,0,0,1,19.252-.277,5.3,5.3,0,0,1,17.068.176ZM16.734-7.4q-1.3,0-1.547,1.723h2.988v-.229a1.467,1.467,0,0,0-.36-1.1A1.434,1.434,0,0,0,16.734-7.4ZM22.957,0V-7.453h-1.38V-9.51h1.38v-.316a3.631,3.631,0,0,1,1.248-2.909,4.987,4.987,0,0,1,3.243-.949,11.509,11.509,0,0,1,3.094.51l-.4,2.338-.492-.132a7.832,7.832,0,0,0-2.021-.255q-1.7,0-1.7,1.547v.167h1.863v2.057H25.928V0ZM31.9,0H28.925V-9.51H31.9Zm4.526-9.51.1,1.116a3.225,3.225,0,0,1,2.716-1.292,2.713,2.713,0,0,1,2.219.888,4.226,4.226,0,0,1,.76,2.672V0H39.252V-6a1.6,1.6,0,0,0-.29-1.059A1.342,1.342,0,0,0,37.907-7.4a1.413,1.413,0,0,0-1.292.686V0H33.653V-9.51ZM46.986,0H44.016V-9.51h2.971ZM43.84-11.962A1.322,1.322,0,0,1,44.3-13a1.724,1.724,0,0,1,1.187-.4,1.724,1.724,0,0,1,1.187.4,1.322,1.322,0,0,1,.457,1.037,1.322,1.322,0,0,1-.457,1.037,1.724,1.724,0,0,1-1.187.4,1.724,1.724,0,0,1-1.187-.4A1.322,1.322,0,0,1,43.84-11.962ZM54.563-6.829l-.976-.07a1.752,1.752,0,0,0-1.793.879V0H48.832V-9.51h2.777l.1,1.222a2.294,2.294,0,0,1,2.083-1.4,2.888,2.888,0,0,1,.826.105Zm5.177,1.986a5.613,5.613,0,0,1,.554-2.536,3.96,3.96,0,0,1,1.591-1.709,4.791,4.791,0,0,1,2.435-.6,4.373,4.373,0,0,1,3.366,1.323,5.076,5.076,0,0,1,1.23,3.6v.105A4.925,4.925,0,0,1,67.68-1.129,4.384,4.384,0,0,1,64.336.176a4.434,4.434,0,0,1-3.261-1.217,4.761,4.761,0,0,1-1.327-3.3Zm2.962.185a3.538,3.538,0,0,0,.413,1.934,1.376,1.376,0,0,0,1.222.615q1.582,0,1.617-2.435v-.3q0-2.558-1.635-2.558-1.485,0-1.608,2.206Zm16.348-.018a5.8,5.8,0,0,1-.967,3.595A3.238,3.238,0,0,1,75.357.176,2.81,2.81,0,0,1,73.02-.976L72.9,0H70.242V-13.5H73.2v4.755a2.711,2.711,0,0,1,2.136-.94,3.239,3.239,0,0,1,2.742,1.274,5.826,5.826,0,0,1,.967,3.586Zm-2.971-.189a3.866,3.866,0,0,0-.365-1.952A1.229,1.229,0,0,0,74.593-7.4a1.418,1.418,0,0,0-1.389.763v3.773a1.426,1.426,0,0,0,1.406.755,1.258,1.258,0,0,0,1.327-1.018A7.309,7.309,0,0,0,76.078-4.865ZM83.54-9.51V.325a3.452,3.452,0,0,1-.967,2.6,3.714,3.714,0,0,1-2.672.914,6.308,6.308,0,0,1-1.4-.149V1.45a5.667,5.667,0,0,0,.835.079A1.084,1.084,0,0,0,80.569.308V-9.51Zm-3.19-2.452A1.322,1.322,0,0,1,80.807-13a1.724,1.724,0,0,1,1.187-.4,1.724,1.724,0,0,1,1.187.4,1.322,1.322,0,0,1,.457,1.037,1.322,1.322,0,0,1-.457,1.037,1.724,1.724,0,0,1-1.187.4,1.724,1.724,0,0,1-1.187-.4A1.322,1.322,0,0,1,80.35-11.962ZM89.815.176a4.889,4.889,0,0,1-3.542-1.305,4.507,4.507,0,0,1-1.354-3.4v-.246a5.84,5.84,0,0,1,.541-2.575,3.955,3.955,0,0,1,1.578-1.727A4.763,4.763,0,0,1,89.5-9.686a4.117,4.117,0,0,1,3.164,1.244,4.887,4.887,0,0,1,1.16,3.467v1.151H87.935a2.135,2.135,0,0,0,.694,1.257,2.066,2.066,0,0,0,1.389.457,2.662,2.662,0,0,0,2.2-.984l1.354,1.6A3.784,3.784,0,0,1,92-.277,5.3,5.3,0,0,1,89.815.176ZM89.481-7.4q-1.3,0-1.547,1.723h2.988v-.229a1.467,1.467,0,0,0-.36-1.1A1.434,1.434,0,0,0,89.481-7.4Zm8.982-4.474V-9.51h1.564v2.057H98.464V-3.1a1.111,1.111,0,0,0,.193.747,1.037,1.037,0,0,0,.765.211,4.345,4.345,0,0,0,.738-.053V-.079a5.466,5.466,0,0,1-1.67.255,3.1,3.1,0,0,1-2.259-.721A2.954,2.954,0,0,1,95.5-2.733v-4.72H94.289V-9.51H95.5v-2.364ZM104.317,0h-2.971V-9.51h2.971Zm-3.146-11.962A1.322,1.322,0,0,1,101.628-13a1.724,1.724,0,0,1,1.187-.4A1.724,1.724,0,0,1,104-13a1.322,1.322,0,0,1,.457,1.037A1.322,1.322,0,0,1,104-10.925a1.724,1.724,0,0,1-1.187.4,1.724,1.724,0,0,1-1.187-.4A1.322,1.322,0,0,1,101.171-11.962Zm8.763,8.438,1.5-5.985h3.12L111.454,0h-3.023l-3.1-9.51h3.129Zm5-1.318a5.613,5.613,0,0,1,.554-2.536,3.96,3.96,0,0,1,1.591-1.709,4.791,4.791,0,0,1,2.435-.6,4.373,4.373,0,0,1,3.366,1.323,5.076,5.076,0,0,1,1.23,3.6v.105a4.925,4.925,0,0,1-1.235,3.529A4.384,4.384,0,0,1,119.531.176a4.434,4.434,0,0,1-3.261-1.217,4.761,4.761,0,0,1-1.327-3.3Zm2.962.185a3.538,3.538,0,0,0,.413,1.934,1.376,1.376,0,0,0,1.222.615q1.582,0,1.617-2.435v-.3q0-2.558-1.635-2.558-1.485,0-1.608,2.206Zm12.5,1.986a.684.684,0,0,0-.4-.606,6.016,6.016,0,0,0-1.5-.475,6.853,6.853,0,0,1-1.828-.646,3.062,3.062,0,0,1-1.1-.971,2.319,2.319,0,0,1-.378-1.31,2.628,2.628,0,0,1,1.081-2.158,4.453,4.453,0,0,1,2.83-.848,4.934,4.934,0,0,1,3.023.853,2.666,2.666,0,0,1,1.143,2.241H130.3q0-1.143-1.2-1.143a1.194,1.194,0,0,0-.782.259.8.8,0,0,0-.316.646.737.737,0,0,0,.387.642,3.654,3.654,0,0,0,1.235.4,10.671,10.671,0,0,1,1.49.378,2.706,2.706,0,0,1,2.145,2.646A2.491,2.491,0,0,1,132.1-.642,5.068,5.068,0,0,1,129.1.176a5.172,5.172,0,0,1-2.18-.439,3.645,3.645,0,0,1-1.494-1.2,2.707,2.707,0,0,1-.536-1.591h2.769a1.145,1.145,0,0,0,.439.962,1.808,1.808,0,0,0,1.081.3,1.422,1.422,0,0,0,.91-.246A.787.787,0,0,0,130.395-2.672Z" transform="translate(737 833)" fill="#12263f"/>
    <path id="Trazado_219754" data-name="Trazado 219754" d="M4.052-4.342V0H.967V-12.8H6.073a5.948,5.948,0,0,1,2.6.541,4.074,4.074,0,0,1,1.749,1.538,4.2,4.2,0,0,1,.62,2.263A3.7,3.7,0,0,1,9.7-5.462,5.561,5.561,0,0,1,6.021-4.342Zm0-2.382H6.073A1.906,1.906,0,0,0,7.44-7.172a1.665,1.665,0,0,0,.47-1.266A2.059,2.059,0,0,0,7.427-9.87a1.712,1.712,0,0,0-1.318-.545H4.052ZM18.3-6.829l-.976-.07a1.752,1.752,0,0,0-1.793.879V0H12.568V-9.51h2.777l.1,1.222a2.294,2.294,0,0,1,2.083-1.4,2.888,2.888,0,0,1,.826.105ZM22.491,0H19.521V-9.51h2.971ZM19.345-11.962A1.322,1.322,0,0,1,19.8-13a1.724,1.724,0,0,1,1.187-.4,1.724,1.724,0,0,1,1.187.4,1.322,1.322,0,0,1,.457,1.037,1.322,1.322,0,0,1-.457,1.037,1.724,1.724,0,0,1-1.187.4,1.724,1.724,0,0,1-1.187-.4A1.322,1.322,0,0,1,19.345-11.962Zm4.6,7.119A5.613,5.613,0,0,1,24.5-7.378a3.96,3.96,0,0,1,1.591-1.709,4.791,4.791,0,0,1,2.435-.6,4.373,4.373,0,0,1,3.366,1.323,5.076,5.076,0,0,1,1.23,3.6v.105a4.925,4.925,0,0,1-1.235,3.529A4.384,4.384,0,0,1,28.538.176a4.434,4.434,0,0,1-3.261-1.217,4.761,4.761,0,0,1-1.327-3.3Zm2.962.185a3.538,3.538,0,0,0,.413,1.934,1.376,1.376,0,0,0,1.222.615q1.582,0,1.617-2.435v-.3q0-2.558-1.635-2.558-1.485,0-1.608,2.206ZM40.175-6.829,39.2-6.9a1.752,1.752,0,0,0-1.793.879V0H34.444V-9.51h2.777l.1,1.222a2.294,2.294,0,0,1,2.083-1.4,2.888,2.888,0,0,1,.826.105ZM44.367,0H41.4V-9.51h2.971ZM41.221-11.962A1.322,1.322,0,0,1,41.678-13a1.724,1.724,0,0,1,1.187-.4,1.724,1.724,0,0,1,1.187.4,1.322,1.322,0,0,1,.457,1.037,1.322,1.322,0,0,1-.457,1.037,1.724,1.724,0,0,1-1.187.4,1.724,1.724,0,0,1-1.187-.4A1.322,1.322,0,0,1,41.221-11.962Zm8.464,9.677h4.333V0H45.94V-1.652l4.219-5.572H46.125V-9.51h7.8v1.6ZM60.812,0a3.344,3.344,0,0,1-.281-.853A2.754,2.754,0,0,1,58.245.176,3.374,3.374,0,0,1,55.96-.637a2.588,2.588,0,0,1-.94-2.043,2.66,2.66,0,0,1,1.143-2.338,5.821,5.821,0,0,1,3.322-.791H60.4v-.5q0-1.316-1.134-1.316A.927.927,0,0,0,58.21-6.587H55.248a2.655,2.655,0,0,1,1.173-2.239,4.931,4.931,0,0,1,2.993-.86,4.323,4.323,0,0,1,2.874.888,3.086,3.086,0,0,1,1.081,2.435v4.21a4.311,4.311,0,0,0,.4,2V0ZM58.957-1.934a1.652,1.652,0,0,0,.918-.237,1.487,1.487,0,0,0,.523-.536V-4.228h-.861q-1.547,0-1.547,1.389a.848.848,0,0,0,.272.655A.986.986,0,0,0,58.957-1.934Zm11.8-4.9-.976-.07a1.752,1.752,0,0,0-1.793.879V0H65.03V-9.51h2.777l.1,1.222a2.294,2.294,0,0,1,2.083-1.4,2.888,2.888,0,0,1,.826.105Zm5.177,1.986a5.613,5.613,0,0,1,.554-2.536,3.96,3.96,0,0,1,1.591-1.709,4.791,4.791,0,0,1,2.435-.6,4.373,4.373,0,0,1,3.366,1.323,5.076,5.076,0,0,1,1.23,3.6v.105a4.925,4.925,0,0,1-1.235,3.529A4.384,4.384,0,0,1,80.534.176a4.434,4.434,0,0,1-3.261-1.217,4.761,4.761,0,0,1-1.327-3.3Zm2.962.185a3.538,3.538,0,0,0,.413,1.934,1.376,1.376,0,0,0,1.222.615q1.582,0,1.617-2.435v-.3q0-2.558-1.635-2.558-1.485,0-1.608,2.206Zm16.348-.018a5.8,5.8,0,0,1-.967,3.595A3.238,3.238,0,0,1,91.556.176,2.81,2.81,0,0,1,89.218-.976L89.095,0H86.44V-13.5H89.4v4.755a2.711,2.711,0,0,1,2.136-.94A3.239,3.239,0,0,1,94.28-8.411a5.826,5.826,0,0,1,.967,3.586Zm-2.971-.189a3.866,3.866,0,0,0-.365-1.952A1.229,1.229,0,0,0,90.791-7.4a1.418,1.418,0,0,0-1.389.763v3.773a1.426,1.426,0,0,0,1.406.755,1.258,1.258,0,0,0,1.327-1.018A7.309,7.309,0,0,0,92.276-4.865ZM99.738-9.51V.325a3.452,3.452,0,0,1-.967,2.6,3.714,3.714,0,0,1-2.672.914,6.308,6.308,0,0,1-1.4-.149V1.45a5.667,5.667,0,0,0,.835.079A1.084,1.084,0,0,0,96.768.308V-9.51Zm-3.19-2.452A1.322,1.322,0,0,1,97-13a1.724,1.724,0,0,1,1.187-.4,1.724,1.724,0,0,1,1.187.4,1.322,1.322,0,0,1,.457,1.037,1.322,1.322,0,0,1-.457,1.037,1.724,1.724,0,0,1-1.187.4,1.724,1.724,0,0,1-1.187-.4A1.322,1.322,0,0,1,96.548-11.962ZM106.014.176a4.889,4.889,0,0,1-3.542-1.305,4.507,4.507,0,0,1-1.354-3.4v-.246a5.84,5.84,0,0,1,.541-2.575,3.955,3.955,0,0,1,1.578-1.727,4.763,4.763,0,0,1,2.461-.611,4.117,4.117,0,0,1,3.164,1.244,4.887,4.887,0,0,1,1.16,3.467v1.151h-5.889a2.135,2.135,0,0,0,.694,1.257,2.066,2.066,0,0,0,1.389.457,2.662,2.662,0,0,0,2.2-.984l1.354,1.6A3.784,3.784,0,0,1,108.2-.277,5.3,5.3,0,0,1,106.014.176ZM105.68-7.4q-1.3,0-1.547,1.723h2.988v-.229a1.467,1.467,0,0,0-.36-1.1A1.434,1.434,0,0,0,105.68-7.4Zm8.982-4.474V-9.51h1.564v2.057h-1.564V-3.1a1.111,1.111,0,0,0,.193.747,1.037,1.037,0,0,0,.765.211,4.345,4.345,0,0,0,.738-.053V-.079a5.466,5.466,0,0,1-1.67.255,3.1,3.1,0,0,1-2.259-.721,2.954,2.954,0,0,1-.729-2.188v-4.72h-1.213V-9.51H111.7v-2.364ZM120.516,0h-2.971V-9.51h2.971Zm-3.146-11.962A1.322,1.322,0,0,1,117.826-13a1.724,1.724,0,0,1,1.187-.4,1.724,1.724,0,0,1,1.187.4,1.322,1.322,0,0,1,.457,1.037,1.322,1.322,0,0,1-.457,1.037,1.724,1.724,0,0,1-1.187.4,1.724,1.724,0,0,1-1.187-.4A1.322,1.322,0,0,1,117.369-11.962Zm8.763,8.438,1.5-5.985h3.12L127.652,0h-3.023l-3.1-9.51h3.129Zm5-1.318a5.613,5.613,0,0,1,.554-2.536,3.96,3.96,0,0,1,1.591-1.709,4.791,4.791,0,0,1,2.435-.6,4.373,4.373,0,0,1,3.366,1.323,5.076,5.076,0,0,1,1.23,3.6v.105a4.925,4.925,0,0,1-1.235,3.529A4.384,4.384,0,0,1,135.729.176a4.434,4.434,0,0,1-3.261-1.217,4.761,4.761,0,0,1-1.327-3.3Zm2.962.185a3.538,3.538,0,0,0,.413,1.934,1.376,1.376,0,0,0,1.222.615q1.582,0,1.617-2.435v-.3q0-2.558-1.635-2.558-1.485,0-1.608,2.206Zm12.5,1.986a.684.684,0,0,0-.4-.606,6.016,6.016,0,0,0-1.5-.475,6.853,6.853,0,0,1-1.828-.646,3.062,3.062,0,0,1-1.1-.971,2.319,2.319,0,0,1-.378-1.31,2.628,2.628,0,0,1,1.081-2.158,4.453,4.453,0,0,1,2.83-.848,4.934,4.934,0,0,1,3.023.853,2.666,2.666,0,0,1,1.143,2.241H146.5q0-1.143-1.2-1.143a1.194,1.194,0,0,0-.782.259.8.8,0,0,0-.316.646.737.737,0,0,0,.387.642,3.654,3.654,0,0,0,1.235.4,10.671,10.671,0,0,1,1.49.378,2.706,2.706,0,0,1,2.145,2.646,2.491,2.491,0,0,1-1.156,2.118A5.068,5.068,0,0,1,145.3.176a5.172,5.172,0,0,1-2.18-.439,3.645,3.645,0,0,1-1.494-1.2,2.707,2.707,0,0,1-.536-1.591h2.769a1.145,1.145,0,0,0,.439.962,1.808,1.808,0,0,0,1.081.3,1.422,1.422,0,0,0,.91-.246A.787.787,0,0,0,146.593-2.672Z" transform="translate(915 942)" fill="#12263f"/>
    <path id="Trazado_219758" data-name="Trazado 219758" d="M-56.373,0V-12.8h4.122a6.064,6.064,0,0,1,3.05.769,5.406,5.406,0,0,1,2.114,2.171,6.554,6.554,0,0,1,.769,3.142v.589a6.592,6.592,0,0,1-.743,3.151A5.429,5.429,0,0,1-49.153-.8a5.93,5.93,0,0,1-3.01.8Zm3.085-10.415v8.042h1.072a2.4,2.4,0,0,0,2.039-.945,4.63,4.63,0,0,0,.712-2.808V-6.68a4.592,4.592,0,0,0-.712-2.795,2.442,2.442,0,0,0-2.074-.94ZM-40.271.176a4.889,4.889,0,0,1-3.542-1.305,4.507,4.507,0,0,1-1.354-3.4v-.246a5.84,5.84,0,0,1,.541-2.575,3.955,3.955,0,0,1,1.578-1.727,4.763,4.763,0,0,1,2.461-.611,4.117,4.117,0,0,1,3.164,1.244,4.887,4.887,0,0,1,1.16,3.467v1.151h-5.889a2.135,2.135,0,0,0,.694,1.257,2.066,2.066,0,0,0,1.389.457,2.662,2.662,0,0,0,2.2-.984l1.354,1.6A3.784,3.784,0,0,1-38.087-.277,5.3,5.3,0,0,1-40.271.176ZM-40.605-7.4q-1.3,0-1.547,1.723h2.988v-.229a1.467,1.467,0,0,0-.36-1.1A1.434,1.434,0,0,0-40.605-7.4Zm8.982-4.474V-9.51h1.564v2.057h-1.564V-3.1a1.111,1.111,0,0,0,.193.747,1.037,1.037,0,0,0,.765.211,4.345,4.345,0,0,0,.738-.053V-.079A5.466,5.466,0,0,1-31.6.176a3.1,3.1,0,0,1-2.259-.721,2.954,2.954,0,0,1-.729-2.188v-4.72H-35.8V-9.51h1.213v-2.364Zm7.33,12.05a4.889,4.889,0,0,1-3.542-1.305,4.507,4.507,0,0,1-1.354-3.4v-.246a5.84,5.84,0,0,1,.541-2.575A3.955,3.955,0,0,1-27.07-9.075a4.763,4.763,0,0,1,2.461-.611,4.117,4.117,0,0,1,3.164,1.244,4.887,4.887,0,0,1,1.16,3.467v1.151h-5.889a2.135,2.135,0,0,0,.694,1.257,2.066,2.066,0,0,0,1.389.457,2.662,2.662,0,0,0,2.2-.984l1.354,1.6A3.784,3.784,0,0,1-22.109-.277,5.3,5.3,0,0,1-24.293.176ZM-24.627-7.4q-1.3,0-1.547,1.723h2.988v-.229a1.467,1.467,0,0,0-.36-1.1A1.434,1.434,0,0,0-24.627-7.4Zm11.285.571-.976-.07a1.752,1.752,0,0,0-1.793.879V0h-2.962V-9.51h2.777l.1,1.222a2.294,2.294,0,0,1,2.083-1.4,2.888,2.888,0,0,1,.826.105ZM-9.475-9.51l.1,1.116A3.27,3.27,0,0,1-6.662-9.686,2.407,2.407,0,0,1-4.228-8.253,3.165,3.165,0,0,1-1.433-9.686q2.892,0,2.971,3.5V0H-1.433V-6a1.813,1.813,0,0,0-.246-1.063,1.048,1.048,0,0,0-.9-.334,1.4,1.4,0,0,0-1.31.782l.009.123V0H-6.847V-5.985a1.906,1.906,0,0,0-.237-1.081A1.045,1.045,0,0,0-7.989-7.4a1.42,1.42,0,0,0-1.3.782V0h-2.962V-9.51ZM6.354,0H3.384V-9.51H6.354ZM3.208-11.962A1.322,1.322,0,0,1,3.665-13a1.724,1.724,0,0,1,1.187-.4,1.724,1.724,0,0,1,1.187.4A1.322,1.322,0,0,1,6.5-11.962a1.322,1.322,0,0,1-.457,1.037,1.724,1.724,0,0,1-1.187.4,1.724,1.724,0,0,1-1.187-.4A1.322,1.322,0,0,1,3.208-11.962ZM10.9-9.51,11-8.394a3.225,3.225,0,0,1,2.716-1.292A2.713,2.713,0,0,1,15.93-8.8a4.226,4.226,0,0,1,.76,2.672V0H13.72V-6a1.6,1.6,0,0,0-.29-1.059A1.342,1.342,0,0,0,12.375-7.4a1.413,1.413,0,0,0-1.292.686V0H8.121V-9.51ZM23.687,0a3.344,3.344,0,0,1-.281-.853A2.754,2.754,0,0,1,21.12.176a3.374,3.374,0,0,1-2.285-.813,2.588,2.588,0,0,1-.94-2.043,2.66,2.66,0,0,1,1.143-2.338,5.821,5.821,0,0,1,3.322-.791h.914v-.5q0-1.316-1.134-1.316a.927.927,0,0,0-1.055,1.042H18.123A2.655,2.655,0,0,1,19.3-8.825a4.931,4.931,0,0,1,2.993-.86,4.323,4.323,0,0,1,2.874.888,3.086,3.086,0,0,1,1.081,2.435v4.21a4.311,4.311,0,0,0,.4,2V0ZM21.832-1.934a1.652,1.652,0,0,0,.918-.237,1.487,1.487,0,0,0,.523-.536V-4.228h-.861q-1.547,0-1.547,1.389a.848.848,0,0,0,.272.655A.986.986,0,0,0,21.832-1.934Zm11.8-4.9L32.66-6.9a1.752,1.752,0,0,0-1.793.879V0H27.905V-9.51h2.777l.1,1.222a2.294,2.294,0,0,1,2.083-1.4,2.888,2.888,0,0,1,.826.105ZM42.311,0H39.34V-13.5h2.971Zm7.181,0a3.344,3.344,0,0,1-.281-.853A2.754,2.754,0,0,1,46.925.176,3.374,3.374,0,0,1,44.64-.637a2.588,2.588,0,0,1-.94-2.043,2.66,2.66,0,0,1,1.143-2.338,5.821,5.821,0,0,1,3.322-.791h.914v-.5q0-1.316-1.134-1.316A.927.927,0,0,0,46.89-6.587H43.928A2.655,2.655,0,0,1,45.1-8.825a4.931,4.931,0,0,1,2.993-.86,4.323,4.323,0,0,1,2.874.888,3.086,3.086,0,0,1,1.081,2.435v4.21a4.311,4.311,0,0,0,.4,2V0ZM47.637-1.934a1.652,1.652,0,0,0,.918-.237,1.487,1.487,0,0,0,.523-.536V-4.228h-.861q-1.547,0-1.547,1.389a.848.848,0,0,0,.272.655A.986.986,0,0,0,47.637-1.934ZM-58.605,22.328a.684.684,0,0,0-.4-.606,6.016,6.016,0,0,0-1.5-.475,6.853,6.853,0,0,1-1.828-.646,3.062,3.062,0,0,1-1.1-.971,2.319,2.319,0,0,1-.378-1.31,2.628,2.628,0,0,1,1.081-2.158,4.453,4.453,0,0,1,2.83-.848,4.934,4.934,0,0,1,3.023.853,2.666,2.666,0,0,1,1.143,2.241H-58.7q0-1.143-1.2-1.143a1.194,1.194,0,0,0-.782.259.8.8,0,0,0-.316.646.737.737,0,0,0,.387.642,3.654,3.654,0,0,0,1.235.4,10.671,10.671,0,0,1,1.49.378,2.706,2.706,0,0,1,2.145,2.646A2.491,2.491,0,0,1-56.9,24.358a5.068,5.068,0,0,1-2.993.817,5.172,5.172,0,0,1-2.18-.439,3.645,3.645,0,0,1-1.494-1.2,2.707,2.707,0,0,1-.536-1.591h2.769a1.145,1.145,0,0,0,.439.962,1.808,1.808,0,0,0,1.081.3,1.422,1.422,0,0,0,.91-.246A.787.787,0,0,0-58.605,22.328ZM-51.24,25h-2.971V15.49h2.971Zm-3.146-11.962A1.322,1.322,0,0,1-53.93,12a1.724,1.724,0,0,1,1.187-.4,1.724,1.724,0,0,1,1.187.4,1.322,1.322,0,0,1,.457,1.037,1.322,1.322,0,0,1-.457,1.037,1.724,1.724,0,0,1-1.187.4,1.724,1.724,0,0,1-1.187-.4A1.322,1.322,0,0,1-54.387,13.038Zm8.42.088V15.49H-44.4v2.057h-1.564V21.9a1.111,1.111,0,0,0,.193.747,1.037,1.037,0,0,0,.765.211,4.345,4.345,0,0,0,.738-.053v2.118a5.466,5.466,0,0,1-1.67.255,3.1,3.1,0,0,1-2.259-.721,2.954,2.954,0,0,1-.729-2.188v-4.72h-1.213V15.49h1.213V13.126Zm8.394,10.846a3.054,3.054,0,0,1-2.54,1.2,3,3,0,0,1-2.369-.91,3.826,3.826,0,0,1-.8-2.615V15.49h2.962v6.179a1.065,1.065,0,0,0,1.187,1.222,1.548,1.548,0,0,0,1.45-.729V15.49h2.979V25h-2.777ZM-27.729,25a3.344,3.344,0,0,1-.281-.853A2.754,2.754,0,0,1-30.3,25.176a3.374,3.374,0,0,1-2.285-.813,2.588,2.588,0,0,1-.94-2.043,2.66,2.66,0,0,1,1.143-2.338,5.821,5.821,0,0,1,3.322-.791h.914v-.5q0-1.316-1.134-1.316a.927.927,0,0,0-1.055,1.042h-2.962a2.655,2.655,0,0,1,1.173-2.239,4.931,4.931,0,0,1,2.993-.86,4.323,4.323,0,0,1,2.874.888,3.086,3.086,0,0,1,1.081,2.435v4.21a4.311,4.311,0,0,0,.4,2V25Zm-1.854-1.934a1.652,1.652,0,0,0,.918-.237,1.487,1.487,0,0,0,.523-.536V20.772H-29q-1.547,0-1.547,1.389a.848.848,0,0,0,.272.655A.986.986,0,0,0-29.584,23.066Zm10.072-.176a1.317,1.317,0,0,0,.967-.338,1.241,1.241,0,0,0,.334-.945h2.777a3.288,3.288,0,0,1-1.121,2.566,4.168,4.168,0,0,1-2.887,1,4.22,4.22,0,0,1-3.27-1.3,5.125,5.125,0,0,1-1.2-3.6v-.123a5.792,5.792,0,0,1,.532-2.544,3.872,3.872,0,0,1,1.534-1.7,4.573,4.573,0,0,1,2.373-.593,4.116,4.116,0,0,1,2.944,1.028,3.647,3.647,0,0,1,1.09,2.786h-2.777A1.626,1.626,0,0,0-18.571,18a1.244,1.244,0,0,0-.967-.4q-1.151,0-1.345,1.468a10.357,10.357,0,0,0-.062,1.283,4.068,4.068,0,0,0,.343,1.986A1.187,1.187,0,0,0-19.512,22.891ZM-11.057,25h-2.971V15.49h2.971ZM-14.2,13.038A1.322,1.322,0,0,1-13.746,12a1.724,1.724,0,0,1,1.187-.4,1.724,1.724,0,0,1,1.187.4,1.322,1.322,0,0,1,.457,1.037,1.322,1.322,0,0,1-.457,1.037,1.724,1.724,0,0,1-1.187.4,1.724,1.724,0,0,1-1.187-.4A1.322,1.322,0,0,1-14.2,13.038Zm4.6,7.119a5.613,5.613,0,0,1,.554-2.536,3.96,3.96,0,0,1,1.591-1.709,4.791,4.791,0,0,1,2.435-.6,4.373,4.373,0,0,1,3.366,1.323,5.076,5.076,0,0,1,1.23,3.6v.105a4.925,4.925,0,0,1-1.235,3.529A4.384,4.384,0,0,1-5.01,25.176a4.434,4.434,0,0,1-3.261-1.217,4.761,4.761,0,0,1-1.327-3.3Zm2.962.185a3.538,3.538,0,0,0,.413,1.934,1.376,1.376,0,0,0,1.222.615q1.582,0,1.617-2.435v-.3q0-2.558-1.635-2.558-1.485,0-1.608,2.206ZM-4.623,11.5h3.129l-2.443,2.76-2.417,0Zm8.218,3.99.1,1.116a3.225,3.225,0,0,1,2.716-1.292,2.713,2.713,0,0,1,2.219.888,4.226,4.226,0,0,1,.76,2.672V25H6.416V19a1.6,1.6,0,0,0-.29-1.059A1.342,1.342,0,0,0,5.071,17.6a1.413,1.413,0,0,0-1.292.686V25H.817V15.49ZM20.865,25a3.344,3.344,0,0,1-.281-.853A2.754,2.754,0,0,1,18.3,25.176a3.374,3.374,0,0,1-2.285-.813,2.588,2.588,0,0,1-.94-2.043,2.66,2.66,0,0,1,1.143-2.338,5.821,5.821,0,0,1,3.322-.791h.914v-.5q0-1.316-1.134-1.316a.927.927,0,0,0-1.055,1.042H15.3a2.655,2.655,0,0,1,1.173-2.239,4.931,4.931,0,0,1,2.993-.86,4.323,4.323,0,0,1,2.874.888,3.086,3.086,0,0,1,1.081,2.435v4.21a4.311,4.311,0,0,0,.4,2V25Zm-1.854-1.934a1.652,1.652,0,0,0,.918-.237,1.487,1.487,0,0,0,.523-.536V20.772h-.861q-1.547,0-1.547,1.389a.848.848,0,0,0,.272.655A.986.986,0,0,0,19.011,23.066Zm10.072-.176a1.317,1.317,0,0,0,.967-.338,1.241,1.241,0,0,0,.334-.945h2.777a3.288,3.288,0,0,1-1.121,2.566,4.168,4.168,0,0,1-2.887,1,4.22,4.22,0,0,1-3.27-1.3,5.125,5.125,0,0,1-1.2-3.6v-.123A5.792,5.792,0,0,1,25.22,17.6a3.872,3.872,0,0,1,1.534-1.7,4.573,4.573,0,0,1,2.373-.593,4.116,4.116,0,0,1,2.944,1.028,3.647,3.647,0,0,1,1.09,2.786H30.384A1.626,1.626,0,0,0,30.023,18a1.244,1.244,0,0,0-.967-.4q-1.151,0-1.345,1.468a10.357,10.357,0,0,0-.062,1.283,4.068,4.068,0,0,0,.343,1.986A1.187,1.187,0,0,0,29.083,22.891Zm8.78-9.765V15.49h1.564v2.057H37.863V21.9a1.111,1.111,0,0,0,.193.747,1.037,1.037,0,0,0,.765.211,4.345,4.345,0,0,0,.738-.053v2.118a5.466,5.466,0,0,1-1.67.255,3.1,3.1,0,0,1-2.259-.721,2.954,2.954,0,0,1-.729-2.188v-4.72H33.688V15.49H34.9V13.126Zm8.394,10.846a3.054,3.054,0,0,1-2.54,1.2,3,3,0,0,1-2.369-.91,3.826,3.826,0,0,1-.8-2.615V15.49h2.962v6.179a1.065,1.065,0,0,0,1.187,1.222,1.548,1.548,0,0,0,1.45-.729V15.49h2.979V25H46.345ZM56.1,25a3.344,3.344,0,0,1-.281-.853,2.754,2.754,0,0,1-2.285,1.028,3.374,3.374,0,0,1-2.285-.813,2.588,2.588,0,0,1-.94-2.043,2.66,2.66,0,0,1,1.143-2.338,5.821,5.821,0,0,1,3.322-.791h.914v-.5q0-1.316-1.134-1.316A.927.927,0,0,0,53.5,18.413H50.537a2.655,2.655,0,0,1,1.173-2.239,4.931,4.931,0,0,1,2.993-.86,4.323,4.323,0,0,1,2.874.888,3.086,3.086,0,0,1,1.081,2.435v4.21a4.311,4.311,0,0,0,.4,2V25Zm-1.854-1.934a1.652,1.652,0,0,0,.918-.237,1.487,1.487,0,0,0,.523-.536V20.772h-.861q-1.547,0-1.547,1.389a.848.848,0,0,0,.272.655A.986.986,0,0,0,54.246,23.066ZM63.422,25H60.451V11.5h2.971Z" transform="translate(1010 1072)" fill="#12263f"/>
    <path id="Trazado_219763" data-name="Trazado 219763" d="M-69.056,0h-3.076V-12.8h3.076Zm1.635-4.825a5.809,5.809,0,0,1,.976-3.56,3.211,3.211,0,0,1,2.725-1.3,2.731,2.731,0,0,1,2.145,1V-13.5h2.971V0h-2.663l-.149-1.02a2.8,2.8,0,0,1-2.32,1.2,3.205,3.205,0,0,1-2.689-1.3A5.993,5.993,0,0,1-67.421-4.825Zm2.962.185q0,2.531,1.477,2.531a1.458,1.458,0,0,0,1.406-.826V-6.557A1.419,1.419,0,0,0-62.965-7.4q-1.371,0-1.485,2.215ZM-52.321.176a4.889,4.889,0,0,1-3.542-1.305,4.507,4.507,0,0,1-1.354-3.4v-.246a5.84,5.84,0,0,1,.541-2.575A3.955,3.955,0,0,1-55.1-9.075a4.763,4.763,0,0,1,2.461-.611,4.117,4.117,0,0,1,3.164,1.244,4.887,4.887,0,0,1,1.16,3.467v1.151H-54.2a2.135,2.135,0,0,0,.694,1.257,2.066,2.066,0,0,0,1.389.457,2.662,2.662,0,0,0,2.2-.984l1.354,1.6A3.784,3.784,0,0,1-50.137-.277,5.3,5.3,0,0,1-52.321.176ZM-52.655-7.4q-1.3,0-1.547,1.723h2.988v-.229a1.467,1.467,0,0,0-.36-1.1A1.434,1.434,0,0,0-52.655-7.4ZM-44.4-9.51l.1,1.116A3.225,3.225,0,0,1-41.59-9.686a2.713,2.713,0,0,1,2.219.888,4.226,4.226,0,0,1,.76,2.672V0h-2.971V-6a1.6,1.6,0,0,0-.29-1.059A1.342,1.342,0,0,0-42.926-7.4a1.413,1.413,0,0,0-1.292.686V0H-47.18V-9.51Zm10.881-2.364V-9.51h1.564v2.057h-1.564V-3.1a1.111,1.111,0,0,0,.193.747,1.037,1.037,0,0,0,.765.211,4.345,4.345,0,0,0,.738-.053V-.079A5.466,5.466,0,0,1-33.5.176a3.1,3.1,0,0,1-2.259-.721,2.954,2.954,0,0,1-.729-2.188v-4.72H-37.7V-9.51h1.213v-2.364ZM-27.668,0h-2.971V-9.51h2.971Zm-3.146-11.962A1.322,1.322,0,0,1-30.357-13a1.724,1.724,0,0,1,1.187-.4,1.724,1.724,0,0,1,1.187.4,1.322,1.322,0,0,1,.457,1.037,1.322,1.322,0,0,1-.457,1.037,1.724,1.724,0,0,1-1.187.4,1.724,1.724,0,0,1-1.187-.4A1.322,1.322,0,0,1-30.814-11.962ZM-25.154,0V-7.453h-1.38V-9.51h1.38v-.316a3.631,3.631,0,0,1,1.248-2.909,4.987,4.987,0,0,1,3.243-.949,11.509,11.509,0,0,1,3.094.51l-.4,2.338-.492-.132a7.832,7.832,0,0,0-2.021-.255q-1.7,0-1.7,1.547v.167h1.863v2.057h-1.863V0Zm8.947,0h-2.979V-9.51h2.979Zm5.827-2.109a1.317,1.317,0,0,0,.967-.338,1.241,1.241,0,0,0,.334-.945H-6.3A3.288,3.288,0,0,1-7.422-.826a4.168,4.168,0,0,1-2.887,1,4.22,4.22,0,0,1-3.27-1.3,5.125,5.125,0,0,1-1.2-3.6v-.123A5.792,5.792,0,0,1-14.243-7.4a3.872,3.872,0,0,1,1.534-1.7,4.573,4.573,0,0,1,2.373-.593A4.116,4.116,0,0,1-7.392-8.657,3.647,3.647,0,0,1-6.3-5.871H-9.079A1.626,1.626,0,0,0-9.439-7a1.244,1.244,0,0,0-.967-.4q-1.151,0-1.345,1.468a10.357,10.357,0,0,0-.062,1.283,4.068,4.068,0,0,0,.343,1.986A1.187,1.187,0,0,0-10.38-2.109ZM.308,0A3.344,3.344,0,0,1,.026-.853,2.754,2.754,0,0,1-2.259.176,3.374,3.374,0,0,1-4.544-.637a2.588,2.588,0,0,1-.94-2.043A2.66,2.66,0,0,1-4.342-5.019,5.821,5.821,0,0,1-1.02-5.81h.914v-.5q0-1.316-1.134-1.316A.927.927,0,0,0-2.294-6.587H-5.256A2.655,2.655,0,0,1-4.083-8.825a4.931,4.931,0,0,1,2.993-.86A4.323,4.323,0,0,1,1.784-8.8,3.086,3.086,0,0,1,2.865-6.363v4.21a4.311,4.311,0,0,0,.4,2V0ZM-1.547-1.934a1.652,1.652,0,0,0,.918-.237,1.487,1.487,0,0,0,.523-.536V-4.228H-.967q-1.547,0-1.547,1.389a.848.848,0,0,0,.272.655A.986.986,0,0,0-1.547-1.934Zm11.8-4.9L9.281-6.9a1.752,1.752,0,0,0-1.793.879V0H4.526V-9.51H7.3l.1,1.222a2.294,2.294,0,0,1,2.083-1.4,2.888,2.888,0,0,1,.826.105ZM16.462,0V-7.453h-1.38V-9.51h1.38v-.756a3.286,3.286,0,0,1,.958-2.522,3.785,3.785,0,0,1,2.689-.9A5.89,5.89,0,0,1,21.5-13.5l.009,2.18a2.706,2.706,0,0,0-.729-.079q-1.345,0-1.345,1.16v.729h1.854v2.057H19.433V0ZM27.993-1.028a3.054,3.054,0,0,1-2.54,1.2,3,3,0,0,1-2.369-.91,3.826,3.826,0,0,1-.8-2.615V-9.51h2.962v6.179a1.065,1.065,0,0,0,1.187,1.222,1.548,1.548,0,0,0,1.45-.729V-9.51h2.979V0H28.081ZM35.93-11.874V-9.51h1.564v2.057H35.93V-3.1a1.111,1.111,0,0,0,.193.747,1.037,1.037,0,0,0,.765.211,4.345,4.345,0,0,0,.738-.053V-.079a5.466,5.466,0,0,1-1.67.255A3.1,3.1,0,0,1,33.7-.545a2.954,2.954,0,0,1-.729-2.188v-4.72H31.755V-9.51h1.213v-2.364ZM44.323-1.028a3.054,3.054,0,0,1-2.54,1.2,3,3,0,0,1-2.369-.91,3.826,3.826,0,0,1-.8-2.615V-9.51h2.962v6.179a1.065,1.065,0,0,0,1.187,1.222,1.548,1.548,0,0,0,1.45-.729V-9.51h2.979V0H44.411Zm10.239-5.8-.976-.07a1.752,1.752,0,0,0-1.793.879V0H48.832V-9.51h2.777l.1,1.222a2.294,2.294,0,0,1,2.083-1.4,2.888,2.888,0,0,1,.826.105ZM60.724,0a3.344,3.344,0,0,1-.281-.853A2.754,2.754,0,0,1,58.157.176a3.374,3.374,0,0,1-2.285-.813,2.588,2.588,0,0,1-.94-2.043,2.66,2.66,0,0,1,1.143-2.338A5.821,5.821,0,0,1,59.4-5.81h.914v-.5q0-1.316-1.134-1.316a.927.927,0,0,0-1.055,1.042H55.16a2.655,2.655,0,0,1,1.173-2.239,4.931,4.931,0,0,1,2.993-.86A4.323,4.323,0,0,1,62.2-8.8a3.086,3.086,0,0,1,1.081,2.435v4.21a4.311,4.311,0,0,0,.4,2V0ZM58.869-1.934a1.652,1.652,0,0,0,.918-.237,1.487,1.487,0,0,0,.523-.536V-4.228h-.861q-1.547,0-1.547,1.389a.848.848,0,0,0,.272.655A.986.986,0,0,0,58.869-1.934ZM69.9-2.672a.684.684,0,0,0-.4-.606A6.016,6.016,0,0,0,68-3.753,6.853,6.853,0,0,1,66.173-4.4a3.062,3.062,0,0,1-1.1-.971A2.319,2.319,0,0,1,64.7-6.68a2.628,2.628,0,0,1,1.081-2.158,4.453,4.453,0,0,1,2.83-.848,4.934,4.934,0,0,1,3.023.853,2.666,2.666,0,0,1,1.143,2.241H69.8q0-1.143-1.2-1.143a1.194,1.194,0,0,0-.782.259.8.8,0,0,0-.316.646.737.737,0,0,0,.387.642,3.654,3.654,0,0,0,1.235.4,10.671,10.671,0,0,1,1.49.378A2.706,2.706,0,0,1,72.756-2.76,2.491,2.491,0,0,1,71.6-.642a5.068,5.068,0,0,1-2.993.817,5.172,5.172,0,0,1-2.18-.439,3.645,3.645,0,0,1-1.494-1.2A2.707,2.707,0,0,1,64.4-3.05h2.769a1.145,1.145,0,0,0,.439.962,1.808,1.808,0,0,0,1.081.3,1.422,1.422,0,0,0,.91-.246A.787.787,0,0,0,69.9-2.672Zm-149.941,25a.684.684,0,0,0-.4-.606,6.016,6.016,0,0,0-1.5-.475,6.853,6.853,0,0,1-1.828-.646,3.062,3.062,0,0,1-1.1-.971,2.319,2.319,0,0,1-.378-1.31,2.628,2.628,0,0,1,1.081-2.158,4.453,4.453,0,0,1,2.83-.848,4.934,4.934,0,0,1,3.023.853,2.666,2.666,0,0,1,1.143,2.241h-2.971q0-1.143-1.2-1.143a1.194,1.194,0,0,0-.782.259.8.8,0,0,0-.316.646.737.737,0,0,0,.387.642,3.654,3.654,0,0,0,1.235.4,10.671,10.671,0,0,1,1.49.378,2.706,2.706,0,0,1,2.145,2.646,2.491,2.491,0,0,1-1.156,2.118,5.068,5.068,0,0,1-2.993.817,5.172,5.172,0,0,1-2.18-.439,3.645,3.645,0,0,1-1.494-1.2,2.707,2.707,0,0,1-.536-1.591h2.769a1.145,1.145,0,0,0,.439.962,1.808,1.808,0,0,0,1.081.3,1.422,1.422,0,0,0,.91-.246A.787.787,0,0,0-80.042,22.328ZM-72.677,25h-2.971V15.49h2.971Zm-3.146-11.962A1.322,1.322,0,0,1-75.366,12a1.724,1.724,0,0,1,1.187-.4,1.724,1.724,0,0,1,1.187.4,1.322,1.322,0,0,1,.457,1.037,1.322,1.322,0,0,1-.457,1.037,1.724,1.724,0,0,1-1.187.4,1.724,1.724,0,0,1-1.187-.4A1.322,1.322,0,0,1-75.823,13.038Zm8.42.088V15.49h1.564v2.057H-67.4V21.9a1.111,1.111,0,0,0,.193.747,1.037,1.037,0,0,0,.765.211,4.345,4.345,0,0,0,.738-.053v2.118a5.466,5.466,0,0,1-1.67.255,3.1,3.1,0,0,1-2.259-.721,2.954,2.954,0,0,1-.729-2.188v-4.72h-1.213V15.49h1.213V13.126Zm8.394,10.846a3.054,3.054,0,0,1-2.54,1.2,3,3,0,0,1-2.369-.91,3.826,3.826,0,0,1-.8-2.615V15.49h2.962v6.179a1.065,1.065,0,0,0,1.187,1.222,1.548,1.548,0,0,0,1.45-.729V15.49h2.979V25h-2.777ZM-49.166,25a3.344,3.344,0,0,1-.281-.853,2.754,2.754,0,0,1-2.285,1.028,3.374,3.374,0,0,1-2.285-.813,2.588,2.588,0,0,1-.94-2.043,2.66,2.66,0,0,1,1.143-2.338,5.821,5.821,0,0,1,3.322-.791h.914v-.5q0-1.316-1.134-1.316a.927.927,0,0,0-1.055,1.042h-2.962a2.655,2.655,0,0,1,1.173-2.239,4.931,4.931,0,0,1,2.993-.86,4.323,4.323,0,0,1,2.874.888,3.086,3.086,0,0,1,1.081,2.435v4.21a4.311,4.311,0,0,0,.4,2V25Zm-1.854-1.934a1.652,1.652,0,0,0,.918-.237,1.487,1.487,0,0,0,.523-.536V20.772h-.861q-1.547,0-1.547,1.389a.848.848,0,0,0,.272.655A.986.986,0,0,0-51.021,23.066Zm10.072-.176a1.317,1.317,0,0,0,.967-.338,1.241,1.241,0,0,0,.334-.945h2.777a3.288,3.288,0,0,1-1.121,2.566,4.168,4.168,0,0,1-2.887,1,4.22,4.22,0,0,1-3.27-1.3,5.125,5.125,0,0,1-1.2-3.6v-.123a5.792,5.792,0,0,1,.532-2.544,3.872,3.872,0,0,1,1.534-1.7,4.573,4.573,0,0,1,2.373-.593,4.116,4.116,0,0,1,2.944,1.028,3.647,3.647,0,0,1,1.09,2.786h-2.777A1.626,1.626,0,0,0-40.008,18a1.244,1.244,0,0,0-.967-.4q-1.151,0-1.345,1.468a10.357,10.357,0,0,0-.062,1.283,4.068,4.068,0,0,0,.343,1.986A1.187,1.187,0,0,0-40.948,22.891ZM-32.493,25h-2.971V15.49h2.971ZM-35.64,13.038A1.322,1.322,0,0,1-35.183,12,1.724,1.724,0,0,1-34,11.6a1.724,1.724,0,0,1,1.187.4,1.322,1.322,0,0,1,.457,1.037,1.322,1.322,0,0,1-.457,1.037,1.724,1.724,0,0,1-1.187.4,1.724,1.724,0,0,1-1.187-.4A1.322,1.322,0,0,1-35.64,13.038Zm4.6,7.119a5.613,5.613,0,0,1,.554-2.536A3.96,3.96,0,0,1-28.9,15.912a4.791,4.791,0,0,1,2.435-.6A4.373,4.373,0,0,1-23.1,16.637a5.076,5.076,0,0,1,1.23,3.6v.105A4.925,4.925,0,0,1-23.1,23.871a4.384,4.384,0,0,1-3.344,1.305,4.434,4.434,0,0,1-3.261-1.217,4.761,4.761,0,0,1-1.327-3.3Zm2.962.185a3.538,3.538,0,0,0,.413,1.934,1.376,1.376,0,0,0,1.222.615q1.582,0,1.617-2.435v-.3q0-2.558-1.635-2.558-1.485,0-1.608,2.206Zm10.239-4.852.1,1.116a3.225,3.225,0,0,1,2.716-1.292,2.713,2.713,0,0,1,2.219.888,4.226,4.226,0,0,1,.76,2.672V25h-2.971V19a1.6,1.6,0,0,0-.29-1.059,1.342,1.342,0,0,0-1.055-.338,1.413,1.413,0,0,0-1.292.686V25h-2.962V15.49ZM-5.81,25.176a4.889,4.889,0,0,1-3.542-1.305,4.507,4.507,0,0,1-1.354-3.4v-.246a5.84,5.84,0,0,1,.541-2.575,3.955,3.955,0,0,1,1.578-1.727,4.763,4.763,0,0,1,2.461-.611,4.117,4.117,0,0,1,3.164,1.244A4.887,4.887,0,0,1-1.8,20.025v1.151H-7.69A2.135,2.135,0,0,0-7,22.434a2.066,2.066,0,0,0,1.389.457,2.662,2.662,0,0,0,2.2-.984l1.354,1.6a3.784,3.784,0,0,1-1.569,1.217A5.3,5.3,0,0,1-5.81,25.176ZM-6.144,17.6q-1.3,0-1.547,1.723H-4.7v-.229a1.467,1.467,0,0,0-.36-1.1A1.434,1.434,0,0,0-6.144,17.6ZM4.368,22.328a.684.684,0,0,0-.4-.606,6.016,6.016,0,0,0-1.5-.475A6.853,6.853,0,0,1,.642,20.6a3.062,3.062,0,0,1-1.1-.971,2.319,2.319,0,0,1-.378-1.31A2.628,2.628,0,0,1,.246,16.163a4.453,4.453,0,0,1,2.83-.848,4.934,4.934,0,0,1,3.023.853,2.666,2.666,0,0,1,1.143,2.241H4.271q0-1.143-1.2-1.143a1.194,1.194,0,0,0-.782.259.8.8,0,0,0-.316.646.737.737,0,0,0,.387.642,3.654,3.654,0,0,0,1.235.4,10.671,10.671,0,0,1,1.49.378A2.706,2.706,0,0,1,7.225,22.24a2.491,2.491,0,0,1-1.156,2.118,5.068,5.068,0,0,1-2.993.817A5.172,5.172,0,0,1,.9,24.736,3.645,3.645,0,0,1-.6,23.541a2.707,2.707,0,0,1-.536-1.591H1.635a1.145,1.145,0,0,0,.439.962,1.808,1.808,0,0,0,1.081.3,1.422,1.422,0,0,0,.91-.246A.787.787,0,0,0,4.368,22.328ZM18.448,25a3.344,3.344,0,0,1-.281-.853,2.754,2.754,0,0,1-2.285,1.028,3.374,3.374,0,0,1-2.285-.813,2.588,2.588,0,0,1-.94-2.043A2.66,2.66,0,0,1,13.8,19.981a5.821,5.821,0,0,1,3.322-.791h.914v-.5q0-1.316-1.134-1.316a.927.927,0,0,0-1.055,1.042H12.885a2.655,2.655,0,0,1,1.173-2.239,4.931,4.931,0,0,1,2.993-.86,4.323,4.323,0,0,1,2.874.888,3.086,3.086,0,0,1,1.081,2.435v4.21a4.311,4.311,0,0,0,.4,2V25Zm-1.854-1.934a1.652,1.652,0,0,0,.918-.237,1.487,1.487,0,0,0,.523-.536V20.772h-.861q-1.547,0-1.547,1.389a.848.848,0,0,0,.272.655A.986.986,0,0,0,16.594,23.066Zm5.678-2.892a5.809,5.809,0,0,1,.976-3.56,3.211,3.211,0,0,1,2.725-1.3,2.731,2.731,0,0,1,2.145,1V11.5h2.971V25H28.424l-.149-1.02a2.8,2.8,0,0,1-2.32,1.2,3.205,3.205,0,0,1-2.689-1.3A5.993,5.993,0,0,1,22.271,20.175Zm2.962.185q0,2.531,1.477,2.531a1.458,1.458,0,0,0,1.406-.826V18.443a1.419,1.419,0,0,0-1.389-.844q-1.371,0-1.485,2.215Zm11.329,1.116,1.5-5.985h3.12L38.083,25H35.06l-3.1-9.51h3.129Zm10.107,3.7a4.889,4.889,0,0,1-3.542-1.305,4.507,4.507,0,0,1-1.354-3.4v-.246a5.84,5.84,0,0,1,.541-2.575,3.955,3.955,0,0,1,1.578-1.727,4.763,4.763,0,0,1,2.461-.611,4.117,4.117,0,0,1,3.164,1.244,4.887,4.887,0,0,1,1.16,3.467v1.151H44.789a2.135,2.135,0,0,0,.694,1.257,2.066,2.066,0,0,0,1.389.457,2.662,2.662,0,0,0,2.2-.984l1.354,1.6a3.784,3.784,0,0,1-1.569,1.217A5.3,5.3,0,0,1,46.67,25.176ZM46.336,17.6q-1.3,0-1.547,1.723h2.988v-.229a1.467,1.467,0,0,0-.36-1.1A1.434,1.434,0,0,0,46.336,17.6Zm11.285.571-.976-.07a1.752,1.752,0,0,0-1.793.879V25H51.891V15.49h2.777l.1,1.222a2.294,2.294,0,0,1,2.083-1.4,2.888,2.888,0,0,1,.826.105Zm6.047,4.157a.684.684,0,0,0-.4-.606,6.016,6.016,0,0,0-1.5-.475,6.853,6.853,0,0,1-1.828-.646,3.062,3.062,0,0,1-1.1-.971,2.319,2.319,0,0,1-.378-1.31,2.628,2.628,0,0,1,1.081-2.158,4.453,4.453,0,0,1,2.83-.848,4.934,4.934,0,0,1,3.023.853,2.666,2.666,0,0,1,1.143,2.241H63.571q0-1.143-1.2-1.143a1.194,1.194,0,0,0-.782.259.8.8,0,0,0-.316.646.737.737,0,0,0,.387.642,3.654,3.654,0,0,0,1.235.4,10.671,10.671,0,0,1,1.49.378,2.706,2.706,0,0,1,2.145,2.646,2.491,2.491,0,0,1-1.156,2.118,5.068,5.068,0,0,1-2.993.817,5.172,5.172,0,0,1-2.18-.439,3.645,3.645,0,0,1-1.494-1.2,2.707,2.707,0,0,1-.536-1.591h2.769a1.145,1.145,0,0,0,.439.962,1.808,1.808,0,0,0,1.081.3,1.422,1.422,0,0,0,.91-.246A.787.787,0,0,0,63.668,22.328ZM73.266,25a3.344,3.344,0,0,1-.281-.853A2.754,2.754,0,0,1,70.7,25.176a3.374,3.374,0,0,1-2.285-.813,2.588,2.588,0,0,1-.94-2.043,2.66,2.66,0,0,1,1.143-2.338,5.821,5.821,0,0,1,3.322-.791h.914v-.5q0-1.316-1.134-1.316a.927.927,0,0,0-1.055,1.042H67.7a2.655,2.655,0,0,1,1.173-2.239,4.931,4.931,0,0,1,2.993-.86,4.323,4.323,0,0,1,2.874.888,3.086,3.086,0,0,1,1.081,2.435v4.21a4.311,4.311,0,0,0,.4,2V25Zm-1.854-1.934a1.652,1.652,0,0,0,.918-.237,1.487,1.487,0,0,0,.523-.536V20.772h-.861q-1.547,0-1.547,1.389a.848.848,0,0,0,.272.655A.986.986,0,0,0,71.411,23.066Zm11.03-.738a.684.684,0,0,0-.4-.606,6.016,6.016,0,0,0-1.5-.475,6.853,6.853,0,0,1-1.828-.646,3.062,3.062,0,0,1-1.1-.971,2.319,2.319,0,0,1-.378-1.31,2.628,2.628,0,0,1,1.081-2.158,4.453,4.453,0,0,1,2.83-.848,4.934,4.934,0,0,1,3.023.853,2.666,2.666,0,0,1,1.143,2.241H82.345q0-1.143-1.2-1.143a1.194,1.194,0,0,0-.782.259.8.8,0,0,0-.316.646.737.737,0,0,0,.387.642,3.654,3.654,0,0,0,1.235.4,10.671,10.671,0,0,1,1.49.378A2.706,2.706,0,0,1,85.3,22.24a2.491,2.491,0,0,1-1.156,2.118,5.068,5.068,0,0,1-2.993.817,5.172,5.172,0,0,1-2.18-.439,3.645,3.645,0,0,1-1.494-1.2,2.707,2.707,0,0,1-.536-1.591h2.769a1.145,1.145,0,0,0,.439.962,1.808,1.808,0,0,0,1.081.3,1.422,1.422,0,0,0,.91-.246A.787.787,0,0,0,82.441,22.328Z" transform="translate(925 1181)" fill="#12263f"/>
    <path id="Trazado_219764" data-name="Trazado 219764" d="M-61.589,0V-12.8h4.122a6.064,6.064,0,0,1,3.05.769A5.406,5.406,0,0,1-52.3-9.857a6.554,6.554,0,0,1,.769,3.142v.589a6.592,6.592,0,0,1-.743,3.151A5.429,5.429,0,0,1-54.369-.8a5.93,5.93,0,0,1-3.01.8ZM-58.5-10.415v8.042h1.072a2.4,2.4,0,0,0,2.039-.945,4.63,4.63,0,0,0,.712-2.808V-6.68a4.592,4.592,0,0,0-.712-2.795,2.442,2.442,0,0,0-2.074-.94ZM-46.964,0h-2.971V-9.51h2.971Zm-3.146-11.962A1.322,1.322,0,0,1-49.654-13a1.724,1.724,0,0,1,1.187-.4,1.724,1.724,0,0,1,1.187.4,1.322,1.322,0,0,1,.457,1.037,1.322,1.322,0,0,1-.457,1.037,1.724,1.724,0,0,1-1.187.4,1.724,1.724,0,0,1-1.187-.4A1.322,1.322,0,0,1-50.111-11.962Zm9.949,9.29a.684.684,0,0,0-.4-.606,6.016,6.016,0,0,0-1.5-.475A6.853,6.853,0,0,1-43.888-4.4a3.062,3.062,0,0,1-1.1-.971,2.319,2.319,0,0,1-.378-1.31,2.628,2.628,0,0,1,1.081-2.158,4.453,4.453,0,0,1,2.83-.848,4.934,4.934,0,0,1,3.023.853,2.666,2.666,0,0,1,1.143,2.241h-2.971q0-1.143-1.2-1.143a1.194,1.194,0,0,0-.782.259.8.8,0,0,0-.316.646.737.737,0,0,0,.387.642,3.654,3.654,0,0,0,1.235.4,10.671,10.671,0,0,1,1.49.378A2.706,2.706,0,0,1-37.305-2.76,2.491,2.491,0,0,1-38.461-.642a5.068,5.068,0,0,1-2.993.817,5.172,5.172,0,0,1-2.18-.439,3.645,3.645,0,0,1-1.494-1.2,2.707,2.707,0,0,1-.536-1.591H-42.9a1.145,1.145,0,0,0,.439.962,1.808,1.808,0,0,0,1.081.3,1.422,1.422,0,0,0,.91-.246A.787.787,0,0,0-40.162-2.672ZM-31.32.176a4.889,4.889,0,0,1-3.542-1.305,4.507,4.507,0,0,1-1.354-3.4v-.246a5.84,5.84,0,0,1,.541-2.575A3.955,3.955,0,0,1-34.1-9.075a4.763,4.763,0,0,1,2.461-.611,4.117,4.117,0,0,1,3.164,1.244,4.887,4.887,0,0,1,1.16,3.467v1.151H-33.2a2.135,2.135,0,0,0,.694,1.257,2.066,2.066,0,0,0,1.389.457,2.662,2.662,0,0,0,2.2-.984l1.354,1.6A3.784,3.784,0,0,1-29.136-.277,5.3,5.3,0,0,1-31.32.176ZM-31.654-7.4q-1.3,0-1.547,1.723h2.988v-.229a1.467,1.467,0,0,0-.36-1.1A1.434,1.434,0,0,0-31.654-7.4ZM-23.4-9.51l.1,1.116a3.225,3.225,0,0,1,2.716-1.292,2.713,2.713,0,0,1,2.219.888,4.226,4.226,0,0,1,.76,2.672V0H-20.58V-6a1.6,1.6,0,0,0-.29-1.059A1.342,1.342,0,0,0-21.924-7.4a1.413,1.413,0,0,0-1.292.686V0h-2.962V-9.51Zm4.913-3.92a2.562,2.562,0,0,1-.584,1.7,1.813,1.813,0,0,1-1.446.7A2.852,2.852,0,0,1-21.81-11.4a2.7,2.7,0,0,0-1.151-.369.66.66,0,0,0-.479.193.8.8,0,0,0-.2.6l-1.644-.088a2.576,2.576,0,0,1,.584-1.687,1.793,1.793,0,0,1,1.437-.712,2.967,2.967,0,0,1,1.151.325,7.07,7.07,0,0,0,.9.369,1.74,1.74,0,0,0,.4.044.671.671,0,0,0,.483-.2.807.807,0,0,0,.2-.6ZM-10.613,0a3.344,3.344,0,0,1-.281-.853A2.754,2.754,0,0,1-13.179.176a3.374,3.374,0,0,1-2.285-.813,2.588,2.588,0,0,1-.94-2.043,2.66,2.66,0,0,1,1.143-2.338A5.821,5.821,0,0,1-11.94-5.81h.914v-.5q0-1.316-1.134-1.316a.927.927,0,0,0-1.055,1.042h-2.962A2.655,2.655,0,0,1-15-8.825a4.931,4.931,0,0,1,2.993-.86A4.323,4.323,0,0,1-9.136-8.8,3.086,3.086,0,0,1-8.055-6.363v4.21a4.311,4.311,0,0,0,.4,2V0Zm-1.854-1.934a1.652,1.652,0,0,0,.918-.237,1.487,1.487,0,0,0,.523-.536V-4.228h-.861q-1.547,0-1.547,1.389a.848.848,0,0,0,.272.655A.986.986,0,0,0-12.467-1.934Zm11.8-4.9-.976-.07a1.752,1.752,0,0,0-1.793.879V0H-6.394V-9.51h2.777l.1,1.222a2.294,2.294,0,0,1,2.083-1.4,2.888,2.888,0,0,1,.826.105Zm14.634,7a4.889,4.889,0,0,1-3.542-1.305,4.507,4.507,0,0,1-1.354-3.4v-.246a5.84,5.84,0,0,1,.541-2.575,3.955,3.955,0,0,1,1.578-1.727,4.763,4.763,0,0,1,2.461-.611,4.117,4.117,0,0,1,3.164,1.244,4.887,4.887,0,0,1,1.16,3.467v1.151H12.089a2.135,2.135,0,0,0,.694,1.257,2.066,2.066,0,0,0,1.389.457,2.662,2.662,0,0,0,2.2-.984l1.354,1.6A3.784,3.784,0,0,1,16.154-.277,5.3,5.3,0,0,1,13.97.176ZM13.636-7.4q-1.3,0-1.547,1.723h2.988v-.229a1.467,1.467,0,0,0-.36-1.1A1.434,1.434,0,0,0,13.636-7.4ZM22.293,0H19.323V-13.5h2.971ZM37.428-4.685a5.735,5.735,0,0,1-1,3.538A3.2,3.2,0,0,1,33.737.176a2.742,2.742,0,0,1-2.153-.958V3.656H28.622V-9.51H31.39l.088.879a2.742,2.742,0,0,1,2.241-1.055,3.224,3.224,0,0,1,2.733,1.3,5.805,5.805,0,0,1,.976,3.564Zm-2.962-.185q0-2.531-1.477-2.531a1.394,1.394,0,0,0-1.406.756V-2.9a1.439,1.439,0,0,0,1.424.791q1.415,0,1.459-2.443ZM41.858,0H38.887V-13.5h2.971Zm7.181,0a3.344,3.344,0,0,1-.281-.853A2.754,2.754,0,0,1,46.472.176a3.374,3.374,0,0,1-2.285-.813,2.588,2.588,0,0,1-.94-2.043,2.66,2.66,0,0,1,1.143-2.338,5.821,5.821,0,0,1,3.322-.791h.914v-.5q0-1.316-1.134-1.316a.927.927,0,0,0-1.055,1.042H43.475a2.655,2.655,0,0,1,1.173-2.239,4.931,4.931,0,0,1,2.993-.86,4.323,4.323,0,0,1,2.874.888A3.086,3.086,0,0,1,51.6-6.363v4.21a4.311,4.311,0,0,0,.4,2V0ZM47.184-1.934a1.652,1.652,0,0,0,.918-.237,1.487,1.487,0,0,0,.523-.536V-4.228h-.861q-1.547,0-1.547,1.389a.848.848,0,0,0,.272.655A.986.986,0,0,0,47.184-1.934ZM55.956-9.51l.1,1.116a3.225,3.225,0,0,1,2.716-1.292,2.713,2.713,0,0,1,2.219.888,4.226,4.226,0,0,1,.76,2.672V0H58.777V-6a1.6,1.6,0,0,0-.29-1.059A1.342,1.342,0,0,0,57.432-7.4a1.413,1.413,0,0,0-1.292.686V0H53.178V-9.51Z" transform="translate(695 1205)" fill="#12263f"/>
    <path id="Trazado_219760" data-name="Trazado 219760" d="M-76.909,0h-3.076V-12.8h3.076ZM-72.1-9.51l.1,1.116a3.27,3.27,0,0,1,2.716-1.292,2.407,2.407,0,0,1,2.435,1.433,3.165,3.165,0,0,1,2.795-1.433q2.892,0,2.971,3.5V0h-2.971V-6a1.813,1.813,0,0,0-.246-1.063,1.048,1.048,0,0,0-.9-.334,1.4,1.4,0,0,0-1.31.782l.009.123V0h-2.971V-5.985a1.906,1.906,0,0,0-.237-1.081,1.045,1.045,0,0,0-.905-.334,1.42,1.42,0,0,0-1.3.782V0h-2.962V-9.51Zm21.533,4.825a5.735,5.735,0,0,1-1,3.538A3.2,3.2,0,0,1-54.259.176a2.742,2.742,0,0,1-2.153-.958V3.656h-2.962V-9.51h2.769l.088.879a2.742,2.742,0,0,1,2.241-1.055,3.224,3.224,0,0,1,2.733,1.3,5.805,5.805,0,0,1,.976,3.564Zm-2.962-.185q0-2.531-1.477-2.531a1.394,1.394,0,0,0-1.406.756V-2.9a1.439,1.439,0,0,0,1.424.791q1.415,0,1.459-2.443ZM-46.138,0h-2.971V-13.5h2.971Zm6.425.176a4.889,4.889,0,0,1-3.542-1.305,4.507,4.507,0,0,1-1.354-3.4v-.246a5.84,5.84,0,0,1,.541-2.575,3.955,3.955,0,0,1,1.578-1.727,4.763,4.763,0,0,1,2.461-.611,4.117,4.117,0,0,1,3.164,1.244,4.887,4.887,0,0,1,1.16,3.467v1.151h-5.889A2.135,2.135,0,0,0-40.9-2.566a2.066,2.066,0,0,0,1.389.457,2.662,2.662,0,0,0,2.2-.984l1.354,1.6A3.784,3.784,0,0,1-37.529-.277,5.3,5.3,0,0,1-39.713.176ZM-40.047-7.4q-1.3,0-1.547,1.723h2.988v-.229a1.467,1.467,0,0,0-.36-1.1A1.434,1.434,0,0,0-40.047-7.4Zm8.332-2.109.1,1.116A3.27,3.27,0,0,1-28.9-9.686a2.407,2.407,0,0,1,2.435,1.433,3.165,3.165,0,0,1,2.795-1.433q2.892,0,2.971,3.5V0h-2.971V-6a1.813,1.813,0,0,0-.246-1.063,1.048,1.048,0,0,0-.9-.334,1.4,1.4,0,0,0-1.31.782l.009.123V0h-2.971V-5.985a1.906,1.906,0,0,0-.237-1.081A1.045,1.045,0,0,0-30.23-7.4a1.42,1.42,0,0,0-1.3.782V0h-2.962V-9.51ZM-14.41.176a4.889,4.889,0,0,1-3.542-1.305,4.507,4.507,0,0,1-1.354-3.4v-.246a5.84,5.84,0,0,1,.541-2.575,3.955,3.955,0,0,1,1.578-1.727,4.763,4.763,0,0,1,2.461-.611,4.117,4.117,0,0,1,3.164,1.244A4.887,4.887,0,0,1-10.4-4.975v1.151h-5.889A2.135,2.135,0,0,0-15.6-2.566a2.066,2.066,0,0,0,1.389.457,2.662,2.662,0,0,0,2.2-.984l1.354,1.6A3.784,3.784,0,0,1-12.226-.277,5.3,5.3,0,0,1-14.41.176ZM-14.744-7.4q-1.3,0-1.547,1.723H-13.3v-.229a1.467,1.467,0,0,0-.36-1.1A1.434,1.434,0,0,0-14.744-7.4ZM-6.491-9.51l.1,1.116A3.225,3.225,0,0,1-3.678-9.686,2.713,2.713,0,0,1-1.459-8.8,4.226,4.226,0,0,1-.7-6.126V0H-3.669V-6a1.6,1.6,0,0,0-.29-1.059A1.342,1.342,0,0,0-5.014-7.4a1.413,1.413,0,0,0-1.292.686V0H-9.268V-9.51ZM4.39-11.874V-9.51H5.955v2.057H4.39V-3.1a1.111,1.111,0,0,0,.193.747,1.037,1.037,0,0,0,.765.211A4.345,4.345,0,0,0,6.086-2.2V-.079a5.466,5.466,0,0,1-1.67.255A3.1,3.1,0,0,1,2.158-.545a2.954,2.954,0,0,1-.729-2.188v-4.72H.215V-9.51H1.428v-2.364ZM12.476,0a3.344,3.344,0,0,1-.281-.853A2.754,2.754,0,0,1,9.91.176,3.374,3.374,0,0,1,7.625-.637a2.588,2.588,0,0,1-.94-2.043A2.66,2.66,0,0,1,7.827-5.019a5.821,5.821,0,0,1,3.322-.791h.914v-.5q0-1.316-1.134-1.316A.927.927,0,0,0,9.875-6.587H6.913A2.655,2.655,0,0,1,8.086-8.825a4.931,4.931,0,0,1,2.993-.86,4.323,4.323,0,0,1,2.874.888,3.086,3.086,0,0,1,1.081,2.435v4.21a4.311,4.311,0,0,0,.4,2V0ZM10.622-1.934a1.652,1.652,0,0,0,.918-.237,1.487,1.487,0,0,0,.523-.536V-4.228H11.2q-1.547,0-1.547,1.389a.848.848,0,0,0,.272.655A.986.986,0,0,0,10.622-1.934Zm11.8-4.9L21.45-6.9a1.752,1.752,0,0,0-1.793.879V0H16.695V-9.51h2.777l.1,1.222a2.294,2.294,0,0,1,2.083-1.4,2.888,2.888,0,0,1,.826.105Zm10.151,7a4.889,4.889,0,0,1-3.542-1.305,4.507,4.507,0,0,1-1.354-3.4v-.246a5.84,5.84,0,0,1,.541-2.575A3.955,3.955,0,0,1,29.8-9.075a4.763,4.763,0,0,1,2.461-.611,4.117,4.117,0,0,1,3.164,1.244,4.887,4.887,0,0,1,1.16,3.467v1.151H30.7a2.135,2.135,0,0,0,.694,1.257,2.066,2.066,0,0,0,1.389.457,2.662,2.662,0,0,0,2.2-.984l1.354,1.6A3.784,3.784,0,0,1,34.761-.277,5.3,5.3,0,0,1,32.577.176ZM32.243-7.4q-1.3,0-1.547,1.723h2.988v-.229a1.467,1.467,0,0,0-.36-1.1A1.434,1.434,0,0,0,32.243-7.4ZM40.9,0H37.929V-13.5H40.9ZM56.035-4.685a5.735,5.735,0,0,1-1,3.538A3.2,3.2,0,0,1,52.343.176,2.742,2.742,0,0,1,50.19-.782V3.656H47.228V-9.51H50l.088.879a2.742,2.742,0,0,1,2.241-1.055,3.224,3.224,0,0,1,2.733,1.3,5.805,5.805,0,0,1,.976,3.564Zm-2.962-.185Q53.073-7.4,51.6-7.4a1.394,1.394,0,0,0-1.406.756V-2.9a1.439,1.439,0,0,0,1.424.791q1.415,0,1.459-2.443ZM60.464,0H57.494V-13.5h2.971Zm7.181,0a3.344,3.344,0,0,1-.281-.853A2.754,2.754,0,0,1,65.079.176a3.374,3.374,0,0,1-2.285-.813,2.588,2.588,0,0,1-.94-2.043A2.66,2.66,0,0,1,63-5.019a5.821,5.821,0,0,1,3.322-.791h.914v-.5q0-1.316-1.134-1.316a.927.927,0,0,0-1.055,1.042H62.082a2.655,2.655,0,0,1,1.173-2.239,4.931,4.931,0,0,1,2.993-.86,4.323,4.323,0,0,1,2.874.888A3.086,3.086,0,0,1,70.2-6.363v4.21a4.311,4.311,0,0,0,.4,2V0ZM65.791-1.934a1.652,1.652,0,0,0,.918-.237,1.487,1.487,0,0,0,.523-.536V-4.228h-.861q-1.547,0-1.547,1.389a.848.848,0,0,0,.272.655A.986.986,0,0,0,65.791-1.934ZM74.562-9.51l.1,1.116a3.225,3.225,0,0,1,2.716-1.292,2.713,2.713,0,0,1,2.219.888,4.226,4.226,0,0,1,.76,2.672V0H77.383V-6a1.6,1.6,0,0,0-.29-1.059A1.342,1.342,0,0,0,76.039-7.4a1.413,1.413,0,0,0-1.292.686V0H71.785V-9.51Z" transform="translate(590 1096)" fill="#12263f"/>
    <path id="Trazado_219759" data-name="Trazado 219759" d="M-50.366-5.432h-4.852v3.059h5.73V0H-58.3V-12.8h8.833v2.382h-5.748v2.7h4.852ZM-44.8-3.524l1.5-5.985h3.12L-43.282,0h-3.023l-3.1-9.51h3.129ZM-34.071,0a3.344,3.344,0,0,1-.281-.853A2.754,2.754,0,0,1-36.637.176a3.374,3.374,0,0,1-2.285-.813,2.588,2.588,0,0,1-.94-2.043A2.66,2.66,0,0,1-38.72-5.019,5.821,5.821,0,0,1-35.4-5.81h.914v-.5q0-1.316-1.134-1.316a.927.927,0,0,0-1.055,1.042h-2.962a2.655,2.655,0,0,1,1.173-2.239,4.931,4.931,0,0,1,2.993-.86,4.323,4.323,0,0,1,2.874.888,3.086,3.086,0,0,1,1.081,2.435v4.21a4.311,4.311,0,0,0,.4,2V0Zm-1.854-1.934a1.652,1.652,0,0,0,.918-.237,1.487,1.487,0,0,0,.523-.536V-4.228h-.861q-1.547,0-1.547,1.389a.848.848,0,0,0,.272.655A.986.986,0,0,0-35.925-1.934ZM-26.75,0H-29.72V-13.5h2.971Zm7.488-1.028A3.054,3.054,0,0,1-21.8.176a3,3,0,0,1-2.369-.91,3.826,3.826,0,0,1-.8-2.615V-9.51h2.962v6.179a1.065,1.065,0,0,0,1.187,1.222,1.548,1.548,0,0,0,1.45-.729V-9.51H-16.4V0h-2.777ZM-9.417,0A3.344,3.344,0,0,1-9.7-.853,2.754,2.754,0,0,1-11.984.176a3.374,3.374,0,0,1-2.285-.813,2.588,2.588,0,0,1-.94-2.043,2.66,2.66,0,0,1,1.143-2.338,5.821,5.821,0,0,1,3.322-.791h.914v-.5q0-1.316-1.134-1.316a.927.927,0,0,0-1.055,1.042h-2.962a2.655,2.655,0,0,1,1.173-2.239,4.931,4.931,0,0,1,2.993-.86A4.323,4.323,0,0,1-7.941-8.8,3.086,3.086,0,0,1-6.86-6.363v4.21a4.311,4.311,0,0,0,.4,2V0Zm-1.854-1.934a1.652,1.652,0,0,0,.918-.237,1.487,1.487,0,0,0,.523-.536V-4.228h-.861q-1.547,0-1.547,1.389a.848.848,0,0,0,.272.655A.986.986,0,0,0-11.272-1.934Zm11.8-4.9L-.444-6.9a1.752,1.752,0,0,0-1.793.879V0H-5.2V-9.51h2.777l.1,1.222a2.294,2.294,0,0,1,2.083-1.4,2.888,2.888,0,0,1,.826.105Zm10.151,7A4.889,4.889,0,0,1,7.141-1.129a4.507,4.507,0,0,1-1.354-3.4v-.246a5.84,5.84,0,0,1,.541-2.575A3.955,3.955,0,0,1,7.906-9.075a4.763,4.763,0,0,1,2.461-.611,4.117,4.117,0,0,1,3.164,1.244,4.887,4.887,0,0,1,1.16,3.467v1.151H8.8A2.135,2.135,0,0,0,9.5-2.566a2.066,2.066,0,0,0,1.389.457,2.662,2.662,0,0,0,2.2-.984l1.354,1.6A3.784,3.784,0,0,1,12.867-.277,5.3,5.3,0,0,1,10.683.176ZM10.349-7.4q-1.3,0-1.547,1.723h2.988v-.229a1.467,1.467,0,0,0-.36-1.1A1.434,1.434,0,0,0,10.349-7.4ZM19.006,0H16.036V-13.5h2.971ZM34.141-4.685a5.735,5.735,0,0,1-1,3.538A3.2,3.2,0,0,1,30.45.176,2.742,2.742,0,0,1,28.3-.782V3.656H25.334V-9.51H28.1l.088.879a2.742,2.742,0,0,1,2.241-1.055,3.224,3.224,0,0,1,2.733,1.3,5.805,5.805,0,0,1,.976,3.564Zm-2.962-.185Q31.179-7.4,29.7-7.4a1.394,1.394,0,0,0-1.406.756V-2.9a1.439,1.439,0,0,0,1.424.791q1.415,0,1.459-2.443ZM38.571,0H35.6V-13.5h2.971Zm7.181,0a3.344,3.344,0,0,1-.281-.853A2.754,2.754,0,0,1,43.185.176,3.374,3.374,0,0,1,40.9-.637a2.588,2.588,0,0,1-.94-2.043A2.66,2.66,0,0,1,41.1-5.019a5.821,5.821,0,0,1,3.322-.791h.914v-.5q0-1.316-1.134-1.316A.927.927,0,0,0,43.15-6.587H40.188a2.655,2.655,0,0,1,1.173-2.239,4.931,4.931,0,0,1,2.993-.86,4.323,4.323,0,0,1,2.874.888,3.086,3.086,0,0,1,1.081,2.435v4.21a4.311,4.311,0,0,0,.4,2V0ZM43.9-1.934a1.652,1.652,0,0,0,.918-.237,1.487,1.487,0,0,0,.523-.536V-4.228h-.861q-1.547,0-1.547,1.389a.848.848,0,0,0,.272.655A.986.986,0,0,0,43.9-1.934ZM52.668-9.51l.1,1.116a3.225,3.225,0,0,1,2.716-1.292A2.713,2.713,0,0,1,57.7-8.8a4.226,4.226,0,0,1,.76,2.672V0H55.49V-6a1.6,1.6,0,0,0-.29-1.059A1.342,1.342,0,0,0,54.145-7.4a1.413,1.413,0,0,0-1.292.686V0H49.891V-9.51Z" transform="translate(592 973)" fill="#12263f"/>
  </g>
</svg>
