<svg xmlns="http://www.w3.org/2000/svg" xmlns:xlink="http://www.w3.org/1999/xlink" width="122" height="122" viewBox="0 0 122 122">
  <defs>
    <clipPath id="clip-path">
      <rect id="Rectángulo_88892" data-name="Rectángulo 88892" width="85.865" height="85.801" fill="none"/>
    </clipPath>
  </defs>
  <g id="Grupo_146847" data-name="Grupo 146847" transform="translate(-388 -1405)">
    <g id="Elipse_5542" data-name="Elipse 5542" transform="translate(388 1405)" fill="#f5feff" stroke="#0082b2" stroke-width="2">
      <circle cx="61" cy="61" r="61" stroke="none"/>
      <circle cx="61" cy="61" r="60" fill="none"/>
    </g>
    <circle id="Elipse_5549" data-name="Elipse 5549" cx="43" cy="43" r="43" transform="translate(406 1423)" fill="#dff7f9"/>
    <g id="Grupo_140629" data-name="Grupo 140629" transform="translate(406 1423.199)">
      <g id="Grupo_140629-2" data-name="Grupo 140629" clip-path="url(#clip-path)">
        <path id="Trazado_214003" data-name="Trazado 214003" d="M39.579,0h3.857A1.719,1.719,0,0,0,44.61,0h1.845a48.212,48.212,0,0,1,5.7.746A43.334,43.334,0,0,1,66.382,6.693c.358.233.828.415.779.986a3.8,3.8,0,0,0-.509,2.229c0,1.862.084,3.726-.048,5.586a12.767,12.767,0,0,1-2.8,2.923.315.315,0,0,1-.319.014,32.212,32.212,0,0,0-10.715-5.918,31.84,31.84,0,0,0-28.329,4.362A31.146,31.146,0,0,0,11.292,38.488a30.747,30.747,0,0,0,7.155,24.8,30.826,30.826,0,0,0,19.54,11.069,31.236,31.236,0,0,0,25.438-7.065A30.548,30.548,0,0,0,72.158,55.7a2.123,2.123,0,0,1,.376-.648.611.611,0,0,1,.228-.125c1.429.157,2.717.508,3.318,2.043.556,1.42,1.347,2.738,1.927,4.147a2.176,2.176,0,0,0,1.5,1.416,3.04,3.04,0,0,1,1.2.548c.169.4-.06.706-.239,1.012a43.388,43.388,0,0,1-16.95,16.6,40.929,40.929,0,0,1-15.976,4.954,61.843,61.843,0,0,1-7.612.074,36.576,36.576,0,0,1-10.977-2.133A43.58,43.58,0,0,1,4.289,62.05,40.909,40.909,0,0,1,.2,48.757c-.1-.792-.04-1.6-.2-2.393v-1a1.71,1.71,0,0,0,0-1.172V41.51a1.71,1.71,0,0,0,0-1.172V39.167a52.247,52.247,0,0,1,.725-5.352A43.238,43.238,0,0,1,22.758,4.793,42.247,42.247,0,0,1,36.769.233C37.7.1,38.651.181,39.579,0" fill="#a7e446"/>
        <path id="Trazado_214004" data-name="Trazado 214004" d="M320.034,111.3c-.34.512-.2,1.127-.365,1.677a.544.544,0,0,1-.63.02,2.377,2.377,0,0,0-2.306.2c-1.381.721-2.834,1.293-4.211,2.018a2.2,2.2,0,0,1-2.062.138,8.073,8.073,0,0,1-1.894-.842.753.753,0,0,1-.108-.246c.066-1.36.346-2.694.485-4.048a29.794,29.794,0,0,0-.625-9.36A31.453,31.453,0,0,0,302.1,87.785,1.824,1.824,0,0,1,301.65,87a.5.5,0,0,1,.087-.394,12.51,12.51,0,0,1,2.747-2.6c1.894-.145,3.791-.053,5.686-.056a3.644,3.644,0,0,0,2.151-.5c.573-.071.761.393.992.751A43.386,43.386,0,0,1,318.557,95.6a30.627,30.627,0,0,1,1.392,8.444.354.354,0,0,0,.085.226v1.674a1.71,1.71,0,0,0,0,1.172v1a1.71,1.71,0,0,0,0,1.172v.837a.217.217,0,0,0,0,.335Z" transform="translate(-234.169 -64.772)" fill="#a7e446"/>
        <path id="Trazado_214005" data-name="Trazado 214005" d="M304.278.57c0,3.4,0,6.8-.024,10.2,0,.555.166.7.706.694,3.462-.022,6.924-.011,10.386-.011v.168a.446.446,0,0,1-.443.256c-3.287-.067-6.574-.006-9.861-.033a1.95,1.95,0,0,0-1.452.7c-2.221,2.226-4.44,4.456-6.686,6.658-.289.283-.586.856-1.149.33a7.891,7.891,0,0,1,.07-3.392c.013-2.024.066-4.049.02-6.071a2.363,2.363,0,0,1,.8-2.125c0-.383.3-.579.531-.809q3.029-3.035,6.071-6.055c.276-.273.51-.694,1.027-.5" transform="translate(-229.481 -0.405)" fill="#fec0c2"/>
        <path id="Trazado_214006" data-name="Trazado 214006" d="M195.35,0a.97.97,0,0,1-1.174,0Z" transform="translate(-150.74)" fill="#63c5ec"/>
        <path id="Trazado_214007" data-name="Trazado 214007" d="M383.166,185.243a.965.965,0,0,1,0-1.172Z" transform="translate(-297.301 -142.896)" fill="#62c5ec"/>
        <path id="Trazado_214008" data-name="Trazado 214008" d="M383.166,194.97a.965.965,0,0,1,0-1.172Z" transform="translate(-297.301 -150.447)" fill="#62c5ec"/>
        <path id="Trazado_214009" data-name="Trazado 214009" d="M0,197.539a.965.965,0,0,1,0,1.172Z" transform="translate(0 -153.351)" fill="#81d0ef"/>
        <path id="Trazado_214010" data-name="Trazado 214010" d="M0,180.329A.965.965,0,0,1,0,181.5Z" transform="translate(0 -139.991)" fill="#81d0ef"/>
        <path id="Trazado_214011" data-name="Trazado 214011" d="M383.371,203.112c-.192-.112-.179-.223,0-.335Z" transform="translate(-297.505 -157.417)" fill="#ace0f5"/>
        <path id="Trazado_214012" data-name="Trazado 214012" d="M109.762,92.154a29.411,29.411,0,0,1-5.2,8.526,31.626,31.626,0,0,1-17.524,10.576A32.266,32.266,0,0,1,48.261,84.933a30.548,30.548,0,0,1,4.384-21.789A31.493,31.493,0,0,1,75.022,48.192a31.09,31.09,0,0,1,21.836,4.363,18.576,18.576,0,0,1,3.876,2.883c.072.369-.209.557-.419.76-2.2,2.123-4.437,4.2-6.571,6.39a1.039,1.039,0,0,1-.714.39,1.579,1.579,0,0,1-.806-.414A21.281,21.281,0,0,0,59.181,76a21.232,21.232,0,0,0,18.676,24.963A20.563,20.563,0,0,0,94.71,95.182a20.907,20.907,0,0,0,4.485-6.1,1.864,1.864,0,0,1,.455-.694,1.26,1.26,0,0,1,1.047.1c2.745,1,5.5,1.968,8.245,2.976.337.124.791.179.82.694" transform="translate(-37.115 -37.067)" fill="#f1f1f1"/>
        <path id="Trazado_214013" data-name="Trazado 214013" d="M198.432,80.422l7.619-7.464,2.727-2.642q.045,1.762.089,3.523a18.707,18.707,0,0,1,2.7-.088c.347.011.734-.053.97.316L209.98,76.7a1.849,1.849,0,0,1-.648.853c-2.307,2.312-4.625,4.612-6.928,6.928q-3.87,3.83-7.708,7.692-1.548,1.517-3.064,3.065c-.948.938-1.881,1.891-2.834,2.823a3.28,3.28,0,0,1-2.775,1.069,2.819,2.819,0,0,1-2.427-2.124,3.01,3.01,0,0,1,.9-3.114c1.988-1.949,3.944-3.93,5.916-5.895,2.532-2.127,4.71-4.617,7.094-6.9a2.106,2.106,0,0,1,.923-.682" transform="translate(-142.433 -54.586)" fill="#12263f"/>
        <path id="Trazado_214014" data-name="Trazado 214014" d="M326.611,215.651a.437.437,0,0,1,.164.026c1.983,1.273,3.822.666,5.646-.4.649-.378,1.377-.625,2.011-1.025a3.159,3.159,0,0,1,3.23-.1,41.1,41.1,0,0,1-4.034,13.523c-.232.473-.5.927-.755,1.389-1.37-.321-2.619-.69-3.091-2.326-.333-1.154-1.113-2.175-1.5-3.319-.562-1.643-1.844-2.133-3.332-2.42a.739.739,0,0,1-.021-.785,38.192,38.192,0,0,0,1.241-3.958c.059-.243.058-.58.446-.6" transform="translate(-252.161 -165.942)" fill="#fc4b52"/>
        <path id="Trazado_214015" data-name="Trazado 214015" d="M291.32,208.96l-1.665,5.346-.138.031a6.971,6.971,0,0,0-2.43-1.029c-2.385-.9-4.793-1.743-7.194-2.6a2.172,2.172,0,0,0-.407-.065.2.2,0,0,1-.124-.211,37.4,37.4,0,0,0,1.5-5.14.469.469,0,0,1,.224-.137,2.029,2.029,0,0,1,1.051.217c2.716,1.009,5.447,1.977,8.175,2.953a2.382,2.382,0,0,1,.971.463l.035.175" transform="translate(-216.87 -159.251)" fill="#cbd0d4"/>
        <path id="Trazado_214016" data-name="Trazado 214016" d="M282.168,126.286a10.389,10.389,0,0,1-2.6-.818c-2.538-.883-5.066-1.8-7.6-2.7a1.279,1.279,0,0,1-.184-1.038,20.807,20.807,0,0,0-3.762-14.32,1.443,1.443,0,0,1-.408-.893c2.509-2.6,5.051-5.172,7.683-7.651a38.015,38.015,0,0,1,4.26,6.568,32.061,32.061,0,0,1,2.608,20.852" transform="translate(-207.753 -76.751)" fill="#f1f1f1"/>
        <path id="Trazado_214017" data-name="Trazado 214017" d="M300.655,58.332c-.971-.014-1.941-.02-2.911-.048-.257-.008-.565.127-.757-.18.382-.025.561-.341.792-.57,2.311-2.3,4.625-4.593,6.915-6.912a1.768,1.768,0,0,1,1.395-.568c3.039.024,6.078.008,9.117.016.293,0,.619-.111.872.151q-3.206,3.224-6.41,6.449c-.274.276-.533.565-.8.848a2.369,2.369,0,0,1-2.13.8c-2.026-.049-4.055,0-6.082.017" transform="translate(-230.552 -38.852)" fill="#fc4b52"/>
        <path id="Trazado_214018" data-name="Trazado 214018" d="M137.2,125.506a.585.585,0,0,0,.007.157,21.494,21.494,0,0,1-14.359,12.2c-11.4,3.123-23.809-4.464-26.27-16.041a21.44,21.44,0,0,1,17.834-25.9,20.831,20.831,0,0,1,15.621,3.809c.182.128.371.246.557.368-2.564,2.591-5.113,5.2-7.8,7.662-.362.132-.646-.083-.946-.216a10.583,10.583,0,0,0-2.624-.823,2.836,2.836,0,0,0-1.01-.1,10.5,10.5,0,0,0-4.283,20.353,9.132,9.132,0,0,0,1.936.528,2.874,2.874,0,0,0,1.042.082h1.211a3.106,3.106,0,0,0,1.018-.064,10.743,10.743,0,0,0,7.429-5.073,1.646,1.646,0,0,1,.412-.52.61.61,0,0,1,.241-.087,16.807,16.807,0,0,1,3.164,1.029c2.054.7,4.075,1.492,6.127,2.2a1.117,1.117,0,0,1,.693.426" transform="translate(-74.587 -74.272)" fill="#fc4b52"/>
        <path id="Trazado_214019" data-name="Trazado 214019" d="M152.81,164.861a9.373,9.373,0,0,1-5.436-2.53,10.6,10.6,0,0,1,.027-16.057,10.11,10.11,0,0,1,7.769-2.658c.316.185.694-.045,1.009.15a9.093,9.093,0,0,1,3.581,1.2q-2.922,2.915-5.845,5.829c-1.922,1.913-1.345,4.251,1.25,5.051,2.32.495,4.453,1.545,6.7,2.257.475.151.945.327,1.413.5.307.115.651.194.768.57a10.536,10.536,0,0,1-3.44,3.925,8.733,8.733,0,0,1-4.428,1.765c-.314.2-.692-.034-1.008.15h-1.352c-.316-.185-.694.045-1.008-.15" transform="translate(-111.561 -111.465)" fill="#feca2e"/>
        <path id="Trazado_214020" data-name="Trazado 214020" d="M240.737,133.072a20.794,20.794,0,0,1,4.41,15.167c-.033.36-.038.723-.056,1.084q-.066.017-.131.037a3.667,3.667,0,0,1-1.512-.441c-2.712-.952-5.42-1.915-8.116-2.911a2.4,2.4,0,0,1-.756-.349.676.676,0,0,1-.154-.207c-.123-.321-.079-.675-.2-1a10.243,10.243,0,0,0-1.015-2.978c-.114-.215-.288-.42-.185-.695,2.511-2.63,5.093-5.191,7.716-7.709" transform="translate(-180.872 -103.305)" fill="#fc4b52"/>
        <path id="Trazado_214021" data-name="Trazado 214021" d="M203.807,188.081c-1.823-.673-3.651-1.333-5.467-2.024a33.5,33.5,0,0,1-3.414-1.305,3.414,3.414,0,0,0,2.787-1.209c.874-.921,1.81-1.784,2.72-2.672.324-.134.6.047.877.152a26.385,26.385,0,0,1,3.49,1.344c.056.063.114.125.172.186l.036.007a6.668,6.668,0,0,1-1.156,5.516Z" transform="translate(-151.323 -140.375)" fill="#d5b55d"/>
        <path id="Trazado_214022" data-name="Trazado 214022" d="M223.929,172.229l-4.385-1.672a38.947,38.947,0,0,1,3.039-3.02,7.583,7.583,0,0,1,1.351,3.692,1.351,1.351,0,0,1-.006,1" transform="translate(-170.434 -130.059)" fill="#feca2e"/>
        <path id="Trazado_214023" data-name="Trazado 214023" d="M234.835,194.107a10.881,10.881,0,0,0,1.156-5.516q5.029,1.829,10.057,3.661a2.053,2.053,0,0,1,.344.207,15.105,15.105,0,0,1-1.48,5.179c-3.321-1.036-6.547-2.34-9.834-3.473a2.453,2.453,0,0,0-.243-.058" transform="translate(-182.304 -146.405)" fill="#d56959"/>
        <path id="Trazado_214024" data-name="Trazado 214024" d="M195.959,143.8c-.337-.044-.707.129-1.009-.151.341.019.706-.127,1.009.151" transform="translate(-151.341 -111.502)" fill="#f4c776"/>
        <path id="Trazado_214025" data-name="Trazado 214025" d="M184.4,238.66c.337.044.706-.128,1.008.15-.341-.018-.706.127-1.008-.15" transform="translate(-143.15 -185.263)" fill="#f4c776"/>
        <path id="Trazado_214026" data-name="Trazado 214026" d="M194.948,238.809c.3-.279.671-.106,1.008-.15-.3.278-.667.132-1.008.15" transform="translate(-151.34 -185.263)" fill="#f4c776"/>
        <path id="Trazado_214027" data-name="Trazado 214027" d="M239.145,185.042q0-.5.006-1c.278.3.133.669.15,1.011a1.244,1.244,0,0,1-.156-.01" transform="translate(-185.65 -142.872)" fill="#f3c676"/>
      </g>
    </g>
  </g>
</svg>
