<svg xmlns="http://www.w3.org/2000/svg" xmlns:xlink="http://www.w3.org/1999/xlink" width="820" height="633.725" viewBox="0 0 820 633.725">
  <defs>
    <clipPath id="clip-path">
      <rect id="Rectángulo_88926" data-name="Rectángulo 88926" width="820" height="633.725" fill="none"/>
    </clipPath>
    <clipPath id="clip-path-2">
      <rect id="Rectángulo_88927" data-name="Rectángulo 88927" width="41.58" height="54.93" fill="none"/>
    </clipPath>
    <clipPath id="clip-path-3">
      <rect id="Rectángulo_88928" data-name="Rectángulo 88928" width="50.352" height="50.38" fill="none"/>
    </clipPath>
    <clipPath id="clip-path-4">
      <rect id="Rectángulo_88929" data-name="Rectángulo 88929" width="46.229" height="46.993" fill="none"/>
    </clipPath>
    <clipPath id="clip-path-5">
      <rect id="Rectángulo_88930" data-name="Rectángulo 88930" width="45.962" height="46.003" fill="none"/>
    </clipPath>
    <clipPath id="clip-path-6">
      <rect id="Rectángulo_88931" data-name="Rectángulo 88931" width="41.049" height="45.192" fill="none"/>
    </clipPath>
  </defs>
  <g id="Grupo_146854" data-name="Grupo 146854" transform="translate(-390 -2129)">
    <g id="Grupo_146600" data-name="Grupo 146600" transform="translate(390 2129)">
      <path id="Trazado_216629" data-name="Trazado 216629" d="M672.989,133.5v45.65h50.454V340.124h55.826V179.153h50.312V133.5Z" transform="translate(-9.582 -1.901)" fill="#64892a"/>
      <g id="Grupo_146599" data-name="Grupo 146599">
        <g id="Grupo_146598" data-name="Grupo 146598" clip-path="url(#clip-path)">
          <path id="Trazado_216630" data-name="Trazado 216630" d="M604.723,264.938v75.186H548.9V133.5h67.7q84.228,0,84.231,61.054,0,35.9-35.051,55.541l60.206,90.026H662.669l-43.812-75.186Zm0-41.975h10.458q29.255,0,29.255-25.862,0-21.338-28.689-21.341H604.723Z" transform="translate(-7.815 -1.901)" fill="#a7e446"/>
          <path id="Trazado_216631" data-name="Trazado 216631" d="M508.03,340.112l-10.176-38.724h-67.13l-10.458,38.724H358.929l67.413-207.469h74.479l68.261,207.469ZM486.265,255.6l-8.9-33.918q-3.111-11.307-7.562-29.255T463.935,166.7q-1.273,7.208-5.017,23.743T442.312,255.6Z" transform="translate(-5.11 -1.889)" fill="#feca2e"/>
          <path id="Trazado_216632" data-name="Trazado 216632" d="M228.235,340.124,185.978,191.307h-1.272q2.968,38.019,2.968,59.074v89.743H138.209V133.5h74.339l43.1,146.7h1.131L299.04,133.5h74.479v206.62h-51.3v-90.59q0-7.066.213-15.689t1.907-42.257h-1.272L281.374,340.124Z" transform="translate(-1.968 -1.901)" fill="#cba124"/>
          <path id="Trazado_216633" data-name="Trazado 216633" d="M148.959,277.331q0,19.222-9.752,34.131T111.083,334.64q-18.374,8.267-43.1,8.267-20.637,0-34.626-2.9a128.458,128.458,0,0,1-29.114-10.1V280.157a166.059,166.059,0,0,0,33.212,12.791,123.76,123.76,0,0,0,31.658,4.593q12.434,0,18.231-4.311a13.251,13.251,0,0,0,5.794-11.094,12.209,12.209,0,0,0-2.331-7.42,27.2,27.2,0,0,0-7.491-6.431Q78.151,265.037,55.824,255q-20.212-9.184-30.315-17.808a54.642,54.642,0,0,1-14.981-19.785Q5.653,206.245,5.653,190.98q0-28.545,20.775-44.519t57.1-15.969q32.081,0,65.435,14.84l-17.1,43.1q-28.973-13.283-50.029-13.284-10.884,0-15.829,3.816a11.545,11.545,0,0,0-4.946,9.468q0,6.079,6.289,10.883t34.13,17.525q26.712,12.014,37.1,25.791t10.388,34.7" transform="translate(-0.06 -1.858)" fill="#fc4b52"/>
          <path id="Trazado_216634" data-name="Trazado 216634" d="M805.336,609.967l-60.684,29.409-60.686-29.409V396.911h121.37Z" transform="translate(-9.738 -5.651)" fill="#64892a"/>
          <path id="Trazado_216635" data-name="Trazado 216635" d="M782.121,466.787a37.131,37.131,0,1,1-37.132-37.131,37.131,37.131,0,0,1,37.132,37.131" transform="translate(-10.078 -6.117)" fill="#3f5a15"/>
          <path id="Trazado_216638" data-name="Trazado 216638" d="M634.344,609.967,573.66,639.376l-60.686-29.409V396.911h121.37Z" transform="translate(-7.303 -5.651)" fill="#a7e446"/>
          <path id="Trazado_216639" data-name="Trazado 216639" d="M611.129,466.787A37.13,37.13,0,1,1,574,429.656a37.13,37.13,0,0,1,37.13,37.131" transform="translate(-7.644 -6.117)" fill="#64892a"/>
          <path id="Trazado_216642" data-name="Trazado 216642" d="M463.354,609.967l-60.685,29.409-60.687-29.409V396.911H463.354Z" transform="translate(-4.869 -5.651)" fill="#feca2e"/>
          <path id="Trazado_216643" data-name="Trazado 216643" d="M440.138,466.787a37.13,37.13,0,1,1-37.131-37.131,37.13,37.13,0,0,1,37.131,37.131" transform="translate(-5.209 -6.117)" fill="#d39807"/>
          <path id="Trazado_216644" data-name="Trazado 216644" d="M435.6,466.853a32.53,32.53,0,1,1-32.53-32.53,32.529,32.529,0,0,1,32.53,32.53" transform="translate(-5.276 -6.184)" fill="#fff"/>
          <path id="Trazado_216645" data-name="Trazado 216645" d="M121.371,609.967,60.686,639.376,0,609.967V396.911H121.371Z" transform="translate(0 -5.651)" fill="#fc4b52"/>
          <path id="Trazado_216646" data-name="Trazado 216646" d="M98.156,466.787a37.13,37.13,0,1,1-37.131-37.131,37.131,37.131,0,0,1,37.131,37.131" transform="translate(-0.34 -6.117)" fill="#ba1e1e"/>
          <path id="Trazado_216649" data-name="Trazado 216649" d="M292.362,609.967l-60.686,29.409-60.686-29.409V396.911H292.362Z" transform="translate(-2.434 -5.651)" fill="#cba124"/>
          <path id="Trazado_216650" data-name="Trazado 216650" d="M269.147,466.787a37.13,37.13,0,1,1-37.13-37.131,37.13,37.13,0,0,1,37.13,37.131" transform="translate(-2.775 -6.117)" fill="#98791b"/>
          <path id="Trazado_216653" data-name="Trazado 216653" d="M533.969,38.836A55.875,55.875,0,1,0,589.887,94.67a55.882,55.882,0,0,0-55.917-55.834" transform="translate(-6.807 -0.553)" fill="#ddd"/>
          <path id="Trazado_216654" data-name="Trazado 216654" d="M510.994,94.979a23.278,23.278,0,0,0,23.3,23.272l.009,14.507a37.792,37.792,0,1,1-.056-75.584l.01,14.524a23.274,23.274,0,0,0-23.266,23.281" transform="translate(-7.068 -0.814)" fill="#c93c41"/>
          <path id="Trazado_216655" data-name="Trazado 216655" d="M484.536,94.621a49.419,49.419,0,0,0,49.4,49.336l.01,14.506a63.876,63.876,0,1,1-.095-127.753l.008,14.522a49.417,49.417,0,0,0-49.326,49.388" transform="translate(-6.692 -0.437)" fill="#c93c41"/>
          <path id="Trazado_216656" data-name="Trazado 216656" d="M534.64,83.315l.018,24.045a12.022,12.022,0,1,1-.018-24.045" transform="translate(-7.441 -1.186)" fill="#fc4b52"/>
          <path id="Trazado_216657" data-name="Trazado 216657" d="M546.847,95.342a12.023,12.023,0,0,1-12.016,12.017l-.019-24.045a12.033,12.033,0,0,1,12.034,12.027" transform="translate(-7.614 -1.186)" fill="#972d31"/>
          <path id="Trazado_216658" data-name="Trazado 216658" d="M572.619,94.935a37.842,37.842,0,0,1-37.768,37.824l-.011-14.507a23.276,23.276,0,0,0-.034-46.552l-.011-14.525a37.85,37.85,0,0,1,37.824,37.761" transform="translate(-7.614 -0.814)" fill="#972d31"/>
          <path id="Trazado_216659" data-name="Trazado 216659" d="M598.7,94.539a63.94,63.94,0,0,1-63.825,63.925l-.015-14.506a49.362,49.362,0,0,0-.069-98.724l-.014-14.522A63.955,63.955,0,0,1,598.7,94.539" transform="translate(-7.614 -0.437)" fill="#972d31"/>
          <path id="Trazado_216660" data-name="Trazado 216660" d="M571.982,12.391l2.653,1.313L534.75,94.327a2.962,2.962,0,0,1-1.339-3.97Z" transform="translate(-7.59 -0.176)" fill="#434444"/>
          <path id="Trazado_216661" data-name="Trazado 216661" d="M574.659,13.723l2.657,1.314L538.744,93a2.961,2.961,0,0,1-3.969,1.341Z" transform="translate(-7.614 -0.195)" fill="#222324"/>
          <path id="Trazado_216662" data-name="Trazado 216662" d="M554.825,22.414l5.462,14.065,11.091-22.416L565.914,0Z" transform="translate(-7.899 0)" fill="#b2c5c7"/>
          <path id="Trazado_216663" data-name="Trazado 216663" d="M580.25,35.1l-14.495,4.191,11.09-22.415,14.494-4.19Z" transform="translate(-8.055 -0.181)" fill="#869495"/>
          <path id="Trazado_216664" data-name="Trazado 216664" d="M93.622,466.853a32.53,32.53,0,1,1-32.53-32.53,32.529,32.529,0,0,1,32.53,32.53" transform="translate(-0.407 -6.184)" fill="#fff"/>
          <path id="Trazado_216665" data-name="Trazado 216665" d="M264.613,466.853a32.53,32.53,0,1,1-32.53-32.53,32.529,32.529,0,0,1,32.53,32.53" transform="translate(-2.841 -6.184)" fill="#fff"/>
          <path id="Trazado_216666" data-name="Trazado 216666" d="M606.6,466.853a32.53,32.53,0,1,1-32.53-32.53,32.529,32.529,0,0,1,32.53,32.53" transform="translate(-7.71 -6.184)" fill="#fff"/>
          <path id="Trazado_216667" data-name="Trazado 216667" d="M777.586,466.853a32.53,32.53,0,1,1-32.53-32.53,32.529,32.529,0,0,1,32.53,32.53" transform="translate(-10.145 -6.184)" fill="#fff"/>
        </g>
      </g>
    </g>
    <path id="Trazado_219769" data-name="Trazado 219769" d="M8.9-5.432H4.052v3.059h5.73V0H.967V-12.8H9.8v2.382H4.052v2.7H8.9Zm6.979,2.76a.684.684,0,0,0-.4-.606,6.016,6.016,0,0,0-1.5-.475A6.853,6.853,0,0,1,12.155-4.4a3.062,3.062,0,0,1-1.1-.971,2.319,2.319,0,0,1-.378-1.31A2.628,2.628,0,0,1,11.76-8.837a4.453,4.453,0,0,1,2.83-.848,4.934,4.934,0,0,1,3.023.853,2.666,2.666,0,0,1,1.143,2.241H15.785q0-1.143-1.2-1.143a1.194,1.194,0,0,0-.782.259.8.8,0,0,0-.316.646.737.737,0,0,0,.387.642,3.654,3.654,0,0,0,1.235.4,10.671,10.671,0,0,1,1.49.378A2.706,2.706,0,0,1,18.738-2.76,2.491,2.491,0,0,1,17.583-.642,5.068,5.068,0,0,1,14.59.176a5.172,5.172,0,0,1-2.18-.439,3.645,3.645,0,0,1-1.494-1.2A2.707,2.707,0,0,1,10.38-3.05h2.769a1.145,1.145,0,0,0,.439.962,1.808,1.808,0,0,0,1.081.3,1.422,1.422,0,0,0,.91-.246A.787.787,0,0,0,15.882-2.672ZM28.951-4.685a5.735,5.735,0,0,1-1,3.538A3.2,3.2,0,0,1,25.26.176a2.742,2.742,0,0,1-2.153-.958V3.656H20.145V-9.51h2.769L23-8.631a2.742,2.742,0,0,1,2.241-1.055,3.224,3.224,0,0,1,2.733,1.3,5.805,5.805,0,0,1,.976,3.564Zm-2.962-.185q0-2.531-1.477-2.531a1.394,1.394,0,0,0-1.406.756V-2.9a1.439,1.439,0,0,0,1.424.791q1.415,0,1.459-2.443ZM34.857.176a4.889,4.889,0,0,1-3.542-1.305,4.507,4.507,0,0,1-1.354-3.4v-.246A5.84,5.84,0,0,1,30.5-7.348,3.955,3.955,0,0,1,32.08-9.075a4.763,4.763,0,0,1,2.461-.611,4.117,4.117,0,0,1,3.164,1.244,4.887,4.887,0,0,1,1.16,3.467v1.151H32.977a2.135,2.135,0,0,0,.694,1.257,2.066,2.066,0,0,0,1.389.457,2.662,2.662,0,0,0,2.2-.984l1.354,1.6A3.784,3.784,0,0,1,37.042-.277,5.3,5.3,0,0,1,34.857.176ZM34.523-7.4q-1.3,0-1.547,1.723h2.988v-.229a1.467,1.467,0,0,0-.36-1.1A1.434,1.434,0,0,0,34.523-7.4Zm9.554,5.291a1.317,1.317,0,0,0,.967-.338,1.241,1.241,0,0,0,.334-.945h2.777A3.288,3.288,0,0,1,47.035-.826a4.168,4.168,0,0,1-2.887,1,4.22,4.22,0,0,1-3.27-1.3,5.125,5.125,0,0,1-1.2-3.6v-.123A5.792,5.792,0,0,1,40.214-7.4a3.872,3.872,0,0,1,1.534-1.7,4.573,4.573,0,0,1,2.373-.593,4.116,4.116,0,0,1,2.944,1.028,3.647,3.647,0,0,1,1.09,2.786H45.378A1.626,1.626,0,0,0,45.018-7a1.244,1.244,0,0,0-.967-.4q-1.151,0-1.345,1.468a10.357,10.357,0,0,0-.062,1.283,4.068,4.068,0,0,0,.343,1.986A1.187,1.187,0,0,0,44.077-2.109ZM52.638,0H49.658V-9.51h2.979ZM51.53-13.324h3.129l-2.443,2.76-2.417,0ZM55.23,0V-7.453h-1.38V-9.51h1.38v-.316a3.631,3.631,0,0,1,1.248-2.909,4.987,4.987,0,0,1,3.243-.949,11.509,11.509,0,0,1,3.094.51l-.4,2.338-.492-.132a7.832,7.832,0,0,0-2.021-.255q-1.7,0-1.7,1.547v.167h1.863v2.057H58.2V0Zm8.947,0H61.2V-9.51h2.979ZM70-2.109a1.317,1.317,0,0,0,.967-.338,1.241,1.241,0,0,0,.334-.945h2.777A3.288,3.288,0,0,1,72.962-.826a4.168,4.168,0,0,1-2.887,1,4.22,4.22,0,0,1-3.27-1.3,5.125,5.125,0,0,1-1.2-3.6v-.123A5.792,5.792,0,0,1,66.142-7.4a3.872,3.872,0,0,1,1.534-1.7,4.573,4.573,0,0,1,2.373-.593,4.116,4.116,0,0,1,2.944,1.028,3.647,3.647,0,0,1,1.09,2.786H71.306A1.626,1.626,0,0,0,70.945-7a1.244,1.244,0,0,0-.967-.4q-1.151,0-1.345,1.468a10.357,10.357,0,0,0-.062,1.283,4.068,4.068,0,0,0,.343,1.986A1.187,1.187,0,0,0,70-2.109Zm4.957-2.733a5.613,5.613,0,0,1,.554-2.536,3.96,3.96,0,0,1,1.591-1.709,4.791,4.791,0,0,1,2.435-.6,4.373,4.373,0,0,1,3.366,1.323,5.076,5.076,0,0,1,1.23,3.6v.105A4.925,4.925,0,0,1,82.9-1.129,4.384,4.384,0,0,1,79.559.176,4.434,4.434,0,0,1,76.3-1.042a4.761,4.761,0,0,1-1.327-3.3Zm2.962.185a3.538,3.538,0,0,0,.413,1.934,1.376,1.376,0,0,0,1.222.615q1.582,0,1.617-2.435v-.3q0-2.558-1.635-2.558-1.485,0-1.608,2.206Z" transform="translate(410 2668)" fill="#12263f"/>
    <path id="Trazado_219765" data-name="Trazado 219765" d="M5.019-12.8l2.856,8.9,2.848-8.9h4.061V0H11.689V-2.988l.3-6.117L8.895,0H6.855l-3.1-9.114.3,6.126V0H.967V-12.8ZM21.208.176a4.889,4.889,0,0,1-3.542-1.305,4.507,4.507,0,0,1-1.354-3.4v-.246a5.84,5.84,0,0,1,.541-2.575,3.955,3.955,0,0,1,1.578-1.727,4.763,4.763,0,0,1,2.461-.611,4.117,4.117,0,0,1,3.164,1.244,4.887,4.887,0,0,1,1.16,3.467v1.151H19.327a2.135,2.135,0,0,0,.694,1.257,2.066,2.066,0,0,0,1.389.457,2.662,2.662,0,0,0,2.2-.984l1.354,1.6A3.784,3.784,0,0,1,23.392-.277,5.3,5.3,0,0,1,21.208.176ZM20.874-7.4q-1.3,0-1.547,1.723h2.988v-.229a1.467,1.467,0,0,0-.36-1.1A1.434,1.434,0,0,0,20.874-7.4Zm5.159,2.575a5.809,5.809,0,0,1,.976-3.56,3.211,3.211,0,0,1,2.725-1.3,2.731,2.731,0,0,1,2.145,1V-13.5h2.971V0H32.186l-.149-1.02a2.8,2.8,0,0,1-2.32,1.2,3.205,3.205,0,0,1-2.689-1.3A5.993,5.993,0,0,1,26.033-4.825ZM29-4.641q0,2.531,1.477,2.531a1.458,1.458,0,0,0,1.406-.826V-6.557A1.419,1.419,0,0,0,30.489-7.4Q29.118-7.4,29-5.186ZM39.656,0H36.686V-9.51h2.971ZM36.51-11.962A1.322,1.322,0,0,1,36.967-13a1.724,1.724,0,0,1,1.187-.4,1.724,1.724,0,0,1,1.187.4,1.322,1.322,0,0,1,.457,1.037,1.322,1.322,0,0,1-.457,1.037,1.724,1.724,0,0,1-1.187.4,1.724,1.724,0,0,1-1.187-.4A1.322,1.322,0,0,1,36.51-11.962Zm13.8,7.286a5.8,5.8,0,0,1-.967,3.595A3.238,3.238,0,0,1,46.617.176,2.81,2.81,0,0,1,44.279-.976L44.156,0H41.5V-13.5h2.962v4.755a2.711,2.711,0,0,1,2.136-.94,3.239,3.239,0,0,1,2.742,1.274,5.826,5.826,0,0,1,.967,3.586Zm-2.971-.189a3.866,3.866,0,0,0-.365-1.952A1.229,1.229,0,0,0,45.853-7.4a1.418,1.418,0,0,0-1.389.763v3.773a1.426,1.426,0,0,0,1.406.755A1.258,1.258,0,0,0,47.2-3.127,7.309,7.309,0,0,0,47.338-4.865ZM54.738,0H51.768V-13.5h2.971Zm6.425.176a4.889,4.889,0,0,1-3.542-1.305,4.507,4.507,0,0,1-1.354-3.4v-.246a5.84,5.84,0,0,1,.541-2.575,3.955,3.955,0,0,1,1.578-1.727,4.763,4.763,0,0,1,2.461-.611,4.117,4.117,0,0,1,3.164,1.244,4.887,4.887,0,0,1,1.16,3.467v1.151H59.282a2.135,2.135,0,0,0,.694,1.257,2.066,2.066,0,0,0,1.389.457,2.662,2.662,0,0,0,2.2-.984l1.354,1.6A3.784,3.784,0,0,1,63.347-.277,5.3,5.3,0,0,1,61.163.176ZM60.829-7.4q-1.3,0-1.547,1.723h2.988v-.229a1.467,1.467,0,0,0-.36-1.1A1.434,1.434,0,0,0,60.829-7.4Z" transform="translate(587 2668)" fill="#12263f"/>
    <path id="Trazado_219766" data-name="Trazado 219766" d="M8.235-2.391H4.008L3.27,0h-3.3L4.667-12.8h2.9L12.3,0H8.982ZM4.746-4.772H7.5L6.117-9.211ZM16.216,0H13.245V-13.5h2.971Zm5.845-2.109a1.317,1.317,0,0,0,.967-.338,1.241,1.241,0,0,0,.334-.945h2.777A3.288,3.288,0,0,1,25.018-.826a4.168,4.168,0,0,1-2.887,1,4.22,4.22,0,0,1-3.27-1.3,5.125,5.125,0,0,1-1.2-3.6v-.123A5.792,5.792,0,0,1,18.2-7.4a3.872,3.872,0,0,1,1.534-1.7A4.573,4.573,0,0,1,22.1-9.686a4.116,4.116,0,0,1,2.944,1.028,3.647,3.647,0,0,1,1.09,2.786H23.361A1.626,1.626,0,0,0,23-7a1.244,1.244,0,0,0-.967-.4q-1.151,0-1.345,1.468a10.357,10.357,0,0,0-.062,1.283,4.068,4.068,0,0,0,.343,1.986A1.187,1.187,0,0,0,22.061-2.109ZM32.748,0a3.344,3.344,0,0,1-.281-.853A2.754,2.754,0,0,1,30.182.176,3.374,3.374,0,0,1,27.9-.637a2.588,2.588,0,0,1-.94-2.043A2.66,2.66,0,0,1,28.1-5.019a5.821,5.821,0,0,1,3.322-.791h.914v-.5q0-1.316-1.134-1.316a.927.927,0,0,0-1.055,1.042H27.185a2.655,2.655,0,0,1,1.173-2.239,4.931,4.931,0,0,1,2.993-.86,4.323,4.323,0,0,1,2.874.888,3.086,3.086,0,0,1,1.081,2.435v4.21a4.311,4.311,0,0,0,.4,2V0ZM30.894-1.934a1.652,1.652,0,0,0,.918-.237,1.487,1.487,0,0,0,.523-.536V-4.228h-.861q-1.547,0-1.547,1.389a.848.848,0,0,0,.272.655A.986.986,0,0,0,30.894-1.934ZM39.665-9.51l.1,1.116a3.225,3.225,0,0,1,2.716-1.292A2.713,2.713,0,0,1,44.7-8.8a4.226,4.226,0,0,1,.76,2.672V0H42.486V-6a1.6,1.6,0,0,0-.29-1.059A1.342,1.342,0,0,0,41.142-7.4a1.413,1.413,0,0,0-1.292.686V0H36.888V-9.51ZM50.59-2.285h4.333V0H46.846V-1.652l4.219-5.572H47.03V-9.51h7.8v1.6ZM61.717,0a3.344,3.344,0,0,1-.281-.853A2.754,2.754,0,0,1,59.15.176a3.374,3.374,0,0,1-2.285-.813,2.588,2.588,0,0,1-.94-2.043,2.66,2.66,0,0,1,1.143-2.338A5.821,5.821,0,0,1,60.39-5.81H61.3v-.5q0-1.316-1.134-1.316a.927.927,0,0,0-1.055,1.042H56.153a2.655,2.655,0,0,1,1.173-2.239,4.931,4.931,0,0,1,2.993-.86,4.323,4.323,0,0,1,2.874.888,3.086,3.086,0,0,1,1.081,2.435v4.21a4.311,4.311,0,0,0,.4,2V0ZM59.862-1.934a1.652,1.652,0,0,0,.918-.237,1.487,1.487,0,0,0,.523-.536V-4.228h-.861q-1.547,0-1.547,1.389a.848.848,0,0,0,.272.655A.986.986,0,0,0,59.862-1.934Zm14.88-2.742a5.8,5.8,0,0,1-.967,3.595A3.238,3.238,0,0,1,71.051.176,2.81,2.81,0,0,1,68.713-.976L68.59,0H65.936V-13.5H68.9v4.755a2.711,2.711,0,0,1,2.136-.94,3.239,3.239,0,0,1,2.742,1.274,5.826,5.826,0,0,1,.967,3.586Zm-2.971-.189a3.866,3.866,0,0,0-.365-1.952A1.229,1.229,0,0,0,70.286-7.4a1.418,1.418,0,0,0-1.389.763v3.773a1.426,1.426,0,0,0,1.406.755,1.258,1.258,0,0,0,1.327-1.018A7.309,7.309,0,0,0,71.771-4.865ZM79.172,0H76.2V-13.5h2.971ZM85.6.176a4.889,4.889,0,0,1-3.542-1.305,4.507,4.507,0,0,1-1.354-3.4v-.246a5.84,5.84,0,0,1,.541-2.575,3.955,3.955,0,0,1,1.578-1.727,4.763,4.763,0,0,1,2.461-.611,4.117,4.117,0,0,1,3.164,1.244A4.887,4.887,0,0,1,89.6-4.975v1.151H83.716a2.135,2.135,0,0,0,.694,1.257,2.066,2.066,0,0,0,1.389.457A2.662,2.662,0,0,0,88-3.094l1.354,1.6A3.784,3.784,0,0,1,87.781-.277,5.3,5.3,0,0,1,85.6.176ZM85.263-7.4q-1.3,0-1.547,1.723H86.7v-.229a1.467,1.467,0,0,0-.36-1.1A1.434,1.434,0,0,0,85.263-7.4Z" transform="translate(744 2668)" fill="#12263f"/>
    <path id="Trazado_219767" data-name="Trazado 219767" d="M5.722-4.526H4.052V0H.967V-12.8H6a5.621,5.621,0,0,1,3.56,1.01,3.421,3.421,0,0,1,1.283,2.853,4.155,4.155,0,0,1-.541,2.213A3.837,3.837,0,0,1,8.613-5.3L11.285-.132V0H7.98ZM4.052-6.9H6a1.751,1.751,0,0,0,1.323-.463A1.788,1.788,0,0,0,7.77-8.653a1.809,1.809,0,0,0-.448-1.3A1.735,1.735,0,0,0,6-10.424H4.052ZM17.174.176a4.889,4.889,0,0,1-3.542-1.305,4.507,4.507,0,0,1-1.354-3.4v-.246a5.84,5.84,0,0,1,.541-2.575A3.955,3.955,0,0,1,14.4-9.075a4.763,4.763,0,0,1,2.461-.611,4.117,4.117,0,0,1,3.164,1.244,4.887,4.887,0,0,1,1.16,3.467v1.151H15.293a2.135,2.135,0,0,0,.694,1.257,2.066,2.066,0,0,0,1.389.457,2.662,2.662,0,0,0,2.2-.984l1.354,1.6A3.784,3.784,0,0,1,19.358-.277,5.3,5.3,0,0,1,17.174.176ZM16.84-7.4q-1.3,0-1.547,1.723h2.988v-.229a1.467,1.467,0,0,0-.36-1.1A1.434,1.434,0,0,0,16.84-7.4ZM25.5,0H22.526V-13.5H25.5Zm6.425.176A4.889,4.889,0,0,1,28.38-1.129a4.507,4.507,0,0,1-1.354-3.4v-.246a5.84,5.84,0,0,1,.541-2.575,3.955,3.955,0,0,1,1.578-1.727,4.763,4.763,0,0,1,2.461-.611A4.117,4.117,0,0,1,34.77-8.442a4.887,4.887,0,0,1,1.16,3.467v1.151H30.041a2.135,2.135,0,0,0,.694,1.257,2.066,2.066,0,0,0,1.389.457,2.662,2.662,0,0,0,2.2-.984l1.354,1.6A3.784,3.784,0,0,1,34.106-.277,5.3,5.3,0,0,1,31.922.176ZM31.588-7.4q-1.3,0-1.547,1.723h2.988v-.229a1.467,1.467,0,0,0-.36-1.1A1.434,1.434,0,0,0,31.588-7.4ZM40.8-3.524,42.3-9.51h3.12L42.319,0H39.3l-3.1-9.51h3.129ZM51.53,0a3.344,3.344,0,0,1-.281-.853A2.754,2.754,0,0,1,48.964.176a3.374,3.374,0,0,1-2.285-.813,2.588,2.588,0,0,1-.94-2.043,2.66,2.66,0,0,1,1.143-2.338A5.821,5.821,0,0,1,50.2-5.81h.914v-.5q0-1.316-1.134-1.316a.927.927,0,0,0-1.055,1.042H45.967A2.655,2.655,0,0,1,47.14-8.825a4.931,4.931,0,0,1,2.993-.86,4.323,4.323,0,0,1,2.874.888,3.086,3.086,0,0,1,1.081,2.435v4.21a4.311,4.311,0,0,0,.4,2V0ZM49.676-1.934a1.652,1.652,0,0,0,.918-.237,1.487,1.487,0,0,0,.523-.536V-4.228h-.861q-1.547,0-1.547,1.389a.848.848,0,0,0,.272.655A.986.986,0,0,0,49.676-1.934ZM58.447-9.51l.1,1.116A3.225,3.225,0,0,1,61.26-9.686a2.713,2.713,0,0,1,2.219.888,4.226,4.226,0,0,1,.76,2.672V0H61.269V-6a1.6,1.6,0,0,0-.29-1.059A1.342,1.342,0,0,0,59.924-7.4a1.413,1.413,0,0,0-1.292.686V0H55.67V-9.51Zm10.881-2.364V-9.51h1.564v2.057H69.328V-3.1a1.111,1.111,0,0,0,.193.747,1.037,1.037,0,0,0,.765.211,4.345,4.345,0,0,0,.738-.053V-.079a5.466,5.466,0,0,1-1.67.255A3.1,3.1,0,0,1,67.1-.545a2.954,2.954,0,0,1-.729-2.188v-4.72H65.153V-9.51h1.213v-2.364ZM76.658.176a4.889,4.889,0,0,1-3.542-1.305,4.507,4.507,0,0,1-1.354-3.4v-.246A5.84,5.84,0,0,1,72.3-7.348a3.955,3.955,0,0,1,1.578-1.727,4.763,4.763,0,0,1,2.461-.611,4.117,4.117,0,0,1,3.164,1.244,4.887,4.887,0,0,1,1.16,3.467v1.151H74.777a2.135,2.135,0,0,0,.694,1.257,2.066,2.066,0,0,0,1.389.457,2.662,2.662,0,0,0,2.2-.984l1.354,1.6A3.784,3.784,0,0,1,78.842-.277,5.3,5.3,0,0,1,76.658.176ZM76.324-7.4q-1.3,0-1.547,1.723h2.988v-.229a1.467,1.467,0,0,0-.36-1.1A1.434,1.434,0,0,0,76.324-7.4Z" transform="translate(916 2668)" fill="#12263f"/>
    <path id="Trazado_219768" data-name="Trazado 219768" d="M11.013-10.415H7.172V0H4.087V-10.415H.316V-12.8h10.7ZM15.3,0H12.331V-9.51H15.3ZM12.155-11.962A1.322,1.322,0,0,1,12.612-13a1.724,1.724,0,0,1,1.187-.4,1.724,1.724,0,0,1,1.187.4,1.322,1.322,0,0,1,.457,1.037,1.322,1.322,0,0,1-.457,1.037,1.724,1.724,0,0,1-1.187.4,1.724,1.724,0,0,1-1.187-.4A1.322,1.322,0,0,1,12.155-11.962ZM21.727.176a4.889,4.889,0,0,1-3.542-1.305,4.507,4.507,0,0,1-1.354-3.4v-.246a5.84,5.84,0,0,1,.541-2.575,3.955,3.955,0,0,1,1.578-1.727,4.763,4.763,0,0,1,2.461-.611,4.117,4.117,0,0,1,3.164,1.244,4.887,4.887,0,0,1,1.16,3.467v1.151H19.846a2.135,2.135,0,0,0,.694,1.257,2.066,2.066,0,0,0,1.389.457,2.662,2.662,0,0,0,2.2-.984l1.354,1.6A3.784,3.784,0,0,1,23.911-.277,5.3,5.3,0,0,1,21.727.176ZM21.393-7.4q-1.3,0-1.547,1.723h2.988v-.229a1.467,1.467,0,0,0-.36-1.1A1.434,1.434,0,0,0,21.393-7.4ZM29.725-9.51l.1,1.116a3.27,3.27,0,0,1,2.716-1.292,2.407,2.407,0,0,1,2.435,1.433,3.165,3.165,0,0,1,2.795-1.433q2.892,0,2.971,3.5V0H37.767V-6a1.813,1.813,0,0,0-.246-1.063,1.048,1.048,0,0,0-.9-.334,1.4,1.4,0,0,0-1.31.782l.009.123V0H32.353V-5.985a1.906,1.906,0,0,0-.237-1.081A1.045,1.045,0,0,0,31.21-7.4a1.42,1.42,0,0,0-1.3.782V0H26.947V-9.51ZM51.258-4.685a5.735,5.735,0,0,1-1,3.538A3.2,3.2,0,0,1,47.566.176a2.742,2.742,0,0,1-2.153-.958V3.656H42.451V-9.51H45.22l.088.879a2.742,2.742,0,0,1,2.241-1.055,3.224,3.224,0,0,1,2.733,1.3,5.805,5.805,0,0,1,.976,3.564ZM48.3-4.869Q48.3-7.4,46.819-7.4a1.394,1.394,0,0,0-1.406.756V-2.9a1.439,1.439,0,0,0,1.424.791q1.415,0,1.459-2.443Zm3.894.026a5.613,5.613,0,0,1,.554-2.536,3.96,3.96,0,0,1,1.591-1.709,4.791,4.791,0,0,1,2.435-.6,4.373,4.373,0,0,1,3.366,1.323,5.076,5.076,0,0,1,1.23,3.6v.105A4.925,4.925,0,0,1,60.13-1.129,4.384,4.384,0,0,1,56.786.176a4.434,4.434,0,0,1-3.261-1.217,4.761,4.761,0,0,1-1.327-3.3Zm2.962.185a3.538,3.538,0,0,0,.413,1.934,1.376,1.376,0,0,0,1.222.615q1.582,0,1.617-2.435v-.3Q58.4-7.4,56.769-7.4q-1.485,0-1.608,2.206Z" transform="translate(1092 2668)" fill="#12263f"/>
    <g id="Grupo_146602" data-name="Grupo 146602" transform="translate(599 2558.984)">
      <g id="Grupo_146601" data-name="Grupo 146601" clip-path="url(#clip-path-2)">
        <path id="Trazado_216668" data-name="Trazado 216668" d="M65.01,0a4.726,4.726,0,0,1,2.141,1.226,3.592,3.592,0,0,1,.97,2.369,3.079,3.079,0,0,0,2.535,3.182,4.687,4.687,0,0,1,2.115.829A2.764,2.764,0,0,1,73.8,9.862c-.007.188-.067.4.1.56a3.2,3.2,0,0,1-.855,3.588c1.39-.011,2.841-.021,4.292.013.157,0,.454-.041.359.31a1.524,1.524,0,0,1-.784.112q-12.587,0-25.174,0a1.757,1.757,0,0,1-.788-.1c-.175-.13-.057-.209.059-.265A1.379,1.379,0,0,1,51.637,14c1.375.008,2.751-.025,4.251.024-1.135-.262-1.47-2.257-1.052-3.606.174-.18.1-.407.1-.612a2.806,2.806,0,0,1,2-2.727c.472-.152.961-.251,1.441-.378A2.716,2.716,0,0,0,60.6,4,3.765,3.765,0,0,1,63.3.151a.967.967,0,0,0,.21-.15Z" transform="translate(-43.583 -0.001)" fill="#bcc2c6"/>
        <path id="Trazado_216669" data-name="Trazado 216669" d="M55.546,306.113c0,2.444.022,4.887,0,7.331a2.807,2.807,0,0,1-2.209,2.785.45.45,0,0,0-.122.088H21.845c-.081-.146-.245-.129-.37-.18a2.756,2.756,0,0,1-1.84-2.521c-.062-.992,0-1.992.006-2.988.227-.169.447-.038.655.036a14.188,14.188,0,0,0,2.364.615,4.259,4.259,0,0,0,.567.108.5.5,0,0,1,.271.181,1.1,1.1,0,0,0,.8.823,5.693,5.693,0,0,0,.8.02q10.934,0,21.868,0c.572,0,1.088.012,1.43.592a.953.953,0,0,0,.815.334,15.966,15.966,0,0,0,2.3,0c.738-.058,1-.363,1.008-1.109s0-1.5,0-2.25a1.085,1.085,0,0,0-.482-1.011.666.666,0,0,1-.345-.571,27.7,27.7,0,0,1,.047-3.153.439.439,0,0,1,.507-.189,13.536,13.536,0,0,1,2.965.756.483.483,0,0,1,.339.308" transform="translate(-16.801 -261.387)" fill="#cba124"/>
        <path id="Trazado_216670" data-name="Trazado 216670" d="M38.745,248.067a11.726,11.726,0,0,0-3.72-.946.318.318,0,0,1-.169.052,24.491,24.491,0,0,0-10.2,1.773c-2.75,1-5.445,2.146-8.209,3.1A25.29,25.29,0,0,1,7.82,253.7a4.443,4.443,0,0,1-1.214-.16l-.172-.107c-.164-.118-.374.021-.538-.1a9.034,9.034,0,0,1-2.4-.563c-.217-.068-.437-.129-.655-.193a17.979,17.979,0,0,0-1.775-.956A2.034,2.034,0,0,1,0,249.783c.006-2.389,0-4.779,0-7.168,0-.673.308-.849.917-.543l1.859.934c.222.193.162.457.164.7.007,1.316,0,2.631,0,3.946a1.513,1.513,0,0,0,.07.63c.168.407.445.665.907.552a.832.832,0,0,0,.636-.882c.023-1.141,0-2.282.011-3.423a2.931,2.931,0,0,1,.049-.8.222.222,0,0,1,.286-.165,6.426,6.426,0,0,1,1.087.21c.2.115.453.061.655.183a.364.364,0,0,1,.1.143,18.713,18.713,0,0,1,.055,2.243,4.563,4.563,0,0,0,.023.641.753.753,0,0,0,.733.652.684.684,0,0,0,.71-.607,16.94,16.94,0,0,0,.033-2.458c0-.265-.217-.278-.414-.324-.153-.036-.427.029-.343-.3a2.046,2.046,0,0,1,1.051-.108c.587.007,1.174-.052,1.761,0,.222.163.186.41.19.635.012.659-.009,1.319.01,1.979.016.58.252.873.7.9a.773.773,0,0,0,.863-.816,6.772,6.772,0,0,0-.134-2.85c0-.053-.006-.126.046-.141a6.288,6.288,0,0,1,2.139-.427,2.243,2.243,0,0,1,.125,1.152c.02.41-.014.822.014,1.232.041.589.368.952.824.937.436-.014.753-.363.773-.93.035-.964.016-1.929,0-2.893.063-.26.3-.266.492-.335.379-.139.748-.308,1.14-.41.175-.046.367-.165.532.035a2.338,2.338,0,0,1,.085.95c.006,1,0,1.994,0,2.992a2.518,2.518,0,0,0,.031.532.685.685,0,0,0,.648.607.727.727,0,0,0,.741-.5,1.731,1.731,0,0,0,.079-.685c0-1.514.008-3.027-.008-4.541a.246.246,0,0,1,.127-.22,11.448,11.448,0,0,1,1.685-.64.306.306,0,0,1,.34.085,5.649,5.649,0,0,1,.1,1.645c.015.249-.012.5.017.75a.721.721,0,0,0,.76.73.686.686,0,0,0,.72-.756c.031-.785.005-1.572.012-2.358a2.149,2.149,0,0,1,.068-.743,2.759,2.759,0,0,1,2.062-.675,3.956,3.956,0,0,1,.106,1.423,8.359,8.359,0,0,0,.038,1.119.8.8,0,0,0,.767.689.778.778,0,0,0,.752-.642,4.23,4.23,0,0,0,.063-.956,10.826,10.826,0,0,1,.1-2.282,2.586,2.586,0,0,1,1.916-.443,3.328,3.328,0,0,1,.116,1.369,7.46,7.46,0,0,0,.065,1.28.792.792,0,0,0,.853.714.756.756,0,0,0,.686-.816c.037-.731.005-1.463.015-2.194a1.081,1.081,0,0,1,.144-.719.8.8,0,0,1,.487-.189c.689-.019,1.372-.121,2.061-.133.217,0,.474-.038.588.241-.153.2-.38.177-.589.179-.315,0-.45.145-.449.458,0,1.322-.018,2.645.011,3.966.012.549.323.864.762.847s.713-.331.721-.889c.018-1.215,0-2.43.008-3.645a1.433,1.433,0,0,1,.115-.784.685.685,0,0,1,.535-.142,15.42,15.42,0,0,1,3.008.724.633.633,0,0,1,.321.179,5.892,5.892,0,0,0,1.483.812,2.3,2.3,0,0,1,1.357,2.271c-.04,2.28-.011,4.561-.013,6.842,0,.774-.257.936-.948.585a9.311,9.311,0,0,0-1.874-.878" transform="translate(0 -203.341)" fill="#feca2e"/>
        <path id="Trazado_216671" data-name="Trazado 216671" d="M23.065,102.909l-1.307-.226a2.508,2.508,0,0,1-1.769-.56.779.779,0,0,1-.086-.518q0-13.017,0-26.035a.85.85,0,0,1,.036-.37,2.76,2.76,0,0,1,2.743-2.434c1.874-.015,3.747,0,5.621,0,.006.57,0,1.141.021,1.71A2.064,2.064,0,0,0,29.52,76.43c-.124.139-.27.081-.393.082-1.406.005-2.811,0-4.216.006-.19,0-.395-.053-.564.091-.227.3-.557.545-.585.971-.027.287-.015.573-.015.859q0,11.64,0,23.28c0,.215,0,.429,0,.644-.021.575-.081.623-.678.547" transform="translate(-17.051 -62.348)" fill="#cba124"/>
        <path id="Trazado_216672" data-name="Trazado 216672" d="M19.532,89.814c.005.2.015.393.015.589q0,12.817,0,25.635c0,.261-.061.544.213.726-.1,1.482-.02,2.966-.049,4.448-.006.279.057.579-.173.813-.16-.163-.1-.369-.1-.557-.01-1.614-.013-3.228-.018-4.842.008-.232.023-.463.023-.695q0-12.666,0-25.332a1.441,1.441,0,0,1,.081-.786" transform="translate(-16.644 -76.962)" fill="#cca762"/>
        <path id="Trazado_216673" data-name="Trazado 216673" d="M212.079,97.453c-.817-.052-1.531-.523-2.351-.578a6.675,6.675,0,0,1-.926-.189c-.581-.117-.586-.118-.586-.837q0-8.706,0-17.412a8.179,8.179,0,0,0-.018-.855c-.033-.458-.392-.693-.674-.98a1.028,1.028,0,0,0-.624-.074c-1.474-.005-2.947,0-4.611,0a2.417,2.417,0,0,0,1.354-2.624c-.013-.374.009-.749.015-1.123,1.837,0,3.675-.01,5.512,0a2.851,2.851,0,0,1,2.923,2.856c.021.8,0,1.608,0,2.413q0,9.357,0,18.714c0,.232-.011.464-.017.7" transform="translate(-173.34 -62.359)" fill="#cba124"/>
        <path id="Trazado_216674" data-name="Trazado 216674" d="M73.654,99.539a.864.864,0,0,1,.76.78,1.1,1.1,0,0,1,.028.372q0,9.242,0,18.484a1.552,1.552,0,0,1-.017.321.446.446,0,0,1-.675,0,11.98,11.98,0,0,0-3.108.134,4.133,4.133,0,0,1-1.913.324,13.151,13.151,0,0,0-1.849.447,4.528,4.528,0,0,1-1.914.616l-1.923.662a3.937,3.937,0,0,1-1.839.721l-2.005.762a3.036,3.036,0,0,1-1.738.664l-2.023.72a3.206,3.206,0,0,1-1.814.57l-2.138.506a2.026,2.026,0,0,1-1.613.257,24.976,24.976,0,0,1-2.882.105.708.708,0,0,1-.87-.033l.007-.007c-.1-.127-.057-.276-.057-.415q0-12.443,0-24.886a.966.966,0,0,1,.027-.319.878.878,0,0,1,.669-.767l26.675.005a2.088,2.088,0,0,0,.212-.021" transform="translate(-39.472 -85.295)" fill="#ebeff0"/>
        <path id="Trazado_216675" data-name="Trazado 216675" d="M116.989,67.92c-1.194,0-2.388,0-3.583,0a.992.992,0,0,1-1.1-.921.979.979,0,0,1,1.082-1q3.636-.017,7.272,0a.98.98,0,0,1,1.071.953.992.992,0,0,1-1.108.964c-1.212,0-2.424,0-3.636,0" transform="translate(-96.237 -56.549)" fill="#7f8c8d"/>
        <path id="Trazado_216676" data-name="Trazado 216676" d="M140.366,22.04c0,.3.019.607,0,.908a.976.976,0,0,1-.945.971.958.958,0,0,1-.957-.955,17.958,17.958,0,0,1,0-1.923.953.953,0,0,1,1.9.038c.022.319,0,.641,0,.962" transform="translate(-118.624 -17.278)" fill="#7f8c8d"/>
        <path id="Trazado_216677" data-name="Trazado 216677" d="M46.163,311.52c.328-.212.66,0,.987.006a23.155,23.155,0,0,0,7.247-1.142c3.309-1.009,6.469-2.425,9.722-3.586a24.706,24.706,0,0,1,9.8-1.813c.188.011.4-.057.557.109.108,1.121.02,2.246.048,3.368a.489.489,0,0,1-.266.435,1.043,1.043,0,0,0-.472,1.011,9.813,9.813,0,0,1-.01,1.072c-.041.5-.2.664-.694.705a6.233,6.233,0,0,1-.856.008,1.349,1.349,0,0,0-1.314.545c-.17.25-.438.2-.684.2H60.437q-6.5,0-13,0a1.6,1.6,0,0,1-.583-.036.918.918,0,0,1-.686-.879" transform="translate(-39.557 -261.318)" fill="#ebeff0"/>
        <path id="Trazado_216678" data-name="Trazado 216678" d="M50.958,313.218l18.517-.01c1.606,0,3.211-.005,4.817,0,.305,0,.528-.026.681-.358a.909.909,0,0,1,.925-.513c.428.015.858-.019,1.284.009s.567-.159.544-.567c-.024-.445.015-.895-.011-1.34a.8.8,0,0,1,.526-.847c.306-.121.343-.3.341-.572-.005-1.037,0-2.073,0-3.11a.66.66,0,0,1,.1,0c-.005,1.054-.007,2.108-.017,3.162,0,.233.035.4.3.491a.889.889,0,0,1,.587.926c0,.876,0,1.751,0,2.627,0,.686-.243,1.041-.908,1.094a14.247,14.247,0,0,1-2.986-.026.723.723,0,0,1-.669-.459c-.122-.4-.378-.43-.73-.43q-11.316.012-22.633,0c-.224,0-.465.073-.672-.087" transform="translate(-43.666 -262.137)" fill="#bcc2c6"/>
        <path id="Trazado_216679" data-name="Trazado 216679" d="M41.2,349.342c.181.021.384-.071.538.1-.184-.007-.383.069-.538-.1" transform="translate(-35.306 -299.345)" fill="#eccc77"/>
        <path id="Trazado_216680" data-name="Trazado 216680" d="M125.711,265.257l1.737-.664c.14.128.095.3.1.453q0,2.219,0,4.438a1,1,0,0,1-.958,1.115c-.534,0-.874-.434-.875-1.118q0-2.112,0-4.224" transform="translate(-107.72 -226.73)" fill="#b08f46"/>
        <path id="Trazado_216681" data-name="Trazado 216681" d="M20.173,283.4c0-1.582,0-3.164.009-4.746,0-.187-.117-.453.213-.515a12.029,12.029,0,0,0,1.589.532c0,1.448.015,2.9.011,4.344a.979.979,0,0,1-.782,1.01.874.874,0,0,1-1.041-.625" transform="translate(-17.277 -238.341)" fill="#b09046"/>
        <path id="Trazado_216682" data-name="Trazado 216682" d="M232.365,238.975l.641.02a.081.081,0,0,1,.041.069c0,.028,0,.043-.011.043-.007,1.48-.045,2.961-.007,4.44a.955.955,0,0,1-.911,1.08c-.585.022-.935-.394-.937-1.1,0-1.32.023-2.64-.013-3.959-.014-.5.163-.631.612-.576a3.88,3.88,0,0,0,.585-.012" transform="translate(-198.086 -204.778)" fill="#b08f46"/>
        <path id="Trazado_216683" data-name="Trazado 216683" d="M178.162,245.915a9.967,9.967,0,0,1,1.914-.616c0,.983.017,1.965.006,2.948a.992.992,0,0,1-.974,1.107c-.562-.01-.938-.459-.942-1.134,0-.768,0-1.537,0-2.3" transform="translate(-152.667 -210.197)" fill="#b19046"/>
        <path id="Trazado_216684" data-name="Trazado 216684" d="M72.655,282.045l1.613-.257c.146.016.3.031.294.23a18.937,18.937,0,0,1-.072,2.881.876.876,0,0,1-1.031.77.854.854,0,0,1-.807-.947c-.008-.892,0-1.784,0-2.677" transform="translate(-62.252 -241.464)" fill="#b19046"/>
        <path id="Trazado_216685" data-name="Trazado 216685" d="M98.875,274.838l1.814-.57c.153.145.1.334.1.506,0,.822.011,1.645,0,2.467a.964.964,0,1,1-1.914.01c-.012-.8,0-1.609,0-2.413" transform="translate(-84.721 -235.02)" fill="#b19046"/>
        <path id="Trazado_216686" data-name="Trazado 216686" d="M204.344,240.237a6.819,6.819,0,0,1,1.913-.324c0,.947.006,1.9,0,2.842a.9.9,0,0,1-.8,1.021.887.887,0,0,1-1.053-.813,19.106,19.106,0,0,1-.063-2.726" transform="translate(-175.086 -205.581)" fill="#b19046"/>
        <path id="Trazado_216687" data-name="Trazado 216687" d="M151.876,254.949a14.188,14.188,0,0,1,1.839-.721c0,1.034.009,2.068.006,3.1,0,.641-.3.966-.864.973-.632.008-.96-.326-.968-1-.009-.784-.009-1.568-.013-2.353" transform="translate(-130.143 -217.848)" fill="#b09046"/>
        <path id="Trazado_216688" data-name="Trazado 216688" d="M46.326,284.092l.87.033c.015.01.028.027.044.03.912.158.912.158.912,1.141,0,.551.009,1.1,0,1.654a.952.952,0,0,1-.909.989,1,1,0,0,1-.937-1.02c.054-.939.02-1.884.023-2.826" transform="translate(-39.676 -243.438)" fill="#b09046"/>
        <path id="Trazado_216689" data-name="Trazado 216689" d="M258.445,271.4a.981.981,0,0,1,.979.935,1.05,1.05,0,0,1-.911.959,1,1,0,0,1-1-.97.987.987,0,0,1,.932-.923" transform="translate(-220.663 -232.562)" fill="#b19046"/>
        <path id="Trazado_216690" data-name="Trazado 216690" d="M42.635,105.01c.007.214.02.428.02.642q0,12.114,0,24.228c0,.25.007.5.01.75-.217-.008-.449.094-.644-.086.462.066.544-.16.543-.583q-.018-12.163-.006-24.327c0-.208-.066-.43.075-.623" transform="translate(-36.009 -89.983)" fill="#edcd7c"/>
        <path id="Trazado_216691" data-name="Trazado 216691" d="M244.05,124.3l-.029-.111q0-9.275,0-18.551c0-.214.012-.428.019-.642.143.193.077.415.077.623q.006,9-.006,18c0,.368.08.6.449.685h-.513" transform="translate(-209.101 -89.967)" fill="#eccb7f"/>
        <path id="Trazado_216692" data-name="Trazado 216692" d="M169.459,121.849c-.606,0-1.216-.042-1.818.009a2.8,2.8,0,0,1-2.83-2.559,28.516,28.516,0,0,1,.026-4.588,2.888,2.888,0,0,1,2.655-2.3c1.337-.019,2.674-.022,4.011,0a2.761,2.761,0,0,1,2.717,2.651,22.289,22.289,0,0,1-.075,4.594,2.7,2.7,0,0,1-2.6,2.192c-.7.006-1.391,0-2.086,0" transform="translate(-141.159 -96.31)" fill="#bcc2c6"/>
        <path id="Trazado_216693" data-name="Trazado 216693" d="M65.87,127.756q-2.784,0-5.567,0a.926.926,0,1,1,0-1.832q5.567,0,11.135,0a.926.926,0,1,1,0,1.832q-2.784,0-5.567,0" transform="translate(-50.76 -107.903)" fill="#bcc2c6"/>
        <path id="Trazado_216694" data-name="Trazado 216694" d="M65.912,205.385q2.783,0,5.566,0a.926.926,0,1,1,.006,1.832c-3.711,0-7.421-.015-11.132.016a1.036,1.036,0,0,1-1.064-.96c-.03-.466.483-.887,1.058-.888q2.783,0,5.566,0" transform="translate(-50.802 -175.994)" fill="#bcc2c6"/>
        <path id="Trazado_216695" data-name="Trazado 216695" d="M169.9,191.882c.606,0,1.212,0,1.818,0a2.9,2.9,0,0,1,2.938,2.672,1.027,1.027,0,0,1-.758,1.081,1,1,0,0,1-1.156-.843c-.137-.826-.319-.983-1.15-.984q-1.737,0-3.475,0a.96.96,0,0,0-1.054.955.873.873,0,0,1-1.039.874c-.535-.053-.8-.459-.817-1.047a2.881,2.881,0,0,1,2.876-2.714c.6.03,1.211.005,1.817.005" transform="translate(-141.563 -164.417)" fill="#bcc2c6"/>
        <path id="Trazado_216696" data-name="Trazado 216696" d="M62.1,152.188c.589,0,1.177-.006,1.766,0a.96.96,0,1,1,.058,1.914c-1.212.026-2.426.021-3.638,0a1.036,1.036,0,0,1-1.027-.968,1,1,0,0,1,1.076-.949c.588-.006,1.177,0,1.766,0" transform="translate(-50.782 -130.408)" fill="#bcc2c6"/>
        <path id="Trazado_216697" data-name="Trazado 216697" d="M62.117,233.5c-.535,0-1.07.009-1.605,0-.706-.015-1.225-.414-1.205-.953a1.031,1.031,0,0,1,1.211-.982c1.158.045,2.318.007,3.477.014a.92.92,0,0,1,.942.656.9.9,0,0,1-.351,1.048,1.476,1.476,0,0,1-.864.218c-.535.006-1.07,0-1.605,0" transform="translate(-50.819 -198.429)" fill="#bcc2c6"/>
        <path id="Trazado_216698" data-name="Trazado 216698" d="M181.009,125.91c.623,0,1.247-.008,1.87,0a.855.855,0,0,1,.931.933q.015,1.847,0,3.694a.945.945,0,0,1-.974,1.044c-1.228.031-2.458.027-3.686,0a.968.968,0,0,1-1.005-1.027c-.02-1.231-.018-2.463,0-3.694a.944.944,0,0,1,.994-.954c.623-.006,1.247,0,1.87,0" transform="translate(-152.641 -107.89)" fill="#ebeff0"/>
      </g>
    </g>
    <g id="Grupo_146604" data-name="Grupo 146604" transform="translate(1100 2564.812)">
      <g id="Grupo_146603" data-name="Grupo 146603" clip-path="url(#clip-path-3)">
        <path id="Trazado_216699" data-name="Trazado 216699" d="M43.678,7.653c0,.742.006,1.484,0,2.225a1.291,1.291,0,0,1-1.647,1.352c-1.315-.239-2.628-.49-3.947-.705-1.477-.241-1.86-.992-1.129-2.3.171-.3-.118-.334-.247-.42a18.539,18.539,0,0,0-5.523-2.591c-8.145-2.177-15.252-.311-21.161,5.705A19.355,19.355,0,0,0,4.568,22.316,20.332,20.332,0,0,0,10.978,40.4,19.811,19.811,0,0,0,23.36,45.924a20.52,20.52,0,0,0,16.348-5.781c.556-.521.887-.552,1.471-.1.613.478,1.229.955,1.823,1.456a.862.862,0,0,1,.055,1.441,24.876,24.876,0,0,1-13.911,7.1,24.253,24.253,0,0,1-15.462-2.488A24.3,24.3,0,0,1,.475,29.806,24.34,24.34,0,0,1,7.333,7.451,24.048,24.048,0,0,1,22.081.2,24.768,24.768,0,0,1,40.147,4.918c.249.18.418.224.645-.009a5.825,5.825,0,0,1,.658-.565A1.253,1.253,0,0,1,42.827,4.2a1.2,1.2,0,0,1,.724,1.122c.012.777,0,1.554,0,2.331h.124" transform="translate(0 0)" fill="#537dc1"/>
        <path id="Trazado_216700" data-name="Trazado 216700" d="M92.2,73c-1.026,1.242-2.323,2.211-3.415,3.387a4.219,4.219,0,0,1-4.341,1.233c-1.575-.367-3.149-.738-4.725-1.1a2.647,2.647,0,0,0-3.078,3.079c.4,1.734.825,3.461,1.179,5.2a3.833,3.833,0,0,1-1.009,3.549c-1.206,1.27-2.457,2.5-3.688,3.744a2.125,2.125,0,0,1-1.262-1.2c.047-.272.263-.424.439-.6.954-.961,1.918-1.911,2.868-2.875a2.324,2.324,0,0,0,.808-1.858c-1.315.6-2.14.28-2.439-.953-.023-.28,0-.561-.01-.841a.083.083,0,0,0-.049-.008c-.016,0-.029.02-.045.034a7.489,7.489,0,0,1-2.669,1.824,4.832,4.832,0,0,1-4.458-.53c-.186-.111-.36-.242-.543-.358a2.1,2.1,0,0,0-.509-.346,1.532,1.532,0,0,1-.424-.33q-2.713-2.71-5.42-5.425c-.142-.142-.366-.259-.294-.528.251-.007.365-.215.518-.36,1.1-1.042,2.115-2.171,3.26-3.173a4.362,4.362,0,0,1,4.124-.981c1.574.371,3.149.742,4.725,1.1A2.656,2.656,0,0,0,74.8,71.575c-.4-1.733-.83-3.461-1.179-5.205a3.976,3.976,0,0,1,.92-3.431c1.028-1.24,2.241-2.3,3.354-3.461.134-.14.322-.247.325-.478.25-.1.361.115.489.242q2.727,2.71,5.435,5.438c.14.142.433.272.206.566-.828.009-1.656-.084-2.483-.032A8.082,8.082,0,0,0,77.156,66.6a2.438,2.438,0,0,0-.981,2.433c.112.716.295,1.416.452,2.122a4.257,4.257,0,0,1-.9,3.771,3.135,3.135,0,0,0-.783,2.748,4.417,4.417,0,0,1,2.428-2.683,4.168,4.168,0,0,1,2.593-.327q2.417.5,4.812,1.1a2.727,2.727,0,0,0,2.781-.757q1.4-1.4,2.8-2.8a1.6,1.6,0,0,1,.589-.467A1.993,1.993,0,0,1,92.2,73" transform="translate(-50.528 -50.417)" fill="#e6f1d9"/>
        <path id="Trazado_216701" data-name="Trazado 216701" d="M60.24,202.182l1.222,1.181a1.254,1.254,0,0,1-.122,1.832,1.27,1.27,0,0,1-1.788-.251q-6.8-6.789-13.584-13.586a1.243,1.243,0,1,1,1.49-1.99l6.182,6.191c.2.105.317.3.5.42,2.02,1.911,3.944,3.919,5.92,5.875a.6.6,0,0,1,.179.327" transform="translate(-38.867 -161.69)" fill="#f47a08"/>
        <path id="Trazado_216702" data-name="Trazado 216702" d="M203.443,61.392a10.649,10.649,0,0,0-1.164-1.222.763.763,0,0,1-.552-.295c-.819-.834-1.674-1.633-2.461-2.5a3.786,3.786,0,0,1-.474-.475c-1-.921-1.936-1.909-2.9-2.867-.132-.131-.323-.247-.259-.489-2.03-2.077-4.067-4.147-6.168-6.152a1.254,1.254,0,0,1,.286-1.777,1.279,1.279,0,0,1,1.737.322q6.767,6.764,13.532,13.532a1.276,1.276,0,0,1,.256,1.823c-.452.543-1.092.577-1.831.1" transform="translate(-161.772 -38.813)" fill="#f47a08"/>
        <path id="Trazado_216703" data-name="Trazado 216703" d="M300.75,232.2a1.185,1.185,0,0,1-.164.522,24.217,24.217,0,0,1-1.467,2.714.906.906,0,0,1-1.5.27q-.919-.716-1.824-1.45a.9.9,0,0,1-.255-1.287c.348-.653.7-1.3,1.049-1.956a.892.892,0,0,1,1.247-.513c.753.253,1.5.514,2.252.774a.875.875,0,0,1,.661.925" transform="translate(-252.515 -196.979)" fill="#537ec1"/>
        <path id="Trazado_216704" data-name="Trazado 216704" d="M315.9,187.544c.416,0,.832-.016,1.247,0,.706.033,1.025.377.963,1.079a16.325,16.325,0,0,1-.527,2.871.833.833,0,0,1-1.165.628c-.79-.254-1.573-.53-2.356-.8a.866.866,0,0,1-.629-1.055c.117-.693.235-1.387.378-2.075a.818.818,0,0,1,.9-.7c.4,0,.8,0,1.193,0v.051" transform="translate(-267.931 -160.286)" fill="#537ec1"/>
        <path id="Trazado_216705" data-name="Trazado 216705" d="M319.388,159.5c-.558-.033-1.08-.054-1.6-.1a.6.6,0,0,1-.6-.636.611.611,0,0,1,.564-.678c.907-.136,1.818-.259,2.73-.348a.856.856,0,0,1,1.029.844.874.874,0,0,1-.969.914c-.4.005-.793,0-1.153,0" transform="translate(-271.159 -134.849)" fill="#537ec1"/>
        <path id="Trazado_216706" data-name="Trazado 216706" d="M176.324,100.973q1.57,1.7,3.274,3.272c-2.507,2.559-5.242,3.535-8.508,2.041-.132-.06-.257-.135-.391-.189-.212-.086-.483-.257-.614.038s.182.4.381.493a11.469,11.469,0,0,0,1.4.586,6.979,6.979,0,0,0,6.518-1.134c.593-.419,1.113-.919,1.662-1.388a36.2,36.2,0,0,0,2.925,2.9c-1.105,1.092-2.227,2.167-3.311,3.28a2.908,2.908,0,0,1-3.007.851c-1.539-.384-3.083-.762-4.639-1.064a4.265,4.265,0,0,0-5.006,2.887c-.036.1-.044.214-.191.295a2.9,2.9,0,0,1,.531-2.93,4.383,4.383,0,0,0,1.018-4.179c-.161-.647-.3-1.3-.408-1.958a2.469,2.469,0,0,1,.9-2.366,6.884,6.884,0,0,1,3.74-1.421,16.7,16.7,0,0,1,3.727-.016" transform="translate(-142.463 -86.238)" fill="#f2b63f"/>
        <path id="Trazado_216707" data-name="Trazado 216707" d="M110.754,236.128c-2.075-2.042-4.153-4.082-6.166-6.186a.085.085,0,0,1,.008-.142,7.964,7.964,0,0,0,2.337,1.1,4.9,4.9,0,0,0,3.9-.855,12.134,12.134,0,0,0,1.461-1.2c.268.022.141.231.162.361.033.207-.039.424.047.628.368,1.22,1.1,1.434,2.48.686a2.516,2.516,0,0,1-.8,2.139q-1.709,1.741-3.428,3.471" transform="translate(-89.382 -195.635)" fill="#f2b63f"/>
        <path id="Trazado_216708" data-name="Trazado 216708" d="M121.377,172.212c-1.24-.216-2.614-.565-3.991-.9a.379.379,0,0,1-.314-.486.445.445,0,0,1,.588-.331c.562.119,1.116.271,1.679.387a14.411,14.411,0,0,0,2.426.477c.271.009.465.159.448.435-.026.419-.349.443-.836.418" transform="translate(-100.07 -145.74)" fill="#b1ccb3"/>
        <path id="Trazado_216709" data-name="Trazado 216709" d="M92.038,167.488a2.06,2.06,0,0,1,.7.1.431.431,0,0,1-.172.841,2.136,2.136,0,0,0-2.038.573.376.376,0,0,1-.577-.011.4.4,0,0,1,.013-.618,2.9,2.9,0,0,1,2.078-.881" transform="translate(-76.774 -143.184)" fill="#b1ccb4"/>
        <path id="Trazado_216710" data-name="Trazado 216710" d="M156.562,203.478a.866.866,0,1,1-.855.862.86.86,0,0,1,.855-.862" transform="translate(-133.113 -173.951)" fill="#f2b740"/>
        <path id="Trazado_216711" data-name="Trazado 216711" d="M158.1,229.015c-.251-.291.056-.7-.21-.99.109-.151.213-.233.219.047.007.314-.005.629-.009.943" transform="translate(-134.983 -194.818)" fill="#edcf7f"/>
        <path id="Trazado_216712" data-name="Trazado 216712" d="M102.244,233.705q0,.071-.008.142a1.042,1.042,0,0,1-.434-.437.63.63,0,0,1,.442.3" transform="translate(-87.03 -199.54)" fill="#f1bb4d"/>
        <path id="Trazado_216713" data-name="Trazado 216713" d="M198.807,124.54a4.388,4.388,0,0,1-1.673,1.563,7.215,7.215,0,0,1-4.546,1.468,8.7,8.7,0,0,1-3.7-1.1c-.249-.128-.4-.34-.228-.623.161-.266.4-.271.659-.133a9.164,9.164,0,0,0,2.593.9,5.938,5.938,0,0,0,3.953-.744,11.782,11.782,0,0,0,2.125-1.571c.111-.094.206-.205.366-.21a1.141,1.141,0,0,0,.448.448" transform="translate(-161.224 -106.085)" fill="#df802b"/>
      </g>
    </g>
    <g id="Grupo_146606" data-name="Grupo 146606" transform="translate(766 2564.211)">
      <g id="Grupo_146605" data-name="Grupo 146605" clip-path="url(#clip-path-4)">
        <path id="Trazado_216714" data-name="Trazado 216714" d="M68.642,165.709c-.662,0-1.325-.018-1.987-.006-.288.005-.411-.066-.41-.385q.014-5.191,0-10.383c0-.319.122-.39.41-.385.662.013,1.324,0,1.987-.006a.847.847,0,0,1,.6-.145c.6,0,1.2-.015,1.8.008,2.22-.035,4.44-.01,6.66-.014q3.43-.007,6.86,0c.859,0,.946.088.947.933q0,4.8,0,9.593c0,.852-.087.939-.94.94q-6.586.005-13.172,0a3.054,3.054,0,0,1-.347-.015c-.619.023-1.239.009-1.858.008a.783.783,0,0,1-.555-.145" transform="translate(-57.437 -133.862)" fill="#ffedb6"/>
        <path id="Trazado_216715" data-name="Trazado 216715" d="M56.6,261.633c.206-.014.3-.183.43-.307.6-.59,1.217-1.16,1.772-1.787a1.52,1.52,0,0,1,1.454-.609,1.263,1.263,0,0,1,.845-.142c.471-.008.942-.009,1.412,0a1.735,1.735,0,0,0,1.454-.443,5.14,5.14,0,0,1,3.225-1.129c.464-.013.928-.009,1.392,0,.147,0,.331-.014.4.134.09.181-.073.309-.185.421-.924.928-1.833,1.871-2.784,2.771a10.466,10.466,0,0,0-1.37,1.278.3.3,0,0,0-.017.476c.022.024.044.049.067.073.823.838.626.691,1.3.05.694-.655,1.3-1.4,2.06-1.988,1.2-.446,2.37-.941,3.557-1.408a1.861,1.861,0,0,0,.783-.586,5.477,5.477,0,0,1,3.855-2.013.59.59,0,0,1,.1,0c.209.014.474-.065.591.15.107.2-.09.368-.2.528-.859,1.3-1.726,2.591-2.587,3.888a1.943,1.943,0,0,1-.773.679c-1.852.925-3.707,1.844-5.554,2.778a1.953,1.953,0,0,1-.911.2q-2.136-.005-4.272,0a3.3,3.3,0,0,1-.441-.006,1.735,1.735,0,0,0-1.736.648.438.438,0,0,1-.135.058.616.616,0,0,1-.414-.246c-1.083-1.07-2.147-2.16-3.236-3.224-.063-.062-.172-.119-.093-.241" transform="translate(-49.054 -222.327)" fill="#f3cdae"/>
        <path id="Trazado_216716" data-name="Trazado 216716" d="M84.269,3.186c-.005-.513-.021-1.027-.014-1.54A1.574,1.574,0,0,1,85.925,0q4.3-.009,8.6,0H107.8c1.351,0,1.922.577,1.921,1.943,0,.414-.01.828-.016,1.242a.673.673,0,0,1-.55.15,6.458,6.458,0,0,1-1.8-.094c-.012-.011-.033-.02-.035-.034-.105-.671-.562-.7-1.119-.682-.976.038-1.955.021-2.932.005a.587.587,0,0,0-.662.506,2.482,2.482,0,0,1-2.5,1.882c-2.071.016-4.142.012-6.213,0a2.462,2.462,0,0,1-2.472-1.79.737.737,0,0,0-.856-.6c-1.027.026-2.054.018-3.081,0-.4-.006-.736.028-.754.539a.262.262,0,0,1-.106.164,4.473,4.473,0,0,1-2.359-.049" transform="translate(-73.051 0)" fill="#feca2e"/>
        <path id="Trazado_216717" data-name="Trazado 216717" d="M234.048,54.01a7.956,7.956,0,1,1,2.568,15.7,8.371,8.371,0,0,1-2.568-.051,3.249,3.249,0,0,1-1.729-.4,5.223,5.223,0,0,1-.843-.388,8.264,8.264,0,0,1-3.3-3.58,7.377,7.377,0,0,1-.669-2.216c-.023-.18-.126-.4.111-.533a4.041,4.041,0,0,1,1.522,0c.179.085.18.261.214.421a6.227,6.227,0,0,0,6.322,5.1,6.239,6.239,0,1,0-6.3-7.536c-.042.2-.005.442-.225.58a3.984,3.984,0,0,1-1.524.017c-.232-.1-.158-.307-.134-.474a7.837,7.837,0,0,1,1.765-3.976,9.16,9.16,0,0,1,2.214-1.885,9.944,9.944,0,0,1,1.853-.758,1.97,1.97,0,0,1,.719-.03" transform="translate(-197.22 -46.713)" fill="#12263f"/>
        <path id="Trazado_216718" data-name="Trazado 216718" d="M7.55,289.091q1.736,1.743,3.474,3.485a1.93,1.93,0,0,0,.237.176,6.688,6.688,0,0,1,1.478,1.367.268.268,0,0,1-.017.4,4.7,4.7,0,0,1-1.091,1,3.079,3.079,0,0,1-2.986,1.254c-2.715-.094-5.435-.035-8.153-.021-.34,0-.4-.085-.45-.427a3.511,3.511,0,0,1,1.353-3.356c1.659-1.47,3.17-3.108,4.728-4.691.25-.254.391-.253.616.008.248.288.539.538.811.8" transform="translate(0 -249.786)" fill="#12263f"/>
        <path id="Trazado_216719" data-name="Trazado 216719" d="M85.064,324.766c.31-.317.61-.645.932-.948.186-.175.2-.289,0-.474-.448-.435-.873-.9-1.307-1.345l.027,0a4.152,4.152,0,0,1,2.319-.019c.116.631.55.677,1.1.676q9.271-.023,18.543-.01c.732,0,.732,0,1.005-.649a4.05,4.05,0,0,1,2.4.011c.005.513.021,1.027.014,1.54a1.579,1.579,0,0,1-1.671,1.643c-2.784.006-5.568,0-8.352,0-4.441,0-8.882-.007-13.323.008a2.706,2.706,0,0,1-1.69-.437" transform="translate(-73.433 -279.032)" fill="#feca2e"/>
        <path id="Trazado_216720" data-name="Trazado 216720" d="M256.786,165.948a10.122,10.122,0,0,0,2.527.882c-.291.121-.151.375-.152.563q-.012,8.643-.007,17.286c0,.2-.01.4-.016.595a.607.607,0,0,1-.507.15,4.934,4.934,0,0,1-1.9-.141,1.2,1.2,0,0,1-.127-.721q0-8.935,0-17.869c0-.258-.05-.537.179-.744" transform="translate(-222.484 -143.884)" fill="#feca2e"/>
        <path id="Trazado_216721" data-name="Trazado 216721" d="M86.633,50.69l-2.379,0q0-7.806,0-15.612c0-.1.01-.2.016-.3a.607.607,0,0,1,.506-.15,5,5,0,0,1,1.9.139,1.191,1.191,0,0,1,.128.72q0,7.222,0,14.443a.982.982,0,0,1-.166.753" transform="translate(-73.05 -30.01)" fill="#feca2e"/>
        <path id="Trazado_216722" data-name="Trazado 216722" d="M86.648,244.277l-2.377,0q0-2.378,0-4.756l2.379,0a.774.774,0,0,1,.163.6q.009,1.774,0,3.547a.774.774,0,0,1-.164.6" transform="translate(-73.065 -207.679)" fill="#feca2e"/>
        <path id="Trazado_216723" data-name="Trazado 216723" d="M259.3,37.2a9.875,9.875,0,0,0-2.525.887.457.457,0,0,1-.168-.391c-.023-.9-.028-1.8,0-2.7a.59.59,0,0,1,.106-.322,3.964,3.964,0,0,1,2.409,0c.005.7.007,1.41.019,2.115,0,.147-.081.343.155.408" transform="translate(-222.476 -29.904)" fill="#379dc2"/>
        <path id="Trazado_216724" data-name="Trazado 216724" d="M259.027,25.555l-2.358,0a1.712,1.712,0,0,1,0-1.584l2.358,0v1.588" transform="translate(-222.373 -20.78)" fill="#98791b"/>
        <path id="Trazado_216725" data-name="Trazado 216725" d="M86.729,25.553l-2.358,0V23.967l2.358,0a1.712,1.712,0,0,1,0,1.584" transform="translate(-73.153 -20.78)" fill="#98791b"/>
        <path id="Trazado_216726" data-name="Trazado 216726" d="M256.668,311.294l2.358,0v1.588l-2.358,0a1.711,1.711,0,0,1,0-1.584" transform="translate(-222.373 -269.903)" fill="#98791b"/>
        <path id="Trazado_216727" data-name="Trazado 216727" d="M121.987,56.932q0,.792,0,1.584c-.033.8-.033.8-.841.8H102.11c-.808,0-.808,0-.842-.8a.639.639,0,0,1,.007-.778c1.44,0,2.881-.014,4.321-.009a1.81,1.81,0,0,0,.855-.2q2.769-1.4,5.55-2.776a1.689,1.689,0,0,0,.69-.613c.944-1.435,1.9-2.86,2.908-4.366a5.283,5.283,0,0,0-3.025.728,4.642,4.642,0,0,0-1.51,1.341,1.2,1.2,0,0,1-.576.444c-1.109.43-2.208.888-3.314,1.328a4.268,4.268,0,0,1-.525.138,3.145,3.145,0,0,1-2.089-.013c.72-.868,1.573-1.606,2.353-2.415.218-.226.465-.423.8-.723-1.934-.147-3.683-.1-5.133,1.135a1.57,1.57,0,0,1-1.3.4V47.392l13.079-.014c1.253,0,1.253,0,1.253-1.27,0-3.083-.011-6.167.011-9.25,0-.486-.1-.639-.618-.636-4.376.024-8.753.014-13.129.013-.2,0-.4-.009-.6-.014q0-7.954-.007-15.907,0-.792,0-1.584c.033-.8.033-.8.84-.8,1.176,0,2.352.008,3.527-.006.275,0,.392.066.465.356a2.385,2.385,0,0,0,2.632,2.037q2.956,0,5.912,0a2.348,2.348,0,0,0,2.53-2.028c.06-.307.17-.367.444-.364,1.176.011,2.351,0,3.527,0,.808,0,.808,0,.841.8q0,.792,0,1.584,0,1.706.008,3.411a8.463,8.463,0,0,0-3.227,3.523,8.323,8.323,0,0,0-.731,2.6.512.512,0,0,1-.444.166c-.852.005-1.7.041-2.555-.02-.376-.059-.584-.356-.831-.6-1.2-1.166-.724-.976-2.412-.989-1.237-.01-2.474,0-3.771,0,.6.6,1.147,1.141,1.691,1.692.46.467.462.552.012,1.009-.581.59-1.17,1.171-1.805,1.808,1.673-.009,3.289.008,4.906-.012a.872.872,0,0,0,.6-.309c.306-.3.608-.61.915-.912a1.021,1.021,0,0,1,.686-.363c.821-.047,1.642-.019,2.462-.018a.625.625,0,0,1,.543.17,7.938,7.938,0,0,0,3.851,6.028.714.714,0,0,1,.106.1c-.006.215-.018.43-.018.645q0,9.043,0,18.086c0,.2.008.4.012.6" transform="translate(-87.692 -15.541)" fill="#89cbe6"/>
        <path id="Trazado_216728" data-name="Trazado 216728" d="M87.334,193.1c-.912,0-1.824-.012-2.735.007-.327.007-.421-.1-.424-.424-.012-1.174-.024-1.174,1.159-1.174,1.591,0,3.183.009,4.774-.007.349,0,.449.1.45.45,0,1.149.014,1.149-1.135,1.149H87.334" transform="translate(-72.981 -166.041)" fill="#feca2e"/>
        <path id="Trazado_216729" data-name="Trazado 216729" d="M147.195,193.107c-.912,0-1.824-.011-2.735.006-.315.006-.43-.077-.434-.414-.014-1.184-.027-1.184,1.15-1.184,1.591,0,3.183.008,4.774-.007.335,0,.46.079.46.439,0,1.159.016,1.159-1.126,1.159h-2.089" transform="translate(-124.873 -166.045)" fill="#feca2e"/>
        <path id="Trazado_216730" data-name="Trazado 216730" d="M134.272,175.151c-.663,0-1.326-.007-1.989,0-.251,0-.341-.076-.355-.339-.069-1.257-.077-1.256,1.176-1.256,1.061,0,2.122.01,3.182-.006.318,0,.428.083.432.417.014,1.181.026,1.181-1.153,1.181h-1.293" transform="translate(-114.366 -150.478)" fill="#feca2e"/>
        <path id="Trazado_216731" data-name="Trazado 216731" d="M122.5,209.46c.646,0,1.294.019,1.939-.007.36-.015.441.121.442.458,0,1.142.012,1.142-1.142,1.142-1.061,0-2.122-.01-3.182.006-.325,0-.467-.061-.468-.431,0-1.167-.019-1.167,1.168-1.167H122.5" transform="translate(-104.124 -181.603)" fill="#feca2e"/>
        <path id="Trazado_216732" data-name="Trazado 216732" d="M97.4,175.012H97c-1.312,0-1.307,0-1.177-1.3.021-.211.092-.291.3-.29a21.671,21.671,0,0,1,2.582.029c.629.08.206.693.292,1.054.049.205.12.527-.308.512s-.862,0-1.293,0" transform="translate(-83.032 -150.338)" fill="#feca2e"/>
        <path id="Trazado_216733" data-name="Trazado 216733" d="M85.451,210.905c-.414,0-.829-.009-1.243,0-.4.01-.341-.3-.286-.483.108-.367-.354-.992.265-1.079a19.526,19.526,0,0,1,2.631-.032c.183,0,.282.07.273.262,0,.05,0,.1,0,.149.035,1.181.035,1.181-1.144,1.181h-.5" transform="translate(-72.707 -181.456)" fill="#feca2e"/>
        <path id="Trazado_216734" data-name="Trazado 216734" d="M169.36,209.252c.182,0,.366-.012.547,0,.324.026.791-.161.943.088.224.367.066.868.072,1.312,0,.188-.153.188-.288.188a20.429,20.429,0,0,1-2.582-.026c-.629-.08-.206-.693-.292-1.055-.049-.205-.12-.527.308-.512s.862,0,1.293,0" transform="translate(-145.401 -181.394)" fill="#feca2e"/>
        <path id="Trazado_216735" data-name="Trazado 216735" d="M181.588,174.4c0,.774,0,.781-.905.771-.818-.009-.681.133-.683-.941,0-.775-.119-.642.927-.646.777,0,.649-.09.661.816" transform="translate(-156.06 -150.495)" fill="#feca2e"/>
        <path id="Trazado_216736" data-name="Trazado 216736" d="M117.179,287.335l2.089.013c-.812.826-1.628,1.649-2.434,2.481-.154.159-.267.164-.4-.007a.658.658,0,0,0-.07-.07c-.891-.857-.9-.864-.009-1.73.254-.248.435-.594.822-.687" transform="translate(-100.311 -249.131)" fill="#f1c093"/>
        <path id="Trazado_216737" data-name="Trazado 216737" d="M87.191,317.086q0,.389-.007.779l-2.289-.007a1.493,1.493,0,0,1,1.662-.789,5.058,5.058,0,0,0,.634.018" transform="translate(-73.607 -274.89)" fill="#98791b"/>
        <path id="Trazado_216738" data-name="Trazado 216738" d="M169.32,13.567a7.224,7.224,0,0,1-1.286-.014c-.659-.121-.205-.67-.3-1.012-.054-.2-.16-.567.3-.565.843,0,1.685,0,2.528,0a.16.16,0,0,1,.049,0c.609.207.18.7.271,1.05.049.189.149.537-.279.539s-.859,0-1.289,0" transform="translate(-145.376 -10.383)" fill="#98791b"/>
        <path id="Trazado_216739" data-name="Trazado 216739" d="M198.766,11.985a.8.8,0,1,1-.781.785.775.775,0,0,1,.781-.785" transform="translate(-171.661 -10.392)" fill="#98791b"/>
        <path id="Trazado_216740" data-name="Trazado 216740" d="M240.369,71.423a6.36,6.36,0,1,1,0,1.624.722.722,0,0,1,.745-.105c.235.114.219.356.268.556a5.411,5.411,0,0,0,5.477,4.165,5.216,5.216,0,0,0,4.737-3.173,5.16,5.16,0,0,0-.662-5.612,5.422,5.422,0,0,0-9.573,2.179c-.043.172-.042.37-.239.467a.714.714,0,0,1-.751-.1" transform="translate(-208.408 -57.112)" fill="#c3d3df"/>
        <path id="Trazado_216741" data-name="Trazado 216741" d="M210.1,108.278h-2.423l-3.15-.034a2.216,2.216,0,0,0,0-1.557l3.149-.034H210.1a3.688,3.688,0,0,1,1.582-.13c.278-.008.557-.015.835,0,.555-.016,1.109-.011,1.664-.008.447.016.9-.02,1.342.01a.938.938,0,1,1,.01,1.874c-.447.031-.895,0-1.342.01-.555,0-1.11.011-1.665-.007-.279.017-.558.01-.838,0a3.7,3.7,0,0,1-1.591-.13" transform="translate(-177.332 -92.344)" fill="#edbd33"/>
        <path id="Trazado_216742" data-name="Trazado 216742" d="M157.386,97.329c.184.3.677.468.638.8-.033.275-.413.507-.64.759a16.1,16.1,0,0,0-1.429,1.37.692.692,0,0,1-.512.244c-1.688-.01-3.376-.005-5.064-.007a1.388,1.388,0,0,1-.224-.057c.715-.7,1.374-1.366,2.059-2,.261-.243.3-.388.014-.655-.68-.627-1.323-1.3-1.978-1.943.115-.181.262-.11.379-.11,1.572-.005,3.145,0,4.717-.009a.825.825,0,0,1,.653.269c.45.461.923.9,1.386,1.346" transform="translate(-130.19 -82.985)" fill="#fc4b52"/>
        <path id="Trazado_216743" data-name="Trazado 216743" d="M246.441,78.21h1.611a1.3,1.3,0,0,1,.293.566,3.829,3.829,0,0,0,6.4,1.233,3.837,3.837,0,0,0-2.578-6.44,3.684,3.684,0,0,0-3.609,2,4.909,4.909,0,0,1-.508,1.014h-1.609a5.565,5.565,0,1,1,0,1.622" transform="translate(-213.674 -62.276)" fill="#12263f"/>
        <path id="Trazado_216744" data-name="Trazado 216744" d="M265.9,91.354l-1.705-.005c-.146-.183-.024-.352.046-.508A3.151,3.151,0,0,1,267,88.863a3.3,3.3,0,1,1-2.744,4.662c-.074-.17-.22-.349-.064-.553l1.706-.006c.223.114.4.291.611.423a1.416,1.416,0,0,0,1.911-.335,1.46,1.46,0,0,0-2.005-2.079,3.846,3.846,0,0,1-.52.378" transform="translate(-229.006 -77.037)" fill="#12263f"/>
        <path id="Trazado_216745" data-name="Trazado 216745" d="M259.366,88.561a3.185,3.185,0,1,0,0-1.624h-.809a3.983,3.983,0,1,1,0,1.623h.811" transform="translate(-224.177 -72.626)" fill="#c3d3df"/>
        <path id="Trazado_216746" data-name="Trazado 216746" d="M277.465,102.544a1.536,1.536,0,0,1,1.653-.757,1.589,1.589,0,0,1,.715,2.8,1.577,1.577,0,0,1-2.366-.427c.445,0,.89,0,1.335-.013a.793.793,0,1,0,0-1.586c-.445-.014-.89-.01-1.335-.014" transform="translate(-240.573 -88.228)" fill="#fc4b52"/>
      </g>
    </g>
    <g id="Grupo_146608" data-name="Grupo 146608" transform="translate(429.16 2564.387)">
      <g id="Grupo_146607" data-name="Grupo 146607" clip-path="url(#clip-path-5)">
        <path id="Trazado_216747" data-name="Trazado 216747" d="M17.511,46H3.871c-.145-.092-.306-.025-.457-.046A3.493,3.493,0,0,1,.6,44.222,2.7,2.7,0,0,1,.059,42.6c-.021-.153.047-.315-.046-.461V13.511a.3.3,0,0,1,.162-.051A5.732,5.732,0,0,1,.8,13.432q5.359,0,10.719,0c.194,0,.388,0,.583-.009a1.214,1.214,0,0,0,1.194-1.21c.012-.209.009-.419.009-.628q0-5.158,0-10.316A10.512,10.512,0,0,1,13.348.106a.158.158,0,0,1,.138-.1c1.346.011,2.693-.043,4.038.027a.766.766,0,0,1,.154.588q.008,3.506,0,7.012a1.367,1.367,0,0,1-.055.44c-.073.212-.269.256-.447.329a1.209,1.209,0,0,0-.863,1.171,1.191,1.191,0,0,0,.849,1.138c.165.063.349.1.439.28a9.381,9.381,0,0,1,.009,2.5c-.089.205-.295.234-.471.307a1.2,1.2,0,0,0-.825,1.162,1.188,1.188,0,0,0,.819,1.122c.177.071.383.1.475.306a6.786,6.786,0,0,1-.067,2.6,1.146,1.146,0,0,1-.815.158q-4.706.006-9.411,0a5.69,5.69,0,0,0-.671.017,1.168,1.168,0,0,0-.005,2.326,5.511,5.511,0,0,0,.672.018q4.706,0,9.411,0a1.174,1.174,0,0,1,.817.154.591.591,0,0,1,.128.371c.026.649.023,1.3,0,1.95a.639.639,0,0,1-.118.375,1.146,1.146,0,0,1-.855.169q-4.642.007-9.283,0c-.209,0-.419,0-.628.008a1.172,1.172,0,1,0-.02,2.344c.209.013.418.009.627.009q4.664,0,9.327,0a1.174,1.174,0,0,1,.818.154.588.588,0,0,1,.128.37c.024.665.027,1.329,0,1.994a.576.576,0,0,1-.114.331,1.146,1.146,0,0,1-.855.169q-4.642.007-9.283,0c-.209,0-.419,0-.628.008a1.172,1.172,0,1,0-.02,2.344c.209.013.418.009.627.009q4.664,0,9.327,0a1.176,1.176,0,0,1,.818.154.591.591,0,0,1,.128.371c.026.65.023,1.3,0,1.95a.641.641,0,0,1-.118.375,1.146,1.146,0,0,1-.854.169q-4.681.007-9.36,0a6.216,6.216,0,0,0-.671.016,1.168,1.168,0,0,0-.006,2.329,6.105,6.105,0,0,0,.671.016q4.68,0,9.36,0a1.173,1.173,0,0,1,.857.165,1.024,1.024,0,0,1,.135.645q.006,3.422,0,6.844a.887.887,0,0,1-.171.675" transform="translate(-0.007 0)" fill="#e0e3fa"/>
        <path id="Trazado_216748" data-name="Trazado 216748" d="M64.83,75.9H63.574a10.222,10.222,0,0,1-2.472-.542,10.943,10.943,0,0,1-6.555-6.515,5.873,5.873,0,0,1-.361-1.153,10.233,10.233,0,0,1,0-5.3,9.784,9.784,0,0,1,1.13-2.77,10.908,10.908,0,0,1,8.387-5.4c.379-.046.765-.189,1.135.044l-.011.027A.778.778,0,0,1,65,54.91q.008,5.118,0,10.237c0,.165-.032.326-.045.488a.607.607,0,0,1-.1.3,13.612,13.612,0,0,1-.971.99c-.338.326-.476.32-.829-.017-.314-.3-.616-.61-.921-.917a4.611,4.611,0,0,0-.613-.523,1.084,1.084,0,0,0-1.566.1,1.042,1.042,0,0,0-.073,1.56A21.554,21.554,0,0,0,62.767,70a1.022,1.022,0,0,0,1.432.01,4.7,4.7,0,0,1,.406-.279c.167-.091.284-.058.344.132a3.537,3.537,0,0,1,.05.89q0,2.211,0,4.422a.948.948,0,0,1-.168.719" transform="translate(-29.739 -29.901)" fill="#a7e446"/>
        <path id="Trazado_216749" data-name="Trazado 216749" d="M78.374,76.092q-.01-3.114-.02-6.229a.213.213,0,0,1,.011-.127,2.42,2.42,0,0,1,.415-.466q2.1-2.108,4.211-4.213a2.466,2.466,0,0,0,.5-.627,1.206,1.206,0,0,0-1.633-1.618,2.382,2.382,0,0,0-.593.472c-.792.792-1.581,1.586-2.377,2.373-.141.139-.256.346-.511.3q0-5.741-.008-11.481a10.587,10.587,0,0,1,8.548,4.136,10.2,10.2,0,0,1,2.286,7.47,10.623,10.623,0,0,1-4.047,7.6,10.43,10.43,0,0,1-5.521,2.333c-.034,0-.063.05-.095.077h-.179a.492.492,0,0,0-.448,0Z" transform="translate(-43.283 -30.095)" fill="#85b638"/>
        <path id="Trazado_216750" data-name="Trazado 216750" d="M46.179,84.309a10.988,10.988,0,0,0,3.262,5.343,10.679,10.679,0,0,0,5.51,2.672c.164.027.361,0,.488.156H39.109q0-4.075,0-8.15l.056-.069a1.107,1.107,0,0,1,.65-.115q2.842-.005,5.685,0a.874.874,0,0,1,.676.164" transform="translate(-21.605 -46.483)" fill="#c4c8f6"/>
        <path id="Trazado_216751" data-name="Trazado 216751" d="M.093,95.113a4.019,4.019,0,0,0,3.321,3.321c.033.019.044.038.034.058s-.021.03-.032.03c-1.061,0-2.124-.006-3.185.006-.193,0-.232-.037-.23-.23.013-1.062.006-2.124.006-3.186.03-.043.058-.045.087,0" transform="translate(0 -52.524)" fill="#fefefe"/>
        <path id="Trazado_216752" data-name="Trazado 216752" d="M.1,94.6H.014v-.449c.14.128.073.3.087.45" transform="translate(-0.008 -52.011)" fill="#f3f4fd"/>
        <path id="Trazado_216753" data-name="Trazado 216753" d="M7.63,102.658q0-.044,0-.089c.153.015.322-.053.45.089Z" transform="translate(-4.215 -56.661)" fill="#edeffc"/>
        <path id="Trazado_216754" data-name="Trazado 216754" d="M79.608,102.65a.3.3,0,0,1,.448,0Z" transform="translate(-43.978 -56.653)" fill="#8bda4d"/>
        <path id="Trazado_216755" data-name="Trazado 216755" d="M56.707,24.414a11.229,11.229,0,0,0-5.728,1.654,10.809,10.809,0,0,0-3.467,3.43c-.071.112-.154.217-.231.325a.916.916,0,0,1-.638.16q-3.432,0-6.864,0a1.024,1.024,0,0,1-.607-.115c-.019-.023-.038-.047-.056-.07v-2.66l.049-.064a1.2,1.2,0,0,1,.7-.109c1.567,0,3.135,0,4.7,0a4.062,4.062,0,0,0,.581-.021,1.172,1.172,0,0,0,0-2.331,4,4,0,0,0-.581-.021c-1.567,0-3.135,0-4.7,0a1.2,1.2,0,0,1-.7-.108l-.049-.065V21.753l.052-.067a1.384,1.384,0,0,1,.785-.112q4.749,0,9.5,0a2.312,2.312,0,0,0,.926-.117,1.125,1.125,0,0,0,0-2.128,2.313,2.313,0,0,0-.926-.117q-4.748,0-9.5,0a1.389,1.389,0,0,1-.786-.111l-.052-.067v-2.66l.052-.066a1.382,1.382,0,0,1,.786-.112q4.748-.005,9.5,0a2.32,2.32,0,0,0,.926-.117,1.125,1.125,0,0,0,0-2.128,2.32,2.32,0,0,0-.926-.117q-4.749,0-9.5,0a1.391,1.391,0,0,1-.786-.111l-.052-.067V10.983l.052-.066a1.39,1.39,0,0,1,.786-.112q4.748,0,9.5,0a2.32,2.32,0,0,0,.926-.117,1.125,1.125,0,0,0,0-2.129,2.32,2.32,0,0,0-.926-.116q-4.749,0-9.5,0a1.391,1.391,0,0,1-.786-.111l-.052-.067q0-4.073,0-8.145c4.558,0,9.115-.016,13.673,0A4.014,4.014,0,0,1,56.7,4.149q.008,9.863,0,19.727c0,.179,0,.358.006.538" transform="translate(-21.608 -0.059)" fill="#c4c8f6"/>
        <path id="Trazado_216756" data-name="Trazado 216756" d="M.212,13.682c.12-.132.236-.269.362-.395L13.132.705c.126-.126.241-.263.361-.4.141.134.087.308.088.466q0,5.76,0,11.52a1.36,1.36,0,0,1-1.475,1.475q-5.715,0-11.429,0c-.158,0-.333.054-.466-.088" transform="translate(-0.117 -0.171)" fill="#c4c8f6"/>
        <path id="Trazado_216757" data-name="Trazado 216757" d="M24.163,45.107q-3.025-.008-6.05-.016c-1.554,0-3.107.006-4.661,0a1.344,1.344,0,1,1,0-2.685q5.087-.011,10.174,0c.179,0,.358-.01.537-.016l-.007.034c.03.032.075.058.083.1a7.011,7.011,0,0,1,0,2.453c-.008.044-.053.069-.083.1Z" transform="translate(-6.657 -23.413)" fill="#fc4b52"/>
        <path id="Trazado_216758" data-name="Trazado 216758" d="M24.163,57.137q-3.025-.008-6.05-.016c-1.554,0-3.107.006-4.661,0a1.344,1.344,0,1,1,0-2.685q5.087-.011,10.174,0c.179,0,.358-.01.537-.016l-.007.034c.03.032.075.058.083.1a7.011,7.011,0,0,1,0,2.453c-.008.044-.053.069-.083.1Z" transform="translate(-6.657 -30.059)" fill="#fc4b52"/>
        <path id="Trazado_216759" data-name="Trazado 216759" d="M24.163,69.168q-3.025-.008-6.05-.016c-1.554,0-3.107.006-4.661,0a1.344,1.344,0,1,1,0-2.685q5.088-.011,10.174,0c.179,0,.358-.01.537-.016l-.007.034a.3.3,0,0,1,.119.185,8.245,8.245,0,0,1-.049,2.445l-.063.061" transform="translate(-6.657 -36.705)" fill="#fc4b52"/>
        <path id="Trazado_216760" data-name="Trazado 216760" d="M24.163,81.2q-3.025-.008-6.05-.016c-1.554,0-3.107.006-4.661,0a1.344,1.344,0,1,1,0-2.685q5.087-.011,10.174,0c.179,0,.358-.01.537-.016l.062.061a5.331,5.331,0,0,1-.069,2.629l.007.034" transform="translate(-6.657 -43.352)" fill="#fc4b52"/>
        <path id="Trazado_216761" data-name="Trazado 216761" d="M46.175,72.285a13.919,13.919,0,0,0-.355,2.688.672.672,0,0,1-.538.167q-2.817.013-5.634,0a.8.8,0,0,1-.548-.151l.007-.034V72.3l-.007-.034a.859.859,0,0,1,.593-.152q2.928-.006,5.857,0a.76.76,0,0,1,.625.173" transform="translate(-21.6 -39.835)" fill="#c4c8f6"/>
        <path id="Trazado_216762" data-name="Trazado 216762" d="M37.443,21.045c-1.051-.172-1.6-.983-1.249-1.862a1.374,1.374,0,0,1,1.249-.862l-.007.035c.03.032.076.057.083.1a7.02,7.02,0,0,1,0,2.45c-.008.044-.053.069-.083.1Z" transform="translate(-19.937 -10.122)" fill="#fc4b52"/>
        <path id="Trazado_216763" data-name="Trazado 216763" d="M37.443,33.076c-1.051-.172-1.6-.983-1.249-1.862a1.374,1.374,0,0,1,1.249-.862l-.007.035c.03.032.076.057.083.1a7.02,7.02,0,0,1,0,2.45c-.008.044-.053.069-.083.1Z" transform="translate(-19.937 -16.768)" fill="#fc4b52"/>
        <path id="Trazado_216764" data-name="Trazado 216764" d="M46.175,69.188,39.1,69.166V66.51l8.173-.008a13.951,13.951,0,0,0-1.1,2.686" transform="translate(-21.6 -36.738)" fill="#972d31"/>
        <path id="Trazado_216765" data-name="Trazado 216765" d="M78.2,75.906c1.009-.993,2.011-1.993,3.03-2.975A1.355,1.355,0,1,1,83.083,74.9q-2.051,2.062-4.113,4.114c-.252.251-.516.491-.775.735a.5.5,0,0,1-.156-.405c-.021-.972-.013-1.944,0-2.916a2.768,2.768,0,0,1,.076-.35l.089-.168" transform="translate(-43.104 -40.042)" fill="#c4c8f6"/>
        <path id="Trazado_216766" data-name="Trazado 216766" d="M39.1,78.528l6.72-.018a13.915,13.915,0,0,0,.354,2.688L39.1,81.184V78.528" transform="translate(-21.6 -43.371)" fill="#972d31"/>
        <path id="Trazado_216767" data-name="Trazado 216767" d="M71.667,79.4c.132.137.083.308.084.466,0,1.068,0,2.137,0,3.2a.305.305,0,0,0-.02.065c-1.222,1.059-1.579,1.046-2.727-.1-.75-.751-1.51-1.491-2.241-2.259a1.32,1.32,0,0,1,1.805-1.922c.535.477,1.049.979,1.541,1.5.24.254.379.229.6-.013.3-.332.637-.627.958-.938" transform="translate(-36.661 -43.365)" fill="#e0e3fa"/>
        <path id="Trazado_216768" data-name="Trazado 216768" d="M39.1,21.028V18.375c1.6-.006,3.194-.016,4.792-.019q2.934-.005,5.869,0a1.359,1.359,0,1,1,0,2.691q-5.129,0-10.259,0c-.134,0-.268-.012-.4-.019" transform="translate(-21.6 -10.139)" fill="#972d31"/>
        <path id="Trazado_216769" data-name="Trazado 216769" d="M39.1,33.058V30.405c1.6-.006,3.194-.016,4.792-.019q2.934-.005,5.869,0a1.359,1.359,0,1,1,0,2.691q-5.129,0-10.258,0c-.134,0-.268-.012-.4-.019" transform="translate(-21.6 -16.785)" fill="#972d31"/>
        <path id="Trazado_216770" data-name="Trazado 216770" d="M39.1,45.09V42.434q3.2-.009,6.4-.017,2.15,0,4.3,0a1.353,1.353,0,1,1,0,2.69q-5.2,0-10.393,0c-.1,0-.208-.011-.312-.017" transform="translate(-21.6 -23.431)" fill="#972d31"/>
        <path id="Trazado_216771" data-name="Trazado 216771" d="M39.1,57.128V54.471c2-.005,4.007-.022,6.01-.01a1.341,1.341,0,0,1,0,2.677c-2,.012-4.007,0-6.01-.01" transform="translate(-21.6 -30.084)" fill="#972d31"/>
      </g>
    </g>
    <g id="Grupo_146610" data-name="Grupo 146610" transform="translate(936 2569)">
      <g id="Grupo_146609" data-name="Grupo 146609" clip-path="url(#clip-path-6)">
        <path id="Trazado_216772" data-name="Trazado 216772" d="M66.686,33.927a5.418,5.418,0,0,0-2.12-4.065,12.482,12.482,0,0,1-4.761-8.069,12.306,12.306,0,0,1,2.823-10.1A12.34,12.34,0,0,1,70.29,7.338a10.111,10.111,0,0,1,4,.039,19.1,19.1,0,0,1-.1,3.44,61.457,61.457,0,0,1-.853,6.939q-.574,3.179-1.445,6.29a1.185,1.185,0,0,1-.234.536.883.883,0,0,1-.614.113.423.423,0,0,1-.447-.426c-.017-.18-.01-.361-.019-.541A2.225,2.225,0,1,0,68.322,26c.164.008.328,0,.492.015a.43.43,0,0,1,.457.47c0,1.706.059,3.413-.029,5.119-.3.676-.559,1.367-.89,2.027a.985.985,0,0,1-.334.476,4.986,4.986,0,0,1-1.012.1c-.217.031-.273-.12-.321-.282" transform="translate(-51.778 -6.213)" fill="#feca2e"/>
        <path id="Trazado_216773" data-name="Trazado 216773" d="M150.328,26.008a67.511,67.511,0,0,0,1.859-8.425c.24-1.582.428-3.172.528-4.773.076-1.226.19-2.449.186-3.678a.341.341,0,0,1,.113-.31,11.839,11.839,0,0,1,6.18,2.827,12.251,12.251,0,0,1,4.445,9.994,12.258,12.258,0,0,1-4.707,9.478,6.16,6.16,0,0,0-2.381,4.465,7.235,7.235,0,0,1-2.341-.041.688.688,0,0,1-.168-.593q-.009-3.377,0-6.753c0-.645.095-.745.748-.745a2.264,2.264,0,0,0,2.066-1.114,2.083,2.083,0,0,0-.106-2.406,2.166,2.166,0,0,0-2.3-.861A2.316,2.316,0,0,0,152.765,25c-.008.065-.011.131-.014.2-.049.961-.049.98-1.032.955-.464-.012-.952.146-1.391-.14" transform="translate(-130.501 -7.659)" fill="#cba124"/>
        <path id="Trazado_216774" data-name="Trazado 216774" d="M134.513,209.9a15.842,15.842,0,0,1,2.372.115,2.507,2.507,0,0,1,1.576,2.388,2.12,2.12,0,0,1-.408,1.187.37.37,0,0,0-.03.511,2.22,2.22,0,0,1-.006,2.7.343.343,0,0,0,.015.468,2.177,2.177,0,0,1,.161,2.409,2.337,2.337,0,0,1-2.254,1.3c-.213-.009-.426,0-.64,0a.749.749,0,0,1-.551.154c-.831,0-1.663.018-2.494-.008-1.469-.006-2.94.068-4.408-.04-.371-.219-.057-.392.063-.532a18.66,18.66,0,0,0,1.759-2.428,19.15,19.15,0,0,0,2.64-7.764c.022-.176,0-.367.164-.5a1.059,1.059,0,0,1,.508-.081,3.5,3.5,0,0,1,1.531.125" transform="translate(-110.833 -182.087)" fill="#85b638"/>
        <path id="Trazado_216775" data-name="Trazado 216775" d="M109.7,209.953a15.685,15.685,0,0,1-.924,4.551,18.222,18.222,0,0,1-2.837,5.317c-.307.4-.651.778-.977,1.166a.2.2,0,0,1-.291,0,4.2,4.2,0,0,1-1.831-.216,2.372,2.372,0,0,1-1.023-3.334.658.658,0,0,0,0-.79,2.222,2.222,0,0,1,.023-2.419.575.575,0,0,0-.008-.7,2.355,2.355,0,0,1,.834-3.279c.174-.107.352-.182.327-.428.083.078.1.242.288.176a5.306,5.306,0,0,1,1.089-.075c.342-.222.724-.112,1.09-.13.529-.016,1.058-.015,1.588,0,.7-.026,1.4-.012,2.105-.007a.628.628,0,0,1,.54.168" transform="translate(-88.093 -182.108)" fill="#a7e446"/>
        <path id="Trazado_216776" data-name="Trazado 216776" d="M145.891,294.814l3.048-.009a20.254,20.254,0,0,1-.082,3.094,3.9,3.9,0,0,1-5.341,2.922c-.287-.25-.042-.454.083-.631a12.776,12.776,0,0,0,1.639-3.175,16.225,16.225,0,0,0,.49-1.749c.035-.157.025-.331.164-.451" transform="translate(-124.47 -255.922)" fill="#b2b2b2"/>
        <path id="Trazado_216777" data-name="Trazado 216777" d="M130.515,294.788a9.936,9.936,0,0,1-.829,3.011,11.98,11.98,0,0,1-1.417,2.516c-.1.144-.251.276-.129.48a3.863,3.863,0,0,1-2.467-3.308c-.007-.9,0-1.8,0-2.707l.291,0,4.549.013" transform="translate(-109.095 -255.896)" fill="#cbcbcb"/>
        <path id="Trazado_216778" data-name="Trazado 216778" d="M2.744,91.255c.64,0,1.279-.009,1.919,0a.789.789,0,1,1,.007,1.572q-1.919.014-3.837,0a.786.786,0,1,1-.007-1.57c.639-.014,1.279,0,1.919,0" transform="translate(0 -79.216)" fill="#fec139"/>
        <path id="Trazado_216779" data-name="Trazado 216779" d="M272.125,92.829c-.623,0-1.247.007-1.87,0a.792.792,0,1,1-.005-1.574q1.894-.012,3.788,0a.789.789,0,1,1,.005,1.572c-.639.012-1.279,0-1.919,0" transform="translate(-233.846 -79.212)" fill="#fec139"/>
        <path id="Trazado_216780" data-name="Trazado 216780" d="M35.65,164.932a.743.743,0,0,1-.357.635c-1.027.793-2.051,1.59-3.089,2.368a.742.742,0,0,1-1.092-.147.768.768,0,0,1,.141-1.1c1.034-.811,2.081-1.6,3.126-2.4a.778.778,0,0,1,1.271.641" transform="translate(-26.861 -142.462)" fill="#fec139"/>
        <path id="Trazado_216781" data-name="Trazado 216781" d="M249.147,167.269a.816.816,0,0,1-.4.7.675.675,0,0,1-.791-.006c-1.1-.832-2.2-1.668-3.275-2.529a.71.71,0,0,1-.1-1.022.735.735,0,0,1,1.047-.187c1.1.81,2.171,1.649,3.249,2.481a.836.836,0,0,1,.266.567" transform="translate(-212.178 -142.437)" fill="#fec139"/>
        <path id="Trazado_216782" data-name="Trazado 216782" d="M249.272.793a.931.931,0,0,1-.366.669c-1.017.779-2.028,1.565-3.052,2.333a.767.767,0,0,1-1.136-.1.748.748,0,0,1,.17-1.124c1.031-.813,2.077-1.608,3.123-2.4a.711.711,0,0,1,.833-.053.838.838,0,0,1,.428.683" transform="translate(-212.282 0)" fill="#fec139"/>
        <path id="Trazado_216783" data-name="Trazado 216783" d="M34.7,4.021a.968.968,0,0,1-.5-.2c-1.015-.781-2.036-1.553-3.046-2.341A.757.757,0,0,1,30.959.355a.756.756,0,0,1,1.13-.136c1.036.781,2.061,1.575,3.086,2.37a.754.754,0,0,1,.285.917.794.794,0,0,1-.76.515" transform="translate(-26.727 -0.023)" fill="#fec139"/>
        <path id="Trazado_216784" data-name="Trazado 216784" d="M112.466,127.694h-1.573a3.914,3.914,0,0,1-.116-1.93,1.187,1.187,0,0,1,.105-.428c0-1.642-.021-3.285.022-4.926.014-.538-.178-.615-.644-.6a2.362,2.362,0,1,1,2.023-3.26,2.319,2.319,0,0,1,.18,1.154c-.056.439.108.61.543.54a2.43,2.43,0,0,1,.344-.008c.608,0,1.216-.018,1.823.013.388.02.485-.134.457-.487a2.36,2.36,0,0,1,1.164-2.328,2.12,2.12,0,0,1,2.366-.021,2.229,2.229,0,0,1,1.189,2.209,2.361,2.361,0,0,1-1.45,2.01,2.268,2.268,0,0,1-1.2.185c-.388-.042-.5.1-.5.493.016,2.463.007,4.927.006,7.391H115.63a.991.991,0,0,1-.158-.75c0-2.069,0-4.139,0-6.208,0-.747-.019-.76-.78-.764-.575,0-1.15.008-1.724,0-.238-.037-.364.045-.359.307,0,.241,0,.482.017.724.009,1.984.005,3.966,0,5.949a.979.979,0,0,1-.16.747" transform="translate(-93.524 -99.881)" fill="#feac1d"/>
        <path id="Trazado_216785" data-name="Trazado 216785" d="M124.548,192.993q.005,1.179.01,2.358l-1.084,0c.352-.79.646-1.605,1.074-2.36" transform="translate(-107.188 -167.538)" fill="#cba124"/>
        <path id="Trazado_216786" data-name="Trazado 216786" d="M143.617,158.953q0-3.4.01-6.805c.129-.355.053-.783.381-1.068.773,0,1.546.016,2.318-.015.389-.015.461.139.46.489-.012,2.466,0,4.932,0,7.4l-.5.032-2.667-.032" transform="translate(-124.675 -131.14)" fill="#cba124"/>
        <path id="Trazado_216787" data-name="Trazado 216787" d="M121.237,128.237c-.041.193.125.49-.305.514-.72.04-1.138-.136-1.256-.6a.794.794,0,0,1,1.475-.563,1.4,1.4,0,0,1,.087.644" transform="translate(-103.87 -110.389)" fill="#fee165"/>
        <path id="Trazado_216788" data-name="Trazado 216788" d="M179.991,128.746c-.151-.031-.49.157-.5-.333-.021-.788.185-1.182.718-1.231a.792.792,0,0,1,.259,1.561,2.8,2.8,0,0,1-.475,0" transform="translate(-155.813 -110.404)" fill="#cba124"/>
        <path id="Trazado_216789" data-name="Trazado 216789" d="M143.985,151.12a4.242,4.242,0,0,1-.381,1.068c0-.246.009-.494-.011-.738-.025-.309.139-.365.392-.33" transform="translate(-124.652 -131.18)" fill="#fedf62"/>
      </g>
    </g>
  </g>
</svg>
