<svg id="Grupo_140654" data-name="Grupo 140654" xmlns="http://www.w3.org/2000/svg" xmlns:xlink="http://www.w3.org/1999/xlink" width="81.678" height="79.564" viewBox="0 0 81.678 79.564">
  <defs>
    <clipPath id="clip-path">
      <rect id="Rectángulo_88910" data-name="Rectángulo 88910" width="81.678" height="79.564" fill="none"/>
    </clipPath>
  </defs>
  <g id="Grupo_140654-2" data-name="Grupo 140654" clip-path="url(#clip-path)">
    <path id="Trazado_214292" data-name="Trazado 214292" d="M108.51,75.9a12.834,12.834,0,0,1-.761,1.53,4.5,4.5,0,0,1-7.674-.111c-1.007-1.611-1.914-3.285-2.87-4.929-.158-.271-.336-.529-.506-.794-.3-.12-.393-.412-.542-.659-.961-1.585-1.839-3.22-2.786-4.813-.184-.308-.359-.611-.8-.422a16,16,0,0,1-11.152-2,16.562,16.562,0,0,1-5.155-5.069c-3.324-5.557-3.442-11.24-.125-16.744a14.888,14.888,0,0,1,13.217-7.517,11.4,11.4,0,0,1,3.165.219,15.256,15.256,0,0,1,3.632,1.139c.262.126.552.207.682.507a16.921,16.921,0,0,1,6.09,5.706,15.577,15.577,0,0,1-1.146,17.937,1.443,1.443,0,0,0-.153,2.018c1.91,3.183,3.73,6.42,5.6,9.627A13.948,13.948,0,0,1,108.51,74.3Z" transform="translate(-26.833 -12.508)"/>
    <path id="Trazado_214293" data-name="Trazado 214293" d="M55.784,54.664a17.385,17.385,0,0,0,5.918,2.1,18.369,18.369,0,0,0,5.356-.083c.471.023.433.41.441.693q.065,2.325,0,4.651a.978.978,0,0,1-.371.834,2.33,2.33,0,0,1-1.169.17q-30.26,0-60.519,0c-1.681,0-2.084-.4-2.085-2.065q-.009-23.878,0-47.757c0-1.631.412-2.039,2.02-2.054,1.169-.012,2.34-.046,3.507.01a2.537,2.537,0,0,0,2.565-1.031,7.336,7.336,0,0,0,2.356.16c.432.422.782.959,1.465,1.026a11.59,11.59,0,0,0,1.278.025H65.594c1.861,0,1.93.068,1.931,1.924q0,5.622,0,11.243a4.091,4.091,0,0,1-.062,1.032c-.067.258-.146.544-.531.389a17.51,17.51,0,0,0-7.405.411A15.705,15.705,0,0,0,48.387,41.909a16.537,16.537,0,0,0,2.492,7.943,4.414,4.414,0,0,1,.078,2.469,2.415,2.415,0,0,0-1.026,2.485c.06.659-.01,1.329.02,1.992.038.826.346,1.206,1.144,1.25,1.486.081,2.976.054,4.464.011a1.01,1.01,0,0,0,1.037-.724.946.946,0,0,0-.48-1.083,1.641,1.641,0,0,1-.428-.356,1.127,1.127,0,0,1,.1-1.232" transform="translate(-1.221 -3.689)" fill="#eaedf1"/>
    <path id="Trazado_214294" data-name="Trazado 214294" d="M10.23,9.5c-.193,1-.507,1.281-1.482,1.286-1.674.01-3.348,0-5.022.005-.993.006-1.33.348-1.33,1.353q0,24.311,0,48.623c0,1.019.328,1.368,1.312,1.368q30.969,0,61.939,0a2.308,2.308,0,0,0,.237-.025,1.568,1.568,0,0,1,1.309-.081,1.134,1.134,0,0,1,.784,1.547,1.338,1.338,0,0,1-1.469.957c-2.074-.01-4.147.014-6.22-.016-.517-.008-.7.123-.653.651.048.554.015,1.115.01,1.674a2.786,2.786,0,0,1-3.1,3.039c-3.535.015-7.071,0-10.607,0h-.878a1.4,1.4,0,0,0,.305.832q2.452,4.817,4.92,9.627a5.19,5.19,0,0,1,.35.8,1.043,1.043,0,0,1-.533,1.286,1.079,1.079,0,0,1-1.446-.193,3.729,3.729,0,0,1-.492-.811c-1.854-3.605-3.714-7.207-5.54-10.827a1.085,1.085,0,0,0-1.132-.727q-5.861.046-11.723,0a1.085,1.085,0,0,0-1.132.725c-1.849,3.667-3.739,7.314-5.609,10.97-.2.383-.376.787-.8.947a1.149,1.149,0,0,1-1.262-.221,1.09,1.09,0,0,1-.265-1.376c.563-1.14,1.143-2.271,1.722-3.4q1.913-3.747,3.834-7.5a1.267,1.267,0,0,0-.879-.122c-3.483-.008-6.964,0-10.447-.006-2.3,0-3.288-1.007-3.3-3.305,0-.658.211-1.521-.121-1.919-.351-.422-1.245-.119-1.9-.125-1.967-.018-3.934,0-5.9-.008A3.426,3.426,0,0,1,0,60.8Q0,36.479,0,12.158A3.444,3.444,0,0,1,3.768,8.4c1.648-.006,3.3.006,4.945,0A1.354,1.354,0,0,1,10.23,9.5" transform="translate(0 -3.055)"/>
    <path id="Trazado_214295" data-name="Trazado 214295" d="M20.924,7.745A1.376,1.376,0,0,1,19.791,6.6c.282-1.04.57-1.262,1.7-1.262,4.65,0,9.3-.012,13.949.013.607,0,.857-.124.789-.773a11.462,11.462,0,0,1,0-1.672A2.834,2.834,0,0,1,38.967.05q3.863-.1,7.729,0A2.868,2.868,0,0,1,49.47,2.894a10.318,10.318,0,0,1,0,1.592c-.071.671.107.877.837.874,8.077-.032,16.155-.019,24.232-.023a4.926,4.926,0,0,1,1.727.235,3.378,3.378,0,0,1,2.214,3.281c.029,3.666.011,7.333.008,11A1.317,1.317,0,0,1,77.4,21.3a1.121,1.121,0,0,1-1.462-.909,4.451,4.451,0,0,1-.074-1.11c0-3.187,0-6.375,0-9.562,0-1.437-.277-1.695-1.727-1.742C61.523,7.567,48.909,7.9,36.3,7.805c-4.835-.037-9.67-.005-14.5-.008a2.531,2.531,0,0,1-.869-.052" transform="translate(-7.205 0)"/>
    <path id="Trazado_214296" data-name="Trazado 214296" d="M21.573,12.167c.292-.007.584-.02.876-.02l52.546.008c1.517,0,1.747.231,1.747,1.755q0,5.143,0,10.285c0,1.054.291,1.379,1.3,1.529-.345.787-.039,1.624-.191,2.426a23.758,23.758,0,0,0-4.292-1.484c.373-.06.336-.345.336-.611,0-4.33-.013-8.659.011-12.988,0-.769-.424-.767-.976-.766q-14.5.01-29.008,0-10.718,0-21.436,0c-.307,0-.642.108-.918-.133" transform="translate(-7.853 -4.422)" fill="#d0d5dd"/>
    <path id="Trazado_214297" data-name="Trazado 214297" d="M105.663,90.789c-.05-1.061-.408-1.414-1.458-1.44-.212-.005-.424-.017-.635-.026a1.376,1.376,0,0,0,.163-.838c0-1.5,0-3,0-4.506,0-.256.064-.538-.209-.718.314-.22.509-.116.687.2q1.662,2.952,3.343,5.894c-.405.775-1.231.993-1.889,1.434" transform="translate(-37.686 -30.267)" fill="#d0d5dd"/>
    <path id="Trazado_214298" data-name="Trazado 214298" d="M91.219,64.818a13.231,13.231,0,1,1,13.152-13.353A13.185,13.185,0,0,1,91.219,64.818" transform="translate(-28.369 -13.962)" fill="#feca2e"/>
    <path id="Trazado_214299" data-name="Trazado 214299" d="M113.727,82.078c1.759,3.03,3.533,6.051,5.269,9.094a2.139,2.139,0,0,1-.713,2.993,2.067,2.067,0,0,1-2.92-.724c-1.8-3.064-3.547-6.163-5.315-9.247a.259.259,0,0,1,.146-.328c1.04-.585,2.1-1.138,3.094-1.8a.328.328,0,0,1,.439.011" transform="translate(-40.055 -29.847)" fill="#fc4b52"/>
    <path id="Trazado_214300" data-name="Trazado 214300" d="M78.049,75.111q.01-1.263.022-2.525a17.5,17.5,0,0,0,4.9,4.812q-.007.609-.013,1.217c-.227.3-.562.261-.873.268-.635.017-1.271.019-1.907,0-.925-.026-1.082-.2-1.118-1.143a1.021,1.021,0,0,1,0-.159,2.332,2.332,0,0,0-1.014-2.471" transform="translate(-28.413 -26.424)" fill="#a7e446"/>
    <path id="Trazado_214301" data-name="Trazado 214301" d="M113.042,80.894l-3.678,2.116c-.366-.612-.721-1.233-1.1-1.833-.2-.307-.123-.468.189-.6A14.669,14.669,0,0,0,111.4,78.86c.294-.222.439-.134.6.166.331.633.7,1.247,1.048,1.868" transform="translate(-39.37 -28.663)" fill="#c93c41"/>
    <path id="Trazado_214302" data-name="Trazado 214302" d="M45.851,38.374c.223-.579-.157-.866-.679-1.141-1.032-.542-2.044-1.124-3.046-1.722a.815.815,0,0,0-1.055.029,3.777,3.777,0,0,1-4.467,0,.815.815,0,0,0-1.053-.034c-1,.6-2.011,1.184-3.046,1.72a1.11,1.11,0,0,0-.7,1.22,3.925,3.925,0,0,1-3.292,3.993,4,4,0,0,1-4.435-2.7,3.946,3.946,0,0,1,2-4.776,3.772,3.772,0,0,1,4,.27.812.812,0,0,0,1.034.063q1.6-.962,3.249-1.846a.835.835,0,0,0,.522-.917,3.967,3.967,0,1,1,7.91.043.714.714,0,0,0,.415.813c1.167.626,2.319,1.285,3.458,1.96a.641.641,0,0,0,.83-.046,3.659,3.659,0,0,1,3.083-.679.666.666,0,0,0,.792-.326q2.952-4.153,5.938-8.282c.279-.384.169-.631-.013-.99a3.794,3.794,0,0,1,.31-4.2,3.727,3.727,0,0,1,3.761-1.582A3.8,3.8,0,0,1,64.6,22.054,3.967,3.967,0,0,1,60.15,27.09a.8.8,0,0,0-.966.38q-2.877,4.059-5.8,8.088a.859.859,0,0,0-.063,1.106,3.893,3.893,0,0,1-.556,4.513,3.97,3.97,0,0,1-6.915-2.8" transform="translate(-8.694 -6.987)"/>
    <path id="Trazado_214303" data-name="Trazado 214303" d="M48.951,65.437q0,3.863,0,7.726c0,1.367-.391,1.757-1.746,1.76-1.3,0-2.6.006-3.9,0-1.2-.007-1.617-.425-1.619-1.645q-.007-7.924,0-15.85c0-1.159.434-1.592,1.584-1.6q2.031-.017,4.063,0c1.188.008,1.615.439,1.619,1.648.008,2.655,0,5.31,0,7.965" transform="translate(-15.172 -20.319)"/>
    <path id="Trazado_214304" data-name="Trazado 214304" d="M58.954,71.918c0-1.647-.008-3.295,0-4.942.007-1.066.427-1.495,1.5-1.507q2.113-.025,4.225,0c1.1.011,1.518.4,1.523,1.475q.024,4.982,0,9.964c0,1.112-.441,1.516-1.57,1.523-1.382.01-2.764.012-4.146,0-1.1-.01-1.525-.454-1.531-1.569-.008-1.648,0-3.295,0-4.943" transform="translate(-21.46 -23.828)"/>
    <path id="Trazado_214305" data-name="Trazado 214305" d="M31.684,71.934c0,1.621.005,3.242,0,4.863,0,1.214-.419,1.628-1.633,1.634-1.355.007-2.711.01-4.066,0-1.11-.008-1.559-.432-1.564-1.538q-.021-4.942,0-9.886c0-1.126.42-1.528,1.549-1.538,1.409-.013,2.817-.017,4.226,0,1.061.013,1.479.446,1.487,1.522.011,1.647,0,3.295,0,4.943" transform="translate(-8.886 -23.828)"/>
    <path id="Trazado_214306" data-name="Trazado 214306" d="M77.39,76.557c.923.2,1.212.534,1.244,1.446,0,.027,0,.053,0,.079.064.648-.3,1.533.159,1.883.425.323,1.266.106,1.923.113.529.005,1.058-.011,1.587-.018.886.256,1.215.649,1.139,1.353-.073.668-.567,1.048-1.438,1.056q-2.144.02-4.29,0c-1.023-.011-1.458-.446-1.471-1.447s.008-2.012-.006-3.018a1.27,1.27,0,0,1,1.152-1.447" transform="translate(-27.753 -27.869)"/>
    <path id="Trazado_214307" data-name="Trazado 214307" d="M22.324,99.558c-.3-.02-.294-.233-.316-.455-.234-2.44-.236-2.44,2.2-2.44H61.578c.318,0,.636.017.954.025a4.084,4.084,0,0,1,.169,2.558.4.4,0,0,1-.45.363c-.186,0-.372,0-.558,0q-19.291,0-38.581,0a2.065,2.065,0,0,1-.789-.054" transform="translate(-7.976 -35.189)" fill="#feca2e"/>
    <path id="Trazado_214308" data-name="Trazado 214308" d="M22.561,99.553c.345-.009.69-.026,1.035-.026H61.714c1.058,0,1.058,0,1.058-1.086q0-.877,0-1.754c.717-.009,1.433,0,2.149-.034.4-.017.567.082.555.523-.079,2.957.473,2.439-2.308,2.443q-19.914.033-39.827.013a1.362,1.362,0,0,1-.777-.078" transform="translate(-8.213 -35.184)" fill="#cba124"/>
    <path id="Trazado_214309" data-name="Trazado 214309" d="M55.139,6.685c-1.771.01-3.542.013-5.313.036-.336,0-.476-.087-.461-.444.024-.581.017-1.164,0-1.745-.012-.547.27-.762.782-.757q2.418.023,4.835.041a2.918,2.918,0,0,1,.153,2.869" transform="translate(-17.97 -1.374)" fill="#feca2e"/>
    <path id="Trazado_214310" data-name="Trazado 214310" d="M58.358,6.685a11.129,11.129,0,0,0-.153-2.869c.684-.013,1.368-.025,2.052-.04.555-.011.794.247.821.812.1,2.133.113,2.134-2.011,2.126-.237,0-.473-.018-.709-.029" transform="translate(-21.189 -1.374)" fill="#cba124"/>
    <path id="Trazado_214311" data-name="Trazado 214311" d="M100.52,46.625a8.279,8.279,0,0,1,1.523,1.923,3.479,3.479,0,0,0,.133,2.66,9.157,9.157,0,1,1-9.985-6.369,8.885,8.885,0,0,1,5.958,1.231,2.924,2.924,0,0,0,2.371.555" transform="translate(-30.679 -16.29)" fill="#5c9bed"/>
    <path id="Trazado_214312" data-name="Trazado 214312" d="M99.278,45.383c-.782.645-1.454.277-2.164-.184a8.942,8.942,0,1,0,3.486,4.416c-.287-.8-.7-1.612.2-2.309,1.007-.259,1.426-.064,1.835.855A11.358,11.358,0,1,1,98.9,43.5c.682.5.77.942.382,1.881" transform="translate(-29.436 -15.048)"/>
    <path id="Trazado_214313" data-name="Trazado 214313" d="M46.461,37.271a1.642,1.642,0,0,1,1.614,1.538,1.584,1.584,0,1,1-3.167.06,1.641,1.641,0,0,1,1.553-1.6" transform="translate(-16.348 -13.568)" fill="#f0dd33"/>
    <path id="Trazado_214314" data-name="Trazado 214314" d="M63.783,47.072a1.658,1.658,0,0,1,1.571,1.587,1.613,1.613,0,0,1-1.646,1.57A1.558,1.558,0,0,1,62.2,48.624a1.619,1.619,0,0,1,1.587-1.552" transform="translate(-22.642 -17.136)" fill="#eb5474"/>
    <path id="Trazado_214315" data-name="Trazado 214315" d="M79.476,24.566a1.6,1.6,0,0,1,1.536-1.614,1.636,1.636,0,0,1,1.6,1.563,1.619,1.619,0,0,1-1.553,1.607,1.579,1.579,0,0,1-1.586-1.556" transform="translate(-28.932 -8.355)" fill="#9ed278"/>
    <path id="Trazado_214316" data-name="Trazado 214316" d="M30.8,48.693a1.582,1.582,0,0,1-1.611,1.536,1.606,1.606,0,0,1-1.555-1.6,1.66,1.66,0,0,1,1.619-1.557A1.639,1.639,0,0,1,30.8,48.693" transform="translate(-10.06 -17.136)" fill="#5b9bec"/>
    <path id="Trazado_214317" data-name="Trazado 214317" d="M47.922,66.8c0,2.122-.014,4.244.01,6.367.006.516-.078.747-.68.743-1.818-.012-1.818.017-1.818-1.82,0-3.926.013-7.852-.015-11.779,0-.6.167-.757.758-.749,1.744.025,1.744,0,1.744,1.746V66.8" transform="translate(-16.534 -21.683)" fill="#a7e446"/>
    <path id="Trazado_214318" data-name="Trazado 214318" d="M65.171,73.356c0,1.168-.012,2.336.006,3.5.006.4-.118.541-.541.56-1.924.086-1.924.1-1.924-1.782,0-1.911.014-3.823-.01-5.733-.006-.5.1-.686.649-.687,1.82-.006,1.82-.03,1.82,1.751v2.389" transform="translate(-22.826 -25.197)" fill="#a7e446"/>
    <path id="Trazado_214319" data-name="Trazado 214319" d="M28.168,73.269c0-1.14.021-2.28-.01-3.419-.013-.491.156-.625.637-.633,1.861-.032,1.861-.048,1.861,1.774,0,1.935-.017,3.87.011,5.8.007.5-.147.619-.63.624-1.87.018-1.87.036-1.87-1.844V73.269" transform="translate(-10.25 -25.195)" fill="#a7e446"/>
  </g>
</svg>
