<svg id="Grupo_140652" data-name="Grupo 140652" xmlns="http://www.w3.org/2000/svg" xmlns:xlink="http://www.w3.org/1999/xlink" width="79.479" height="79.475" viewBox="0 0 79.479 79.475">
  <defs>
    <clipPath id="clip-path">
      <rect id="Rectángulo_88909" data-name="Rectángulo 88909" width="79.479" height="79.475" fill="none"/>
    </clipPath>
  </defs>
  <g id="Grupo_140652-2" data-name="Grupo 140652" clip-path="url(#clip-path)">
    <path id="Trazado_214265" data-name="Trazado 214265" d="M38.413,3.278A14.774,14.774,0,0,1,44.844.257a14.128,14.128,0,0,1,16.5,11.86c.067.569.218.772.815.739a30.1,30.1,0,0,1,3.042,0,.884.884,0,0,0,.96-.61c.653-1.369,1.363-2.711,2.019-4.078a.682.682,0,0,1,.72-.46c3.309.015,6.619.009,10.059.009l-.727,1.458c-.723,1.454-1.427,2.918-2.181,4.355a1.1,1.1,0,0,0-.012,1.168c.977,1.888,1.909,3.8,2.868,5.726-.2.177-.421.1-.613.1-3.07.006-6.14-.015-9.21.021a.945.945,0,0,1-1.007-.659c-.637-1.347-1.33-2.668-1.983-4.007a.681.681,0,0,0-.709-.488q-1.72.048-3.443,0c-.438-.012-.526.178-.572.554a13.643,13.643,0,0,1-3.754,7.864c-.331.351-.391.555-.064.951q1.963,2.375,3.85,4.812c.306.4.5.356.893.138a11.514,11.514,0,1,1-5.576,12.756,11.262,11.262,0,0,1,2.644-10.417c.3-.345.365-.529.052-.907-1.292-1.562-2.538-3.163-3.818-4.735-.156-.191-.287-.665-.646-.373-.382.31-1.094.259-1.124.97-.006.133,0,.267,0,.4q0,14.094-.016,28.188c0,.647.124.834.808.83q9.21-.046,18.421-.01a6.4,6.4,0,1,1-.013,12.8q-9.17.036-18.341-.008c-.663,0-.918.1-.881.842a21.121,21.121,0,0,1-.052,3.837,6.323,6.323,0,0,1-6.455,5.583q-11.253.021-22.505,0-8.97,0-17.94,0C2.692,79.469,0,76.774,0,72.608Q0,41.016,0,9.424C0,5.271,2.7,2.593,6.877,2.591c2.7,0,5.393-.009,8.089.008a.857.857,0,0,0,.913-.529A3.623,3.623,0,0,1,19.255.033q7.649-.021,15.3,0c1.91,0,3.251,1.122,3.861,3.245" transform="translate(0 0)"/>
    <path id="Trazado_214266" data-name="Trazado 214266" d="M35.849,78.7q0-14.936-.02-29.871c0-.758.223-.9.92-.887,2.135.045,4.271.025,6.407.009a.8.8,0,0,1,.86.489,3.711,3.711,0,0,0,3.515,2.08c4.405,0,8.81.014,13.215-.013.622,0,.778.138.758.779a13.726,13.726,0,0,0,4.085,10.41c.385.393.417.636.064,1.036a12.925,12.925,0,0,0-1.114,1.463c-.293.446-.538.476-1.019.21-6.209-3.433-12.321-3.223-18.153.81A16.482,16.482,0,0,0,38.914,82.8,16.66,16.66,0,0,0,71.7,77.795a16.048,16.048,0,0,0-5.049-11c-.41-.4-.5-.634-.1-1.073a15.581,15.581,0,0,0,1.218-1.586c.225-.32.406-.387.773-.168A12.74,12.74,0,0,0,73.8,65.748c.434.044.506.247.5.626-.021.987-.007,1.975-.007,2.963,0,7.982-.009,15.964.017,23.945,0,.674-.165.9-.828.806-4.6-.635-8.759.9-12.878,2.633-.785.331-1.608.572-2.381.925a2.958,2.958,0,0,0-1.856,2.84,2.86,2.86,0,0,0,1.852,2.837c3.068,1.215,6.168,2.351,9.261,3.5a2.338,2.338,0,0,0,.789.069c1.815.005,3.631.016,5.446-.007.435-.005.584.093.59.562.03,2.01.048,2.01-1.936,2.01q-17.821,0-35.642.018c-.739,0-.9-.2-.9-.909q.037-14.936.017-29.872" transform="translate(-28.159 -37.675)" fill="#ffedb6"/>
    <path id="Trazado_214267" data-name="Trazado 214267" d="M11.975,59.9q0-15.735,0-31.47c0-2.891,1.5-4.395,4.377-4.4,2.563,0,5.126.015,7.688-.012.549-.006.784.06.769.711-.043,1.862-.007,1.863-1.847,1.863-1.9,0-3.791-.007-5.686,0a2.565,2.565,0,0,0-2.737,2.763q0,30.55,0,61.1a2.559,2.559,0,0,0,2.738,2.764q19.061.007,38.121,0a2.563,2.563,0,0,0,2.709-2.714c0-.16,0-.32,0-.481,0-2.137,0-2.128,2.164-1.937.31.027.408.11.4.418-.019,1.281.055,2.567-.04,3.842a3.81,3.81,0,0,1-3.623,3.432c-.24.012-.48.006-.721.006H16.33c-2.832,0-4.355-1.517-4.355-4.339q0-15.775,0-31.551" transform="translate(-9.411 -18.876)" fill="#feca2e"/>
    <path id="Trazado_214268" data-name="Trazado 214268" d="M190.57,22.347c-1.627,0-3.225-.013-4.823.008-.471.006-.4-.364-.474-.6a6.432,6.432,0,1,0-.086,3.939.953.953,0,0,1,1.147-.8,33.208,33.208,0,0,0,3.522,0c.744-.047.755.284.641.822a11.308,11.308,0,0,1-6.389,8.3A11.522,11.522,0,1,1,190.5,21.572c.039.234.045.474.072.775" transform="translate(-131.733 -9.506)" fill="#e5e8ec"/>
    <path id="Trazado_214269" data-name="Trazado 214269" d="M82.868,139.978c0-1.922-.021-3.844.014-5.765.01-.538-.155-.662-.665-.648-1.281.036-2.563,0-3.844.021-.444.009-.686-.037-.646-.585.046-.631.226-1.487-.1-1.848-.382-.427-1.253-.122-1.91-.131-1.628-.021-3.258.036-4.885-.027-.708-.027-.811.215-.8.845.041,2.055,0,4.111.028,6.166.009.539-.1.736-.682.713-1.253-.05-2.51.014-3.763-.029-.548-.019-.719.109-.709.687.038,2.135,0,4.271.027,6.406.006.485-.1.652-.61.621a21.441,21.441,0,0,0-2.4,0,.764.764,0,0,1-.836-.538,14.095,14.095,0,1,1,25.595.033.711.711,0,0,1-.776.5c-.826-.036-1.656-.037-2.482,0-.46.021-.576-.13-.57-.577.024-1.948.01-3.9.01-5.846" transform="translate(-46.986 -98.952)" fill="#e5e8ec"/>
    <path id="Trazado_214270" data-name="Trazado 214270" d="M92.8,12.1q3.639,0,7.277,0c1.206,0,1.6.437,1.66,1.627a4.484,4.484,0,0,1-.77,3.076,7.99,7.99,0,0,0-1.094,2.471c-.108.357-.242.517-.648.516-4.691-.013-9.383,0-14.074-.011a1.247,1.247,0,0,1-1.358-1.345q-.032-2.478,0-4.957c.011-.912.521-1.372,1.491-1.376,2.506-.009,5.011,0,7.517,0" transform="translate(-65.841 -9.505)" fill="#a7e446"/>
    <path id="Trazado_214271" data-name="Trazado 214271" d="M284.393,161.734a8.967,8.967,0,1,1,8.935-8.982,9,9,0,0,1-8.935,8.982" transform="translate(-216.44 -113.017)" fill="#e5e8ec"/>
    <path id="Trazado_214272" data-name="Trazado 214272" d="M75.381,233.763h21.5a13.945,13.945,0,0,1-21.5,0" transform="translate(-59.244 -183.722)" fill="#e5e8ec"/>
    <path id="Trazado_214273" data-name="Trazado 214273" d="M230,129.453v.829q0,13.524.015,27.048c0,.639-.109.859-.8.838-1.772-.055-1.774-.016-1.774-1.774q0-12.844-.014-25.688c0-.621.108-.913.8-.93a11.337,11.337,0,0,0,1.78-.325" transform="translate(-178.74 -101.742)" fill="#feca2e"/>
    <path id="Trazado_214274" data-name="Trazado 214274" d="M204.314,275.424c4.027,0,8.054.013,12.08-.014.587,0,.763.124.752.736-.034,1.841,0,1.841-1.872,1.841-7.653,0-15.307-.009-22.961.016-.654,0-.852-.138-.833-.818.05-1.76.014-1.761,1.793-1.761Z" transform="translate(-150.49 -216.454)" fill="#b3dc7f"/>
    <path id="Trazado_214275" data-name="Trazado 214275" d="M204.236,301.921c-4,0-8-.015-12,.016-.608,0-.749-.157-.739-.748.031-1.829,0-1.83,1.8-1.83,7.68,0,15.361.01,23.041-.017.673,0,.839.168.821.83-.047,1.749-.013,1.75-1.8,1.75Z" transform="translate(-150.503 -235.263)" fill="#4fc0e8"/>
    <path id="Trazado_214276" data-name="Trazado 214276" d="M323.246,279.219c0-1.093.013-2.185-.007-3.277-.007-.374.094-.512.488-.5,1.2.025,2.4-.027,3.6.024a3.834,3.834,0,0,1,.017,7.654c-1.2.056-2.4-.006-3.6.028-.464.013-.511-.192-.5-.568.018-1.119.006-2.238.006-3.357" transform="translate(-254.044 -216.476)" fill="#a9b1bc"/>
    <path id="Trazado_214277" data-name="Trazado 214277" d="M210.916,53.178a3.742,3.742,0,0,1-3.978,2.542,3.843,3.843,0,1,1,3.82-5.633c.209.412.166.547-.326.537-1.253-.024-2.508.012-3.761-.019-.461-.011-.57.134-.577.582-.032,1.991-.047,1.991,1.959,1.991Z" transform="translate(-159.97 -37.774)" fill="#fc4b52"/>
    <path id="Trazado_214278" data-name="Trazado 214278" d="M119.7,168.086c0-1.946.013-3.892-.01-5.838,0-.441.1-.579.567-.586,2.006-.031,2.006-.048,2.006,1.937,0,3.412-.01,6.824.011,10.236,0,.508-.112.67-.649.668-1.926-.009-1.926.014-1.926-1.939v-4.478" transform="translate(-94.066 -127.05)" fill="#feca2e"/>
    <path id="Trazado_214279" data-name="Trazado 214279" d="M151.412,285.015l-5.508-2.051c-.548-.2-1.1-.405-1.641-.616-.283-.109-.536-.262-.527-.62.008-.317.234-.467.491-.563,2.262-.851,4.529-1.692,6.789-2.549.363-.138.4.02.4.316-.005,1.993,0,3.987,0,6.083" transform="translate(-112.966 -218.935)" fill="#a9b1bc"/>
    <path id="Trazado_214280" data-name="Trazado 214280" d="M143.641,178.776c0-1.519.016-3.038-.01-4.557-.007-.445.112-.576.57-.583,2-.03,2-.047,2,1.938,0,2.558-.014,5.117.012,7.675.005.513-.12.667-.652.664-1.923-.009-1.923.013-1.923-1.94v-3.2" transform="translate(-112.884 -136.461)" fill="#feca2e"/>
    <path id="Trazado_214281" data-name="Trazado 214281" d="M98.33,199.9v.639c0,2.136,0,2.128-2.162,1.932-.308-.028-.408-.11-.406-.417q.018-2.156,0-4.312c0-.31.1-.387.409-.414,2.16-.192,2.16-.2,2.16,1.934Z" transform="translate(-75.262 -155.024)" fill="#feca2e"/>
    <path id="Trazado_214282" data-name="Trazado 214282" d="M327.137,48.008c-.407.817-.77,1.52-1.108,2.236a.532.532,0,0,1-.564.331c-1.433-.009-2.867,0-4.412,0,.4-.81.77-1.535,1.117-2.272.129-.273.335-.293.587-.293,1.41,0,2.82,0,4.379,0" transform="translate(-252.327 -37.729)" fill="#cba124"/>
    <path id="Trazado_214283" data-name="Trazado 214283" d="M321.024,71.932c1.534,0,2.918.011,4.3-.007a.679.679,0,0,1,.74.442c.3.676.653,1.33,1.05,2.126-1.591,0-3.086,0-4.582,0-.229,0-.313-.156-.4-.329-.35-.709-.7-1.416-1.11-2.232" transform="translate(-252.304 -56.528)" fill="#cba124"/>
    <path id="Trazado_214284" data-name="Trazado 214284" d="M79.4,74.467c-2.32,0-4.641-.016-6.961.012-.519.006-.663-.129-.661-.655.009-1.92-.012-1.92,1.943-1.92,4.241,0,8.481.013,12.722-.015.594,0,.755.134.743.738-.035,1.839-.006,1.84-1.866,1.84H79.4" transform="translate(-56.41 -56.501)"/>
    <path id="Trazado_214285" data-name="Trazado 214285" d="M79.552,95.856c2.32,0,4.641.017,6.961-.013.525-.007.66.137.657.658-.009,1.917.012,1.917-1.866,1.917-4.267,0-8.535-.014-12.8.015-.6,0-.751-.143-.74-.741.034-1.836.006-1.837,1.868-1.837h5.921" transform="translate(-56.4 -75.326)"/>
    <path id="Trazado_214286" data-name="Trazado 214286" d="M55.606,289.952c-2.374,0-4.748-.018-7.121.013-.536.007-.652-.156-.65-.665.008-1.911-.011-1.911,1.871-1.911,4.267,0,8.535.015,12.8-.016.612,0,.743.162.733.748-.032,1.83-.006,1.831-1.874,1.831H55.606" transform="translate(-37.595 -225.856)"/>
    <path id="Trazado_214287" data-name="Trazado 214287" d="M55.546,311.356c2.347,0,4.694.011,7.041-.01.459,0,.639.066.64.594,0,1.978.029,1.978-1.967,1.978-4.241,0-8.482-.01-12.722.012-.53,0-.728-.086-.721-.677.024-1.9,0-1.9,1.888-1.9h5.841" transform="translate(-37.581 -244.698)"/>
    <path id="Trazado_214288" data-name="Trazado 214288" d="M49.129,74.523c-1.235,0-1.235,0-1.235-1.249,0-1.314,0-1.314,1.329-1.314,1.234,0,1.234,0,1.234,1.249,0,1.314,0,1.314-1.328,1.314" transform="translate(-37.642 -56.556)"/>
    <path id="Trazado_214289" data-name="Trazado 214289" d="M50.457,97.2c0,1.27,0,1.27-1.293,1.27-1.27,0-1.27,0-1.27-1.293,0-1.27,0-1.27,1.293-1.27,1.27,0,1.27,0,1.27,1.293" transform="translate(-37.642 -75.374)"/>
    <path id="Trazado_214290" data-name="Trazado 214290" d="M287.337,162.167c0-1.013-.016-2.027,0-3.04a3.313,3.313,0,0,1,4.736-3.035c2.147.992,4.27,2.047,6.346,3.178a3.284,3.284,0,0,1-.008,5.81c-2.076,1.131-4.2,2.186-6.348,3.175a3.312,3.312,0,0,1-4.727-3.048c-.019-1.013,0-2.027,0-3.04" transform="translate(-225.823 -122.423)"/>
    <path id="Trazado_214291" data-name="Trazado 214291" d="M299.306,171.545c0-.905-.01-1.811,0-2.716.013-.945.509-1.277,1.337-.869,1.908.938,3.8,1.9,5.705,2.85.351.175.643.4.632.834a.89.89,0,0,1-.6.773c-1.925.963-3.845,1.936-5.779,2.881-.727.356-1.27.013-1.289-.8-.024-.984-.006-1.97-.006-2.955" transform="translate(-235.23 -131.871)" fill="#fc4b52"/>
  </g>
</svg>
