<svg id="Grupo_140650" data-name="Grupo 140650" xmlns="http://www.w3.org/2000/svg" xmlns:xlink="http://www.w3.org/1999/xlink" width="79.479" height="79.469" viewBox="0 0 79.479 79.469">
  <defs>
    <clipPath id="clip-path">
      <rect id="Rectángulo_88907" data-name="Rectángulo 88907" width="79.479" height="79.469" fill="none"/>
    </clipPath>
  </defs>
  <g id="Grupo_140650-2" data-name="Grupo 140650" clip-path="url(#clip-path)">
    <path id="Trazado_214218" data-name="Trazado 214218" d="M79.4,33.9a3.808,3.808,0,0,0-4.939-2.928.808.808,0,0,1-.937-.271q-1.71-1.746-3.459-3.453a.633.633,0,0,1-.135-.954,3.6,3.6,0,0,0-.209-4.208.9.9,0,0,1-.106-1.026q2.667-6.342,5.3-12.7a.957.957,0,0,1,.968-.735,3.767,3.767,0,0,0,3.581-3.984A3.876,3.876,0,0,0,75.646,0a3.807,3.807,0,0,0-3.827,3.768.922.922,0,0,1-.583.93q-3.272,1.839-6.518,3.724a.771.771,0,0,1-1.009-.02,3.6,3.6,0,0,0-5.1.744,2.246,2.246,0,0,1-2.457,1.1,2.162,2.162,0,0,0-.542,0c-.984.161-1.449-.21-1.9-1.175C51.1,3.538,46.661.407,40.557.072,34.3-.272,29.584,2.55,26.324,7.871c-.472.771-.513,1.976-1.319,2.3a8.982,8.982,0,0,1-2.841.086.783.783,0,0,1-.834-.485,3.763,3.763,0,0,0-5.621-1.327.681.681,0,0,1-.881.025q-3.351-1.935-6.72-3.838a.757.757,0,0,1-.444-.778A3.806,3.806,0,0,0,4.532.066a3.894,3.894,0,0,0-4.2,2.22c-.1.223-.068.517-.33.661V4.654a3.7,3.7,0,0,0,3.5,3.16,1.09,1.09,0,0,1,.943.777Q6.986,14.753,9.561,20.9a1.177,1.177,0,0,1-.1,1.222,3.93,3.93,0,0,0-.185,4.126.814.814,0,0,1-.192,1.094c-1.033,1.014-2.052,2.042-3.072,3.068a1.139,1.139,0,0,1-1.123.329C2.339,30.249.574,31.374,0,33.834v1.552a3.858,3.858,0,0,0,4.6,3.159A3.921,3.921,0,0,0,7.761,33.74a1.339,1.339,0,0,1,.429-1.371c1.191-1.15,2.352-2.33,3.517-3.507a1.483,1.483,0,0,1,1.089-.485,3.636,3.636,0,0,0,2-.527,1,1,0,0,1,1.275.092c1.858,1.358,3.748,2.674,5.611,4.025.777.563.788.643.372,1.531q-3.317,7.1-6.568,14.226c-.664,1.451-.026,2.447,1.589,2.459,1.656.012,3.311,0,4.967.006.82,0,.873.058.875.892.006,2.432,0,4.863,0,7.295,0,1.009-.02,2.018.008,3.026.029,1.044.507,1.489,1.555,1.509a5.688,5.688,0,0,0,1.229-.151c3.246-.652,6.495-1.294,9.739-1.952.411-.083.74-.133.911.4.748,2.314,1.522,4.619,2.3,6.922a.666.666,0,0,1-.458.963c-.791.32-1.563.685-2.347,1.023-3.039,1.312-6.072,2.64-9.109,3.958a1.909,1.909,0,0,0-1.324,1.663,17.294,17.294,0,0,0,0,2.249,1.446,1.446,0,0,0,1.118,1.484H63.178a1.783,1.783,0,0,0,.935-1.792c-.035-1.81-.026-3.621,0-5.431a2.527,2.527,0,0,0-.507-1.582c-1.962-2.725-3.8-5.547-5.908-8.155A17.8,17.8,0,0,1,55.48,58.35a1.186,1.186,0,0,1,.043-1.149,30.1,30.1,0,0,0,3.086-8.874,22.14,22.14,0,0,0-2.683-15.449c-.233-.393-.164-.543.195-.765q3.756-2.317,7.485-4.678a.627.627,0,0,1,.859.038,3.357,3.357,0,0,0,2.474.682.876.876,0,0,1,.793.363c1.315,1.318,2.614,2.654,3.96,3.939a.944.944,0,0,1,.261,1.128A3.829,3.829,0,1,0,79.4,33.9M13.51,20.122a.664.664,0,0,1-.727.394.518.518,0,0,1-.557-.4c-1.8-4.347-3.618-8.689-5.445-13.068.354-.138.522.07.71.176C9.53,8.382,11.558,9.555,13.6,10.7a.868.868,0,0,1,.53.894,3.537,3.537,0,0,0,1.57,3.031c.317.228.364.386.184.735q-1.22,2.367-2.378,4.765M28.254,31.975c-.092-1.227-.1-1.307-1.391-1.206a5.186,5.186,0,0,1-3.828-1.211c-1.9-1.5-3.927-2.85-5.911-4.247a.9.9,0,0,1-.5-.924,3.155,3.155,0,0,0-.732-2.3.7.7,0,0,1-.063-.9c.925-1.813,1.83-3.635,2.738-5.457a.931.931,0,0,1,.576-.562,3.749,3.749,0,0,0,2.231-1.914c.08-.154.11-.4.322-.4a25.081,25.081,0,0,1,2.632,0c.405.033.174.471.148.7a15.349,15.349,0,0,0,.622,6.5,14.547,14.547,0,0,0,3.334,5.689,18.043,18.043,0,0,1,3.689,4.647,7.586,7.586,0,0,1,.61,1.575l-4.476.006m35.285-9.826a3.209,3.209,0,0,0-.693,2.245.7.7,0,0,1-.364.751q-4.347,2.687-8.672,5.411a2.652,2.652,0,0,1-1.662.174c-.674-.033-1.032.119-.892.868a1.455,1.455,0,0,1-.031.383l-4.492-.009a10.433,10.433,0,0,1,2.914-4.758,17.125,17.125,0,0,0,4.6-6.791,14.671,14.671,0,0,0,.732-6.868c-.08-.56-.011-.848.627-.732a1.356,1.356,0,0,0,.387,0c1.113-.123,2.106-.075,2.651,1.18a1.993,1.993,0,0,0,1.328,1.01,1.761,1.761,0,0,1,1.156,1.121q1.225,2.5,2.489,4.98a.808.808,0,0,1-.079,1.032m3.707-2.035c-.114.274-.23.42-.555.4-.287-.019-.529.02-.694-.319-.8-1.642-1.624-3.273-2.45-4.9-.142-.279-.112-.417.164-.615a3.7,3.7,0,0,0,1.641-3.312.477.477,0,0,1,.254-.505Q69,8.936,72.389,7c.055-.031.142,0,.326,0-1.847,4.424-3.664,8.767-5.469,13.115" transform="translate(0 0.001)"/>
    <path id="Trazado_214219" data-name="Trazado 214219" d="M94.864,105.583c0,.049,0,.1,0,.147-.194.214-.478.15-.719.225a20.942,20.942,0,0,1,3.543,12.391,26.742,26.742,0,0,1-2.844,11.024c-1.108,2.3-1.113,1.471-.239,3.885.326.9.689,1.784,1,2.687.107.307.285.629.03.955-3.356,1.467-6.718,2.921-10.063,4.413-.56.25-.537-.139-.632-.424q-1.393-4.144-2.774-8.292c-.4-1.2-.858-1.445-2.1-1.195-3.392.684-6.787,1.349-10.174,2.055-.562.117-.637-.049-.634-.55.018-3.363.011-6.726.008-10.089,0-1.406-.376-1.775-1.805-1.779-1.5,0-3-.017-4.5.008-.528.009-.627-.1-.394-.6q3.04-6.525,6.037-13.068a.637.637,0,0,1,.7-.442c.594.027,1.193-.031,1.784.018s.874-.124.776-.759a2.955,2.955,0,0,1,.03-.616.85.85,0,0,1,.555-.227c1.122-.041,2.243-.038,3.365,0a.81.81,0,0,1,.556.223c.5,1.369.5,1.369-.957,1.369-1.019,0-1.019,0-1.019,1.025,0,1.511,0,1.511,1.539,1.511,1.052,0,1.052,0,1.052,1.078,0,.827-.008,1.654,0,2.481.014,1.122.44,1.624,1.537,1.542.91-.067,1.033.275,1.018,1.075a3.711,3.711,0,0,0,2.342,3.759,3.646,3.646,0,0,0,4.043-.659,3.912,3.912,0,0,0,1.3-3.343c-.034-.622.107-.85.785-.826,1.408.05,1.759-.351,1.762-1.792,0-.931.017-1.862-.007-2.792-.011-.4.115-.555.527-.532.541.03,1.086-.006,1.628.012.328.011.489-.1.444-.44-.007-.051,0-.1,0-.155-.018-.615.18-1.384-.116-1.8s-1.106-.131-1.689-.129c-.466,0-.618-.144-.471-.582.09-.267.189-.532.283-.8a1.027,1.027,0,0,1,.712-.239q1.536-.027,3.072,0a1.011,1.011,0,0,1,.709.247" transform="translate(-43.641 -73.601)" fill="#f2c5af"/>
    <path id="Trazado_214220" data-name="Trazado 214220" d="M103.377,31.6a15.4,15.4,0,0,1-1.7-.009c-.681-.075-.8.2-.79.823.039,2.042,0,4.085.026,6.126.008.571-.088.865-.749.793-.638-.07-1.438.181-1.884-.123-.389-.266-.381-1.11-.554-1.7a14,14,0,0,0-3.589-6.068,16.79,16.79,0,0,1-3.855-5.275A12.873,12.873,0,0,1,99.9,8.755a11.843,11.843,0,0,1,5.216.183,13.053,13.053,0,0,1,7.3,10.166,13.67,13.67,0,0,1-4.235,12.561,14.52,14.52,0,0,0-4.248,7.082,1.106,1.106,0,0,1-.142.358c-.031.048-.065.081-.184.093-.224-.162-.114-.438-.115-.662-.009-2.069,0-4.139-.012-6.208,0-.242.117-.515-.1-.732" transform="translate(-62.425 -5.977)" fill="#fc4b52"/>
    <path id="Trazado_214221" data-name="Trazado 214221" d="M124.526,228.064c-.283.014-.566.04-.849.04q-14.495,0-28.99,0a1.93,1.93,0,0,1-.31,0c-.209-.034-.514.123-.59-.2s.247-.353.44-.438c1.582-.7,3.169-1.378,4.754-2.067q10.077-4.38,20.153-8.758c.234-.1.483-.171.725-.256.535.279.753.835,1.081,1.284,1.035,1.416,2.026,2.866,3.074,4.273a3.272,3.272,0,0,1,.728,2.217c-.053,1-.01,2.012-.014,3.019a1.247,1.247,0,0,1-.2.884" transform="translate(-65.534 -151.219)" fill="#a7e446"/>
    <path id="Trazado_214222" data-name="Trazado 214222" d="M168.248,137.839a50.9,50.9,0,0,0-1.805-5.088,1.113,1.113,0,0,1,.056-1.006,29.882,29.882,0,0,0,3.4-9.961,20.554,20.554,0,0,0-.317-7.659,19.582,19.582,0,0,0-2.946-7,2.273,2.273,0,0,1-.164-.356c.35-.179.687-.056,1.007-.1.083,1.2.084,1.225,1.342,1.2a.98.98,0,0,1,.985.546,20.126,20.126,0,0,1,2.564,13.624,26.4,26.4,0,0,1-3.09,8.932,2.442,2.442,0,0,0-.117,2.416c.462.976.809,2.005,1.231,3,.155.364.079.546-.291.684-.625.233-1.235.507-1.852.764" transform="translate(-116.251 -74.544)" fill="#dbb19b"/>
    <path id="Trazado_214223" data-name="Trazado 214223" d="M135.978,32.49c.31.2.181.514.182.779.01,2.216.006,4.433.048,6.658a14.509,14.509,0,0,1,2.236-5.031,21.093,21.093,0,0,1,2.366-2.645,13.554,13.554,0,0,0,4.157-11.131,13.565,13.565,0,0,0-6.782-10.909c-.176-.106-.381-.17-.472-.379a12.013,12.013,0,0,1,8.24,6.243,12.545,12.545,0,0,1-2.244,15.294,16.245,16.245,0,0,0-4.679,7.518c-.336,1.33-.357,1.325-1.782,1.325-1.227,0-1.222,0-1.228-1.216q-.016-3.253-.043-6.506" transform="translate(-95.026 -6.871)" fill="#c93c41"/>
    <path id="Trazado_214224" data-name="Trazado 214224" d="M185.05,226.658c0-1.265-.068-2.534.014-3.793a3.525,3.525,0,0,0-.825-2.4c-1.307-1.813-2.686-3.577-3.856-5.487a.541.541,0,0,1,.11-.1c1.485-.749,1.481-.747,2.444.606,1.409,1.98,2.817,3.96,4.241,5.928a1.892,1.892,0,0,1,.392,1.215c-.025,1.163-.023,2.328,0,3.491.008.439-.146.6-.582.578-.645-.033-1.291-.027-1.937-.037" transform="translate(-126.058 -149.813)" fill="#85b638"/>
    <path id="Trazado_214225" data-name="Trazado 214225" d="M122.838,121.7c-1.057,0-2.114-.018-3.17.008-.451.011-.623-.1-.632-.594-.037-2.027-.055-2.028,1.974-2.027,1.7,0,3.4.02,5.1,0,.473-.006.676.08.681.623.016,1.98.038,1.98-1.945,1.981h-2.011v.009" transform="translate(-83.18 -83.219)" fill="#c93c41"/>
    <path id="Trazado_214226" data-name="Trazado 214226" d="M129.055,136.077c.556.064,1.348-.331,1.254.835-.092,1.137-.477,1.763-1.306,1.741-.807-.021-1.24-.613-1.232-1.716.007-1.04-.082-.84,1.284-.86" transform="translate(-89.291 -95.085)" fill="#646564"/>
    <path id="Trazado_214227" data-name="Trazado 214227" d="M9.9,110.75a1.26,1.26,0,0,1,1.239,1.3,1.275,1.275,0,0,1-1.335,1.207,1.254,1.254,0,0,1,.1-2.506" transform="translate(-6.029 -77.396)" fill="#689ae4"/>
    <path id="Trazado_214228" data-name="Trazado 214228" d="M248.2,113.257a1.271,1.271,0,0,1-1.282-1.26,1.257,1.257,0,0,1,1.29-1.248,1.254,1.254,0,0,1-.008,2.508" transform="translate(-172.553 -77.395)" fill="#da5f67"/>
    <path id="Trazado_214229" data-name="Trazado 214229" d="M56.646,34.055a1.363,1.363,0,0,1,1.283,1.293,1.321,1.321,0,0,1-1.315,1.25,1.3,1.3,0,0,1-1.233-1.244,1.323,1.323,0,0,1,1.264-1.3" transform="translate(-38.703 -23.799)" fill="#588e71"/>
    <path id="Trazado_214230" data-name="Trazado 214230" d="M202.615,35.329a1.3,1.3,0,0,1-1.28,1.276,1.316,1.316,0,0,1-1.269-1.3,1.343,1.343,0,0,1,1.248-1.247,1.322,1.322,0,0,1,1.3,1.266" transform="translate(-139.813 -23.804)" fill="#f5cd69"/>
    <path id="Trazado_214231" data-name="Trazado 214231" d="M40.89,77.977a1.275,1.275,0,0,1-2.549,0,1.275,1.275,0,0,1,2.549,0" transform="translate(-26.794 -53.604)" fill="#da5f67"/>
    <path id="Trazado_214232" data-name="Trazado 214232" d="M218.343,79.228a1.31,1.31,0,0,1-1.265-1.291,1.279,1.279,0,0,1,2.555.025,1.3,1.3,0,0,1-1.29,1.266" transform="translate(-151.701 -53.617)" fill="#588e71"/>
    <path id="Trazado_214233" data-name="Trazado 214233" d="M11.145,9.826a1.319,1.319,0,0,1-1.257,1.3,1.252,1.252,0,0,1-1.26-1.2A1.228,1.228,0,0,1,9.821,8.607a1.268,1.268,0,0,1,1.324,1.219" transform="translate(-6.028 -6.014)" fill="#f6cd69"/>
    <path id="Trazado_214234" data-name="Trazado 214234" d="M249.428,9.856a1.253,1.253,0,0,1-1.255,1.281,1.317,1.317,0,0,1-1.264-1.293,1.26,1.26,0,0,1,1.238-1.222,1.225,1.225,0,0,1,1.281,1.234" transform="translate(-172.548 -6.025)" fill="#689be4"/>
    <path id="Trazado_214235" data-name="Trazado 214235" d="M118.521,20.462,117,21.887c-.056.053-.11.109-.164.165-.193.2-.53.435-.229.7.629.548.11,1.883,1.359,1.961a15.96,15.96,0,0,0,1.628,0c.375-.015.469.136.489.5.114,2.045.123,2.07-1.945,2.034-.6-.011-.929.138-1,.744a.3.3,0,0,1-.04.148c-.938,1.176-.312,1.989.648,2.693.635.467.583.807.009,1.334-1.2,1.1-1.2,1.168-2.3-.017a1.418,1.418,0,0,0-1.792-.389c-1.3.392-1.4,1.1-1.333,2.193.069,1.176.169,1.015-1.013,1.022-1.5.009-1.569,0-1.477-1.484.058-.931-.3-1.222-1.109-1.634a1.56,1.56,0,0,0-2.238.507c-.869.978-.912.939-1.844.008-.879-.879-.906-.908,0-1.742.723-.665,1.16-1.185.565-2.3-.428-.8-.727-1.145-1.645-1.089-1.47.09-1.481.024-1.471-1.478.007-1.174-.164-1.09,1.016-1.02,1.094.065,1.758-.073,2.2-1.331a1.425,1.425,0,0,0-.465-1.853c-1.1-1.046-1.083-1.067-.026-2.124.754-.754.8-.793,1.519.034s1.291,1.268,2.488.613c.768-.42,1.034-.732,1-1.556-.063-1.511-.018-1.512,1.519-1.512,1,0,1.039,0,.986,1.043s0,1.748,1.288,2.153a1.46,1.46,0,0,0,1.861-.409c1.068-1.148,1.094-1.118,2.236.012.22.217.476.4.791.655" transform="translate(-71.352 -11.885)"/>
    <path id="Trazado_214236" data-name="Trazado 214236" d="M122.062,119.529h1.7c.154,0,.349-.055.457.018.714.479.189,1.206.329,1.808.081.352-.131.5-.491.5-1.313-.01-2.627,0-3.94,0-.233,0-.5.018-.511-.316-.015-.566-.018-1.133,0-1.7.012-.335.295-.3.523-.3.644,0,1.287,0,1.931,0" transform="translate(-83.576 -83.518)" fill="#fc4b52"/>
    <path id="Trazado_214237" data-name="Trazado 214237" d="M124.614,41.387a3.684,3.684,0,0,1-4.508-1.018,3.81,3.81,0,0,1-.167-4.652,3.736,3.736,0,0,1,4.516-1.311,3.766,3.766,0,0,1,1.323,3.212,4.728,4.728,0,0,1-1.164,3.769" transform="translate(-83.32 -23.841)" fill="#eeeced"/>
    <path id="Trazado_214238" data-name="Trazado 214238" d="M136.747,42.061a8.165,8.165,0,0,0,.948-2.882,5.769,5.769,0,0,0-1.106-4.1,3.807,3.807,0,0,1,2.454,3.556,3.742,3.742,0,0,1-2.295,3.425" transform="translate(-95.452 -24.515)" fill="#d7d6d6"/>
  </g>
</svg>
