<svg id="Grupo_140655" data-name="Grupo 140655" xmlns="http://www.w3.org/2000/svg" xmlns:xlink="http://www.w3.org/1999/xlink" width="79.479" height="79.278" viewBox="0 0 79.479 79.278">
  <defs>
    <clipPath id="clip-path">
      <rect id="Rectángulo_88905" data-name="Rectángulo 88905" width="79.479" height="79.279" fill="none"/>
    </clipPath>
  </defs>
  <g id="Grupo_140647" data-name="Grupo 140647" clip-path="url(#clip-path)">
    <path id="Trazado_214128" data-name="Trazado 214128" d="M62.273,118.782a5.334,5.334,0,0,1,5.29,5.737c0,.714-.216,1.552.086,2.105s1.241.341,1.89.516a13.2,13.2,0,0,1,9.919,12.822c.019,10.3,0,20.6.021,30.9,0,.621-.148.814-.764.752s-1.264-.03-1.9-.039a1.691,1.691,0,0,1-.249-1.259c-.008-3.024,0-6.049-.005-9.073,0-1.241-.026-1.266-1.225-1.267-2.176,0-4.352-.008-6.529,0-.908,0-.989.085-.994,1a8.223,8.223,0,0,1-.59,3.787,5.469,5.469,0,0,1-4.889,3.12c-.823.057-1.652.01-2.479.013-1.3,0-1.3,0-1.3,1.267,0,.522.007,1.045-.006,1.567a1.137,1.137,0,0,1-.247.847c-.85,0-1.932.307-2.482-.1-.523-.386-.14-1.536-.155-2.349-.027-1.484-.007-1.484-1.5-1.484q-14.71,0-29.42-.017c-.684,0-.9.15-.845.843.068.874,0,1.759.025,2.638.013.4-.108.525-.507.5-.714-.037-1.431-.026-2.146-.035-.391-.481-.237-1.054-.247-1.59-.046-2.364.3-2.065-2.135-2.091-.551-.006-1.1.012-1.653-.008a5.563,5.563,0,0,1-5.466-5.428c-.025-.6,0-1.209-.017-1.814a.588.588,0,0,0-.659-.66q-3.719-.022-7.437,0c-.65.005-.643.475-.645.927-.007,1.787,0,3.574,0,5.361,0,1.4.006,2.8,0,4.207a1.447,1.447,0,0,1-.249,1.095c-.849,0-1.929.308-2.481-.1-.524-.385-.155-1.535-.156-2.346q-.018-14.5-.006-29.007a13.2,13.2,0,0,1,10.728-13.163c1.172-.244,1.165-.244,1.174-1.455a14.663,14.663,0,0,1,.07-2.219c.422-2.611,2.356-4.253,5.216-4.506a1.281,1.281,0,0,1,.857-.221c.96-.007,1.92-.028,2.879.007,1.168.043,1.635.5,1.8,1.7.013.869,0,1.74.013,2.61s.08.936.924.954c.463.01.927-.005,1.391.01,1.212-.058,2.423-.024,3.633-.024q12.263-.006,24.525,0a8.549,8.549,0,0,1,1.071.024c.517-.017,1.036-.022,1.553,0,.555.019.789-.218.782-.773-.011-.925-.015-1.851.009-2.777.148-1.207.618-1.677,1.784-1.72.989-.037,1.979-.017,2.969-.006a1.175,1.175,0,0,1,.777.22" transform="translate(0 -92.408)"/>
    <path id="Trazado_214129" data-name="Trazado 214129" d="M118.776,23.787c-1.324-.068-1.324-.068-1.324-1.448a2.7,2.7,0,0,1,0-.412c.1-.627-.119-.845-.791-.827a12.511,12.511,0,0,1-3.128-.1,4.9,4.9,0,0,1-2.553-8.157c.561-.6,1.15-1.185,1.752-1.75.309-.29.329-.488.01-.794q-1.487-1.431-2.921-2.916c-.316-.327-.529-.373-.856-.014-.518.569-1.068,1.112-1.633,1.635a4.748,4.748,0,0,1-5.419,1.012,4.717,4.717,0,0,1-2.976-4.549c-.017-.77-.02-1.54,0-2.309.012-.389-.109-.526-.511-.52q-2.148.03-4.3,0c-.42-.007-.5.164-.5.535.02.824.04,1.651,0,2.474a4.714,4.714,0,0,1-3.058,4.408,4.649,4.649,0,0,1-5.209-.933c-.611-.554-1.184-1.15-1.755-1.747-.269-.281-.462-.4-.795-.052-.992,1.03-2.012,2.035-3.035,3.035-.26.254-.247.432.007.674.557.532,1.1,1.078,1.638,1.63a4.922,4.922,0,0,1-3.527,8.46c-.743.012-1.489.027-2.231-.007-.45-.021-.59.149-.544.568a6.03,6.03,0,0,1,0,.659c0,1.38,0,1.38-1.324,1.448-1.321-.068-1.321-.068-1.321-1.426,0-.8-.011-1.594,0-2.391a1.33,1.33,0,0,1,1.473-1.485c1.294-.016,2.589,0,3.883-.006a2.293,2.293,0,0,0,1.664-4c-.9-.891-1.8-1.781-2.685-2.684a1.341,1.341,0,0,1,.011-2.207Q79.457,6.953,82.1,4.34a1.348,1.348,0,0,1,2.213-.007c.926.9,1.836,1.821,2.747,2.739a2.142,2.142,0,0,0,2.486.553A2.2,2.2,0,0,0,91,5.445c.012-1.292,0-2.583.006-3.875.008-1.075.488-1.56,1.562-1.564q3.717-.013,7.435,0c1.082,0,1.567.483,1.577,1.55.011,1.264,0,2.529,0,3.793a2.3,2.3,0,0,0,4,1.665c.893-.9,1.786-1.793,2.691-2.678a1.345,1.345,0,0,1,2.212.005q2.641,2.612,5.257,5.247a1.342,1.342,0,0,1,.012,2.209c-.884.9-1.785,1.794-2.685,2.684a2.291,2.291,0,0,0,1.661,4c1.267.009,2.533-.006,3.8,0,1.07.009,1.547.492,1.558,1.569.01.962-.049,1.927.019,2.884.049.694-.16.95-.846.829a2.2,2.2,0,0,0-.493.021" transform="translate(-56.503 0)"/>
    <path id="Trazado_214130" data-name="Trazado 214130" d="M12.45,316.922c0-3.652.028-7.305-.021-10.957-.011-.792.246-.926.957-.91,2.063.045,4.127.011,6.191.019.682,0,1.571-.217,1.989.125.445.364.105,1.285.137,1.962a9.463,9.463,0,0,0,.144,1.718,5.275,5.275,0,0,0,4.955,4.1c1.182.034,2.367.04,3.549,0,.534-.019.641.163.626.651-.035,1.1-.01,2.2-.01,3.3H12.45" transform="translate(-9.688 -237.755)" fill="#feca2e"/>
    <path id="Trazado_214131" data-name="Trazado 214131" d="M264.384,317.09c0-1.1.025-2.2-.01-3.3-.015-.488.091-.672.626-.651,1.126.045,2.256.028,3.384.009a5.283,5.283,0,0,0,5.255-5.249,12.269,12.269,0,0,0-.012-1.81c-.1-.776.228-.881.91-.87q3.714.06,7.429,0c.711-.012.967.12.956.911-.049,3.652-.021,7.3-.021,10.957H264.384" transform="translate(-206.081 -237.923)" fill="#feca2e"/>
    <path id="Trazado_214132" data-name="Trazado 214132" d="M91.516,193.851q-11.114,0-22.228,0a2.631,2.631,0,0,1-2.632-3.576,2.513,2.513,0,0,1,2.414-1.69c1.184-.033,2.369-.007,3.553-.01,1.356,0,1.784-.423,1.784-1.764q0-15.134-.019-30.268c0-.783.163-.987.972-.985q16.279.047,32.558,0c.736,0,.892.183.89.9q-.039,15.093-.017,30.185c0,1.569.365,1.931,1.946,1.932.992,0,1.983,0,2.975,0,1.813,0,3.025,1.078,3.011,2.664a2.686,2.686,0,0,1-2.977,2.614q-11.114,0-22.229,0" transform="translate(-51.808 -121.256)" fill="#a7e446"/>
    <path id="Trazado_214133" data-name="Trazado 214133" d="M278.373,190.368a2.084,2.084,0,0,1,.265.127c1.806,1.425,1.8,1.419,2.911-.663.169-.315.07-.419-.165-.576A11.03,11.03,0,0,1,277,183.644a3.145,3.145,0,0,0-.594-.881c-1.79-2.159-3.591-4.308-5.382-6.465-.745-.9-.769-1.779-.09-2.419a1.631,1.631,0,0,1,2.359.167c2.574,2.2,5.152,4.386,7.708,6.6.372.322.546.341.887-.048,1.356-1.547,1.372-1.532-.2-2.86-.231-.2-.463-.39-.69-.59-.868-.76-2.071-1.369-2.506-2.325s-.109-2.264-.113-3.418c0-.824.039-1.651-.014-2.473-.038-.586.172-.672.693-.583a10.673,10.673,0,0,1,8.242,7.77,12,12,0,0,1,.339,2.853c-.006,5.386-.014,10.773.012,16.159,0,.609-.133.776-.759.767-2.615-.04-5.232-.032-7.847,0-.538.006-.692-.134-.679-.676.037-1.588.013-3.178.013-4.853" transform="translate(-210.811 -131.208)" fill="#fecdb5"/>
    <path id="Trazado_214134" data-name="Trazado 214134" d="M21.755,190.3c0,1.764-.007,3.435.006,5.106,0,.32-.1.424-.422.422q-4.213-.015-8.425,0c-.415,0-.421-.205-.419-.508.009-1.264,0-2.528,0-3.792,0-4.287-.024-8.574.007-12.86a10.542,10.542,0,0,1,8.326-10.315c.923-.21.924-.21.924.76,0,1.7-.016,3.408.011,5.111a1.2,1.2,0,0,1-.487,1.044c-1.311,1.09-2.579,2.232-3.9,3.31-.418.341-.393.545-.045.888.468.46.863,1.311,1.344,1.351s1.008-.726,1.506-1.151q3.328-2.837,6.65-5.681c.865-.738,1.694-.8,2.357-.173a1.636,1.636,0,0,1-.081,2.42q-2.712,3.268-5.443,6.521a3.82,3.82,0,0,0-.661,1.127,10.56,10.56,0,0,1-4.06,5.159c-.486.326-.505.532-.185,1,1.134,1.657,1.114,1.67,2.729.4a2.51,2.51,0,0,1,.264-.139" transform="translate(-9.736 -131.144)" fill="#fecdb5"/>
    <path id="Trazado_214135" data-name="Trazado 214135" d="M66.424,237.572c0-3.153-.076-6.176.042-9.191a5.682,5.682,0,0,1,1.289-2.881c1.167-1.615,2.53-3.09,3.816-4.627.234.176.136.384.136.556.006,4.888-.006,9.776.02,14.664,0,.6-.124.79-.757.773a7.86,7.86,0,0,0-4.547.706" transform="translate(-51.76 -172.172)" fill="#e0f6be"/>
    <path id="Trazado_214136" data-name="Trazado 214136" d="M275.675,237.283c-1.539-.878-3.122-.707-4.679-.7-.431,0-.624-.062-.622-.566.019-5.052.012-10.1.015-15.156a2.379,2.379,0,0,1,.069-.339c1.893,2.336,4.053,4.349,5.126,7.15a1.591,1.591,0,0,1,.088.558c.005,2.965,0,5.929,0,9.052" transform="translate(-210.759 -171.9)" fill="#e0f6be"/>
    <path id="Trazado_214137" data-name="Trazado 214137" d="M71.792,142.529c-2.095-.742-3.734.024-5.29,1.586v-1.467c0-2.691,0-5.382,0-8.073a2.665,2.665,0,0,1,2.858-2.894c.633-.005,1.266.014,1.9-.007.357-.011.544.039.541.477-.017,3.43-.009,6.86-.009,10.377" transform="translate(-51.838 -102.641)" fill="#e0f6be"/>
    <path id="Trazado_214138" data-name="Trazado 214138" d="M275.675,144.1c-1.552-1.575-3.18-2.307-5.277-1.584v-7.128c0-1.071.015-2.142-.008-3.212-.008-.386.1-.533.5-.517.769.031,1.542-.019,2.31.02a2.539,2.539,0,0,1,2.453,2.352c.058,3.286.019,6.574.019,10.068" transform="translate(-210.771 -102.632)" fill="#e0f6be"/>
    <path id="Trazado_214139" data-name="Trazado 214139" d="M102.484,126.57a3.527,3.527,0,0,1,2.46,3.746c-.659.009-1.319,0-1.977.033-.377.019-.534-.069-.52-.488.037-1.1.028-2.194.037-3.291" transform="translate(-79.858 -98.662)" fill="#fefefe"/>
    <path id="Trazado_214140" data-name="Trazado 214140" d="M247.14,130.316a3.527,3.527,0,0,1,2.462-3.746c.009,1.1,0,2.2.037,3.292.014.42-.146.506-.521.487-.658-.033-1.318-.024-1.978-.033" transform="translate(-192.648 -98.663)" fill="#fefefe"/>
    <path id="Trazado_214141" data-name="Trazado 214141" d="M122.355,30.488c.015-.107,0,.027,0-.082.02-.655-.294-.956-.95-.951s-1.322,0-1.984,0a4.716,4.716,0,0,1-3.47-8.04c.459-.512.985-.962,1.446-1.472.536-.593.543-.9-.012-1.491q-1.22-1.289-2.512-2.509c-.61-.577-.913-.56-1.549.033-.5.469-.957.99-1.473,1.445a4.724,4.724,0,0,1-8-3.5c-.012-.687,0-1.375-.008-2.062-.007-.564-.25-.875-.842-.879-1.35-.009-2.7-.013-4.049,0a.735.735,0,0,0-.826.807c-.02.687-.007,1.375-.011,2.062a4.734,4.734,0,0,1-8.127,3.455c-.458-.437-.888-.9-1.351-1.334-.637-.593-.94-.61-1.55-.033q-1.289,1.22-2.512,2.508c-.555.587-.548.9-.011,1.491.5.551,1.076,1.029,1.556,1.595a4.708,4.708,0,0,1-3.5,7.915c-.661.016-1.323-.012-1.983.009-.852.027-1.064.183-1.015,1.028.052.92-.049,1.656-1.123,1.855q0,1.293,0,2.586l3.6.027c1.16.009,1.545.347,1.714,1.507a1.075,1.075,0,0,0,.526.486,3.139,3.139,0,0,1,1.722,2.668.774.774,0,0,0,.213.592q9.127.013,18.255.024c3.717,0,7.434-.016,11.15-.024a.766.766,0,0,0,.214-.591,3.138,3.138,0,0,1,1.722-2.669,1.081,1.081,0,0,0,.526-.486c.166-1.16.549-1.5,1.712-1.507l3.606-.027q0-1.293,0-2.586c-1.074-.2-1.236-.938-1.107-1.854M106.242,36.3a6.6,6.6,0,0,1-10.531.008.36.36,0,0,1,.1-.3c.545-.428.423-.876.173-1.442a5.454,5.454,0,0,1,5.485-7.714,5.385,5.385,0,0,1,4.7,7.17c-.3.844-.567,1.537.076,2.282" transform="translate(-61.189 -8.555)" fill="#fc4b52"/>
    <path id="Trazado_214142" data-name="Trazado 214142" d="M157.674,83.763c-.825-.473-.93-.974-.462-1.9a5.06,5.06,0,0,0-1.5-6.2,5.266,5.266,0,0,0-6.552-.04,5.066,5.066,0,0,0-1.587,6.183c.454.925.5,1.481-.433,1.97-1.217.784-1.217.784-1.865-.544a7.924,7.924,0,1,1,14.3-.067c-.664,1.4-.664,1.4-1.9.6" transform="translate(-112.621 -56.015)"/>
    <path id="Trazado_214143" data-name="Trazado 214143" d="M130,206.123a2.185,2.185,0,0,0-1.922.43c-.865.632-1.789,1.182-2.669,1.795a1.5,1.5,0,0,1-1.9-.011c-.925-.645-1.87-1.26-2.813-1.879a2.286,2.286,0,0,0-.717-.381c-1.362-.289-1.729-.048-2.09,1.3-.278,1.039-.623,1.32-1.672,1.323-2.011.006-4.022.01-6.033,0-1.222-.007-1.767-.7-1.481-1.868q.568-2.318,1.161-4.631c.3-1.185.612-1.472,1.844-1.4.778.048.9-.233.874-.916-.052-1.345-.02-2.694-.014-4.041.005-1.2.454-1.657,1.633-1.662,1.515-.007,3.03-.014,4.545.006a.839.839,0,0,0,.9-.5,3.882,3.882,0,0,1,3.631-2.149c.854-.006,1.708-.015,2.562,0a3.955,3.955,0,0,1-.021,7.91c-.881.018-1.763.02-2.644,0a3.826,3.826,0,0,1-3.495-2.095.891.891,0,0,0-.953-.548c-.991.029-1.984.032-2.974,0-.449-.015-.56.142-.547.564q.042,1.4,0,2.8c-.014.446.089.649.582.612.548-.041,1.1-.012,1.652-.009,1.438.007,1.92.624,1.6,2.038-.037.16-.058.324-.1.536a2.022,2.022,0,0,0,1.756-.31c.889-.646,1.843-1.2,2.734-1.848a1.605,1.605,0,0,1,2.11.019c.913.659,1.874,1.253,2.814,1.875a1.589,1.589,0,0,0,.818.338c1.5.081,1.5.093,1.89-1.37.264-.984.62-1.273,1.623-1.276q3.016-.01,6.033,0c1.276.006,1.806.683,1.5,1.911q-.57,2.318-1.162,4.631c-.29,1.132-.612,1.411-1.795,1.359-.693-.031-1.039.112-.9.876a3.789,3.789,0,0,1,.006.823c-.027.673.355.934.962.953.523.016,1.047-.009,1.57.007a1.305,1.305,0,0,1,1.428,1.364q.04,1.937,0,3.876a1.275,1.275,0,0,1-1.359,1.345c-2.176.022-4.353.025-6.528,0-.912-.011-1.31-.568-1.379-1.6-.023-.337.346-.923-.29-1-.569-.073-1.167-.216-1.572.594a3.657,3.657,0,0,1-3.368,2.011c-.936.028-1.874.029-2.809,0a3.953,3.953,0,0,1,.013-7.9c.881-.025,1.763-.014,2.644-.005a3.816,3.816,0,0,1,3.615,2.167c.322.641.8.4,1.244.475.426.071.539-.168.668-.508.276-.728,1.029-.858,1.623-1.173a1.674,1.674,0,0,0,.9-2.047c-.082-.279-.264-.23-.442-.232-.606-.007-1.212,0-1.818,0-1.387-.009-1.884-.639-1.574-1.99.043-.187.071-.377.11-.587" transform="translate(-84.674 -149.304)"/>
    <path id="Trazado_214144" data-name="Trazado 214144" d="M166.274,170.225c-1.153,0-2.307-.014-3.459.008-.388.007-.5-.107-.52-.5-.1-2.144-.116-2.143,2-2.143,1.785,0,3.569.015,5.354-.01.461-.007.6.116.6.589.036,2.061.053,2.061-2,2.061h-1.977" transform="translate(-126.483 -130.626)"/>
    <path id="Trazado_214145" data-name="Trazado 214145" d="M139.845,167.621c1.279,0,1.279,0,1.279,1.281,0,1.358,0,1.358-1.366,1.358-1.279,0-1.279,0-1.279-1.281,0-1.358,0-1.358,1.366-1.358" transform="translate(-107.946 -130.662)"/>
    <path id="Trazado_214146" data-name="Trazado 214146" d="M213.1,168.956c0,1.3,0,1.3-1.667,1.3-.979,0-.979,0-.978-1.664,0-.978,0-.978,1.749-.976.9,0,.9,0,.9,1.336" transform="translate(-164.048 -130.662)"/>
    <path id="Trazado_214147" data-name="Trazado 214147" d="M171.126,203.518c.439,0,.878-.02,1.316,0a1.31,1.31,0,0,1,1.328,1.289,1.29,1.29,0,0,1-1.28,1.331c-.9.037-1.81.037-2.713,0a1.288,1.288,0,0,1-1.286-1.325,1.306,1.306,0,0,1,1.32-1.3c.437-.025.877,0,1.315,0" transform="translate(-131.34 -158.638)" fill="#a5cefd"/>
    <path id="Trazado_214148" data-name="Trazado 214148" d="M171.121,289.925c-.439,0-.878.022-1.315,0a1.307,1.307,0,0,1-1.314-1.3,1.286,1.286,0,0,1,1.292-1.318c.9-.034,1.81-.036,2.713,0a1.287,1.287,0,0,1,1.274,1.336,1.3,1.3,0,0,1-1.252,1.278c-.463.035-.932.007-1.4.007v0" transform="translate(-131.341 -223.932)" fill="#a5cefd"/>
    <path id="Trazado_214149" data-name="Trazado 214149" d="M124.312,248.011c-.515-.084-1.4.3-1.726-.159-.244-.344.232-1.168.324-1.788.085-.579.359-.744.93-.708a21.5,21.5,0,0,0,2.554,0c.538-.029.594.184.455.6-.026.078-.048.157-.068.237-.462,1.811-.462,1.811-2.468,1.811" transform="translate(-95.503 -191.254)" fill="#fec331"/>
    <path id="Trazado_214150" data-name="Trazado 214150" d="M220.273,248.012c-.515-.085-1.4.3-1.726-.159-.244-.346.233-1.168.324-1.788.085-.581.362-.743.931-.706a21.594,21.594,0,0,0,2.554,0c.54-.03.592.187.454.605-.025.078-.048.157-.068.237-.462,1.81-.462,1.81-2.469,1.81" transform="translate(-170.306 -191.255)" fill="#fec331"/>
    <path id="Trazado_214151" data-name="Trazado 214151" d="M224.383,291.424h-.742c-1.293,0-1.266,0-1.265-1.312a.777.777,0,0,1,.546-.791.684.684,0,0,1,.883.068,2.664,2.664,0,0,0,2.046.7c.586-.051.516.3.509.662-.007.343.108.735-.494.678-.49-.047-.988-.009-1.483-.009" transform="translate(-173.344 -225.428)" fill="#fee18e"/>
    <path id="Trazado_214152" data-name="Trazado 214152" d="M175.469,246.658c.477.321.929.622,1.373.934a.223.223,0,0,1,.027.2c-.449.308-.888.8-1.369.848-.536.053-.972-.527-1.441-.848a.222.222,0,0,1,.027-.2c.444-.311.9-.61,1.382-.935" transform="translate(-135.67 -192.272)" fill="#f68467"/>
  </g>
</svg>
