<svg xmlns="http://www.w3.org/2000/svg" xmlns:xlink="http://www.w3.org/1999/xlink" width="525" height="224" viewBox="0 0 525 224">
  <defs>
    <clipPath id="clip-path">
      <rect id="Rectángulo_88913" data-name="Rectángulo 88913" width="105" height="104.992" fill="none"/>
    </clipPath>
  </defs>
  <g id="Grupo_146854" data-name="Grupo 146854" transform="translate(-790 -398)">
    <rect id="Image_Place_Holder" data-name="Image Place Holder" width="525" height="224" transform="translate(790 398)" fill="#d9eaea"/>
    <g id="Grupo_140657" data-name="Grupo 140657" transform="translate(1065 458)">
      <g id="Grupo_140658" data-name="Grupo 140658" clip-path="url(#clip-path)">
        <path id="Trazado_214320" data-name="Trazado 214320" d="M0,41.712l7.176-.059a1.676,1.676,0,0,1,1.07-.263c1.7,0,3.4-.035,5.1.017,4.766-.061,9.533-.019,14.3-.022a1.715,1.715,0,0,1,1.071.268h6.543c1-.5,2.072-.216,3.11-.255,1.451-.054,1.488-.051,1.494-1.488.008-1.937-.019-3.874.011-5.811.02-1.265.217-1.44,1.495-1.5,2.085-.059,2.208.058,2.212,2.138,0,1.808-.013,3.616.007,5.423.012,1.106.129,1.213,1.252,1.232.75.013,1.5,0,2.251,0,.688,0,.968-.331.979-1.007.042-2.589.183-5.174.38-7.756a.739.739,0,0,0-.027-.4c-.855-1.49-.49-3.123-.552-4.7-.047-1.2-.082-1.261-1.29-1.273-1.091-.011-2.183.009-3.275,0-.716-.035-1.438.065-2.147-.014a3.349,3.349,0,0,0-3.054,1.268,3.047,3.047,0,0,0-.9,2.187c.029,2.661.022,5.323.006,7.984-.01,1.594-.346,1.858-1.924,1.532-.474-.1-.955.02-1.423-.093a4.035,4.035,0,0,1-.117-1.712c-.016-3.108.007-6.216-.02-9.323a1.872,1.872,0,0,1,.608-1.531c1.095-1.028,2.148-2.1,3.192-3.181a1.542,1.542,0,0,1,1.245-.525c1.7.036,3.406.014,5.328.014A12.935,12.935,0,0,1,39.6,12.709a12.482,12.482,0,0,1,4.832-9.759,12.9,12.9,0,0,1,17.239.967c4.242,4.246,5.882,12.566-.7,18.93,1.8,0,3.487.021,5.177-.012a1.647,1.647,0,0,1,1.336.551c1.229,1.281,2.5,2.526,3.748,3.785.05,3.721-.005,7.443.034,11.163.006.618-.157.9-.8.818a3.078,3.078,0,0,0-1.008.118c-1.186.251-1.665-.119-1.684-1.353-.041-2.629-.008-5.258-.015-7.887a3.528,3.528,0,0,0-3.813-3.786c-1.536-.007-3.073.032-4.608-.02-2.332.081-2.2-.428-2.242,2.271-.015,1.034.281,2.116-.314,3.1-.515.566-.31,1.2-.171,1.831a12.077,12.077,0,0,1,.082,1.912,6.6,6.6,0,0,0,.114,2.085,10.818,10.818,0,0,1,.085,1.908,4.189,4.189,0,0,0,.136,1.867,1.555,1.555,0,0,0,.269.173c1.019.134,2.038.009,3.053.062.785.041,1.1-.3,1.092-1.085-.02-2.07-.014-4.14,0-6.21,0-.465-.085-.963.31-1.345a1.3,1.3,0,0,1,.478-.173c2.472-.394,2.9-.031,2.9,2.455,0,1.672-.011,3.344,0,5.016.011,1.185.1,1.228,1.293,1.3,6.677.376,13.36.2,20.04.226,5.8.022,11.6,0,17.4.01a1.864,1.864,0,0,1,1.1.111c0,4.749,0,9.5.027,14.246,0,.572-.145.748-.731.742-2.151-.022-4.3.013-6.454.027a3.4,3.4,0,0,1-2,.265q-32.157.011-64.313,0c-5.359,0-10.718.045-16.076-.028-2.746.037-5.491.045-8.237,0C5.176,57.039,3.164,57,1.153,57A1.6,1.6,0,0,1,0,56.68Z" transform="translate(0 -0.075)" fill="#1d1d1f"/>
        <path id="Trazado_214321" data-name="Trazado 214321" d="M113.445,229.722c1.533.113,1.533.113,1.533,1.723q0,21.442,0,42.885a2.567,2.567,0,0,0,.1,1.208H21.374a1.868,1.868,0,0,1-.331-1.357q-.009-21.488,0-42.975c0-1.5.232-1.7,1.735-1.7,1.8-.053,2,.131,2,1.948q.009,19.337,0,38.675c0,1.995,0,1.989,2.037,2,1.4.006,2.8-.037,4.194.025.545-.049,1.092-.029,1.638-.029q38.516,0,77.031,0a3.656,3.656,0,0,0,1.71-.174c.369-.307.32-.731.319-1.138-.024-6.457-.009-12.913-.024-19.37-.015-6.832.019-13.665.029-20.5a1.949,1.949,0,0,1,.187-1.1,1.291,1.291,0,0,1,1.541-.126" transform="translate(-15.633 -170.546)" fill="#1d1d1f"/>
        <path id="Trazado_214322" data-name="Trazado 214322" d="M131.739,265.645c-.3.027-.606.077-.909.077q-39.587.005-79.174,0c-.238,0-.476-.021-.715-.032-.6-1.368-.252-2.788-.229-4.188a.92.92,0,0,1,.148-.3c.361-.408,1.031-.023,1.353-.528a6.106,6.106,0,0,0,0-2.206c-.33-.5-1.005-.11-1.362-.537a1.087,1.087,0,0,1-.153-.332,4.721,4.721,0,0,1-.085-1.122q-.006-14.526,0-29.053a3.6,3.6,0,0,1,.028-.508c-.018-.68-.012-1.362-.007-2.044,0-.6-.256-.856-.859-.872a3.209,3.209,0,0,1-1.89-.254c-.115-.345.165-.4.375-.468a3.873,3.873,0,0,1,1.107-.092c1.217-.028,1.235-.055,1.274-1.261.016-.5-.1-1.027.309-1.442.306-.014.612-.041.918-.041q40.294,0,80.589,0c.306,0,.612.026.918.04q0,1.253,0,2.506l-1.531.115c-.039,5.584-.006,11.168-.017,16.753,0,1.289-.035,1.346-1.115.719-1.236-.718-2.584-.478-3.886-.623a15.845,15.845,0,0,0-4.919-1.788,25.452,25.452,0,0,1-2.358-4.06c-1.408-2.537-2.807-5.08-4.166-7.644a1.837,1.837,0,0,0-2.281-1.05c-.479.1-.5.383-.428.754.136.7.283,1.408.352,2.121.033.337.137.8-.486.746a19.026,19.026,0,0,1-2.273-3.854,1.971,1.971,0,0,0-2.116-1.2c-.812.07-1.634,0-2.451.017-1.024.019-1.095.116-.919,1.158.381,2.25.852,4.483,1.3,6.72.338,1.669.631,3.346.95,5.019.219,1.148-.009,1.434-1.177,1.438a16.059,16.059,0,0,1-3.36-.1c-.879-.523-1.254-1.493-1.933-2.2a4.639,4.639,0,0,0-.688-.744c-.707-.47-1.243-.21-1.293.633-.026.44.029.885-.04,1.321-.05.318-.05.729-.579.628a9.221,9.221,0,0,1-2.345-2.812A3.405,3.405,0,0,0,92.16,233.4c-.817.068-1.171.306-1.152,1.149.033,1.5.009,3.006.009,4.509q0,3.639,0,7.278c0,1.4.046,1.453,1.427,1.455q6.15.008,12.3,0c.308,0,.615,0,.923,0,1.377.03,1.573.246,1.369,1.583-.242,1.588-.6,3.155-.919,4.728-.473,2.31-.873,4.633-1.335,6.945-.192.962-.09,1.072.894,1.089.956.017,1.914-.022,2.87.012a1.6,1.6,0,0,0,1.565-.922,35.36,35.36,0,0,1,2.351-4.07c.737-.222.6.361.586.707a12.572,12.572,0,0,1-.369,2.011c-.14.638.092.843.725.879a1.925,1.925,0,0,0,2.042-1.153c1.981-3.7,4.005-7.376,6.02-11.057a1.524,1.524,0,0,1,.43-.566,15.512,15.512,0,0,0,4.711-1.586,10.126,10.126,0,0,0,4.358-.932c.569-.3.869-.124.868.585-.017,6.435,0,12.87-.011,19.3a.778.778,0,0,1-.083.291" transform="translate(-35.559 -163.809)" fill="#cba124"/>
        <path id="Trazado_214323" data-name="Trazado 214323" d="M283.618,29.92c0-1.49-.032-2.983.015-4.474.021-.659-.153-.87-.842-.862-3.21.038-6.42,0-9.63.032-.712.008-1-.094-.994-.92q.055-11.423.007-22.846c0-.663.163-.851.84-.85q16.7.032,33.4,0c.678,0,.836.186.834.845q-.035,11.474,0,22.948c0,.707-.235.826-.868.822-3.518-.028-7.035,0-10.553-.025a4.67,4.67,0,0,0-2.244.519c-2.971,1.518-5.963,3-8.952,4.481a1.5,1.5,0,0,1-1.014.33" transform="translate(-202.25 0)" fill="#1d1d1f"/>
        <path id="Trazado_214324" data-name="Trazado 214324" d="M66.309,132H50.926a1.3,1.3,0,0,1-.317-1.042c-.021-1.057-.035-2.115,0-3.171.039-1.1.263-1.286,1.349-1.346a16.912,16.912,0,0,0,3.451-.146,2,2,0,0,0,0-2.425,17.391,17.391,0,0,0-3.456-.136c-1.274-.067-1.569-.555-1.053-1.8a2.169,2.169,0,0,1,1.284-.246c3.749-.008,7.5-.014,11.247,0,1.5.006,1.726.232,1.748,1.713q.034,2.249,0,4.5c-.013.813.288,1.2,1.129,1.175.458-.011.974-.08,1.307.389-1.115-.073-1.519.452-1.326,1.53A5.943,5.943,0,0,1,66.309,132" transform="translate(-37.593 -90.423)" fill="#a7e446"/>
        <path id="Trazado_214325" data-name="Trazado 214325" d="M228.047,100.638c1.945-.012,3.89-.019,5.835-.042a1.355,1.355,0,0,1,.911.342,5.1,5.1,0,0,1,2.2,4.891c-.228,2.333-.039,4.706-.06,7.061-.006.6.059.913.813.911,2.253-.008,2.252.031,2.253-2.223q0-4.864.009-9.729c.243.26.146.583.146.88.007,3.379-.01,6.758.016,10.136.006.728-.087,1.181-.984,1.095-1.037-.1-.627.735-.68,1.222-.055.5-.121,1.035.712,1.016,1.774-.04,3.549-.011,5.324-.011q14.028,0,28.056.008c.384,0,.827-.18,1.148.213l-24.584-.023c-4.917,0-9.834-.024-14.751,0-.725,0-.914-.2-.9-.913.043-2.321-.008-4.643.031-6.965.011-.684-.125-1.005-.886-.932-.711.069-1.433.022-2.15.026a13.478,13.478,0,0,0-.107,3.025c-.031,1.56-.059,3.123.012,4.679.039.843-.266,1.08-1.036.983-.435-.055-.881.034-1.318-.048a7.248,7.248,0,0,1-.524-3.268c-.125-2.442-.2-4.886-.372-7.326-.014-.2-.084-.446.014-.6.708-1.149.494-2.431.57-3.671a1.05,1.05,0,0,1,.3-.737" transform="translate(-168.776 -74.753)" fill="#d0e6f7"/>
        <path id="Trazado_214326" data-name="Trazado 214326" d="M46.3,121.477c-.679-.007-1.36-.055-2.036-.01-.636.042-.816-.2-.8-.815.034-1.942,0-3.885.019-5.827,0-.5-.028-.819-.688-.813-4.4.037-8.792.036-13.187.047-.885.523-1.857.241-2.788.28-1.321.055-1.39.083-1.4,1.376-.012,1.492.02,2.984-.012,4.476-.031,1.444-.516,1.759-1.958,1.32-1.537-.119-1.537-.119-1.537-1.726,0-2.662.018-5.325-.012-7.987-.007-.637.121-.869.831-.867q11.469.043,22.938.008c.6,0,.907.06.9.8-.047,2.969-.016,5.939-.024,8.908,0,.287.121.63-.234.825" transform="translate(-16.269 -82.434)" fill="#1d1d1f"/>
        <path id="Trazado_214327" data-name="Trazado 214327" d="M139.388,107.3c-.939-.1-1.261.245-1.218,1.252.1,2.25.011,4.507.042,6.761.008.605-.13.849-.789.82-1.4-.061-2.8-.04-4.2-.053,0-.2.007-.408.008-.613.011-1.6.011-1.6-1.4-1.938.682,0,1.367-.047,2.044.007.7.056.939-.168.929-.9-.04-2.969,0-5.939-.03-8.908a2.3,2.3,0,0,1,.624-1.528,4.359,4.359,0,0,1,4.5-1.861,9.081,9.081,0,0,0,1.327.043c.07.566-.358.863-.7,1.162a2.506,2.506,0,0,0-.865,2.168c.045.81.016,1.624.006,2.436a1.565,1.565,0,0,1-.281,1.152" transform="translate(-97.966 -74.503)" fill="#9ac8fe"/>
        <path id="Trazado_214328" data-name="Trazado 214328" d="M27.926,130.407c1.568-.147,1.568-.147,1.568-1.822,0-1.6.023-3.194-.012-4.791-.014-.628.12-.924.832-.887,1.254.063,2.513.037,3.769.048,0,1.625-.137,1.38,1.428,1.418a25.424,25.424,0,0,1,3.472.079c-.289.543-.822.409-1.27.418-1.674.032-3.348,0-5.022.019-1.019.014-1.157.165-1.157,1.108s.138,1.094,1.157,1.108c1.674.023,3.349-.013,5.022.019.448.009.981-.125,1.27.418a24.283,24.283,0,0,1-3.871.064c-.773-.011-1.094.167-1.052,1.013.072,1.427.023,2.86.025,4.29H27.928q0-1.252,0-2.5" transform="translate(-20.752 -91.331)" fill="#85b638"/>
        <path id="Trazado_214329" data-name="Trazado 214329" d="M37.255,173.949c.34-.012.682-.034,1.022-.034q44.933,0,89.866-.026c1,0,1.249.243,1.214,1.226-.081,2.251-.054,4.508-.008,6.761.015.712-.169.924-.9.912-2.732-.044-5.465-.018-8.2-.018q-40.834,0-81.668,0c-.443,0-.887-.023-1.33-.036a3.869,3.869,0,0,1-.058-3.087,2.181,2.181,0,0,1,1.468-.289c1.872-.012,3.744.006,5.616-.009,1.151-.009,1.269-.134,1.274-1.2.006-1.088-.112-1.221-1.234-1.231-1.872-.016-3.744,0-5.616-.009a2.394,2.394,0,0,1-1.481-.266,2.961,2.961,0,0,1,.03-2.7" transform="translate(-27.424 -129.218)" fill="#cba124"/>
        <path id="Trazado_214330" data-name="Trazado 214330" d="M36.106,226.846,36.1,258.081a1.894,1.894,0,0,0-1.107,2.473c.161.626.81.4,1.106.75q.013,2.253.025,4.506c-1.808.011-3.619-.032-5.424.056-.965.047-1.253-.191-1.249-1.209.042-10.273.026-20.547.026-30.82v-9.01c0-1.6,0-1.6-1.564-1.723q0-1.254,0-2.508h8.212c-.019.92.278,2.035-.138,2.709-.486.787-1.7.142-2.575.323a1.185,1.185,0,0,0-.331.2c.419.582.245,1.254.264,1.889.018.6.269.85.869.869a3.128,3.128,0,0,1,1.891.26" transform="translate(-20.742 -163.926)" fill="#98791b"/>
        <path id="Trazado_214331" data-name="Trazado 214331" d="M190,12.468c3.878.186,7.84,3.868,8.429,7.833a9.77,9.77,0,0,1-7.207,11.332,5.581,5.581,0,0,1-1.406.194,3.234,3.234,0,0,1-3.3-2.044,6.5,6.5,0,0,1,.364-1.9.788.788,0,0,0-.424-1.013,6.215,6.215,0,0,1-2.987-3.982c-.413-4.249,1.315-7.529,4.585-10.105A2.287,2.287,0,0,1,190,12.468" transform="translate(-136.291 -9.208)" fill="#fed9a9"/>
        <path id="Trazado_214332" data-name="Trazado 214332" d="M161.141,107.525c0-1.187.065-2.378-.023-3.558a2.584,2.584,0,0,1,1.028-2.475,6.967,6.967,0,0,0,.831-.886c1.434-.011,2.869.006,4.3-.046.595-.022.656.243.645.726-.026,1.161-.039,2.324.006,3.483.02.5-.34,1.178.5,1.437.079.024.058.443.047.677-.136,2.865-.29,5.73-.411,8.6-.026.607-.146.929-.873.884a31.766,31.766,0,0,0-3.38,0c-.644.029-.811-.188-.8-.812.035-2.22-.039-4.442.037-6.66.035-1.023-.188-1.536-1.3-1.329a2.548,2.548,0,0,1-.61-.033" transform="translate(-119.72 -74.726)" fill="#d0e6f7"/>
        <path id="Trazado_214333" data-name="Trazado 214333" d="M173.847,29.358a3.913,3.913,0,0,0,3.125,2.11,9.02,9.02,0,0,1-8.248-3.092,9.761,9.761,0,0,1,5-16.149,6.092,6.092,0,0,1,3.428-.119c-1.689-.076-2.644,1.109-3.6,2.193a10.862,10.862,0,0,0-2.749,8.3c-.367.672-1.078.491-1.633.583-.767.127-.879.456-.645,1.107a7.882,7.882,0,0,0,4.463,4.741,7.847,7.847,0,0,1,.852.33" transform="translate(-123.448 -8.848)" fill="#fe9377"/>
        <path id="Trazado_214334" data-name="Trazado 214334" d="M18.706,179.748q0,1.516,0,3.032c-2.044.012-4.089.012-6.133.045-.5.008-.634-.179-.63-.653q.026-3.783,0-7.567c0-.475.131-.66.631-.652,2.044.033,4.089.032,6.133.044q0,1.306,0,2.612c-.577.537-1.3.338-1.952.324-.946-.02-1.029.512-1.027,1.247s.073,1.271,1.023,1.251c.656-.014,1.375-.209,1.955.318" transform="translate(-8.873 -129.265)" fill="#98791b"/>
        <path id="Trazado_214335" data-name="Trazado 214335" d="M222.046,100.585c0,.751.027,1.5-.015,2.253-.035.63.284,1.36-.518,1.822-.146.084-.124.589-.066.876a50.714,50.714,0,0,1,.32,5.7,42.64,42.64,0,0,1,.271,4.89,6.3,6.3,0,0,1-2.477.014l0,.006c-.236-.672.04-1.383-.163-2.057q-.027-.989-.054-1.977c-.209-.7.045-1.425-.149-2.123q-.028-.993-.055-1.987a4.24,4.24,0,0,1,.019-1.894c.5-.078.393-.465.394-.787,0-1.325.03-2.651-.011-3.975-.018-.6.1-.885.771-.808.571.066,1.152.036,1.729.048" transform="translate(-162.775 -74.701)" fill="#9ac8fe"/>
        <path id="Trazado_214336" data-name="Trazado 214336" d="M202.253,129.953a6.659,6.659,0,0,0,.012,1.222c.18.948-.225,1.125-1.1,1.121-.839,0-1.107-.2-1.048-1.075.19-2.816.3-5.638.431-8.458.02-.427-.006-.784.624-.783.582,0,.649.262.671.738.111,2.412.252,4.823.382,7.234h.025" transform="translate(-148.705 -90.644)" fill="#fd7855"/>
        <path id="Trazado_214337" data-name="Trazado 214337" d="M200.823,100.465c1.164-.364,1,.432,1.1,1.224.148,1.2-.488,1.127-1.346,1.217-1.282.134-1.06-.621-1.151-1.406-.138-1.2.558-1.14,1.4-1.035" transform="translate(-148.182 -74.589)" fill="#fb7755"/>
        <path id="Trazado_214338" data-name="Trazado 214338" d="M221.052,136.469l2.477-.014c2.248.055,2.248.055,2.248-2.22,0-1.8-.007-3.609.007-5.413,0-.319-.145-.692.211-.94-.014,2.626-.052,5.251-.024,7.877.007.709-.175.987-.907.911-1.332-.139-2.69.2-4.011-.2" transform="translate(-164.266 -95.03)" fill="#9ac8fe"/>
        <path id="Trazado_214339" data-name="Trazado 214339" d="M220.384,153.325c.344.663.1,1.372.163,2.057a5.575,5.575,0,0,1-.163-2.057" transform="translate(-163.757 -113.937)" fill="#9ac8fe"/>
        <path id="Trazado_214340" data-name="Trazado 214340" d="M219.594,137.363c.352.686.1,1.415.149,2.122a6.588,6.588,0,0,1-.149-2.122" transform="translate(-163.171 -102.076)" fill="#9ac8fe"/>
        <path id="Trazado_214341" data-name="Trazado 214341" d="M218.928,122.255q-.01.947-.019,1.894a2.586,2.586,0,0,1,.019-1.894" transform="translate(-162.541 -90.849)" fill="#9ac8fe"/>
        <path id="Trazado_214342" data-name="Trazado 214342" d="M353.721,247.39c1.758-.023,3.562-.267,5.147,1.265v-1.21q0-7.775,0-15.549a1.918,1.918,0,0,1,.117-1.1Q359,251.835,359,272.87a2.043,2.043,0,0,1-.115.474q-.009-9.57-.018-19.14c0-1.1,0-1.1-.955-.6a8.342,8.342,0,0,1-4.374.733c-.094-.446.258-.666.491-.936a3.645,3.645,0,0,0,.229-4.976c-.228-.315-.62-.556-.537-1.036" transform="translate(-262.706 -171.508)" fill="#feca2e"/>
        <path id="Trazado_214343" data-name="Trazado 214343" d="M250.3,248.67c1.45,1.5,2.218,3.15,1.21,5.221a9.09,9.09,0,0,1-1.393,1.728,7.8,7.8,0,0,1-4.5,1.5,6.565,6.565,0,0,1-2.918.2,1.758,1.758,0,0,0-1.775,1.049c-1.217,2.319-2.518,4.594-3.744,6.909a1.6,1.6,0,0,1-.736.816c-.855,1.553-1.733,3.1-2.552,4.667a1.132,1.132,0,0,1-1.195.705c-1.331-.044-2.665-.048-4,0-.689.025-.784-.2-.658-.827.838-4.179,1.613-8.37,2.477-12.543.172-.829.067-1.042-.807-1.035-4.782.039-9.565,0-14.346.037-.8.006-1.029-.194-1.021-1.009q.062-6.455,0-12.911c-.008-.826.275-.93,1.032-1.04a4.083,4.083,0,0,1,4.608,2.265,19.54,19.54,0,0,0,1.874,2.427,9.906,9.906,0,0,1,4.262.168c1.263.012,2.527-.011,3.788.05.694.034.781-.2.655-.822-.846-4.211-1.639-8.433-2.5-12.641-.147-.722-.069-.964.721-.932,1.534.063,3.314-.442,4.54.18s1.567,2.529,2.349,3.841c.262.439.5.889.756,1.334,1.141,1,1.533,2.461,2.281,3.7.824,1.367,1.552,2.795,2.311,4.2a1.539,1.539,0,0,0,1.476.86c1.039.041,2.108-.249,3.116.224a7.975,7.975,0,0,1,4.681,1.674" transform="translate(-159.289 -172.788)" fill="#1d1d1f"/>
        <path id="Trazado_214344" data-name="Trazado 214344" d="M299.075,337.1c1.523-2.81,3.052-5.616,4.559-8.434a.91.91,0,0,1,.938-.592c1.224.045,2.45.036,3.675.049-.87,2.04-2.084,3.9-3.1,5.867-1.074,2.089-2.249,4.125-3.378,6.185a2.979,2.979,0,0,1-2.984.74c-.284-.209-.123-.478-.1-.743.093-1.029.687-2,.383-3.072" transform="translate(-221.911 -243.794)" fill="#feca2e"/>
        <path id="Trazado_214345" data-name="Trazado 214345" d="M308.324,251.45c-1.227.013-2.454.014-3.68.045a.85.85,0,0,1-.892-.5c-1.524-2.852-3.072-5.69-4.612-8.533a6.248,6.248,0,0,0-.359-2.966c-.171-.827.105-.866.785-.952,1.4-.176,2.1.387,2.743,1.642,1.758,3.462,3.7,6.828,5.568,10.236.178.326.3.683.448,1.026" transform="translate(-221.99 -177.242)" fill="#feca2e"/>
        <path id="Trazado_214346" data-name="Trazado 214346" d="M95.315,232.93c2.149,0,4.3.035,6.446-.018.787-.02.976.243.968.991-.022,2.1.01,2.1-2.116,2.1-3.922,0-7.845-.018-11.767.015-.766.006-1.075-.145-1.055-1,.049-2.089,0-2.09,2.1-2.09h5.423" transform="translate(-65.238 -173.078)" fill="#fefefd"/>
        <path id="Trazado_214347" data-name="Trazado 214347" d="M74.071,368.22c0-1.487,0-1.487,1.629-1.487,1.453,0,1.464,0,1.449,1.776-.013,1.547.255,1.316-1.79,1.332-1.289.01-1.289,0-1.289-1.622" transform="translate(-55.043 -272.523)" fill="#222020"/>
        <path id="Trazado_214348" data-name="Trazado 214348" d="M113.971,368.271c0-1.538,0-1.548,1.692-1.534,1.637.013,1.355-.19,1.36,1.776,0,1.57.219,1.323-1.805,1.328-1.482,0-1.22.172-1.246-1.569" transform="translate(-84.691 -272.524)" fill="#222120"/>
        <path id="Trazado_214349" data-name="Trazado 214349" d="M97.108,368.276c0,1.569,0,1.569-1.661,1.568-1.422,0-1.422,0-1.421-1.8,0-1.316,0-1.322,1.8-1.312,1.543.008,1.252-.1,1.28,1.54" transform="translate(-69.872 -272.524)" fill="#222020"/>
        <path id="Trazado_214350" data-name="Trazado 214350" d="M247.866,279.365c-1.421-.047-2.857.276-4.262-.168.335-.61.072-1.273.171-1.9.063-.4-.275-.994.339-1.141a1.5,1.5,0,0,1,1.742.514c.648.915,1.338,1.8,2.009,2.7" transform="translate(-181.024 -205.154)" fill="#feca2e"/>
        <path id="Trazado_214351" data-name="Trazado 214351" d="M50.989,236.035c-.779,0-1.558-.02-2.335.012-.52.021-.737-.154-.711-.695.037-.777.017-1.557.022-2.335,3.8.014,3-.763,3.024,3.018" transform="translate(-35.625 -173.115)" fill="#fefdfc"/>
        <path id="Trazado_214352" data-name="Trazado 214352" d="M69.371,236.043c-1.717-.027-1.458.224-1.46-1.662,0-1.656-.232-1.409,1.708-1.409,1.61,0,1.35-.234,1.358,1.757.006,1.538.172,1.29-1.606,1.314" transform="translate(-50.456 -173.114)" fill="#fefdfc"/>
        <path id="Trazado_214353" data-name="Trazado 214353" d="M55.554,369.7a6.478,6.478,0,0,0-.808-.048c-.481.029-.688-.16-.647-.649.026-.3,0-.61,0-.915,0-1.491,0-1.491,1.451-1.611v-.012c.519.251,1.111-.089,1.626.2v2.845c-.515.29-1.107-.05-1.626.2Z" transform="translate(-40.198 -272.325)" fill="#1e1e1f"/>
        <path id="Trazado_214354" data-name="Trazado 214354" d="M61.408,366.539c-.524-.21-1.108.067-1.625-.2.541.071,1.131-.249,1.625.2" transform="translate(-44.425 -272.195)" fill="#fe7856"/>
        <path id="Trazado_214355" data-name="Trazado 214355" d="M59.781,378.524c.517-.268,1.1.01,1.626-.2-.495.451-1.085.131-1.626.2" transform="translate(-44.424 -281.135)" fill="#fe7856"/>
        <path id="Trazado_214356" data-name="Trazado 214356" d="M299.155,12.036q8.085-.02,16.171-.039c2.593,0,5.187.016,7.78-.013.617-.007.875.085.87.807q-.051,8.393,0,16.787c0,.759-.249.879-.927.868-2.456-.04-4.915.043-7.369-.039a6.613,6.613,0,0,0-3.789.911,17.165,17.165,0,0,1-1.651.783,5.087,5.087,0,0,1-3.7-.015q-.019-.789-.037-1.578c-.312-.329-.711-.151-1.063-.155-1.844-.021-3.689-.042-5.532.006-.761.02-1.064-.285-1.075-.993,0-.1-.012-.2-.013-.307q-.013-7.939,0-15.878a1.444,1.444,0,0,1,.333-1.145" transform="translate(-222.049 -8.905)" fill="#fefefe"/>
        <path id="Trazado_214357" data-name="Trazado 214357" d="M288.259,12c0,5.694.02,11.388-.019,17.081-.006.892.215,1.19,1.135,1.151,1.736-.074,3.477-.032,5.216-.013.345,0,.766-.182,1.015.253-3.481-.026-6.961-.079-10.442-.058-.8,0-1.02-.2-1.014-1.013q.056-8.243,0-16.488c0-.737.134-1.037.938-.972,1.051.085,2.113.044,3.17.057" transform="translate(-211.153 -8.866)" fill="#d7d6d9"/>
        <path id="Trazado_214358" data-name="Trazado 214358" d="M328.89,90.239l3.7.015-3.7,1.935Z" transform="translate(-244.401 -67.057)" fill="#d5d4d7"/>
        <path id="Trazado_214359" data-name="Trazado 214359" d="M48.429,132.022c-2.288-.012-4.577-.05-6.865-.02-.707.01-.931-.185-.927-.91.014-2.127-.018-2.122,2.157-2.126,1.878,0,3.757-.021,5.635-.033a5.685,5.685,0,0,1,0,3.089" transform="translate(-30.198 -95.811)" fill="#1d1d1f"/>
        <path id="Trazado_214360" data-name="Trazado 214360" d="M335.409,184.969c-2.353,0-4.707-.023-7.06.014-.721.011-1.033-.142-1.029-.951.009-2.139-.03-2.139,2.153-2.139,4.264,0,8.527.016,12.791-.015.753-.005,1.076.127,1.056.989-.05,2.1,0,2.1-2.077,2.1h-5.833" transform="translate(-243.234 -135.155)" fill="#fefefe"/>
        <path id="Trazado_214361" data-name="Trazado 214361" d="M28.462,187.432c-.887-.011-1.774-.041-2.66-.024-.465.009-.64-.123-.673-.625-.16-2.458-.177-2.456,2.312-2.46.341,0,.681-.02,1.021-.031,2.553.011,5.107.044,7.66.017.688-.007.937.148.931.889-.019,2.2.015,2.2-2.157,2.2-2.145.005-4.29.02-6.434.031" transform="translate(-18.63 -136.949)" fill="#1d1d1f"/>
        <path id="Trazado_214362" data-name="Trazado 214362" d="M308.988,181.925c1.749.03,1.5-.24,1.5,1.638,0,1.688.219,1.424-1.7,1.436-1.612.01-1.358.113-1.364-1.8,0-1.488-.14-1.248,1.567-1.27" transform="translate(-228.439 -135.188)" fill="#fefdfc"/>
        <path id="Trazado_214363" data-name="Trazado 214363" d="M289.073,181.928c1.716.029,1.464-.231,1.467,1.673,0,1.638.2,1.394-1.636,1.4-1.658.007-1.43.153-1.432-1.736,0-1.566-.172-1.313,1.6-1.338" transform="translate(-213.616 -135.191)" fill="#fefdfc"/>
        <path id="Trazado_214364" data-name="Trazado 214364" d="M179.442,60.282c-.255.241-.519.079-.753-.015a8.047,8.047,0,0,1-4.953-5.43c-.169-.568-.124-.866.579-.92a18.093,18.093,0,0,0,2.091-.4c.6,1.125.9,2.561,2.141,3.108,1.682.74,1.629,1.794.982,3.151a1.868,1.868,0,0,0-.086.5" transform="translate(-129.043 -39.772)" fill="#1d1d1f"/>
        <path id="Trazado_214365" data-name="Trazado 214365" d="M205.146,19.12a7.782,7.782,0,0,1,3.361,1.1,1.03,1.03,0,0,1,.243.187c.39.43,0,.735-.247.937-.568.469-.577,1.711-1.615,1.441a7.622,7.622,0,0,0-2.029-.594c-.465.006-.573-.255-.564-.655.013-.546.033-1.1-.006-1.639-.047-.651.236-.877.857-.777" transform="translate(-151.805 -14.192)" fill="#fefefe"/>
        <path id="Trazado_214366" data-name="Trazado 214366" d="M224.342,35.477c-.006.068.015.172-.019.2-.76.516-1.683.369-2.518.6-.5.138-.636-.342-.668-.7-.048-.535-.77-.94-.52-1.366a4.614,4.614,0,0,1,1.4-1.147c1.007-.713,1.031-.712,1.572.423.262.55.443,1.139.659,1.711.036.1.066.193.1.29" transform="translate(-163.904 -24.197)" fill="#fefefd"/>
        <path id="Trazado_214367" data-name="Trazado 214367" d="M224.318,54.307a7.109,7.109,0,0,1-1.138,2.809c-.066.1-.276.219-.319.189a11.9,11.9,0,0,1-2.219-1.731c-.253-.3.463-.881.556-1.445.131-.8.734-.583,1.283-.452.458.109.936.13,1.4.221.21.041.512.044.437.409" transform="translate(-163.922 -39.793)" fill="#fefefd"/>
        <path id="Trazado_214368" data-name="Trazado 214368" d="M255.3,301.079a1.971,1.971,0,0,1,.059-.4c.3-.84.042-1.092-.862-1.083-3.78.036-7.561,0-11.341-.016a4.918,4.918,0,0,1,0-3.817q5.416-.019,10.832-.037c1.532,0,1.532,0,1.311-1.462a7.212,7.212,0,0,1,4.453-.019c.475,1.332,1.435,1.634,2.773,1.508,1.384-.129,2.79-.035,4.187-.026a3.94,3.94,0,0,1,2.865,1.126,1.021,1.021,0,0,1-.016,1.67,3.842,3.842,0,0,1-2.772,1.093c-1.635,0-3.273.058-4.9-.023a1.585,1.585,0,0,0-1.866,1.108,2.77,2.77,0,0,1-.314.521,5.172,5.172,0,0,1-4.405-.143" transform="translate(-180.406 -218.4)" fill="#b2c5c7"/>
        <path id="Trazado_214369" data-name="Trazado 214369" d="M289.041,259.857l-4.453.019-2.329-11.867c-.094-.209-.163-.406.2-.38q3.145,5.792,6.289,11.586c.112.207.2.428.3.643" transform="translate(-209.693 -184.013)" fill="#dff7f9"/>
        <path id="Trazado_214370" data-name="Trazado 214370" d="M284.712,321.843a25.752,25.752,0,0,0,4.405.143l-6.533,12.1c-.19.067-.27.01-.218-.194l2.346-12.045" transform="translate(-209.817 -239.164)" fill="#dff7f9"/>
        <path id="Trazado_214371" data-name="Trazado 214371" d="M231,290.291q0,1.909,0,3.818c-1.3.012-2.592.015-3.888.04-.436.008-.7-.067-.7-.6.019-2.282.008-4.564.008-7.008a10.087,10.087,0,0,1,1.865,2.272c.668,1.009,1.411,1.713,2.714,1.479" transform="translate(-168.252 -212.93)" fill="#dff7f9"/>
        <path id="Trazado_214372" data-name="Trazado 214372" d="M282.1,246.275l-.2.38a.846.846,0,0,1-.152-.85c.263.063.3.274.349.471" transform="translate(-209.34 -182.659)" fill="#10407b"/>
        <path id="Trazado_214373" data-name="Trazado 214373" d="M281.845,368.729l.218.194c-.049.187-.192.507-.271.452-.259-.184-.119-.438.052-.646" transform="translate(-209.297 -274.006)" fill="#0e4689"/>
        <path id="Trazado_214374" data-name="Trazado 214374" d="M338.138,44.837c0,1.124-.031,2.248.013,3.37.023.591-.181.729-.749.738-2.342.038-2.342.058-2.341-2.285,0-1.736.023-3.473-.013-5.209-.012-.576.156-.734.735-.742,2.355-.032,2.354-.053,2.354,2.289v1.839" transform="translate(-248.977 -30.247)" fill="#1e1e1f"/>
        <path id="Trazado_214375" data-name="Trazado 214375" d="M336.652,25.688c-1.557,0-1.557,0-1.556-1.84,0-1.241,0-1.241,1.868-1.24,1.213,0,1.224,0,1.207,1.9-.012,1.371.236,1.153-1.52,1.176" transform="translate(-249.013 -16.8)" fill="#1f1f21"/>
      </g>
    </g>
  </g>
</svg>
