<svg id="Grupo_135056" data-name="Grupo 135056" xmlns="http://www.w3.org/2000/svg" xmlns:xlink="http://www.w3.org/1999/xlink" width="60.837" height="66.979" viewBox="0 0 60.837 66.979">
  <defs>
    <clipPath id="clip-path">
      <rect id="Rectángulo_41171" data-name="Rectángulo 41171" width="60.837" height="66.979" fill="none"/>
    </clipPath>
  </defs>
  <g id="Grupo_117499" data-name="Grupo 117499" clip-path="url(#clip-path)">
    <path id="Trazado_162725" data-name="Trazado 162725" d="M28.083,62.884a1.037,1.037,0,0,1-1.174.959c-7.169-.008-14.338.015-21.506-.018A5.341,5.341,0,0,1,.031,58.744C.009,58.462,0,58.178,0,57.895Q0,45.539,0,33.182a5.421,5.421,0,0,1,3.954-5.7c.429-.154.3-.423.3-.666q.013-6.538.006-13.075c0-1.7,0-3.4,0-5.1A2.711,2.711,0,0,1,7.138,5.725c2.114-.015,4.227-.017,6.341.007.454.005.615-.11.581-.576-.041-.564.032-1.136-.017-1.7A3.053,3.053,0,0,1,16.156,0H50.283a3.138,3.138,0,0,1,2.163,3.424c-.063,4.347-.025,8.7-.017,13.045,0,.6-.071,1.137-.747,1.353a1,1,0,0,1-1.395-.834,4.387,4.387,0,0,1-.078-1.1q0-6.075,0-12.15c0-.261,0-.522-.013-.784a.722.722,0,0,0-.779-.774c-.413-.015-.827.006-1.241-.021-.261.025-.522.017-.784.017H17.728c-1.442,0-1.5.054-1.49,1.521.02,2.1-.29,1.845,1.826,1.848,7.209.01,14.418,0,21.626.008A3,3,0,0,1,42.9,8.6c.016.261.01.523.01.784q0,4.9,0,9.8a2.008,2.008,0,0,0,.108.961c.214.264.514.2.79.2,1.653-.008,3.306.027,4.959-.02a20.85,20.85,0,0,1,3.569.174,4.4,4.4,0,0,1,4.352,4.718q0,5.653,0,11.305a.684.684,0,0,0,.4.76A6.4,6.4,0,0,1,60.8,43.262c.036,5.663.057,11.328-.005,16.991a6.56,6.56,0,0,1-6.9,6.7c-5.293,0-10.586-.061-15.878.024-3.245.052-5.638-1.152-7.094-4.092A1.281,1.281,0,0,1,30.5,62.1a9.017,9.017,0,0,1-.28-2.133c-.016-5.446-.03-10.892,0-16.338a6.883,6.883,0,0,1,3.042-6.041,6.721,6.721,0,0,1,3.806-1.157c5.5-.009,11.006.027,16.509-.021.905-.008.944-.044.945-.969,0-3.263-.045-6.527.018-9.789.039-1.988-.835-3.089-2.927-2.966-5.489.019-10.978.037-16.467-.01a3.491,3.491,0,0,0-3.62,2.319c-.183.442-.42.861-.634,1.29a5.187,5.187,0,0,1-4.974,3.078q-9.672.005-19.343,0a8.761,8.761,0,0,0-1.754.156,3.183,3.183,0,0,0-2.579,2.7,11.652,11.652,0,0,0-.14,1.821Q2.11,45.6,2.1,57.171a10.769,10.769,0,0,0,.11,1.562,3.216,3.216,0,0,0,3.418,2.916q10.227.01,20.454,0a3.962,3.962,0,0,1,1.3.115.9.9,0,0,1,.7,1.117" transform="translate(0)"/>
    <path id="Trazado_162726" data-name="Trazado 162726" d="M37.312,168.8c-.194-.82-.449-1.006-1.4-1.006q-10.457,0-20.914.007a3.737,3.737,0,0,1-2.7-.944,3.77,3.77,0,0,1-1.117-2.957q.017-8.955.005-17.91c0-2.309,0-4.619,0-6.928.005-2.534,1.393-3.928,3.915-3.928,6.514,0,13.028-.026,19.542.012,2.679.015,4.624-1.085,5.556-3.591.892-2.4,2.449-3.283,5-3.206,4.941.15,9.889.043,14.835.045.261,0,.521.018.782.028a2.235,2.235,0,0,1,.95,1.5,4.133,4.133,0,0,1,.178,1.29q0,5.132,0,10.264c0,.96-.04.988-.985.988q-7.027,0-14.055,0a2.416,2.416,0,0,0-.715.036,7.538,7.538,0,0,0-3.545,1.073,5.206,5.206,0,0,1-.742.24,5.5,5.5,0,0,0-4.276,5.421c-.044,5.643-.019,11.286-.008,16.929a6.054,6.054,0,0,0,.329,1.86,1.215,1.215,0,0,1,.124.759l-.757.017" transform="translate(-9.23 -105.914)" fill="#feca2e"/>
    <path id="Trazado_162727" data-name="Trazado 162727" d="M161.883,240.709a5.164,5.164,0,0,1-.645-2.558c-.014-5.682-.045-11.364.009-17.045a5.625,5.625,0,0,1,4.367-5.551,4.151,4.151,0,0,1,.842-.053,6.914,6.914,0,0,0-2.792,4.118,8.651,8.651,0,0,0-.176,1.817q0,8.173,0,16.346a9.346,9.346,0,0,0,.487,2.945l-2.088-.019" transform="translate(-133.044 -177.842)" fill="#cba124"/>
    <path id="Trazado_162728" data-name="Trazado 162728" d="M254.017,29.769l-9.427.021c-.09,0-.17-.011-.2-.111a1.24,1.24,0,0,1,.927-.217c1.239-.007,2.478.006,3.717-.006.68-.006.756-.073.755-.751-.009-5.631.042-11.261-.025-16.891a.74.74,0,0,1,.1-.559c.413-.008.826-.023,1.238-.021.8,0,1.029.235,1.037,1.06.007.783,0,1.567,0,2.35q0,5.582,0,11.164c0,.973.287,1.263,1.218,1.284-.259.174-.23.439-.225.7s0,.523,0,.784c0,1,0,1,.878,1.194" transform="translate(-201.68 -9.271)" fill="#98e5fb"/>
    <path id="Trazado_162729" data-name="Trazado 162729" d="M63.513,56.787a5.381,5.381,0,0,0-4.546,3.351c-.239.535-.47,1.076-.748,1.592a3.19,3.19,0,0,1-2.706,1.783c-.239.018-.479.026-.718.026q-9.315,0-18.629.011c-.485,0-.654-.088-.652-.624.022-5.949.013-11.9.014-17.847,0-.86.21-1.11.984-1.111q15.524-.006,31.049,0a2,2,0,0,1,.258.033,1.9,1.9,0,0,1,.337,1.3q.023,5.311,0,10.622c0,.784-.069.818-.871.829-1.258.018-2.517-.053-3.774.039" transform="translate(-29.308 -36.283)" fill="#dff7f9"/>
    <path id="Trazado_162730" data-name="Trazado 162730" d="M207.139,247.055q-6.046.011-12.092.022c-1.634,0-3.269.008-4.9,0a4.608,4.608,0,0,1-4.791-4.652q-.075-8.564,0-17.129a4.564,4.564,0,0,1,4.724-4.641c5.6-.021,11.2-.007,16.8-.006.13,0,.26.02.39.03a4.8,4.8,0,0,1,2.4,4.23c.051,4.354.016,8.709.017,13.064q0,2.319,0,4.638a5.532,5.532,0,0,1-1.662,3.924,1.705,1.705,0,0,1-.884.52" transform="translate(-152.932 -182.085)" fill="#fc4b52"/>
    <path id="Trazado_162731" data-name="Trazado 162731" d="M123.7,11.247a5.72,5.72,0,0,1,.134,1.681c0,5.338-.009,10.676.013,16.014,0,.571-.139.748-.725.734-1.633-.038-3.267-.008-4.9-.005-.016-.237-.045-.474-.045-.712,0-3.617-.039-7.234.014-10.85a2.944,2.944,0,0,0-3.162-3.147c-7.6.053-15.206.014-22.81.037-.588,0-.756-.151-.7-.719s.011-1.132.011-1.7c0-1.231.123-1.357,1.327-1.357q13.791,0,27.581,0c1.089,0,2.178.014,3.266.022" transform="translate(-75.518 -9.262)" fill="#dff7f9"/>
    <path id="Trazado_162732" data-name="Trazado 162732" d="M310.2,247.22a5.615,5.615,0,0,0,2.361-4.689q-.042-8.588,0-17.177a5.211,5.211,0,0,0-1.611-3.844c-.214-.215-.414-.445-.62-.668a4.666,4.666,0,0,1,4.453,3.92,9.557,9.557,0,0,1,.067,1.106q.006,8.158,0,16.317a4.7,4.7,0,0,1-3.3,4.843,3.226,3.226,0,0,1-1.345.191" transform="translate(-255.996 -182.25)" fill="#c93c41"/>
    <path id="Trazado_162733" data-name="Trazado 162733" d="M211.486,142.792c.233-.182.5-.1.757-.1,4.678-.006,9.356-.014,14.034.009.59,0,.775-.142.769-.755-.031-3.242-.043-6.485,0-9.727a5.525,5.525,0,0,0-.931-3.511c2.139-.15,3.141.77,3.141,2.885,0,3.5-.018,7.007.016,10.509.006.621-.182.716-.753.714-5.439-.022-10.878-.01-16.317-.009-.239,0-.478-.012-.716-.019" transform="translate(-174.529 -106.206)" fill="#cba124"/>
    <path id="Trazado_162734" data-name="Trazado 162734" d="M195.736,56.8a11.963,11.963,0,0,1,2.517-.106c.6-.041,1.382.253,1.769-.112.421-.4.141-1.194.145-1.814.017-2.394.009-4.787.006-7.181a23.058,23.058,0,0,0-.131-3.574c.39-.012.78-.036,1.17-.032.765.007,1.008.246,1.013,1.021.009,1.458,0,2.915,0,4.373,0,2.284-.011,4.568.009,6.853,0,.438-.087.6-.566.594-1.979-.031-3.958-.018-5.937-.021" transform="translate(-161.531 -36.291)" fill="#c7eefc"/>
    <path id="Trazado_162735" data-name="Trazado 162735" d="M42.728,209.427c2.264,0,4.529-.005,6.793,0a2.629,2.629,0,0,1,2.862,2.891c0,.566.009,1.133,0,1.7a2.6,2.6,0,0,1-2.657,2.715q-7.054.033-14.109,0A2.548,2.548,0,0,1,33,214.125c-.023-.718-.025-1.438,0-2.155a2.523,2.523,0,0,1,2.6-2.535c2.373-.019,4.746-.005,7.12-.005Z" transform="translate(-27.222 -172.828)"/>
    <path id="Trazado_162736" data-name="Trazado 162736" d="M60.716,69.021c-1.046,0-2.092.012-3.137,0a2.751,2.751,0,0,1-.015-5.5q3.17-.033,6.34,0a2.75,2.75,0,0,1-.05,5.5c-1.046.013-2.092,0-3.137,0" transform="translate(-45.264 -52.404)"/>
    <path id="Trazado_162737" data-name="Trazado 162737" d="M63.649,128.522q3.624,0,7.248,0a4.76,4.76,0,0,1,.652.021.958.958,0,0,1,.141,1.863,2.606,2.606,0,0,1-.707.074q-7.346.006-14.692,0a2.8,2.8,0,0,1-.585-.029.909.909,0,0,1-.81-1.014.892.892,0,0,1,.918-.907c.195-.015.391-.01.587-.01h7.248" transform="translate(-45.301 -106.062)" fill="#000101"/>
    <path id="Trazado_162738" data-name="Trazado 162738" d="M140.067,73.734q2.972,0,5.945,0a1.09,1.09,0,0,1,1.064.492.945.945,0,0,1-.571,1.4,2.784,2.784,0,0,1-.712.065q-5.781.006-11.563,0c-.131,0-.262,0-.392-.009a.97.97,0,0,1-1-.989.941.941,0,0,1,1.019-.956c.979-.023,1.96-.007,2.94-.008h3.266" transform="translate(-109.628 -60.845)" fill="#010101"/>
    <path id="Trazado_162739" data-name="Trazado 162739" d="M102.154,107.527c-1.263,0-2.526,0-3.789,0-.757,0-1.211-.383-1.206-.984s.466-.973,1.222-.974q3.822-.006,7.643,0c.765,0,1.217.36,1.232.958.016.629-.437,1-1.248,1-1.285,0-2.57,0-3.854,0" transform="translate(-80.181 -87.117)"/>
    <path id="Trazado_162740" data-name="Trazado 162740" d="M57.239,107.477c-.478,0-.958.02-1.435-.006a.971.971,0,0,1-.009-1.94c.934-.03,1.871-.028,2.8,0a.972.972,0,1,1,.009,1.944c-.455.023-.913,0-1.37,0" transform="translate(-45.279 -87.072)" fill="#010101"/>
    <path id="Trazado_162741" data-name="Trazado 162741" d="M224.676,241.634c0,.827.011,1.655-.005,2.482-.006.309.094.426.41.418a5,5,0,0,1,1.493.1,3.368,3.368,0,0,1,1.851,5.152q-2.6,3.436-5.4,6.719a3.434,3.434,0,0,1-5.284-.086c-1.782-2.141-3.512-4.326-5.235-6.515a3.377,3.377,0,0,1,2.611-5.373c1.07-.028,1.07-.038,1.07-1.119,0-1.35-.006-2.7,0-4.05a2.247,2.247,0,0,1,2.4-2.415c1.241-.015,2.482-.018,3.723,0a2.256,2.256,0,0,1,2.358,2.4c.01.762,0,1.524,0,2.286" transform="translate(-174.797 -195.531)"/>
    <path id="Trazado_162742" data-name="Trazado 162742" d="M44.678,223.961c-.367-.062-.413-.348-.418-.636-.012-.652-.009-1.3,0-1.956a.642.642,0,0,1,.738-.706q6.518.017,13.035.028c.354.466.2,1.009.21,1.518.019,1.8.008,1.8-1.8,1.8q-5.525,0-11.049,0a1.8,1.8,0,0,1-.711-.048" transform="translate(-36.519 -182.102)" fill="#e9f5fe"/>
    <path id="Trazado_162743" data-name="Trazado 162743" d="M46.688,223.91l12.51-.018c.848,0,.849,0,.848-.841q0-1.206,0-2.411c1.649-.114,1.676-.079,1.689,1.57.015,1.824.058,1.806-1.772,1.8-4.217-.01-8.433,0-12.65,0-.208,0-.437.075-.623-.1" transform="translate(-38.529 -182.051)" fill="#c6edfc"/>
    <path id="Trazado_162744" data-name="Trazado 162744" d="M72.186,76.353l-5.162.024c-.512,0-.853-.228-.869-.759-.017-.566.325-.827.869-.826,1.721,0,3.442.014,5.162.022a1.131,1.131,0,0,1,0,1.539" transform="translate(-54.594 -61.722)" fill="#a7e446"/>
    <path id="Trazado_162745" data-name="Trazado 162745" d="M100.671,76.351a2.727,2.727,0,0,0,0-1.539c.346-.006.694-.038,1.038-.014a.739.739,0,0,1,.745.818.728.728,0,0,1-.744.751c-.345.018-.692-.009-1.038-.016" transform="translate(-83.079 -61.72)" fill="#85b638"/>
    <path id="Trazado_162746" data-name="Trazado 162746" d="M228.682,264.436q-2.1-2.574-4.192-5.149-.514-.632-1.02-1.271a1.332,1.332,0,0,1-.15-1.469,1.262,1.262,0,0,1,1.222-.814c.587,0,1.174.005,1.761-.005.881-.016,1.217-.355,1.219-1.235,0-1.892.017-3.784-.009-5.675-.007-.51.148-.716.666-.679.562.04,1.127.032,1.691.045a1.2,1.2,0,0,1,.2.867c.005,1.369,0,2.739,0,4.108.007,1.091.2,1.292,1.265,1.374.279.021.578,0,.733.316.212.986,1.024.846,1.723.917a2.116,2.116,0,0,1,.284,2.517,6.931,6.931,0,0,1-.919,1.261c-1.151,1.386-2.282,2.788-3.425,4.18a1.8,1.8,0,0,1-1.054.712" transform="translate(-184.169 -204.773)" fill="#a7e446"/>
    <path id="Trazado_162747" data-name="Trazado 162747" d="M254.725,300.324c1.521-1.206,2.5-2.889,3.782-4.306.318-.351.577-.755.9-1.1a2.551,2.551,0,0,0,.433-3.262c.433-.01.868-.049,1.3-.026a1.378,1.378,0,0,1,1.083,2.182q-2.557,3.293-5.216,6.5a1.478,1.478,0,0,1-2.28.009" transform="translate(-210.212 -240.661)" fill="#85b638"/>
    <path id="Trazado_162748" data-name="Trazado 162748" d="M263.731,254.871a1.541,1.541,0,0,0-.887-.12c-.978-.011-1.31-.344-1.312-1.34q0-2.6,0-5.205c.539-.013,1.079-.012,1.618-.042.448-.025.609.156.6.607-.02,2.034-.016,4.068-.021,6.1" transform="translate(-215.827 -204.795)" fill="#85b638"/>
  </g>
</svg>
