<svg xmlns="http://www.w3.org/2000/svg" xmlns:xlink="http://www.w3.org/1999/xlink" width="525" height="224" viewBox="0 0 525 224">
  <defs>
    <clipPath id="clip-path">
      <rect id="Rectángulo_89033" data-name="Rectángulo 89033" width="93.557" height="104.992" fill="none"/>
    </clipPath>
  </defs>
  <g id="Grupo_146848" data-name="Grupo 146848" transform="translate(-790 -386)">
    <rect id="Image_Place_Holder" data-name="Image Place Holder" width="525" height="224" transform="translate(790 386)" fill="#d9eaea"/>
    <g id="Grupo_146824" data-name="Grupo 146824" transform="translate(1100.722 446)">
      <g id="Grupo_146825" data-name="Grupo 146825" clip-path="url(#clip-path)">
        <path id="Trazado_219708" data-name="Trazado 219708" d="M32.769,83.982a1.712,1.712,0,0,1-1.33-1.915c.018-.949,0-1.9,0-3.013-2.09,1.2-4.052,2.34-6.027,3.455-2.49,1.406-5.18,1.74-7.608.26-1.63-.994-2.686-.777-4.269-.024A9.542,9.542,0,0,1,.934,78.006a9.673,9.673,0,0,1,4.33-12.7,1.121,1.121,0,0,0,.766-1.343,7.906,7.906,0,0,1,4.015-7.93c1.943-1.194,3.946-2.29,5.925-3.432-.087-.4-.437-.436-.68-.579-1.735-1.017-3.5-1.978-5.214-3.034a7.987,7.987,0,0,1-4.024-8.219c.068-.608-.153-.749-.575-.963a9.663,9.663,0,0,1,2.142-18.15,9.356,9.356,0,0,1,7.436,1.368.924.924,0,0,0,1.293.007,7.928,7.928,0,0,1,9.037-.554c1.992,1.093,3.944,2.257,6.057,3.473,0-2.092.038-4.026-.008-5.958-.1-4.057,1.461-7.086,5.319-8.7.594-.248.367-.658.356-1.018a9.529,9.529,0,0,1,4.763-8.919A7.752,7.752,0,0,1,45.116.185c.324-.207.732.062,1.049-.185h1.846A17.526,17.526,0,0,1,50.89.916a9.51,9.51,0,0,1,5.536,9.263,1.116,1.116,0,0,0,.756,1.287A7.991,7.991,0,0,1,62.1,19.072c.053,1.911.01,3.825.01,5.738v1.139c1.821-1.05,3.52-1.971,5.161-2.987,3.462-2.142,6.856-2.277,10.176.249.46.35.662.04.958-.145a9.617,9.617,0,0,1,10.456-.257c1.238.693,1.394,1.315.806,2.618a1.586,1.586,0,0,1-2.316.344,8.642,8.642,0,0,0-2.792-.948,1,1,0,0,0-1.211.655,6.335,6.335,0,0,0,4.918,8.875,1.147,1.147,0,0,0,1.378-.779,8.383,8.383,0,0,0,.562-2.894c.039-1.18.48-1.659,1.494-1.781,1.349.12,1.832.6,1.824,1.935a9.54,9.54,0,0,1-5.32,8.9c-.546.295-.755.489-.687,1.189a7.881,7.881,0,0,1-3.835,7.919C81.7,50.1,79.634,51.22,77.6,52.4c.029.369.356.392.569.517,1.706,1,3.429,1.969,5.127,2.98a8.027,8.027,0,0,1,4.193,8.419c-.072.6.224.681.582.864a9.671,9.671,0,0,1-2.119,18.16,9.274,9.274,0,0,1-7.516-1.42.86.86,0,0,0-1.212.034,7.972,7.972,0,0,1-9.126.528c-1.957-1.089-3.885-2.228-5.984-3.436,0,2.015-.013,3.875,0,5.734a10.554,10.554,0,0,1-.738,4.606,7.764,7.764,0,0,1-4.189,4.138,1.081,1.081,0,0,0-.768,1.28,9.657,9.657,0,1,1-19.291.117,1.251,1.251,0,0,0-.933-1.481,7.274,7.274,0,0,1-3.32-2.8c-.728-1.07-.63-1.652.391-2.548.823-.506,1.455-.395,2.181.454a8.9,8.9,0,0,0,1.571,1.58c.587.415,1,.392,1.429-.242a8.513,8.513,0,0,1,2.174-2.4A9.877,9.877,0,0,1,54.8,89.4c.949,1.218,1.245,1.229,2.4.16a5.2,5.2,0,0,0,1.585-3.878c.063-2.937.036-5.876.012-8.814-.014-1.7-1.331-2.521-2.421-3.481a.506.506,0,0,0-.663.07,14.262,14.262,0,0,0-1.535,1.5c-.342.373-.159.72.151.974a3.587,3.587,0,0,1,1.154,3.234c-.052,1.125-.008,2.254-.013,3.382a3.521,3.521,0,0,1-.156,1.213,1.838,1.838,0,0,1-1.869,1.3,1.8,1.8,0,0,1-1.572-1.642c-.252-1.673-.257-1.716-1.986-1.529a27.019,27.019,0,0,1-7.14-.125c-.815-.128-1.043.226-1.019.953.038,1.121-.268,2.038-1.507,2.349-1.3-.073-2-.656-2.08-1.906-.108-1.77-.071-3.547-.012-5.321A2.47,2.47,0,0,1,39.1,76.1c.541-.487.576-.883.039-1.442-1.682-1.752-1.648-1.757-3.357,0a3.411,3.411,0,0,0-1.032,2.572c.027,1.706.057,3.413-.014,5.118-.056,1.354-.675,1.834-1.964,1.638" transform="translate(0)"/>
        <path id="Trazado_219709" data-name="Trazado 219709" d="M165.666,0a1.172,1.172,0,0,1-1.049.185A.144.144,0,0,0,164.641,0Z" transform="translate(-119.501)" fill="#545454"/>
        <path id="Trazado_219710" data-name="Trazado 219710" d="M119.567,277c1.352-.153,1.735-.552,1.746-1.875.013-1.637.061-3.278-.016-4.911a3.127,3.127,0,0,1,1.175-2.783c.627-.516,1.195-1.544,1.786-1.542s1.2.985,1.779,1.556c.964.947.979.975-.027,1.937a2.487,2.487,0,0,0-.826,1.994c.038,1.534,0,3.07.015,4.6.013,1.262.478,1.727,1.786,1.854.561.924.32,1.963.419,2.953a11.135,11.135,0,0,0-2.2,2.666c-.235.444-.474.47-.892.262a5.066,5.066,0,0,1-2.072-1.772,1.682,1.682,0,0,0-2.169-.827,11.024,11.024,0,0,1-.285-3.079c0-.359.073-.737-.218-1.037" transform="translate(-86.798 -193.02)" fill="#636363"/>
        <path id="Trazado_219711" data-name="Trazado 219711" d="M310.219,93.737a1.742,1.742,0,0,0-1.251,1.977,7.221,7.221,0,0,1-.51,2.8c-.292.9-.853,1.086-1.717.969a6.672,6.672,0,0,1-5.072-9.464,1.027,1.027,0,0,1,1.278-.668,7.033,7.033,0,0,1,2.883.964,1.843,1.843,0,0,0,2.356-.045,7.806,7.806,0,0,1,2.034,3.472" transform="translate(-218.513 -64.839)" fill="#796d78"/>
        <path id="Trazado_219712" data-name="Trazado 219712" d="M101.881,97.141A25.112,25.112,0,0,1,116,96.8a27.386,27.386,0,0,1,4.148,1.436c.487.206.526.385.343.9a75.106,75.106,0,0,0-2.017,7.28,4,4,0,0,0,.113,2.223c.143.437.019.609-.358.77-1.755.75-3.507,1.5-5.248,2.286a1.309,1.309,0,0,1-1.155-.152q-6.453-2.717-12.907-5.429c-2.188-.919-3.584-.362-4.507,1.811q-1.9,4.469-3.779,8.945c-1.06,2.515-1.057,2.516.159,4.939a28.149,28.149,0,0,1-4.284-1.111,4.013,4.013,0,0,1-.006-2.1,27.771,27.771,0,0,1,8.253-16.609,20.66,20.66,0,0,1,7.128-4.839" transform="translate(-62.689 -69.655)" fill="#db8658"/>
        <path id="Trazado_219713" data-name="Trazado 219713" d="M93.732,202.225c3.3.064,5.409-1.582,5.794-4.512.214-1.63-.433-3.09-2.058-4.641.373-.187.662.083.958.207,4.056,1.7,8.1,3.418,12.162,5.107a2.115,2.115,0,0,1,1.251,1.218c1.289,3.045,2.619,6.072,3.957,9.1a1.523,1.523,0,0,1,.005,1.34,4.851,4.851,0,0,0,1.041,5.654c.807.828,1.668,1.6,2.678,2.569a26.04,26.04,0,0,1-10.136.055c.989-1.006,1.884-1.867,2.725-2.779a4.978,4.978,0,0,0-2.353-8.249,4.867,4.867,0,0,0-4.894,1.339l-4.378,4.3c-.411.124-.64-.174-.871-.408a28.426,28.426,0,0,1-6.247-9.289c-.344-.841-.311-.865.365-1.007" transform="translate(-67.622 -140.111)" fill="#db8658"/>
        <path id="Trazado_219714" data-name="Trazado 219714" d="M221.182,128.9a25.242,25.242,0,0,1,4.708,7.783A26.285,26.285,0,0,1,217,167.143c-.545.4-.787.456-1.245-.154a16.4,16.4,0,0,0-2.263-2.361c-.72-.639-.5-.864.26-1.165,1.458-.574,2.886-1.224,4.32-1.858,1.979-.874,2.561-2.341,1.724-4.322-.358-.847-.712-1.7-1.112-2.526-.221-.458-.222-.761.331-.9.033-.008.064-.023.1-.034,2.96-1.044,3.642-2.6,2.168-5.72-1.7-3.6-3.2-7.3-4.809-10.952-.289-.653-.42-1,.5-1.273a4.833,4.833,0,0,0,3.33-3.7c.276-1.041.561-2.079.885-3.275" transform="translate(-154.661 -93.575)" fill="#db8658"/>
        <path id="Trazado_219715" data-name="Trazado 219715" d="M183.138,198.264c.1.317-.178.322-.341.394-1.931.851-3.867,1.692-5.8,2.54a.833.833,0,0,1-.853-.108,4.8,4.8,0,0,0-3.839-.556c-.457.116-.6-.027-.753-.385q-2.489-5.766-5-11.523c-.164-.374-.118-.531.246-.687q4.784-2.059,9.556-4.145c.328-.144.466-.09.6.23q3.039,7.031,6.095,14.055c.027.062.058.123.088.184" transform="translate(-120.839 -133.368)" fill="#f4f7f8"/>
        <path id="Trazado_219716" data-name="Trazado 219716" d="M126.427,147.836c-1.7,1.365-1.964,2.423-1.168,4.3.36.846.69,1.707,1.1,2.529.217.434.093.6-.293.755-.474.188-.939.4-1.405.61a2.639,2.639,0,0,0-1.641,1.957c-.106.553-.252.657-.8.423q-5.4-2.318-10.824-4.565c-.443-.184-.551-.339-.344-.819q2-4.644,3.93-9.319c.173-.417.3-.578.795-.366,3.5,1.5,7.011,2.968,10.647,4.5" transform="translate(-80.545 -103.986)" fill="#d7ebfd"/>
        <path id="Trazado_219717" data-name="Trazado 219717" d="M43.221,217.544a10.6,10.6,0,0,0-1.368-6.888,9.545,9.545,0,0,0-7.912-4.556c-.751-.038-1.01-.226-1-.987a4.888,4.888,0,0,1,2.351-4.4c2.856-1.736,5.777-3.363,8.662-5.051.791-.463,1.519-.105,2.265.092,2.025.536,2.025.538,1.51,2.523-.025.1-.044.2-.07.3-.373,1.4-.38,1.423-1.781,1.085a1.883,1.883,0,0,0-1.465.217c-1.388.8-2.784,1.591-4.158,2.416a1.53,1.53,0,0,0-.769,2.144,1.58,1.58,0,0,0,2.3.5c1.317-.677,1.325-.68,1.9.722a31.758,31.758,0,0,0,5.478,8.585c.093.355-.187.5-.405.629a45.873,45.873,0,0,1-4.66,2.578.981.981,0,0,1-.884.085" transform="translate(-23.913 -141.876)" fill="#727997"/>
        <path id="Trazado_219718" data-name="Trazado 219718" d="M233.223,108.574a30.6,30.6,0,0,0-5.452-9.99c-.289-.341-.182-.5.154-.675a14.358,14.358,0,0,0,1.5-.877,1.474,1.474,0,0,0,.439-2.074,1.4,1.4,0,0,0-1.96-.549c-1.7.937-3.381,1.92-5.053,2.912-.657.389-.722,1.122-.878,1.781-.1.434-.287.667-.766.444-.152-.07-.332-.079-.492-.135-.859-.3-2.333-.2-2.475-.85-.206-.947.411-2.085.724-3.127a1.737,1.737,0,0,1,.934-.906c2.721-1.564,5.433-3.144,8.159-4.7a4.992,4.992,0,0,1,5.514.169c.386.247.551.431.281.959-2.834,5.549-.887,11.119,4.79,13.815a1.405,1.405,0,0,1,.171.113c.222.3.039.539-.176.69a35.487,35.487,0,0,1-5.226,3.05c-.053.025-.127-.017-.189-.051" transform="translate(-158.399 -64.667)" fill="#feca2e"/>
        <path id="Trazado_219719" data-name="Trazado 219719" d="M147.047,280.576c-.64-.913-.274-1.969-.418-2.953,1.161-.311,1.33-1.171,1.3-2.211-.043-1.33-.009-1.323,1.308-1.129a26.151,26.151,0,0,0,8.164-.042c.837-.14,1.327-.058,1.14.958a3.585,3.585,0,0,0,0,.819,1.529,1.529,0,1,0,3.055.038c.04-1.81.018-3.622,0-5.433a1.644,1.644,0,0,0-.62-1.248c-.414-.357-.845-.693-1.362-1.115.941-.9,1.721-1.615,2.467-2.366.323-.326.583-.453.89-.018a.693.693,0,0,0,.073.072c2.894,2.99,2.4,1.724,2.438,5.633.022,2.358.026,4.716,0,7.074a5.115,5.115,0,0,1-2.9,4.813c-.413.214-.69.292-.983-.228a9.714,9.714,0,0,0-14.543-2.663" transform="translate(-106.443 -192.806)" fill="#afafaf"/>
        <path id="Trazado_219720" data-name="Trazado 219720" d="M47.766,104.819a9.744,9.744,0,0,0,6.014-6.992,9.278,9.278,0,0,0-.986-6.813c-.314-.556-.241-.812.263-1.122a4.826,4.826,0,0,1,4.962-.37c2.173,1.121,4.261,2.408,6.455,3.664a37.927,37.927,0,0,0-3.564,3.033c-.983.991-1.051,1.38-.4,2.592a10.6,10.6,0,0,1-2.36,3.143c-1.348-.288-1.72-.1-2.4,1.07a39.044,39.044,0,0,0-2.387,5.494.553.553,0,0,1-.572-.076c-1.5-.847-3.007-1.678-4.447-2.623-.335-.22-.832-.411-.582-1" transform="translate(-34.626 -64.606)" fill="#b2c5c7"/>
        <path id="Trazado_219721" data-name="Trazado 219721" d="M146.228,54.838a9.7,9.7,0,0,0,10.21,1.265,8.913,8.913,0,0,0,4.205-3.753c.376-.648.72-.656,1.286-.329a4.879,4.879,0,0,1,2.673,4.107c.109,2.407.027,4.824.027,7.355a35.745,35.745,0,0,0-5.362-1.827,29.106,29.106,0,0,0-12.18-.321c-.266.051-.541.056-.812.083-.645.191-.693-.317-.711-.694a39.511,39.511,0,0,1,.015-4.871c.031-.415.082-.9.65-1.017" transform="translate(-105.62 -37.61)" fill="#fc4b52"/>
        <path id="Trazado_219722" data-name="Trazado 219722" d="M249.163,218.536a30.75,30.75,0,0,0,6.664-12.068,44.929,44.929,0,0,0,.994-5.138c2.27,1.347,4.521,2.563,6.635,3.981a4.679,4.679,0,0,1,1.929,4.2c-.008.653-.22.842-.9.865a9.657,9.657,0,0,0-9.274,7.675,13.758,13.758,0,0,0-.1,3.77.636.636,0,0,1-.592.017,32.587,32.587,0,0,1-5.184-2.862.358.358,0,0,1-.172-.437" transform="translate(-180.86 -146.153)" fill="#a7e446"/>
        <path id="Trazado_219723" data-name="Trazado 219723" d="M78.4,110.151a16.739,16.739,0,0,1,2.36-3.143c1.26.621,1.564.575,2.6-.442a25.777,25.777,0,0,1,10.114-6.151,5.36,5.36,0,0,1,.59-.125,46.1,46.1,0,0,0-5.923,4.108,27.927,27.927,0,0,0-5.351,6.36,28.255,28.255,0,0,0-3.874,10.964,9.08,9.08,0,0,1-.227,2.117,11.761,11.761,0,0,0-2.178-.467c-1.068-.032-.964-.642-.862-1.343a26.251,26.251,0,0,1,3.059-9.327,1.836,1.836,0,0,0-.312-2.551" transform="translate(-54.873 -72.804)" fill="#c47944"/>
        <path id="Trazado_219724" data-name="Trazado 219724" d="M190.18,168.64c-.246.52-.852.519-1.285.77s-.51-.091-.637-.384c-.581-1.344-1.174-2.683-1.76-4.025-.6-1.373-1.176-2.757-1.8-4.119a2.855,2.855,0,0,0-4.046-1.583c-1.7.711-3.386,1.438-5.055,2.209-.585.27-.887.257-1.117-.416-.3-.867-1.157-1.865-.926-2.5.221-.607,1.517-.836,2.354-1.2,2.4-1.052,4.814-2.081,7.212-3.142.428-.189.679-.3.922.267,1.97,4.6,3.973,9.19,5.967,13.782.041.093.091.183.171.342" transform="translate(-125.96 -111.862)" fill="#f4f7f8"/>
        <path id="Trazado_219725" data-name="Trazado 219725" d="M155.489,18.467A6.879,6.879,0,0,1,150,15.544a.987.987,0,0,1-.047-1.278,6.636,6.636,0,0,1,11.055,0,.94.94,0,0,1,0,1.19,6.8,6.8,0,0,1-5.525,3.01" transform="translate(-108.704 -8.206)" fill="#796d78"/>
        <path id="Trazado_219726" data-name="Trazado 219726" d="M155.428,353.015a6.738,6.738,0,0,1-5.5-3.02.93.93,0,0,1-.01-1.193,6.673,6.673,0,0,1,11.018-.07,1.032,1.032,0,0,1-.014,1.362,6.79,6.79,0,0,1-5.5,2.92" transform="translate(-108.68 -251.072)" fill="#796d78"/>
        <path id="Trazado_219727" data-name="Trazado 219727" d="M308.915,260.259a6.676,6.676,0,0,1-6.328,6.544.846.846,0,0,1-.878-.522c-2.3-3.982.755-9.483,5.355-9.677a1.1,1.1,0,0,1,1.238.78,7.129,7.129,0,0,1,.612,2.874" transform="translate(-218.454 -186.277)" fill="#796d78"/>
        <path id="Trazado_219728" data-name="Trazado 219728" d="M19.275,92.863a6.768,6.768,0,0,1-5.764,6.569,1.383,1.383,0,0,1-1.715-.976,6.682,6.682,0,0,1,5.87-9.2.834.834,0,0,1,.851.566,7.176,7.176,0,0,1,.758,3.047" transform="translate(-8.201 -64.79)" fill="#796d78"/>
        <path id="Trazado_219729" data-name="Trazado 219729" d="M11.3,260.175a7.617,7.617,0,0,1,.472-2.494,1.372,1.372,0,0,1,1.76-1.058,6.687,6.687,0,0,1,5.079,9.454,1.042,1.042,0,0,1-1.269.681,6.629,6.629,0,0,1-6.042-6.583" transform="translate(-8.199 -186.27)" fill="#796d78"/>
        <path id="Trazado_219730" data-name="Trazado 219730" d="M132.011,54.789a2.431,2.431,0,0,0-.393,1.534c.008,1.389,0,2.779.005,4.168,0,.355-.111.784.433.878a41.528,41.528,0,0,0-6.118,2.071c0-2.518-.079-4.9.025-7.269a4.9,4.9,0,0,1,2.776-4.24c.488-.264.822-.326,1.132.282a10.374,10.374,0,0,0,2.14,2.575" transform="translate(-91.402 -37.561)" fill="#c93c41"/>
        <path id="Trazado_219731" data-name="Trazado 219731" d="M66.829,267.376a30.1,30.1,0,0,0,5.95-3.292,46.531,46.531,0,0,0,4.607,4.043c-2.288,1.3-4.408,2.6-6.622,3.716a4.682,4.682,0,0,1-4.936-.53c-.33-.221-.5-.42-.244-.82a12.915,12.915,0,0,0,1.245-3.117" transform="translate(-47.521 -191.708)" fill="#516379"/>
        <path id="Trazado_219732" data-name="Trazado 219732" d="M236.948,264.109a30.318,30.318,0,0,0,5.947,3.282,12.892,12.892,0,0,0,1.281,3.206c.307.468-.085.6-.346.773a4.641,4.641,0,0,1-4.843.5c-2.24-1.121-4.381-2.441-6.672-3.737a41.436,41.436,0,0,0,4.633-4.026" transform="translate(-168.646 -191.726)" fill="#85b638"/>
        <path id="Trazado_219733" data-name="Trazado 219733" d="M37.076,146.728c.347.876,1.234,1.1,1.923,1.537,1.2.764,2.449,1.445,3.677,2.161a43.059,43.059,0,0,0-1.09,5.721c-.409.1-.64-.2-.912-.356-1.717-.976-3.441-1.941-5.133-2.96a5.041,5.041,0,0,1-2.568-4.687c.009-.566.122-.882.8-.845a10.959,10.959,0,0,0,3.3-.572" transform="translate(-23.935 -106.515)" fill="#869495"/>
        <path id="Trazado_219734" data-name="Trazado 219734" d="M273.016,150.437q2.48-1.483,4.96-2.966c.286-.172.627-.3.631-.722a11.594,11.594,0,0,0,3.508.579c.574-.033.57.34.588.729a4.731,4.731,0,0,1-2.061,4.43c-2.069,1.361-4.257,2.54-6.508,3.864a43.71,43.71,0,0,0-1.117-5.913" transform="translate(-198.192 -106.53)" fill="#cba124"/>
        <path id="Trazado_219735" data-name="Trazado 219735" d="M84.762,223.935c-.357.053-.434.2-.29.56a27.083,27.083,0,0,0,4.5,7.5,13.714,13.714,0,0,0,2.539,2.643c-.955,1.288-.961,1.295-2.2.315a26.373,26.373,0,0,1-8.264-11.077c-.108-.269-.389-.592-.175-.845.23-.273.57.005.851.078,1.015.265,2.025.549,3.037.826" transform="translate(-58.653 -161.821)" fill="#c47944"/>
        <path id="Trazado_219736" data-name="Trazado 219736" d="M28.074,106.733c4.784-2.152,6.889-5.836,6.354-11.031,2.359,1.673,2.983,5.56,1.326,8.293-1.624,2.681-5.225,3.974-7.681,2.738" transform="translate(-20.38 -69.473)" fill="#ad6b6b"/>
        <path id="Trazado_219737" data-name="Trazado 219737" d="M290.574,246.012a9.947,9.947,0,0,0-6.424,11.063c-2.245-1.487-2.984-5.179-1.582-7.905a6.5,6.5,0,0,1,8.006-3.158" transform="translate(-204.609 -178.298)" fill="#fedece"/>
        <path id="Trazado_219738" data-name="Trazado 219738" d="M34.442,256.9c.152-5.871-1.6-8.907-6.343-11.011,2-1.286,5.759-.091,7.461,2.37,1.908,2.759,1.386,6.791-1.118,8.641" transform="translate(-20.398 -178.12)" fill="#fedece"/>
        <path id="Trazado_219739" data-name="Trazado 219739" d="M283.945,97.162C283.8,102,285.96,105.369,290.4,107.3c-2.251,1.16-5.634.128-7.341-2.215A6.523,6.523,0,0,1,283.7,96.5c.515.062.264.4.243.663" transform="translate(-204.528 -70.052)" fill="#ad6b6b"/>
        <path id="Trazado_219740" data-name="Trazado 219740" d="M147,40.347c4.287,2.992,8.543,3.075,12.8,0-.019,2.168-2.375,4.6-4.909,5.117-3.5.714-6.225-1-7.89-5.119" transform="translate(-106.71 -29.289)" fill="#fedece"/>
        <path id="Trazado_219741" data-name="Trazado 219741" d="M160,328.826c-4.318-3.086-8.545-3.026-12.779.057a6.544,6.544,0,0,1,6.647-5.345c3.1.159,5.871,2.493,6.133,5.287" transform="translate(-106.871 -234.862)" fill="#fedece"/>
        <path id="Trazado_219742" data-name="Trazado 219742" d="M216.287,137.783a1.966,1.966,0,0,1-1.6-.975,1.19,1.19,0,0,1-.14-1.34c.274-.366.69-.015,1.032.063.662.151,1.309.371,1.973.505.721.146.688.48.316.96a2.074,2.074,0,0,1-1.58.788" transform="translate(-155.631 -98.221)" fill="#985c5c"/>
        <path id="Trazado_219743" data-name="Trazado 219743" d="M96.888,205.517c-.489.063-.6-.175-.46-.663q.382-1.322.708-2.66c.11-.45.321-.545.7-.293a1.871,1.871,0,0,1,.915,2.092,1.935,1.935,0,0,1-1.861,1.525" transform="translate(-69.959 -146.468)" fill="#fcdccc"/>
        <path id="Trazado_219744" data-name="Trazado 219744" d="M146.4,255.734a1.8,1.8,0,0,1,1.721,1.4c.15.541.2,1.222-.269,1.5-.374.225-.648-.436-.96-.7a11.863,11.863,0,0,1-1.079-1.076c-.215-.24-.7-.429-.549-.767.174-.393.684-.343,1.137-.36" transform="translate(-105.433 -185.646)" fill="#fbdccc"/>
        <path id="Trazado_219745" data-name="Trazado 219745" d="M185.3,257.516a1.852,1.852,0,0,1,1.387-1.822c.525-.15,1.22-.221,1.512.25.256.414-.421.659-.682.973A11.148,11.148,0,0,1,186.444,258c-.242.221-.453.7-.759.577-.386-.16-.339-.685-.384-1.057" transform="translate(-134.517 -185.535)" fill="#fbdbcc"/>
        <path id="Trazado_219746" data-name="Trazado 219746" d="M289.129,96.414c-.075-.223.022-.51-.243-.663.073-.147.241-.372.333-.245a.815.815,0,0,1-.09.908" transform="translate(-209.713 -69.304)" fill="#835252"/>
        <path id="Trazado_219747" data-name="Trazado 219747" d="M104.453,190.783a.445.445,0,0,1-.586-.261.511.511,0,0,1,.586.261" transform="translate(-75.401 -138.296)" fill="#9c603f"/>
      </g>
    </g>
  </g>
</svg>
