<svg id="Grupo_140651" data-name="Grupo 140651" xmlns="http://www.w3.org/2000/svg" xmlns:xlink="http://www.w3.org/1999/xlink" width="59.292" height="80.5" viewBox="0 0 59.292 80.5">
  <defs>
    <clipPath id="clip-path">
      <rect id="Rectángulo_88908" data-name="Rectángulo 88908" width="59.292" height="80.5" fill="none"/>
    </clipPath>
  </defs>
  <g id="Grupo_140651-2" data-name="Grupo 140651" clip-path="url(#clip-path)">
    <path id="Trazado_214239" data-name="Trazado 214239" d="M58.363,36.27c.855.379,1.071.767.846,1.656A11.158,11.158,0,0,1,54.7,44.5a1.14,1.14,0,0,0-.545,1.083c.019,3.666.011,7.332.01,11,0,2.1-.942,2.762-2.906,1.961v.779c0,6.233-.018,12.465.016,18.7A2.371,2.371,0,0,1,49.784,80.5H1.53A2.377,2.377,0,0,1,0,77.962Q.025,47.472.012,16.983c0-1.888.66-2.547,2.543-2.548,2.985,0,5.97-.007,8.955.007.414,0,.628-.059.758-.535a1.87,1.87,0,0,1,1.988-1.333c2.357-.007,4.713-.018,7.07.01.517.006.63-.141.651-.646A3.572,3.572,0,0,0,21.1,9.263a5.631,5.631,0,0,1,.752-7.835,5.746,5.746,0,0,1,7.835.237,5.621,5.621,0,0,1,.316,7.8c-.854.915-.6,1.856-.657,2.827-.025.455.375.266.585.267,2.3.014,4.609.007,6.913.009a1.93,1.93,0,0,1,2.225,1.541c.168.487.486.312.748.313,2.959.014,5.918.008,8.877.009,1.963,0,2.557.6,2.558,2.6,0,2.174.014,4.348-.01,6.522a.766.766,0,0,0,.618.882,11.186,11.186,0,0,1,6.956,6.772c.372.961.218,1.343-.683,1.857-.847.223-1.282.029-1.649-.848A9.757,9.757,0,0,0,55,29.648,8.421,8.421,0,0,0,45.91,26.72,8.337,8.337,0,0,0,39.488,33.7a8.805,8.805,0,0,0,17.124,3.991,5.3,5.3,0,0,1,.235-.748,1.1,1.1,0,0,1,1.516-.671" transform="translate(0 0)"/>
    <path id="Trazado_214240" data-name="Trazado 214240" d="M205.47,134.829c-.865-.069-1.264.4-1.482,1.184a9.01,9.01,0,1,1-9.392-11.223,8.825,8.825,0,0,1,9.11,5.8,1.382,1.382,0,0,0,1.538,1.036,12.328,12.328,0,0,1,.226,3.2" transform="translate(-147.107 -98.559)" fill="#a7e446"/>
    <path id="Trazado_214241" data-name="Trazado 214241" d="M46.68,99.3c.234-.012.469-.015.7-.037.839-.08,1.5-.115,1.578,1.108a1.549,1.549,0,0,0,1.654,1.295c1.464.033,2.929.029,4.393.011.724-.009,1.055-.478,1.16-1.146a4.621,4.621,0,0,1,3.086,0,1.376,1.376,0,0,0,1.58,1.171c4.191-.025,8.381-.009,12.572-.012,1.6,0,2.146-.463,2.379-2.055.047-.323.173-.384.445-.383,1.624,0,3.248.009,4.871,0,.33,0,.389.147.385.429-.011.864-.016,1.729,0,2.594a.506.506,0,0,1-.408.56,11.135,11.135,0,0,0-5.543,4.181c-.258.365-.579.29-.9.29q-7.5.006-15.008,0c-.209,0-.42-.011-.628.006a1.1,1.1,0,0,0-1.107,1.108,1.118,1.118,0,0,0,.994,1.217,3.871,3.871,0,0,0,.783.027H74.022a1.479,1.479,0,0,1,0,.3c-.329,1.239-.33,1.238-1.632,1.238H59.737c-.262,0-.525,0-.785.018a1.155,1.155,0,0,0-.166,2.277,3.65,3.65,0,0,0,.856.061c4.348,0,8.7.013,13.043-.01.552,0,.75.094.771.7a10.541,10.541,0,0,0,.952,3.946H59.865c-.209,0-.419-.008-.628,0-.832.041-1.376.529-1.361,1.213s.543,1.139,1.4,1.14q7.857.008,15.715-.009a1.481,1.481,0,0,1,1.338.592,7.162,7.162,0,0,0,1.923,1.722,1.162,1.162,0,0,1,.585,1.155c-.02,3.746-.015,7.493-.009,11.239,0,1.69.934,2.355,2.558,1.837.176.228.088.5.088.741.006,4.611-.013,9.222.024,13.833.005.691-.21.81-.83.785-1.2-.05-2.409-.017-3.614-.014-1.062,0-1.29.177-1.62,1.213a3.646,3.646,0,0,1-3.085-.07c-.262-.925-.555-1.143-1.579-1.143q-11.616,0-23.231,0c-.287,0-.574-.016-.861-.025-.355-.4-.253-.891-.254-1.351q-.011-10.874,0-21.748,0-14.29,0-28.579A2.019,2.019,0,0,1,46.68,99.3" transform="translate(-36.662 -78.387)" fill="#def5fc"/>
    <path id="Trazado_214242" data-name="Trazado 214242" d="M34.206,99.326q0,26.555,0,53.111c-1.02.009-2.042,0-3.061.035-.433.016-.561-.151-.51-.546a3.094,3.094,0,0,0,0-.392q0-25.653-.017-51.305c0-.727.122-1.032.92-.955.882.086,1.776.041,2.665.052" transform="translate(-24.188 -78.41)" fill="#c7eefd"/>
    <path id="Trazado_214243" data-name="Trazado 214243" d="M20.869,81.464c-.208.247-.489.12-.732.121-1.754.01-3.508-.007-5.262,0-1.362.007-1.96.6-1.969,1.971-.013,1.912,0,3.824,0,5.735q0,23.885,0,47.77a6.486,6.486,0,0,0,.035.94,1.613,1.613,0,0,0,1.652,1.473c.732.026,1.465.021,2.2.03a1.52,1.52,0,0,1,0,1.679c-1.7.008-3.4,0-5.1.034-.438.008-.554-.169-.511-.556a3.594,3.594,0,0,0,0-.392q0-29.729-.022-59.458c0-.829.235-1,1-.967,1.541.068,3.086.039,4.629.05a.87.87,0,0,1,.183.338c.252.986.252.986,1.243.991.621,0,1.242-.009,1.862.007a1.012,1.012,0,0,1,.794.232" transform="translate(-8.813 -63.07)" fill="#e89a57"/>
    <path id="Trazado_214244" data-name="Trazado 214244" d="M37.966,289.29v-1.68c3.112-.008,6.225-.022,9.338-.024q8.437-.006,16.873,0c.987,0,1.3-.262,1.5-1.213a23.476,23.476,0,0,0,3.085.071,1.4,1.4,0,0,0,1.6,1.156c1.623-.042,3.248-.007,4.871-.013,1.341-.005,1.921-.6,1.923-2q.009-8.49-.008-16.979a1.151,1.151,0,0,1,.552-1.107.71.71,0,0,1,1.173.477,3.686,3.686,0,0,1,.007.55q0,10.022.01,20.044c0,.534-.058.767-.7.766q-19.92-.033-39.84-.017c-.13,0-.261-.016-.391-.024" transform="translate(-29.99 -211.174)" fill="#f5a86c"/>
    <path id="Trazado_214245" data-name="Trazado 214245" d="M87.074,78.247H83.988c-.229-.925-.536-1.171-1.49-1.2-.2-.006-.407-.024-.61-.036a1.134,1.134,0,0,1-.245-.8q-.021-2.18,0-4.359a1.044,1.044,0,0,1,.246-.8l16.578-.027c.76,0,1.52.023,2.278-.009.428-.018.525.144.52.541-.019,1.572-.035,3.145.006,4.716.016.605-.136.791-.768.786-3.929-.031-7.858-.017-11.787-.014-1.05,0-1.317.2-1.644,1.2" transform="translate(-64.483 -56.099)" fill="#f9c500"/>
    <path id="Trazado_214246" data-name="Trazado 214246" d="M226.515,219.888c.716-.14,1.439-.253,2.145-.43.375-.094.518-.058.516.366-.011,3.049-.006,6.1-.006,9.313-.843-.65-1.592-1.195-2.3-1.785a2.157,2.157,0,0,0-1.88-.544c-.46-.037-.422-.417-.428-.7-.04-1.8-.026-3.6-.012-5.4,0-.6.275-.838.881-.78a2.818,2.818,0,0,0,1.087-.042" transform="translate(-177.364 -173.322)" fill="#fa2b3a"/>
    <path id="Trazado_214247" data-name="Trazado 214247" d="M191.153,79.86c1.412,0,2.824.017,4.236-.01.461-.009.639.092.631.6-.03,1.935-.022,3.871,0,5.807,0,.439-.047.726-.588.611a1.1,1.1,0,0,0-.468.015c-.6.144-.7-.159-.682-.675.031-.914.021-1.831.005-2.746-.022-1.289-.6-1.864-1.881-1.869-1.83-.008-3.662-.043-5.491.017-.788.026-.664-.424-.67-.891s-.1-.915.676-.877c1.409.068,2.823.019,4.235.019" transform="translate(-147.111 -63.066)" fill="#f5a86b"/>
    <path id="Trazado_214248" data-name="Trazado 214248" d="M216.611,219.941c-.168.173-.387.126-.591.132-1.135.036-1.135.035-1.135,1.21,0,1.594,0,3.189,0,4.783,0,.275-.1.586.2.795l-2.92,2.159c-.215-.144-.158-.316-.158-.459,0-2.828,0-5.656-.01-8.485,0-.5.061-.72.652-.52a12.159,12.159,0,0,0,3.964.384" transform="translate(-167.46 -173.375)" fill="#e31f2d"/>
    <path id="Trazado_214249" data-name="Trazado 214249" d="M119.537,11.811a3.35,3.35,0,0,1,.307,6.474.74.74,0,0,1-.948-.332,4.692,4.692,0,0,1,.116-5.893c.127-.163.275-.325.525-.249" transform="translate(-93.142 -9.314)" fill="#f9c500"/>
    <path id="Trazado_214250" data-name="Trazado 214250" d="M71.864,71.066q0,2.977,0,5.955c-.81.012-1.621.011-2.43.042-.385.014-.494-.144-.491-.508q.019-2.512,0-5.025c0-.37.111-.511.493-.5.81.031,1.621.025,2.431.033" transform="translate(-54.457 -56.109)" fill="#e6b700"/>
    <path id="Trazado_214251" data-name="Trazado 214251" d="M110.02,11.452a4.538,4.538,0,0,0-.428,6.122.819.819,0,0,0,.735.352,3.286,3.286,0,0,1-3.764-1.122,3.449,3.449,0,0,1-.143-3.959,3.285,3.285,0,0,1,3.6-1.393" transform="translate(-83.625 -8.956)" fill="#e7b700"/>
    <path id="Trazado_214252" data-name="Trazado 214252" d="M41.925,81.47c-1.047,0-2.1-.053-3.139.01-.754.045-1.068-.186-.949-.95a4.138,4.138,0,0,0,.006-.627c1.141-.012,2.283.014,3.421-.049.637-.035.845.188.752.784-.043.276.082.57-.091.832" transform="translate(-29.869 -63.075)" fill="#f3a76b"/>
    <path id="Trazado_214253" data-name="Trazado 214253" d="M117.019,54.612c.208-.013.416-.028.625-.038.335-.016.726-.213.724.439,0,.517-.15.691-.66.646a7.5,7.5,0,0,0-1.406,0c-.543.055-.631-.177-.638-.662-.008-.577.317-.464.653-.431.233.023.468.031.7.045" transform="translate(-91.366 -43.078)" fill="#e3b400"/>
    <path id="Trazado_214254" data-name="Trazado 214254" d="M209.666,158.708a1.278,1.278,0,0,1-.965-.447c-1.053-1.054-2.114-2.1-3.157-3.164a1.135,1.135,0,0,1-.116-1.728,1.206,1.206,0,0,1,1.751.056c.627.592,1.255,1.188,1.824,1.834.447.507.739.587,1.252.029,1.132-1.23,2.346-2.384,3.533-3.563.667-.663,1.321-.74,1.85-.237.559.531.5,1.205-.2,1.907q-2.377,2.391-4.764,4.772a1.475,1.475,0,0,1-1.006.541" transform="translate(-161.999 -119.405)"/>
    <path id="Trazado_214255" data-name="Trazado 214255" d="M110.6,314.448q-4.043,0-8.086,0c-.983,0-1.539-.423-1.549-1.163s.558-1.193,1.525-1.193q8.126,0,16.251,0c1.131,0,1.773.823,1.336,1.7a1.287,1.287,0,0,1-1.312.664c-2.722-.012-5.443-.005-8.165-.005" transform="translate(-79.753 -246.526)"/>
    <path id="Trazado_214256" data-name="Trazado 214256" d="M110.563,210.472q-4.043,0-8.086,0c-.97,0-1.531-.45-1.514-1.193.017-.715.57-1.162,1.482-1.162q8.125-.006,16.251,0c.957,0,1.527.468,1.509,1.21-.017.725-.549,1.144-1.478,1.145q-4.082.006-8.165,0" transform="translate(-79.753 -164.393)"/>
    <path id="Trazado_214257" data-name="Trazado 214257" d="M110.611,241.631q4.043,0,8.086,0c.984,0,1.533.43,1.526,1.177s-.577,1.179-1.546,1.179q-8.085,0-16.171,0a1.369,1.369,0,0,1-1.39-.677,1.1,1.1,0,0,1,.088-1.187,1.322,1.322,0,0,1,1.244-.5c2.721.008,5.443,0,8.164,0" transform="translate(-79.767 -190.867)"/>
    <path id="Trazado_214258" data-name="Trazado 214258" d="M110.509,295.872q-4,0-8.007,0c-.979,0-1.537-.436-1.535-1.172s.572-1.183,1.54-1.184q8.085,0,16.17,0c1.136,0,1.761.686,1.45,1.571-.23.656-.752.792-1.376.79-2.747-.008-5.495,0-8.242,0" transform="translate(-79.756 -231.853)"/>
    <path id="Trazado_214259" data-name="Trazado 214259" d="M110.685,260.192c2.72,0,5.441,0,8.162,0a1.2,1.2,0,0,1,1.265.725,1.115,1.115,0,0,1-.223,1.238,1.333,1.333,0,0,1-1.068.4q-8.241,0-16.48-.005a1.229,1.229,0,0,1-1.369-1.2c.008-.688.542-1.147,1.395-1.15,2.773-.009,5.546,0,8.319,0" transform="translate(-79.76 -205.53)" fill="#010101"/>
    <path id="Trazado_214260" data-name="Trazado 214260" d="M59.679,191.707a1.478,1.478,0,0,1-.488.992c-1.074,1.072-2.135,2.156-3.22,3.216a1.194,1.194,0,0,1-1.965-.007c-.674-.658-1.342-1.322-2-2a1.156,1.156,0,0,1-.081-1.79,1.219,1.219,0,0,1,1.749.126c.44.4.8,1.162,1.305,1.149.549-.014.91-.775,1.363-1.2.478-.446.922-.929,1.4-1.368A1.1,1.1,0,0,1,59,190.674a1.155,1.155,0,0,1,.677,1.033" transform="translate(-40.714 -150.518)"/>
    <path id="Trazado_214261" data-name="Trazado 214261" d="M54.927,144.383a1.193,1.193,0,0,1-.865-.409c-.683-.687-1.377-1.364-2.051-2.061a1.183,1.183,0,1,1,1.648-1.673c.019.018.038.037.058.053.453.383.788,1.164,1.316,1.114.446-.042.832-.73,1.241-1.135.447-.442.878-.9,1.338-1.329a1.173,1.173,0,1,1,1.647,1.664c-1.114,1.145-2.255,2.264-3.383,3.4a1.2,1.2,0,0,1-.947.38" transform="translate(-40.712 -109.432)"/>
    <path id="Trazado_214262" data-name="Trazado 214262" d="M54.966,248.351a1.24,1.24,0,0,1-.955-.456c-.662-.668-1.335-1.324-1.99-2A1.174,1.174,0,0,1,51.9,244.1c.5-.5,1.152-.431,1.8.13.458.4.782,1.222,1.361,1.127.484-.08.867-.772,1.293-1.2s.837-.863,1.278-1.269a1.15,1.15,0,0,1,1.679-.044,1.133,1.133,0,0,1,0,1.68c-1.145,1.181-2.323,2.329-3.488,3.49a1.082,1.082,0,0,1-.848.329" transform="translate(-40.709 -191.564)"/>
    <path id="Trazado_214263" data-name="Trazado 214263" d="M54.985,300.4a1.37,1.37,0,0,1-.9-.421c-.7-.705-1.416-1.4-2.1-2.114a1.144,1.144,0,0,1-.092-1.736,1.181,1.181,0,0,1,1.745.068c.078.07.149.147.224.22,1.129,1.118,1.129,1.118,2.227.02.5-.5.988-1.011,1.5-1.494a1.177,1.177,0,0,1,1.743-.042,1.126,1.126,0,0,1-.064,1.679c-1.13,1.164-2.288,2.3-3.438,3.445a1.308,1.308,0,0,1-.84.374" transform="translate(-40.704 -232.659)"/>
    <path id="Trazado_214264" data-name="Trazado 214264" d="M96.6,79.828c1.727,0,3.453-.005,5.18,0,.98,0,1.534.447,1.519,1.187-.014.712-.563,1.165-1.478,1.167-3.558.008-7.116,0-10.674,0a1.271,1.271,0,0,1-1.368-.825,1.1,1.1,0,0,1,.311-1.214,1.373,1.373,0,0,1,1.094-.319H96.6" transform="translate(-70.866 -63.057)" fill="#010100"/>
  </g>
</svg>
