<svg id="Grupo_140649" data-name="Grupo 140649" xmlns="http://www.w3.org/2000/svg" xmlns:xlink="http://www.w3.org/1999/xlink" width="79.479" height="79.105" viewBox="0 0 79.479 79.105">
  <defs>
    <clipPath id="clip-path">
      <rect id="Rectángulo_88906" data-name="Rectángulo 88906" width="79.479" height="79.106" fill="none"/>
    </clipPath>
  </defs>
  <g id="Grupo_140649-2" data-name="Grupo 140649" clip-path="url(#clip-path)">
    <path id="Trazado_214153" data-name="Trazado 214153" d="M55.368,102.2c-.491-.3-1.036-.1-1.552-.166a2.643,2.643,0,0,0-1.9-.529q-23.6.014-47.195.006a6.682,6.682,0,0,1-1.563-.093,1.255,1.255,0,0,1-1.082-1.256c-.013-.287-.015-.575-.015-.862q0-15.832,0-31.663c0-2.029.2-2.223,2.261-2.223H76.643c2.082,0,2.264.184,2.264,2.3q0,15.636,0,31.272c0,2.306-.222,2.525-2.58,2.526-5.34,0-10.679.01-16.02-.01a2.015,2.015,0,0,0-1.8.7c-.492-.3-1.035-.105-1.553-.162-.771-.8-.884-.784-1.59.162" transform="translate(-0.745 -23.656)" fill="#eee"/>
    <path id="Trazado_214154" data-name="Trazado 214154" d="M57.766,78.545c.067-.892.2-1.011,1.2-1.011q8.716,0,17.431,0c1.406,0,1.515-.11,1.515-1.512v-32.6c0-1.3-.118-1.41-1.447-1.41H2.968c-1.267,0-1.4.129-1.4,1.38q0,16.379,0,32.757c0,1.236.149,1.385,1.406,1.385q24.34,0,48.682-.005c.666,0,1.286,0,1.413.852-.2.659-.719.728-1.307.726-3.3-.01-6.594,0-9.892,0q-19.468,0-38.937,0C1.3,79.1.421,78.551.089,77.31A3.318,3.318,0,0,1,0,76.461Q0,59.772,0,43.084a2.4,2.4,0,0,1,2.683-2.64c1.674-.005,3.35-.016,5.024.008.474.006.672-.068.671-.62q-.032-10.42,0-20.841c0-.472-.116-.611-.608-.624a2.314,2.314,0,0,1-2.425-2.482c-.007-.575-.006-1.149,0-1.724a2.376,2.376,0,0,1,2.531-2.557c1.072-.009,2.146.023,3.218-.011a1,1,0,0,1,1.164.794c-.082.727-.314.965-1.091,1.007-.938.052-1.878,0-2.817.024-1,.023-1.168.2-1.19,1.208-.042,1.869,0,1.9,1.887,1.908,3.861.009,7.722-.022,11.581.015.659.076.872-.253.834-.868a12.289,12.289,0,0,1,0-1.471c.034-.6-.216-.87-.818-.813a24.847,24.847,0,0,1-2.793-.02c-.815-.073-1.054-.409-.917-1.145a.916.916,0,0,1,1.037-.634c1.072.017,2.146-.015,3.218.015.423.012.525-.123.516-.527-.026-1.253-.019-2.507,0-3.761,0-.37-.068-.525-.5-.578a2.248,2.248,0,0,1-2.072-2.335c-.019-.731-.027-1.464.01-2.193A2.314,2.314,0,0,1,21.359.008c.208-.013.418-.005.628-.005H57.471c2.05,0,2.883.838,2.885,2.9,0,.523.013,1.046-.007,1.567A2.25,2.25,0,0,1,58.3,6.748c-.4.05-.525.162-.518.559.022,1.227.04,2.456-.006,3.682-.02.542.174.627.659.625,4.318-.017,8.635-.011,12.953-.01a2.423,2.423,0,0,1,2.752,2.73c0,.575.015,1.15,0,1.724a2.25,2.25,0,0,1-2.124,2.289c-.6.037-.587.312-.587.735.008,3.552,0,7.1.007,10.656,0,.523-.04,1.006-.653,1.184-.637.242-.908-.114-1.071-.65-.069-3.235-.012-6.471-.031-9.707,0-.339.012-.679-.005-1.018-.042-.822-.152-.944-.99-.947q-4.863-.019-9.727,0c-.806,0-.894.094-.9.915q-.012,9.865,0,19.729c0,.848.1.945.958.948q4.824.016,9.648,0c.882,0,.968-.1,1-1,.036-.938-.02-1.879.029-2.818.136-.486.267-.98.962-.774a1.028,1.028,0,0,1,.775,1.185c-.025,1.018.017,2.038-.018,3.055-.016.469.1.626.6.615,1.621-.034,3.244-.019,4.867-.011a2.383,2.383,0,0,1,2.6,2.647q0,16.687,0,33.374a2.365,2.365,0,0,1-2.547,2.626c-6.044.022-12.088.008-18.133.01a1,1,0,0,1-1.032-.557" transform="translate(0 0)"/>
    <path id="Trazado_214155" data-name="Trazado 214155" d="M103.789,46.466a1.01,1.01,0,0,0-.794.62,18.054,18.054,0,0,0-.039,2.5.6.6,0,0,1-.634.705c-.183.016-.365.023-.548.024-2.93,0-5.859.007-8.789,0-1.2,0-1.362-.162-1.363-1.362q-.012-8.771,0-17.543c0-1.191.163-1.348,1.372-1.353q4.394-.014,8.789,0c1.129,0,1.164.054,1.164,1.207q0,4.582,0,9.163a2.244,2.244,0,0,0,.056.852.868.868,0,0,0,.9.51,4.441,4.441,0,0,0-.117,1.54c-.751.813-.744.906.128,1.595a4.1,4.1,0,0,0-.128,1.544" transform="translate(-33.13 -10.866)" fill="#fc4b52"/>
    <path id="Trazado_214156" data-name="Trazado 214156" d="M20.843,19.159c0,.684.36.952,1.023.944.925-.012,1.851.011,2.777.02a5.483,5.483,0,0,1,0,3.58q-6.494.017-12.989.033a.752.752,0,0,1-.829-.827c-.013-.625,0-1.25,0-1.875,0-.65.333-.943.974-.938,1.069.007,2.14-.022,3.208.011a1,1,0,0,0,1.161-.794c.511-.054,1.047.137,1.533-.158.611.808.738.854,1.24.428.117-.1.2-.241.37-.271.511-.052,1.045.132,1.532-.154" transform="translate(-3.914 -6.927)" fill="#f1e0d6"/>
    <path id="Trazado_214157" data-name="Trazado 214157" d="M110.363,52.445c-.455.006-.832-.118-.91-.633-.09-.592.287-.83.782-.961.409.135.758.353.75.831a.77.77,0,0,1-.622.763" transform="translate(-39.576 -18.389)" fill="#060707"/>
    <path id="Trazado_214158" data-name="Trazado 214158" d="M23.207,18.962c-.143.442-.359.829-.9.772s-.712-.437-.707-.929a.787.787,0,0,1,.86-.616c.458.041.627.393.751.774" transform="translate(-7.809 -6.576)" fill="#060606"/>
    <path id="Trazado_214159" data-name="Trazado 214159" d="M85.562,122.471c-.032-.513.1-.936.69-1s.8.345.9.834c-.487.887-.972.937-1.59.162" transform="translate(-30.939 -43.926)" fill="#050505"/>
    <path id="Trazado_214160" data-name="Trazado 214160" d="M32.292,101.392q-10.089,0-20.177,0c-2.326,0-3.257-.941-3.257-3.288q0-9.559,0-19.119a2.675,2.675,0,1,1,5.336.007c0,5.381.024,10.761-.022,16.141-.007.824.23,1,.986.945a26.091,26.091,0,0,1,2.981,0c.54.026.636-.17.631-.658-.024-2.272-.013-4.545-.01-6.817a2.431,2.431,0,0,1,2.716-2.7c1.021,0,2.042-.017,3.062,0a2.379,2.379,0,0,1,2.508,2.518c.018,2.324.024,4.649-.009,6.974-.008.553.141.693.689.684,1.679-.025,1.68,0,1.68-1.654q0-5.093,0-10.187c0-1.8.892-2.671,2.707-2.677q1.374,0,2.748,0c1.922,0,2.79.854,2.793,2.755,0,3.63.017,7.261-.013,10.891-.006.652.1.91.837.878,1.529-.066,1.531-.017,1.531-1.564q0-6.856,0-13.712c0-2.012.855-2.868,2.855-2.87.995,0,1.99-.016,2.984,0a2.321,2.321,0,0,1,2.434,2.483c.008,4.962.015,9.925-.011,14.888,0,.617.155.791.77.765,1.2-.05,2.407-.017,3.611-.014a2.724,2.724,0,0,1,3.01,2.688,2.668,2.668,0,0,1-2.961,2.639q-10.206.01-20.412,0" transform="translate(-3.202 -27.524)"/>
    <path id="Trazado_214161" data-name="Trazado 214161" d="M39.005,102.765q-16.411,0-32.821,0a5.269,5.269,0,0,1-.859-.042.974.974,0,0,1-.917-1.122q.03-13.713,0-27.427c0-.611.174-1.117.8-1.114S6,73.57,6,74.179q-.02,13.009-.009,26.017c0,1,0,1,1.032,1q32.585,0,65.17.006c.585,0,1.358-.25,1.464.705.061.545-.525.856-1.519.856q-16.568,0-33.135,0" transform="translate(-1.594 -26.419)" fill="#fefefe"/>
    <path id="Trazado_214162" data-name="Trazado 214162" d="M92.538,82.53q3.178,0,6.356,0a2.574,2.574,0,0,1,.625.028.75.75,0,0,1,.644.848.717.717,0,0,1-.727.684c-.209.013-.418.007-.628.007-4.081,0-8.162.006-12.242-.008A2.578,2.578,0,0,0,85.3,84.4c-2.674,1.412-5.358,2.806-8.038,4.206-.162.084-.324.169-.488.249-.485.237-.947.236-1.2-.3-.227-.481,0-.846.465-1.083.905-.463,1.8-.937,2.705-1.409,2.056-1.076,4.114-2.149,6.165-3.235a2.588,2.588,0,0,1,1.27-.311c2.119.015,4.238.007,6.356.007" transform="translate(-27.298 -29.842)"/>
    <path id="Trazado_214163" data-name="Trazado 214163" d="M88.627,97.954a.755.755,0,0,1-.649.773,3.445,3.445,0,0,0-2.55,2.866,3.644,3.644,0,0,1-.183.6.744.744,0,0,1-.719.506.752.752,0,0,1-.764-.552,3.782,3.782,0,0,1-.162-.6A3.383,3.383,0,0,0,81.218,98.8c-.1-.034-.2-.07-.293-.109a.761.761,0,0,1-.534-.779.731.731,0,0,1,.592-.733,3.6,3.6,0,0,0,2.66-3.055c.109-.473.257-.952.854-.956s.758.442.868.933a3.625,3.625,0,0,0,2.717,3.1.692.692,0,0,1,.544.76" transform="translate(-29.071 -33.69)"/>
    <path id="Trazado_214164" data-name="Trazado 214164" d="M32.9,80.424a.755.755,0,0,1-.78-.651,3.792,3.792,0,0,0-2.823-3.378.716.716,0,0,1-.523-.783.7.7,0,0,1,.537-.693c1.72-.412,2.417-1.676,2.768-3.24.1-.45.308-.779.824-.778s.715.345.816.789c.354,1.564,1.048,2.829,2.776,3.228a.7.7,0,0,1,.528.7.708.708,0,0,1-.532.778c-1.722.409-2.418,1.673-2.776,3.235-.1.446-.315.771-.816.79" transform="translate(-10.403 -25.639)"/>
    <path id="Trazado_214165" data-name="Trazado 214165" d="M100.446,88.632c1.778,0,3.556.009,5.334-.005.557,0,1.048.105,1.058.749.011.682-.5.827-1.083.827q-5.373-.007-10.746,0c-.545,0-1.033-.114-1.049-.771-.019-.722.494-.806,1.074-.8,1.8.011,3.608,0,5.412,0" transform="translate(-33.978 -32.049)" fill="#010101"/>
    <path id="Trazado_214166" data-name="Trazado 214166" d="M100.417,94.683c1.777,0,3.555,0,5.332,0,.574,0,1.1.094,1.09.8-.01.649-.516.772-1.057.772q-5.37,0-10.741,0c-.563,0-1.1-.1-1.084-.815s.576-.756,1.129-.755c1.777,0,3.554,0,5.332,0" transform="translate(-33.976 -34.238)" fill="#020202"/>
    <path id="Trazado_214167" data-name="Trazado 214167" d="M100.413,109.908c1.777,0,3.555,0,5.332,0,.573,0,1.1.091,1.094.8-.007.649-.511.776-1.053.776q-5.41,0-10.82,0c-.545,0-1.025-.146-1.012-.809s.507-.76,1.049-.759q2.7.006,5.41,0" transform="translate(-33.975 -39.744)" fill="#020202"/>
    <path id="Trazado_214168" data-name="Trazado 214168" d="M116.9,117.141c.285,0,.571-.017.855,0a.63.63,0,0,1,.62.584.681.681,0,0,1-.469.8,2.787,2.787,0,0,1-1.9.045.721.721,0,0,1-.6-.857.673.673,0,0,1,.787-.579c.233.006.467,0,.7,0Z" transform="translate(-41.73 -42.358)" fill="#fefefe"/>
    <path id="Trazado_214169" data-name="Trazado 214169" d="M57.823,43.484q-.023-3.328-.045-6.656c-.008-1.752-.555-2.313-2.28-2.315q-2.552,0-5.1,0c-1.728,0-2.27.559-2.278,2.315q-.016,3.329-.045,6.656a1.3,1.3,0,0,1-.958.254q-4.814.011-9.628,0a1.251,1.251,0,0,1-.889-.223,2.514,2.514,0,0,1-.057-.931q-.006-14.692,0-29.383c0-1.315,0-1.321,1.363-1.322q11.541,0,23.081,0c2.408,0,4.815-.008,7.223,0,1.106.005,1.157.067,1.157,1.136q0,14.809,0,29.618a2.947,2.947,0,0,1-.043.857,1.371,1.371,0,0,1-1.039.246q-4.706.012-9.414,0a1.4,1.4,0,0,1-1.039-.256" transform="translate(-13.208 -4.294)" fill="#fc4b52"/>
    <path id="Trazado_214170" data-name="Trazado 214170" d="M51.375,6.1q-8.827,0-17.654,0c-1.2,0-1.3-.107-1.305-1.3,0-.5,0-.992,0-1.488A.781.781,0,0,1,33.3,2.46c.156,0,.313,0,.47,0H69.161c1.224,0,1.343.119,1.346,1.344.006,2.485.19,2.3-2.263,2.3Q59.81,6.1,51.375,6.1" transform="translate(-11.722 -0.889)" fill="#f1e0d6"/>
    <path id="Trazado_214171" data-name="Trazado 214171" d="M69.227,43q.009-11.164.018-22.329c0-2.716-.017-5.432.012-8.148.007-.617-.117-.862-.808-.861q-15.543.033-31.086.012c-.437,0-.808-.05-.807.613Q36.59,27.643,36.586,43c.216.774.77.9,1.5.889,2.919-.031,5.838-.016,8.757-.01a1.662,1.662,0,0,1,1.194.245c-.154.282-.421.145-.63.146-3.427.01-6.856,0-10.283.019-.538,0-.706-.125-.705-.686q.026-16.1,0-32.2c0-.67.2-.808.836-.807q15.659.03,31.318,0c.635,0,.837.137.836.807q-.034,16.1-.013,32.2c0,.383.045.691-.539.688-3.558-.026-7.117-.012-10.675-.015-.144,0-.322.055-.395-.15a1.662,1.662,0,0,1,1.194-.245c2.919-.006,5.839-.021,8.757.01.726.008,1.28-.115,1.5-.889" transform="translate(-13.167 -3.832)" fill="#c93c41"/>
    <path id="Trazado_214172" data-name="Trazado 214172" d="M91.858,20.657l12.87-.026a.819.819,0,0,1,.945.891c.008.627.006,1.253,0,1.88a.778.778,0,0,1-.873.871q-6.473-.015-12.946-.036a5.487,5.487,0,0,1,0-3.58" transform="translate(-33.108 -7.461)" fill="#f1e0d6"/>
    <path id="Trazado_214173" data-name="Trazado 214173" d="M15.551,39.815c0-3.419.015-6.839-.014-10.258-.006-.622.171-.791.79-.786q5.139.043,10.279,0c.529,0,.718.112.716.682q-.029,10.376,0,20.752c0,.516-.146.654-.656.651q-5.218-.032-10.436,0c-.564,0-.693-.174-.689-.709.023-3.445.011-6.891.011-10.337" transform="translate(-5.618 -10.404)" fill="#c93c41"/>
    <path id="Trazado_214174" data-name="Trazado 214174" d="M102.6,40.817c-.237-.241-.139-.545-.14-.82-.006-3.135-.018-6.27.008-9.4.005-.583-.16-.76-.751-.755q-4.75.04-9.5,0c-.581,0-.761.156-.759.748q.03,9.13,0,18.26c0,.58.156.764.749.758q4.751-.039,9.5,0c.579,0,.773-.15.765-.746a5.871,5.871,0,0,1,.116-2.234c0,1.2-.022,2.4,0,3.6.01.46-.1.636-.6.634q-5.451-.032-10.9,0c-.432,0-.584-.1-.583-.562q.02-10.452,0-20.9c0-.484.147-.617.623-.614q5.413.027,10.826,0c.547,0,.643.207.642.691-.011,3.784,0,7.568.006,11.352" transform="translate(-32.729 -10.406)" fill="#c93c41"/>
    <path id="Trazado_214175" data-name="Trazado 214175" d="M57.286,49.859a54.2,54.2,0,0,1,6.278,0,22.991,22.991,0,0,1,.073,3.269c.024,1.172-.019,2.347.015,3.519.016.546-.214.771-.721.781-1.671.032-3.343.036-5.014,0-.384-.009-.718-.1-.714-.621.017-2.268-.007-4.536.015-6.8,0-.047.044-.094.068-.141" transform="translate(-20.686 -17.997)" fill="#efbf20"/>
    <path id="Trazado_214176" data-name="Trazado 214176" d="M48.128,62.478H37.8c-1.152,0-1.152,0-1.12-1.124l11.445.024a3.1,3.1,0,0,1,0,1.1" transform="translate(-13.261 -22.187)" fill="#c93c41"/>
    <path id="Trazado_214177" data-name="Trazado 214177" d="M81.3,61.353c.032,1.124.032,1.124-1.12,1.124H69.857a3.1,3.1,0,0,1,0-1.1L81.3,61.353" transform="translate(-25.244 -22.186)" fill="#c93c41"/>
    <path id="Trazado_214178" data-name="Trazado 214178" d="M57.257,49.91c0,2.188.026,4.375-.011,6.561-.01.634.2.8.8.783q2.346-.057,4.7,0c.605.015.813-.147.8-.783-.037-2.186-.012-4.374-.011-6.561.219.153.124.381.124.575,0,2.451-.012,4.9.008,7.353,0,.5-.114.677-.648.666-1.75-.034-3.5-.017-5.251-.01-.359,0-.651.029-.646-.5.021-2.607.007-5.215.012-7.822,0-.087.08-.174.123-.262" transform="translate(-20.656 -18.048)" fill="#e6a41f"/>
    <path id="Trazado_214179" data-name="Trazado 214179" d="M91.464,20.644l0,3.58c-.7.174-1.064.011-.971-.815a7.819,7.819,0,0,0,0-1.869c-.109-.834.226-1.06.978-.9" transform="translate(-32.714 -7.447)" fill="#d5bfb2"/>
    <path id="Trazado_214180" data-name="Trazado 214180" d="M32.476,24.224q0-1.79,0-3.58c.752-.163,1.087.063.977.9a7.819,7.819,0,0,0,0,1.869c.093.825-.273.988-.971.815" transform="translate(-11.743 -7.447)" fill="#d5bfb2"/>
    <path id="Trazado_214181" data-name="Trazado 214181" d="M98.111,32.417c.5,0,.993-.011,1.489,0a1.716,1.716,0,0,1,1.82,1.743c.044,1.093.047,2.191,0,3.283a1.7,1.7,0,0,1-1.782,1.7c-1.07.024-2.142.027-3.212,0A1.679,1.679,0,0,1,94.7,37.4c-.024-1.094-.026-2.19,0-3.284a1.67,1.67,0,0,1,1.688-1.694c.573-.026,1.149,0,1.724,0Z" transform="translate(-34.238 -11.721)"/>
    <path id="Trazado_214182" data-name="Trazado 214182" d="M94.693,50.7c0-.521-.011-1.042,0-1.563a1.663,1.663,0,0,1,1.738-1.794c1.07-.027,2.142-.025,3.212,0a1.669,1.669,0,0,1,1.775,1.69c.05,1.092.046,2.19,0,3.283a1.672,1.672,0,0,1-1.674,1.724c-1.12.056-2.246.056-3.366,0A1.668,1.668,0,0,1,94.7,52.262c-.015-.521,0-1.042,0-1.563" transform="translate(-34.241 -17.113)"/>
    <path id="Trazado_214183" data-name="Trazado 214183" d="M33.139,100.724q-10.091,0-20.182,0c-1.356,0-1.642-.29-1.643-1.655q0-9.405,0-18.811a3.336,3.336,0,0,1,.031-.78,1.089,1.089,0,0,1,2.131-.018,3.071,3.071,0,0,1,.035.779q0,8.426,0,16.851c0,1.334.1,1.44,1.413,1.44H53.014c.183,0,.366,0,.55,0,.9.013,1.416.416,1.415,1.108s-.493,1.084-1.422,1.085q-10.209,0-20.417,0" transform="translate(-4.089 -28.425)" fill="#a7e446"/>
    <path id="Trazado_214184" data-name="Trazado 214184" d="M62.9,97.947c-.757.012-1.515.01-2.271.043-.415.018-.539-.148-.538-.548q.014-7.475.007-14.95c0-.688.278-1.071,1.035-1.051,1.045.029,2.091.018,3.137,0,.7-.009.98.32.979,1.005-.01,4.983-.017,9.967.01,14.95,0,.693-.361.611-.793.559a1.587,1.587,0,0,1-.255-1.188c-.006-2.708.011-5.415-.017-8.123,0-.462.238-1.258-.522-1.231-.649.023-.533.79-.536,1.285-.019,2.682,0,5.363-.013,8.045a1.718,1.718,0,0,1-.223,1.2" transform="translate(-21.731 -29.451)" fill="#85b638"/>
    <path id="Trazado_214185" data-name="Trazado 214185" d="M46.2,100c-.732.011-1.464,0-2.195.043-.446.025-.507-.179-.506-.555q.015-5.72,0-11.44c0-.66.306-.952.956-.947q1.609.013,3.219,0c.668-.006.937.336.936.972,0,3.813-.011,7.627.006,11.44,0,.749-.472.492-.849.487a1.548,1.548,0,0,1-.238-1.119c-.008-1.722.011-3.445-.013-5.166-.006-.46.132-1.17-.572-1.145-.621.022-.492.7-.5,1.145-.022,1.722,0,3.444-.011,5.166A1.548,1.548,0,0,1,46.2,100" transform="translate(-15.732 -31.497)" fill="#feca2e"/>
    <path id="Trazado_214186" data-name="Trazado 214186" d="M29.678,102.451c-.783.012-1.567,0-2.348.043-.448.023-.507-.187-.5-.562q.017-3.52,0-7.041a.884.884,0,0,1,1.01-1q1.568,0,3.136,0A.891.891,0,0,1,31.983,94.9c0,2.347-.019,4.695.011,7.041.008.639-.331.585-.746.516-.423-.471-.2-1.046-.249-1.576-.03-.337.016-.68-.034-1.017-.036-.241-.114-.478-.4-.52-.313-.047-.479.166-.583.421a3.575,3.575,0,0,0-.116,1.162c-.034.511.127,1.049-.193,1.526" transform="translate(-9.7 -33.951)" fill="#fc4b52"/>
    <path id="Trazado_214187" data-name="Trazado 214187" d="M64.491,101.1q0-4.737,0-9.474A3.7,3.7,0,0,1,64.506,91c.08-.472.283-.884.844-.841.538.042.721.407.719.931-.013,3.341-.01,6.681-.012,10.022l-1.565-.013" transform="translate(-23.319 -32.602)" fill="#75feba"/>
    <path id="Trazado_214188" data-name="Trazado 214188" d="M47.733,102.874q0-3.406,0-6.812a.907.907,0,0,1,.449-.925.7.7,0,0,1,.743.04.984.984,0,0,1,.382.964q-.006,3.367,0,6.734Z" transform="translate(-17.26 -34.372)" fill="#f7e4af"/>
    <path id="Trazado_214189" data-name="Trazado 214189" d="M31.29,105.361c0-.8-.013-1.6,0-2.407.01-.535.174-1.016.812-1.021.668-.005.765.483.758,1.026-.01.8,0,1.6,0,2.408l-1.57-.005" transform="translate(-11.313 -36.861)" fill="#fec9c1"/>
    <path id="Trazado_214190" data-name="Trazado 214190" d="M86.076,98.1a5.011,5.011,0,0,0,1.177,1.435c.23.172.16.291-.024.4-.5.31-.714,1.2-1.2,1.14-.4-.05-.705-.821-1.18-1.153-.161-.112-.193-.229-.013-.357A4.892,4.892,0,0,0,86.076,98.1" transform="translate(-30.634 -35.473)" fill="#feca2e"/>
    <path id="Trazado_214191" data-name="Trazado 214191" d="M32.956,77.5a7.242,7.242,0,0,0,1.471-1.677,4.552,4.552,0,0,0,1.143,1.411c.279.209.137.319-.047.46a4.941,4.941,0,0,0-1.068,1.28,6.205,6.205,0,0,0-1.5-1.473" transform="translate(-11.918 -27.419)" fill="#feca2e"/>
    <path id="Trazado_214192" data-name="Trazado 214192" d="M41.8,35.755c0-.522-.015-1.043,0-1.564a1.692,1.692,0,0,1,1.775-1.771c1.044-.023,2.089-.02,3.134,0a1.69,1.69,0,0,1,1.809,1.667c.057,1.118.055,2.243,0,3.361a1.7,1.7,0,0,1-1.784,1.7c-1.07.023-2.142.027-3.212,0A1.688,1.688,0,0,1,41.8,37.4c-.019-.546,0-1.094,0-1.642" transform="translate(-15.112 -11.718)"/>
    <path id="Trazado_214193" data-name="Trazado 214193" d="M78.871,35.808c0,.548.02,1.1,0,1.642a1.672,1.672,0,0,1-1.694,1.69q-1.644.048-3.291,0A1.7,1.7,0,0,1,72.144,37.4c-.042-1.067-.04-2.139,0-3.206a1.729,1.729,0,0,1,1.872-1.772c1.018-.015,2.038-.019,3.056,0a1.707,1.707,0,0,1,1.8,1.824c.013.521,0,1.042,0,1.564h0" transform="translate(-26.077 -11.718)"/>
    <path id="Trazado_214194" data-name="Trazado 214194" d="M41.794,20.829c0-.5-.01-.99,0-1.486a1.691,1.691,0,0,1,1.713-1.836c1.094-.051,2.194-.05,3.288,0a1.7,1.7,0,0,1,1.729,1.759c.04,1.067.041,2.138,0,3.2a1.689,1.689,0,0,1-1.805,1.743q-1.567.029-3.133,0A1.672,1.672,0,0,1,41.8,22.392c-.012-.521,0-1.042,0-1.563" transform="translate(-15.112 -6.317)"/>
    <path id="Trazado_214195" data-name="Trazado 214195" d="M78.869,20.9c0,.547.02,1.1,0,1.641A1.63,1.63,0,0,1,77.24,24.2q-1.722.052-3.445,0a1.634,1.634,0,0,1-1.645-1.653c-.051-1.118-.051-2.242,0-3.36a1.686,1.686,0,0,1,1.719-1.685c1.094-.049,2.194-.05,3.288,0a1.69,1.69,0,0,1,1.717,1.832c.012.521,0,1.042,0,1.563Z" transform="translate(-26.077 -6.317)"/>
    <path id="Trazado_214196" data-name="Trazado 214196" d="M60.368,24.21c-.6,0-1.2.027-1.8-.006A1.555,1.555,0,0,1,57.02,22.73c-.06-1.221-.06-2.449-.007-3.67a1.569,1.569,0,0,1,1.581-1.538,33.67,33.67,0,0,1,3.443-.008,1.648,1.648,0,0,1,1.657,1.727q.056,1.6,0,3.2a1.676,1.676,0,0,1-1.842,1.773c-.5.011-.992,0-1.487,0v-.01" transform="translate(-20.603 -6.319)"/>
    <path id="Trazado_214197" data-name="Trazado 214197" d="M63.689,35.789c0,.573.033,1.148-.008,1.719a1.655,1.655,0,0,1-1.669,1.629c-1.122.034-2.246.036-3.367,0a1.636,1.636,0,0,1-1.65-1.646c-.044-1.145-.046-2.294,0-3.438a1.647,1.647,0,0,1,1.744-1.632c1.044-.023,2.089-.02,3.133,0a1.69,1.69,0,0,1,1.818,1.73c.031.545.006,1.094.006,1.641h-.009" transform="translate(-20.598 -11.718)"/>
    <path id="Trazado_214198" data-name="Trazado 214198" d="M44.667,54.068c-.654,0-1.307.01-1.96,0a.817.817,0,0,1-.916-.92c.01-1.017-.022-2.036.015-3.052a2.924,2.924,0,0,1,5.835-.04c.049,1.042.017,2.087.019,3.13a.8.8,0,0,1-.876.88c-.7.019-1.411,0-2.117.005" transform="translate(-15.111 -17.121)"/>
    <path id="Trazado_214199" data-name="Trazado 214199" d="M76.439,54.068c-.654,0-1.307,0-1.96,0-.628,0-.975-.287-.967-.952.013-1.017-.024-2.036.02-3.051a2.923,2.923,0,0,1,5.833.017c.04,1.016.006,2.034.017,3.051a.818.818,0,0,1-.905.931c-.679.015-1.358,0-2.038,0" transform="translate(-26.583 -17.12)"/>
    <path id="Trazado_214200" data-name="Trazado 214200" d="M15.753,40.247c0-3,.017-6.009-.013-9.013-.006-.619.169-.8.792-.794q4.554.045,9.109,0c.618-.006.8.167.8.791q-.034,9.091,0,18.183c0,.62-.172.8-.795.794q-4.554-.045-9.109,0c-.621.006-.8-.17-.8-.792.031-3.056.014-6.113.014-9.17" transform="translate(-5.691 -11.008)" fill="#fc4b52"/>
    <path id="Trazado_214201" data-name="Trazado 214201" d="M100.759,36.644c0,1.83,0,1.83-1.822,1.83-1.783,0-1.783,0-1.783-1.773,0-1.828,0-1.828,1.8-1.828s1.8,0,1.8,1.77" transform="translate(-35.133 -12.611)" fill="#efbf20"/>
    <path id="Trazado_214202" data-name="Trazado 214202" d="M99,49.794c1.762,0,1.762,0,1.762,1.742,0,1.853,0,1.853-1.821,1.853-1.785,0-1.785,0-1.785-1.794s0-1.8,1.844-1.8" transform="translate(-35.133 -18.006)" fill="#eebe20"/>
    <path id="Trazado_214203" data-name="Trazado 214203" d="M66.063,85.322c.063.59-.075,1.1-.769,1.095-.633-.005-.786-.517-.79-1.051,0-.564.146-1.1.825-1.094.637.006.8.484.734,1.049" transform="translate(-23.325 -30.475)" fill="#74fdb9"/>
    <path id="Trazado_214204" data-name="Trazado 214204" d="M47.731,90.218c-.021-.559.144-1.039.784-1.034.695.006.8.534.793,1.11,0,.561-.152,1.04-.79,1.035-.693-.006-.815-.533-.787-1.111" transform="translate(-17.259 -32.251)" fill="#f7e4ae"/>
    <path id="Trazado_214205" data-name="Trazado 214205" d="M32.858,97.121c.052.552-.078,1.072-.774,1.069-.633,0-.793-.508-.793-1.051,0-.565.13-1.095.824-1.1.677-.005.769.5.744,1.081" transform="translate(-11.315 -34.73)" fill="#fec8bf"/>
    <path id="Trazado_214206" data-name="Trazado 214206" d="M46.046,38.474c-1.791,0-1.791,0-1.791-1.764,0-1.836,0-1.836,1.873-1.836,1.731,0,1.731,0,1.731,1.762,0,1.839,0,1.839-1.813,1.839" transform="translate(-16.003 -12.611)" fill="#efbf20"/>
    <path id="Trazado_214207" data-name="Trazado 214207" d="M76.411,34.874c1.792,0,1.792,0,1.792,1.763,0,1.837,0,1.837-1.877,1.837-1.73,0-1.73,0-1.73-1.689v-.079c0-1.833,0-1.833,1.816-1.833" transform="translate(-26.975 -12.611)" fill="#efbf20"/>
    <path id="Trazado_214208" data-name="Trazado 214208" d="M46.011,23.55c-1.756,0-1.756,0-1.756-1.729,0-1.867,0-1.867,1.871-1.867,1.733,0,1.733,0,1.733,1.708v.078c0,1.81,0,1.81-1.848,1.81" transform="translate(-16.003 -7.216)" fill="#eebf20"/>
    <path id="Trazado_214209" data-name="Trazado 214209" d="M78.2,21.833c0,1.717,0,1.717-1.692,1.717-1.915,0-1.915,0-1.915-1.9,0-1.694,0-1.694,1.669-1.694h.079c1.86,0,1.86,0,1.86,1.879" transform="translate(-26.975 -7.216)" fill="#eebf20"/>
    <path id="Trazado_214210" data-name="Trazado 214210" d="M63.029,21.721c0,1.829,0,1.829-1.814,1.829-1.779,0-1.779,0-1.779-1.786,0-1.809,0-1.809,1.774-1.809h.079c1.74,0,1.74,0,1.74,1.766" transform="translate(-21.494 -7.216)" fill="#efbf20"/>
    <path id="Trazado_214211" data-name="Trazado 214211" d="M63.029,36.695c0,1.779,0,1.779-1.8,1.779s-1.793,0-1.793-1.785c0-1.815,0-1.815,1.838-1.815,1.754,0,1.754,0,1.754,1.821" transform="translate(-21.494 -12.611)" fill="#efbf20"/>
    <path id="Trazado_214212" data-name="Trazado 214212" d="M46.963,52.041c.014,1.352.014,1.352-1.334,1.352-1.38,0-1.38,0-1.379-1.4,0-.312-.014-.626.013-.936a1.353,1.353,0,0,1,2.7-.034c.031.335.005.676.005,1.014" transform="translate(-16 -18.011)" fill="#eebe20"/>
    <path id="Trazado_214213" data-name="Trazado 214213" d="M78.7,52.041c0,1.352,0,1.352-1.341,1.352-1.384,0-1.384,0-1.383-1.4,0-.286-.01-.573.009-.859a1.357,1.357,0,0,1,2.713.043c.015.286,0,.573,0,.859" transform="translate(-27.472 -18.011)" fill="#eebe20"/>
    <path id="Trazado_214214" data-name="Trazado 214214" d="M26.217,35.8c0,.548.019,1.1-.005,1.642a1.673,1.673,0,0,1-1.689,1.7c-1.1.034-2.194.03-3.291,0A1.677,1.677,0,0,1,19.5,37.477c-.055-1.118-.053-2.243,0-3.362a1.69,1.69,0,0,1,1.78-1.7c1.071-.022,2.142-.026,3.212,0a1.685,1.685,0,0,1,1.728,1.737c.019.546,0,1.094,0,1.642" transform="translate(-7.036 -11.717)"/>
    <path id="Trazado_214215" data-name="Trazado 214215" d="M22.823,47.339c.548,0,1.1-.016,1.645,0a1.645,1.645,0,0,1,1.743,1.707q.04,1.641,0,3.284a1.612,1.612,0,0,1-1.592,1.7,31.92,31.92,0,0,1-3.521,0,1.646,1.646,0,0,1-1.607-1.7c-.042-1.093-.046-2.19,0-3.283a1.677,1.677,0,0,1,1.764-1.7c.522-.019,1.044,0,1.567,0" transform="translate(-7.037 -17.117)"/>
    <path id="Trazado_214216" data-name="Trazado 214216" d="M25.55,36.726c0,1.749,0,1.749-1.73,1.749-1.874,0-1.874,0-1.874-1.856,0-1.744,0-1.744,1.747-1.744,1.858,0,1.858,0,1.858,1.852" transform="translate(-7.936 -12.611)" fill="#efbf20"/>
    <path id="Trazado_214217" data-name="Trazado 214217" d="M25.55,51.563c0,1.826,0,1.826-1.832,1.826-1.773,0-1.773,0-1.773-1.743,0-1.851,0-1.851,1.808-1.851s1.8,0,1.8,1.768" transform="translate(-7.936 -18.007)" fill="#eebe20"/>
  </g>
</svg>
