<svg xmlns="http://www.w3.org/2000/svg" xmlns:xlink="http://www.w3.org/1999/xlink" width="190" height="104" viewBox="0 0 190 104">
  <defs>
    <clipPath id="clip-path">
      <rect id="Rect치ngulo_88846" data-name="Rect치ngulo 88846" width="69.703" height="69.717" fill="none"/>
    </clipPath>
  </defs>
  <g id="Grupo_138496" data-name="Grupo 138496" transform="translate(-285.049 -411)">
    <rect id="Rect치ngulo_41122" data-name="Rect치ngulo 41122" width="190" height="104" transform="translate(285.049 411)" fill="none"/>
    <g id="Grupo_117447" data-name="Grupo 117447" transform="translate(-3337.23 1038.208)" opacity="0.3">
      <path id="Trazado_158283" data-name="Trazado 158283" d="M3677.784-530.075h0a16.354,16.354,0,0,0,23.129,0l67.216-67.214a16.357,16.357,0,0,0,0-23.129,16.355,16.355,0,0,0-23.129,0L3677.784-553.2A16.353,16.353,0,0,0,3677.784-530.075Z" transform="translate(14.296)" fill="#fc4b52"/>
      <path id="Trazado_158284" data-name="Trazado 158284" d="M3652.069-530.075h0a16.354,16.354,0,0,0,23.129,0l67.216-67.214a16.358,16.358,0,0,0,0-23.129,16.355,16.355,0,0,0-23.129,0L3652.069-553.2A16.354,16.354,0,0,0,3652.069-530.075Z" transform="translate(0)" fill="#feca2e"/>
    </g>
    <g id="Grupo_138497" data-name="Grupo 138497" transform="translate(345.049 428)">
      <g id="Grupo_140611" data-name="Grupo 140611" clip-path="url(#clip-path)">
        <path id="Trazado_213784" data-name="Trazado 213784" d="M0,142.389c1.173-1.187,2.352-2.368,3.515-3.565a1.788,1.788,0,0,1,1.457-.384c1.563,0,1.563,0,1.563-1.569q0-5.037,0-10.074c0-1.068.358-1.425,1.425-1.427,1.248,0,2.5-.005,3.743,0a.567.567,0,0,0,.634-.346,3.143,3.143,0,0,1,2.541-1.81c.277-.039.348-.111.4-.391a3.261,3.261,0,0,1,6.48-.012c.046.264.09.364.385.4a3.148,3.148,0,0,1,2.58,1.858c.145.31.346.3.595.295q1.872,0,3.743,0c1.072,0,1.435.358,1.436,1.417,0,3.676.01,7.352-.01,11.027,0,.482.075.732.612.631a4.643,4.643,0,0,1,.475-.006,2.639,2.639,0,0,1,2.354.693c.175-.019.253.06.235.234a21.914,21.914,0,0,0,2.289,2.381,1.858,1.858,0,0,1,.59,1.445c-.03,1.449,0,2.9-.018,4.35a1.05,1.05,0,0,0,.375.876c1.141,1.035,2.263,2.09,3.387,3.143.806.755.814,1.275.038,2.059-.526.531-1.056,1.058-1.585,1.586-.846.844-1.177.872-2.207.135v.96c0,3.33-.016,6.661.013,9.991a1.7,1.7,0,0,1-.694,1.561H29c-.713-.17-.884-.7-.89-1.34-.015-1.677,0-3.355-.007-5.032,0-1.012-.024-1.035-1.018-1.036q-8.567,0-17.134,0c-.995,0-1.015.024-1.018,1.036-.006,1.677.008,3.355-.007,5.032-.006.638-.177,1.17-.89,1.34H.681A.846.846,0,0,1,0,167.171V142.389" transform="translate(0 -98.135)"/>
        <path id="Trazado_213785" data-name="Trazado 213785" d="M314.963,22.195a1.7,1.7,0,0,1-1.563.694c-4.06-.026-8.121-.013-12.181-.014-1.164,0-1.5-.335-1.5-1.487q0-2.348,0-4.7c0-.981.195-1.229,1.134-1.472l2.688-.694c-.161-.561-.56-.985-.574-1.554,0-.171-.192-.17-.305-.229a3.23,3.23,0,0,1-1.821-2.542.508.508,0,0,0-.418-.489,1.024,1.024,0,0,1-.7-1.054c0-1.77,0-3.54,0-5.309a1.214,1.214,0,0,1,.79-1.156q1.947-.96,3.884-1.939c.128-.065.317-.066.364-.255h.817a24.2,24.2,0,0,1,3.165.674,1.516,1.516,0,0,0,1.18-.12A6.984,6.984,0,0,1,311.288,0h.817a1.848,1.848,0,0,1,.883.587c.643.771,1.581,1.286,1.976,2.273V9.123c-.115.164-.08.433-.276.524-.59.271-.7.822-.882,1.357a3.1,3.1,0,0,1-1.4,1.687c-.581.347-.653.946-.891,1.462-.123.266.152.33.347.38.72.186,1.441.37,2.165.542a1.138,1.138,0,0,1,.934.857Z" transform="translate(-245.261)"/>
        <path id="Trazado_213786" data-name="Trazado 213786" d="M314.968,160.1a1.7,1.7,0,0,1-1.562.694c-4.06-.026-8.119-.013-12.179-.014-1.165,0-1.5-.335-1.506-1.484q0-2.348,0-4.7c0-.959.162-1.18,1.056-1.484.406-.138.809-.285,1.213-.428-.178-.357-.36-.712-.532-1.072a6.434,6.434,0,0,1,1.312-7.447.95.95,0,0,0,.336-1.036,4.264,4.264,0,0,1,1.824-4.5,4.352,4.352,0,0,1,4.807-.015,4.275,4.275,0,0,1,1.854,4.486.957.957,0,0,0,.326,1.036,6.5,6.5,0,0,1,1.01,8.051c-.09.152-.178.307-.269.463.8.388,1.762.377,2.311,1.178Z" transform="translate(-245.265 -112.853)"/>
        <path id="Trazado_213787" data-name="Trazado 213787" d="M300.339,295.369a1.663,1.663,0,0,1-.694-1.561c.042-1.563.031-3.128.005-4.692a1.31,1.31,0,0,1,.861-1.383c.374-.157.727-.364,1.094-.541a.36.36,0,0,0,.236-.368c0-.2-.125-.248-.288-.309a2.712,2.712,0,0,1,.006-5.164c.262-.1.281-.239.28-.454,0-.612-.009-1.224,0-1.836a3.255,3.255,0,0,1,3.264-3.295q2.175-.028,4.351,0a3.256,3.256,0,0,1,3.272,3.287c.01.612,0,1.224,0,1.836,0,.173-.048.368.206.437a2.953,2.953,0,0,1,1.971,2.06v1.089a2.48,2.48,0,0,1-1.614,2.126c-.417.182-.316.364-.007.544a9.475,9.475,0,0,0,.9.457,1.205,1.205,0,0,1,.721.821v6.264a.845.845,0,0,1-.681.681Z" transform="translate(-245.203 -225.653)"/>
        <path id="Trazado_213788" data-name="Trazado 213788" d="M58.967,0c.625.151,1.261.266,1.872.459a9.811,9.811,0,1,1-4.47-.335c.106-.016.231.013.284-.125Z" transform="translate(-39.363)"/>
        <path id="Trazado_213789" data-name="Trazado 213789" d="M186.293,217.842l-.235-.234c-.4-1.212,0-1.779,1.265-1.78,1.746,0,3.493-.011,5.239,0a5.408,5.408,0,0,1,5.308,5.286c.019,2.54-.005,5.081.009,7.621a3.322,3.322,0,0,0,3.918,3.37c-.5-.471-.942-.85-1.345-1.262a1.1,1.1,0,1,1,1.536-1.565q1.579,1.547,3.126,3.127a1.083,1.083,0,0,1-.027,1.723q-1.525,1.554-3.079,3.079a1.1,1.1,0,1,1-1.531-1.572c.392-.4.81-.771,1.357-1.287a7.677,7.677,0,0,1-2.248-.22A5.438,5.438,0,0,1,195.7,228.9c-.008-2.4,0-4.809,0-7.213a3.34,3.34,0,0,0-3.649-3.68c-1.565,0-3.13,0-4.694,0a2.465,2.465,0,0,1-1.059-.167" transform="translate(-152.132 -176.612)"/>
        <path id="Trazado_213790" data-name="Trazado 213790" d="M201.773,53.375c-2.574-.06-3.953,1.292-3.955,3.654,0,2.4.007,4.81,0,7.215a5.41,5.41,0,0,1-5.422,5.452c-1.747.01-3.493,0-5.24,0-.867,0-1.324-.391-1.314-1.106s.47-1.07,1.348-1.071c1.633,0,3.266,0,4.9,0a3.321,3.321,0,0,0,3.551-3.575c0-2.36,0-4.719,0-7.078a5.409,5.409,0,0,1,5.6-5.685.639.639,0,0,0,.42-.141c-.422-.391-.859-.768-1.262-1.177a1.1,1.1,0,1,1,1.53-1.57q1.58,1.547,3.127,3.128a1.082,1.082,0,0,1-.023,1.723q-1.525,1.554-3.079,3.08a1.1,1.1,0,1,1-1.532-1.57c.392-.4.813-.769,1.354-1.276" transform="translate(-152.075 -39.196)"/>
        <path id="Trazado_213791" data-name="Trazado 213791" d="M201.771,171.088c-.551-.526-.981-.911-1.383-1.324a1.1,1.1,0,1,1,1.544-1.558q1.579,1.548,3.127,3.128a1.074,1.074,0,0,1,.012,1.675q-1.568,1.608-3.175,3.176a1.082,1.082,0,0,1-1.579.044,1.1,1.1,0,0,1,.059-1.626c.4-.416.838-.8,1.4-1.336h-.922q-6.872,0-13.745,0c-.807,0-1.267-.4-1.271-1.08s.449-1.094,1.255-1.1q4.729-.006,9.458,0h5.22" transform="translate(-152.075 -137.318)"/>
        <path id="Trazado_213792" data-name="Trazado 213792" d="M50.032,243.253c.081,1.246.359,1.5,1.639,1.5,1.2,0,2.4.005,3.594,0,.93-.005,1.318-.391,1.323-1.318q.011-1.967,0-3.933c-.006-.882-.4-1.267-1.292-1.281-.655-.011-1.31-.015-1.965-.022a5.249,5.249,0,0,1,1.358-2.136c.249-.008.5-.011.747-.023a1.092,1.092,0,0,0,1.15-1.158c.021-.566.018-1.134.026-1.7a19.924,19.924,0,0,1,1.745-2.8c.3-.477.613-.945.936-1.405.135-.192.228-.46.546-.428a1.9,1.9,0,0,0,.6.891c.77.7,1.515,1.438,2.3,2.126a1.1,1.1,0,0,1,.4.941c-.021,1.384.016,2.769-.019,4.153a1.939,1.939,0,0,0,.634,1.567c1.129,1.084,2.213,2.216,3.333,3.31a1.178,1.178,0,0,1,.409.942c-.025,1.293-.034,2.588,0,3.88.014.5-.153.589-.613.588q-9.189-.022-18.378,0c-.575,0-.724-.183-.6-.695a19.043,19.043,0,0,1,1.79-2.84.314.314,0,0,1,.343-.16" transform="translate(-39.165 -187.021)" fill="#c93c41"/>
        <path id="Trazado_213793" data-name="Trazado 213793" d="M59.854,173.914c-1.07,1.362-1.926,2.871-2.931,4.277-.09.125-.2.238-.3.357-.007-.793-.011-1.586-.023-2.379-.013-.892-.4-1.289-1.285-1.295q-1.972-.013-3.944,0c-.92.006-1.341.4-1.289,1.341.036.664-.123.981-.831.838a1.051,1.051,0,0,0-.271,0c-.35.024-.7.05-1.05.076-.014-.406-.04-.811-.041-1.217,0-4.489.009-8.977-.016-13.466,0-.553.161-.692.679-.656a13.061,13.061,0,0,0,1.9,0c.551-.043.794.1.71.69a1.422,1.422,0,0,0,.1.865,1.126,1.126,0,0,0,1.107.636c3.536,0,7.072,0,10.607,0,.837,0,1.224-.417,1.245-1.268.022-.907.022-.907.945-.907.567,0,1.137.04,1.7-.011s.728.173.6.689a29.057,29.057,0,0,1-2.385,3.733.451.451,0,0,1-.346.188c-1.49-.085-2.98-.028-4.47-.041a2.594,2.594,0,0,0-.271.01c-.625.06-.993.4-.982.9.011.479.361.8.958.851.54.043,1.084,0,1.625.019a7.5,7.5,0,0,1,1.685.074.288.288,0,0,1,.155.439,5,5,0,0,1-1.384,1.839c-.336.007-.672.01-1.008.023a1.091,1.091,0,0,0-1.174,1.178c-.02.739-.016,1.479-.023,2.219" transform="translate(-39.18 -132.389)" fill="#fc4b52"/>
        <path id="Trazado_213794" data-name="Trazado 213794" d="M11.946,240.927c0-1.383.009-2.766-.007-4.149a.951.951,0,0,1,.311-.775,14.239,14.239,0,0,0,1.483-1.495,2.2,2.2,0,0,1,2.13-.838c.356.033.45.12.446.467-.017,1.564-.009,3.129-.006,4.693,0,.848.342,1.32.985,1.384s1.047-.339,1.2-1.179a1.551,1.551,0,0,1,2.059-.982c.153.088.11.232.111.359,0,1.088-.008,2.177.009,3.265a.752.752,0,0,1-.3.57c-1.041,1.042-2.088,2.079-3.122,3.129a.9.9,0,0,1-.711.3c-1.36-.016-2.72-.028-4.08,0-.442.011-.518-.138-.512-.537.023-1.405.009-2.811.009-4.217" transform="translate(-9.768 -191.203)" fill="#f9c7b1"/>
        <path id="Trazado_213795" data-name="Trazado 213795" d="M167.779,311.71c0-1.768.025-3.537-.014-5.3-.013-.584.175-.726.727-.7,1.018.043,2.04.029,3.059,0,.421-.01.6.084.594.555q-.027,5.44,0,10.881c0,.385-.068.575-.515.564q-1.665-.043-3.331,0c-.438.011-.527-.161-.523-.556.016-1.813.007-3.627.007-5.441" transform="translate(-137.284 -250.16)" fill="#00587e"/>
        <path id="Trazado_213796" data-name="Trazado 213796" d="M16.306,317.222c0,1.587-.017,3.174.01,4.76.008.481-.084.688-.625.666-1.063-.044-2.13-.027-3.195-.006-.4.008-.558-.087-.556-.523q.024-4.93,0-9.86c0-.361.075-.533.484-.524q1.7.035,3.4,0c.408-.008.488.162.485.524-.014,1.655-.006,3.309-.006,4.964" transform="translate(-9.771 -255.096)" fill="#00587e"/>
        <path id="Trazado_213797" data-name="Trazado 213797" d="M125.924,173.628a19.661,19.661,0,0,0,1.359-2.135c.156-.217.4-.175.613-.2.994-.1,1.28-.561.922-1.5a.622.622,0,0,1-.066-.324,46.367,46.367,0,0,1,2.586-3.856q.012,5.508.019,11.016c0,.139.1.346-.121.4-.171.046-.288-.1-.4-.21-.73-.679-1.505-1.318-2.176-2.051a2.954,2.954,0,0,0-2.735-1.143" transform="translate(-103.046 -135.523)" fill="#c93c41"/>
        <path id="Trazado_213798" data-name="Trazado 213798" d="M82.171,137.371c-1.271,0-2.541-.015-3.811.009-.389.007-.485-.112-.488-.492-.011-1.372.284-1.694,1.647-1.7,1.341,0,1.629-.291,1.63-1.636,0-.068,0-.136,0-.2,0-.92.388-1.422,1.087-1.424s1.086.507,1.091,1.423a8.149,8.149,0,0,0,.01.816,1.056,1.056,0,0,0,1.006,1.015,4.869,4.869,0,0,0,.612.01c1.346,0,1.636.308,1.651,1.626,0,.438-.1.576-.556.564-1.292-.032-2.586-.011-3.879-.011" transform="translate(-63.723 -107.959)" fill="#feeb00"/>
        <path id="Trazado_213799" data-name="Trazado 213799" d="M150.714,249.588c-1.071,0-1.972-.011-2.872.007a.745.745,0,0,1-.577-.287c-1.055-1.059-2.109-2.12-3.173-3.169a.831.831,0,0,1-.274-.651c.011-1.744.018-3.489,0-5.233,0-.4.126-.477.5-.48,1.369-.009,1.667.268,1.674,1.652.005,1,.029,1.994.007,2.99a1.605,1.605,0,0,0,.572,1.309c1.352,1.237,2.684,2.5,4.149,3.862" transform="translate(-117.685 -196.211)" fill="#f9c7b1"/>
        <path id="Trazado_213800" data-name="Trazado 213800" d="M163.378,233.809c.83,0,1.549.009,2.267-.005a.658.658,0,0,1,.52.257,5.751,5.751,0,0,0,.774.76,3.665,3.665,0,0,1,1.489,4.317c-1.614-1.776-3.765-3.027-5.05-5.328" transform="translate(-133.695 -191.325)" fill="#f9c7b1"/>
        <path id="Trazado_213801" data-name="Trazado 213801" d="M167.858,258.011c1.125,1.051,2.212,2.069,3.3,3.084q2.237,2.086,4.477,4.17c.189.176.465.309.13.634-.272.264-.424.35-.753.038-2.169-2.06-4.349-4.108-6.559-6.123a1.584,1.584,0,0,1-.6-1.8" transform="translate(-137.292 -211.134)" fill="#feca2e"/>
        <path id="Trazado_213802" data-name="Trazado 213802" d="M50.094,298.776c-.7.819-1.2,1.782-1.837,2.644-.092.124-.2.237-.3.356-.007-.951-.009-1.9-.025-2.854a.744.744,0,0,1,.234-.6c.616-.6,1.215-1.214,1.923-1.926Z" transform="translate(-39.227 -242.544)" fill="#fc4b52"/>
        <path id="Trazado_213803" data-name="Trazado 213803" d="M73.051,245.824c1.061,0,1.061,0,1.061,1.049,0,1.129,0,1.129-1.117,1.129-1.061,0-1.061,0-1.061-1.049,0-1.129,0-1.129,1.117-1.129" transform="translate(-58.865 -201.162)" fill="#fefefe"/>
        <path id="Trazado_213804" data-name="Trazado 213804" d="M72.99,295.969c-1.056,0-1.056,0-1.056-1.054,0-1.125,0-1.125,1.122-1.125,1.056,0,1.056,0,1.056,1.054,0,1.125,0,1.125-1.122,1.125" transform="translate(-58.865 -240.413)" fill="#fefefe"/>
        <path id="Trazado_213805" data-name="Trazado 213805" d="M74.389,269.831a19.833,19.833,0,0,1-1.358,2.135c-1.1.055-1.1.055-1.1-1.067,0-1.09,0-1.092,1.1-1.089.452,0,.9.013,1.356.021" transform="translate(-58.865 -220.79)" fill="#fc4b52"/>
        <path id="Trazado_213806" data-name="Trazado 213806" d="M127.5,222.755a6.128,6.128,0,0,1-.543.478c-.15.106-.234-.073-.323-.153q-.4-.359-.784-.741a.51.51,0,0,1-.065-.622c.111-.184.425-.149.554-.056a13.658,13.658,0,0,1,1.116.964c.028.025.029.08.045.13" transform="translate(-102.873 -181.326)" fill="#feca2e"/>
        <path id="Trazado_213807" data-name="Trazado 213807" d="M322.558,16.038c0,.521-.014,1.043,0,1.564.024.7-.527.5-.81.434-.459-.109-1.223.485-1.351-.428-.091-.648.064-1.362-.738-1.656s-1.2.3-1.665.761c-.626.624-1.253,1.247-1.873,1.877-.185.188-.353.357-.634.16a4.7,4.7,0,0,0-3.245-.684c-.436.037-.6-.106-.587-.564.032-.883.023-1.768,0-2.652a.648.648,0,0,1,.423-.683c.858-.41,1.707-.839,2.553-1.275a1.289,1.289,0,0,1,.983-.076c.807.217,1.639.357,2.426.628a2.7,2.7,0,0,0,2.631-.3c.409-.3.658-.125,1.039.146,1.02.728.871,1.74.842,2.748" transform="translate(-255.034 -10.437)" fill="#12263f"/>
        <path id="Trazado_213808" data-name="Trazado 213808" d="M323.219,49.508a1.389,1.389,0,0,0,1.457.814c.475-.025.953.015,1.427-.011.455-.025.43.173.274.48a1.133,1.133,0,0,1-.914.616c-.854.135-1.177.458-1.126,1.3a3.833,3.833,0,0,1-.587,1.772c-.088.207-.276.2-.461.195-.567,0-1.133,0-1.7,0a1.534,1.534,0,0,1-1.622-1.58c-.007-.113,0-.227,0-.34-.012-.9-.267-1.2-1.166-1.35a1.134,1.134,0,0,1-.956-.759c-.086-.227-.036-.308.223-.337a2.349,2.349,0,0,1,1.337.4c1.887.941,1.753,1.1,3.326-.531a6.352,6.352,0,0,0,.489-.67" transform="translate(-260.065 -40.513)" fill="#f9c7b1"/>
        <path id="Trazado_213809" data-name="Trazado 213809" d="M315.413,89.546c-.445.9-.778,1.641-1.177,2.349a1.393,1.393,0,0,0,.305,2.079c-.963,0-1.745-.012-2.527.006-.3.007-.321-.144-.319-.377.008-.93,0-1.861,0-2.791,0-.176-.028-.338.236-.4,1.118-.262,2.229-.552,3.478-.866" transform="translate(-255.065 -73.277)" fill="#dff7f9"/>
        <path id="Trazado_213810" data-name="Trazado 213810" d="M352.107,93.951c.893-.716.683-1.4.27-2.13-.4-.7-.724-1.445-1.148-2.3,1.261.316,2.395.6,3.531.881.189.046.178.178.178.31,0,.975,0,1.95,0,2.925,0,.227-.062.324-.306.32-.784-.012-1.568,0-2.531,0" transform="translate(-287.416 -73.254)" fill="#dff7f9"/>
        <path id="Trazado_213811" data-name="Trazado 213811" d="M338.2,97.479a7.7,7.7,0,0,0,.552,1.059c.468.613.012.92-.363,1.273-.193.182-.349.075-.451-.081-.169-.258-.662-.35-.466-.8s.436-.877.727-1.455" transform="translate(-276.121 -79.769)" fill="#869495"/>
        <path id="Trazado_213812" data-name="Trazado 213812" d="M317.745,178.633a4.315,4.315,0,0,1,2.2-4.288,4.118,4.118,0,0,1,4.671.243,4.362,4.362,0,0,1,1.8,4.153c-.562-.729-1.235-.622-1.882-.626-.909-.005-1.216-.268-1.365-1.15a1.087,1.087,0,0,0-2.168-.025c-.162.924-.456,1.169-1.413,1.176-1.127.008-1.127.008-1.849.516" transform="translate(-260.01 -142.169)" fill="#12263f"/>
        <path id="Trazado_213813" data-name="Trazado 213813" d="M331.715,210.012c-.431,0-.862-.007-1.293,0-.628.013-.91-.3-.882-.912a.618.618,0,0,0,0-.136c-.134-.767.123-1.058.937-1.34a3.383,3.383,0,0,1,2.494,0c.83.287,1,.6.94,1.352-.061.84-.2,1.035-1.038,1.037-.386,0-.771,0-1.157,0" transform="translate(-269.639 -169.707)" fill="#f9c7b1"/>
        <path id="Trazado_213814" data-name="Trazado 213814" d="M314.517,233.483c-.942,0-1.688-.017-2.432.007-.335.011-.417-.1-.41-.422q.029-1.389,0-2.778c-.006-.306.1-.451.4-.508a4.966,4.966,0,0,0,.639-.218c.857-.288,1.12-.195,1.711.5.152.178.047.284,0,.42a10.6,10.6,0,0,1-.357,1.091,1.422,1.422,0,0,0,.447,1.909" transform="translate(-255.048 -187.731)" fill="#fec0c2"/>
        <path id="Trazado_213815" data-name="Trazado 213815" d="M356.086,233.125a1.407,1.407,0,0,0,.453-1.872,6.413,6.413,0,0,1-.214-.64,1.2,1.2,0,0,1,.634-1.592c.294-.139.557.071.823.156,1.136.366,1.134.37,1.134,1.526,0,.655-.014,1.31.006,1.964.01.329-.05.484-.434.467-.739-.033-1.481-.01-2.4-.01" transform="translate(-291.391 -187.374)" fill="#fec0c2"/>
        <path id="Trazado_213816" data-name="Trazado 213816" d="M331.9,152.084a5.068,5.068,0,0,0-1.711.226c-.441.13-.51-.074-.487-.442a2.185,2.185,0,0,1,4.35.028c.02.413-.117.521-.517.406a4.768,4.768,0,0,0-1.636-.218" transform="translate(-269.799 -122.665)" fill="#12263f"/>
        <path id="Trazado_213817" data-name="Trazado 213817" d="M337.931,236.533c-.28-.024-.881-.89-.8-1.166.126-.409.28-.809.4-1.219.064-.222.152-.351.411-.35a.386.386,0,0,1,.427.331c.124.433.287.854.414,1.285.082.281-.59,1.142-.855,1.119" transform="translate(-275.876 -191.321)" fill="#fc4b52"/>
        <path id="Trazado_213818" data-name="Trazado 213818" d="M313.962,307.48c1.876.465,3.688.922,5.5,1.361a9.936,9.936,0,0,0,2.654.518.5.5,0,0,1,.547.558c-.014.346-.252.49-.593.524-1.453.148-1.57.286-1.57,1.758,0,.249.007.5,0,.748a.7.7,0,0,1-.757.756c-1.678.008-3.356.013-5.034,0a.691.691,0,0,1-.742-.771c0-.408.006-.816,0-1.225a1.121,1.121,0,0,0-1.247-1.265c-.068,0-.136,0-.2,0-.386.014-.707-.111-.708-.541s.311-.539.7-.553c.973-.036,1.368-.307,1.447-.984a8.189,8.189,0,0,0,.005-.881" transform="translate(-255.158 -251.616)" fill="#f9c7b1"/>
        <path id="Trazado_213819" data-name="Trazado 213819" d="M330.258,289.64c0,1.109,0,1.109-1.088.836-1.6-.4-3.2-.793-4.8-1.216-.224-.059-.6.04-.638-.357a1,1,0,0,1,.363-.844,1.309,1.309,0,0,1,.951-.282c1.224.007,2.448,0,3.672,0s1.537.322,1.54,1.519q0,.17,0,.34" transform="translate(-264.912 -235.493)" fill="#12263f"/>
        <path id="Trazado_213820" data-name="Trazado 213820" d="M314.441,350.143c-.025,1.156-1.243,2.138.037,3.3-.919,0-1.7-.009-2.473,0-.289.005-.332-.135-.33-.375.008-1,.02-2,0-2.993-.01-.417.312-.443.548-.586.184-.111.36-.189.534.03a1.549,1.549,0,0,0,1.688.615" transform="translate(-255.044 -285.91)" fill="#a7e446"/>
        <path id="Trazado_213821" data-name="Trazado 213821" d="M356.375,353.583c1.247-1.154.055-2.155,0-3.273a1.832,1.832,0,0,0,1.733-.653c.26-.294,1.023.091,1.033.521.023,1.02,0,2.041.012,3.061,0,.267-.1.353-.356.349-.763-.011-1.525,0-2.424,0" transform="translate(-291.627 -286.045)" fill="#a7e446"/>
        <path id="Trazado_213822" data-name="Trazado 213822" d="M337.855,356.46c-.232,0-.906-.794-.841-1.025.135-.479.3-.949.457-1.422a.346.346,0,0,1,.358-.254.37.37,0,0,1,.421.261c.152.474.323.943.457,1.423.064.231-.622,1.02-.851,1.017" transform="translate(-275.78 -289.487)" fill="#64892a"/>
        <path id="Trazado_213823" data-name="Trazado 213823" d="M61.978,24.725a7.2,7.2,0,0,1-1.791-7.157,7.579,7.579,0,0,1,12.506-3.561,4.839,4.839,0,0,1,.419,3.165,8.871,8.871,0,0,1-9.323,8.006,2.986,2.986,0,0,1-1.81-.453" transform="translate(-49.009 -9.751)" fill="#feca2e"/>
        <path id="Trazado_213824" data-name="Trazado 213824" d="M71.384,34.142A8.669,8.669,0,0,0,79.116,32.5a8.5,8.5,0,0,0,3.133-5.314,9.616,9.616,0,0,0-.15-3.76A7.584,7.584,0,1,1,71.384,34.142" transform="translate(-58.415 -19.168)" fill="#cba124"/>
        <path id="Trazado_213825" data-name="Trazado 213825" d="M111.145,307.932c-.681,0-1.362.013-2.042,0a1.089,1.089,0,1,1,.022-2.17q2.076-.021,4.152,0a1.089,1.089,0,1,1-.022,2.17c-.7.015-1.407,0-2.11,0" transform="translate(-88.319 -250.198)"/>
        <path id="Trazado_213826" data-name="Trazado 213826" d="M109.567,251.818c1.1,0,1.613.341,1.616,1.085S110.665,254,109.575,254c-1.137,0-1.671-.362-1.649-1.12.021-.735.524-1.059,1.641-1.059" transform="translate(-88.317 -206.067)" fill="#010000"/>
        <path id="Trazado_213827" data-name="Trazado 213827" d="M63.187,185.847c.7,0,1.4-.014,2.1,0A1.067,1.067,0,0,1,66.444,187q.028,2.1,0,4.21a1.078,1.078,0,0,1-1.2,1.172q-2.071.022-4.142,0a1.077,1.077,0,0,1-1.186-1.18q-.023-2.071,0-4.143a1.094,1.094,0,0,1,1.23-1.206c.679-.012,1.358,0,2.037,0" transform="translate(-49.025 -152.077)"/>
        <path id="Trazado_213828" data-name="Trazado 213828" d="M114.021,186.021a1.159,1.159,0,0,1,.3,1.4,1.181,1.181,0,0,1-1.24.608c-.178-.008-.357.012-.535.019-1.107-.007-2.215-.012-3.322-.023-.811-.008-1.288-.4-1.307-1.058-.02-.688.473-1.114,1.312-1.118,1.289-.006,2.577.005,3.866-.006a2.28,2.28,0,0,1,.92.181" transform="translate(-88.314 -152.075)"/>
        <path id="Trazado_213829" data-name="Trazado 213829" d="M98.054,26.5c0,.136,0,.272,0,.408,0,.43-.135.935.044,1.271.217.406.774.088,1.175.17a1.056,1.056,0,0,1,.953,1.058,1.026,1.026,0,0,1-.965,1.1c-.79.038-1.585.039-2.375,0a.964.964,0,0,1-1-1c-.031-1.493-.026-2.988,0-4.482A1.036,1.036,0,0,1,96.985,24a1.058,1.058,0,0,1,1.064,1.084c.02.475,0,.951,0,1.426" transform="translate(-78.45 -19.635)"/>
        <path id="Trazado_213830" data-name="Trazado 213830" d="M74.112,199c0,1.035,0,1.035-1.075,1.035-1.1,0-1.1,0-1.1-1.075,0-1.1,0-1.1,1.075-1.1,1.1,0,1.1,0,1.1,1.143" transform="translate(-58.865 -161.91)" fill="#fefefe"/>
      </g>
    </g>
  </g>
</svg>
