<svg xmlns="http://www.w3.org/2000/svg" xmlns:xlink="http://www.w3.org/1999/xlink" width="122" height="122" viewBox="0 0 122 122">
  <defs>
    <clipPath id="clip-path">
      <circle id="Elipse_5552" data-name="Elipse 5552" cx="52.5" cy="52.5" r="52.5" transform="translate(748 1014)" fill="#a7e446"/>
    </clipPath>
    <clipPath id="clip-path-2">
      <rect id="Rectángulo_88890" data-name="Rectángulo 88890" width="79" height="78.864" fill="none"/>
    </clipPath>
  </defs>
  <g id="Grupo_146848" data-name="Grupo 146848" transform="translate(-740 -1405)">
    <g id="Elipse_5543" data-name="Elipse 5543" transform="translate(740 1405)" fill="#f5feff" stroke="#0082b2" stroke-width="2">
      <circle cx="61" cy="61" r="61" stroke="none"/>
      <circle cx="61" cy="61" r="60" fill="none"/>
    </g>
    <circle id="Elipse_5551" data-name="Elipse 5551" cx="43" cy="43" r="43" transform="translate(758 1423)" fill="#dff7f9"/>
    <g id="Grupo_140627" data-name="Grupo 140627" transform="translate(763 1425.136)">
      <g id="Grupo_140627-2" data-name="Grupo 140627" clip-path="url(#clip-path-2)">
        <path id="Trazado_213942" data-name="Trazado 213942" d="M0,99.153V41.1a4.08,4.08,0,0,1,4.2-3.3c2.18-.015,4.361-.006,6.541,0a1.562,1.562,0,0,1,.966.173.355.355,0,0,1-.027.429,6.689,6.689,0,0,0-.815,3.839c0,.441.133.935-.3,1.286a10.6,10.6,0,0,1-2.605.133c-.385.02-.772-.015-1.156.021a1.066,1.066,0,0,0-1.129,1.111,8.471,8.471,0,0,0-.023.923q0,24.4,0,48.8c0,.077,0,.154,0,.231.009,1.538.307,1.847,1.856,1.848q12.688.008,25.376.006c1.49,0,2.982-.05,4.47.034a1,1,0,0,1,.771.556,23.864,23.864,0,0,0,3.706,4.554c.178.171.617.4.049.66a3.77,3.77,0,0,1-1,.073q-18.011,0-36.021,0c-.206,0-.411,0-.617-.014A4.21,4.21,0,0,1,0,99.153" transform="translate(0 -30.01)" fill="#feca2e"/>
        <path id="Trazado_213943" data-name="Trazado 213943" d="M51.574,13.387c.013-.841.013-1.683.043-2.524a4.481,4.481,0,0,1,1.005-2.826,2.564,2.564,0,0,1,1.9-1.393A7.694,7.694,0,0,1,56.885,6.4c1,.014,2,.01,3,0,.816-.007.861-.058.89-.873a5.609,5.609,0,0,1,3-5.089A7.816,7.816,0,0,1,65.463,0h1.852a12.327,12.327,0,0,1,2.077.92A5.54,5.54,0,0,1,71.756,5.8c0,.684.192.881.866.85,1.176-.054,2.357.02,3.533-.024a5.043,5.043,0,0,1,3.99,1.4,2.614,2.614,0,0,1,1.106,2.251,31.581,31.581,0,0,1,0,3.232c-.285,1.09-.639,1.359-1.884,1.361q-7.661.012-15.322,0c-3.593,0-7.186.01-10.78-.006-.994,0-1.545-.379-1.715-1.1a.8.8,0,0,1,.023-.38" transform="translate(-40.93)" fill="#bcc2c6"/>
        <path id="Trazado_213944" data-name="Trazado 213944" d="M362.385,166.808a1.961,1.961,0,0,1-1.947.9c-.531-.037-1.068.013-1.6.025a1.441,1.441,0,0,1-1.855-1.851c.011-.639.032-1.278.029-1.918a1.421,1.421,0,0,1,.978-1.561,1.343,1.343,0,0,1,1.618.714,1.011,1.011,0,0,1,.358.962c-.009.494.212.7.7.677a2.2,2.2,0,0,1,.9.156,1.351,1.351,0,0,1,.82.972Z" transform="translate(-283.385 -128.925)" fill="#7f6e5d"/>
        <path id="Trazado_213945" data-name="Trazado 213945" d="M372.364,165.145c-.57-.269-1.36.132-1.75-.3-.353-.393-.009-1.14-.251-1.7a1.21,1.21,0,0,0,.194-.115c1.131-.994,1.9-.871,2.584.419v.77c-.193.364-.309.792-.778.925" transform="translate(-294.141 -128.955)" fill="#cab292"/>
        <path id="Trazado_213946" data-name="Trazado 213946" d="M380.084,172.276a3.9,3.9,0,0,1,.778-.925v1.694c-.252-.263-.435-.6-.778-.769" transform="translate(-301.862 -136.087)" fill="#fbfbfa"/>
        <path id="Trazado_213947" data-name="Trazado 213947" d="M205.97,176.182a21.316,21.316,0,0,1-3.067,31.031c-.161.127-.315.262-.472.393A4.4,4.4,0,0,1,200,209.122a21.74,21.74,0,0,1-10.885,2.5,21.442,21.442,0,0,1-8.728-2.179c-.253-.123-.511-.235-.766-.352a4.4,4.4,0,0,1-2.334-1.482l-1.581-1.3a21,21,0,0,1-4.189-4.993c-.079-.126-.18-.239-.271-.358a1.353,1.353,0,0,1-.532-.638,21.641,21.641,0,0,1,2.618-23.981,22.741,22.741,0,0,1,5.7-4.758,23.554,23.554,0,0,1,4.477-1.957,1.192,1.192,0,0,1,1.031-.084,21.4,21.4,0,0,1,18.549,3.909c.306.233.593.49.889.736.087.308-.148.468-.318.64q-1.445,1.466-2.914,2.908c-.195.191-.388.423-.723.315a17.169,17.169,0,0,0-6.3-3.139,15.494,15.494,0,0,0-13.844,3.085,15.787,15.787,0,0,0,8.734,28.026,15.406,15.406,0,0,0,12.131-4.246,15.248,15.248,0,0,0,4.894-10.087A16.067,16.067,0,0,0,202.1,180.14c-.111-.295.075-.488.251-.668q1.524-1.554,3.082-3.075c.142-.138.293-.3.532-.215" transform="translate(-133.616 -134.138)" fill="#fc4b52"/>
        <path id="Trazado_213948" data-name="Trazado 213948" d="M202.249,66.311a25.256,25.256,0,0,0-5.389,2.169c-.364-.385-.253-.87-.253-1.319Q196.594,57,196.6,46.843c0-2.127-.162-2.289-2.266-2.29-.643,0-1.285.01-1.928-.006-.329-.008-.679.023-.918-.286,0-.692-.051-1.387-.005-2.076a4.749,4.749,0,0,0-.938-3.247c2.569,0,5.139-.037,7.708,0a4.019,4.019,0,0,1,3.971,4.3q.01,11,0,22c0,.359.014.717.022,1.076" transform="translate(-151.33 -30.909)" fill="#feca2e"/>
        <path id="Trazado_213949" data-name="Trazado 213949" d="M277.784,186.483c1.318-1.226,2.614-2.474,3.809-3.823l3.239-3.091c.066,1.348.508,1.788,1.855,1.85l-3.1,3.238a53.57,53.57,0,0,0-3.829,3.8c-.044.338-.315.517-.528.731-1.028,1.038-2.069,2.063-3.1,3.1q-1.962,1.933-3.9,3.9c-1.058,1.049-2.108,2.106-3.164,3.156a6.011,6.011,0,0,1-.562.527,1.621,1.621,0,0,1-2.117-.048,1.578,1.578,0,0,1-.044-2.108c.593-.709,1.291-1.322,1.941-1.979.578-.584,1.162-1.163,1.742-1.743,1.319-1.277,2.606-2.588,3.9-3.888,1.045-1.021,2.067-2.066,3.108-3.09.215-.212.394-.482.733-.528" transform="translate(-211.236 -142.613)" fill="#cab191"/>
        <path id="Trazado_213950" data-name="Trazado 213950" d="M60.922,64.876q1.847.016,3.694.033c1.2.009,1.666.468,1.667,1.672q0,11.065,0,22.131c0,.128.005.256.008.384A21.333,21.333,0,0,0,57.9,97.987a21.088,21.088,0,0,0-.014,19.322l.5,1.035q-15.31,0-30.62,0c-1.144,0-1.623-.489-1.623-1.645q0-25.095,0-50.19c0-1.188.427-1.6,1.637-1.6s2.417,0,3.625,0c.491,1.179.6,1.252,1.941,1.252H59.37c1.05,0,1.324-.232,1.553-1.287" transform="translate(-20.763 -51.524)" fill="#ffedb6"/>
        <path id="Trazado_213951" data-name="Trazado 213951" d="M322.542,358.5l2.435-1.516c.552.947,1.1,1.9,1.659,2.841.679,1.144.607,1.9-.241,2.37-.769.428-1.416.115-2.063-.983-.453-.77-.919-1.531-1.378-2.3-.1-.172-.171-.38-.412-.416" transform="translate(-256.162 -283.516)" fill="#bcc2c6"/>
        <path id="Trazado_213952" data-name="Trazado 213952" d="M203.907,356.992l2.334,1.482a26.9,26.9,0,0,0-1.54,2.461c-.136.216-.25.445-.392.657a1.347,1.347,0,1,1-2.263-1.433c.615-1.059,1.24-2.111,1.861-3.166" transform="translate(-160.241 -283.522)" fill="#bcc2c6"/>
        <path id="Trazado_213953" data-name="Trazado 213953" d="M118.419,22.125a1.323,1.323,0,0,1-1.351-1.279,1.38,1.38,0,0,1,1.377-1.355,1.331,1.331,0,0,1,1.3,1.34,1.291,1.291,0,0,1-1.321,1.293" transform="translate(-92.975 -15.48)" fill="#606060"/>
        <path id="Trazado_213954" data-name="Trazado 213954" d="M219.879,204.276c1.184-1.328,2.456-2.569,3.766-3.773a15.323,15.323,0,0,1,3.776,10.393,16.055,16.055,0,1,1-18.31-15.972,15.316,15.316,0,0,1,12.557,3.606c-1.208,1.3-2.45,2.573-3.779,3.757a1.143,1.143,0,0,1-.776-.285,10.492,10.492,0,0,0-13.852,15.446,10.351,10.351,0,0,0,8.394,3.832,10.5,10.5,0,0,0,8.628-16.028c-.18-.3-.447-.577-.4-.975" transform="translate(-155.12 -154.659)" fill="#fefefe"/>
        <path id="Trazado_213955" data-name="Trazado 213955" d="M240.534,224.7a10.707,10.707,0,1,1-19.1,8.009,10.15,10.15,0,0,1,4.97-10.562c3.9-2.413,7.9-2.191,11.757.311l.387.251a53.149,53.149,0,0,1-3.859,3.849c-.326.131-.6-.055-.885-.153a5.133,5.133,0,1,0,1.885,8.367,5.03,5.03,0,0,0,1.172-5.264c-.1-.311-.312-.6-.18-.957a51.3,51.3,0,0,1,3.856-3.851" transform="translate(-175.775 -175.088)" fill="#fc4b52"/>
        <path id="Trazado_213956" data-name="Trazado 213956" d="M257.284,249.458a5.391,5.391,0,1,1-2.553-2.246c.188.08.374.169.56.253-1.1,1.289-2.381,2.409-3.555,3.63a1.349,1.349,0,0,0-.267,1.69,1.262,1.262,0,0,0,1.447.627,1.718,1.718,0,0,0,.893-.57c1.165-1.121,2.235-2.338,3.473-3.384" transform="translate(-196.381 -195.991)" fill="#fefefe"/>
        <path id="Trazado_213957" data-name="Trazado 213957" d="M107.631,164.992q-4.239,0-8.477,0c-.967,0-1.64-.566-1.622-1.343a1.434,1.434,0,0,1,1.608-1.293q8.477-.005,16.954,0c.99,0,1.511.486,1.5,1.35-.015.826-.522,1.281-1.482,1.283-2.826.008-5.652,0-8.477,0" transform="translate(-77.459 -128.94)" fill="#98791b"/>
        <path id="Trazado_213958" data-name="Trazado 213958" d="M107.638,110.611q4.2,0,8.4,0c1.031,0,1.546.423,1.566,1.263s-.561,1.371-1.581,1.371q-8.437.007-16.875,0a1.422,1.422,0,0,1-1.6-1.385c.02-.792.6-1.248,1.613-1.249q4.238-.006,8.476,0" transform="translate(-77.472 -87.846)" fill="#98791b"/>
        <path id="Trazado_213959" data-name="Trazado 213959" d="M103.931,216.836c-1.565,0-3.13.007-4.694,0-1.044-.006-1.7-.553-1.687-1.381.011-.8.658-1.347,1.648-1.349q4.81-.012,9.62,0c.918,0,1.5.4,1.654,1.078.2.882-.479,1.636-1.538,1.65-1.667.022-3.335.006-5,.006" transform="translate(-77.473 -170.036)" fill="#98791b"/>
        <path id="Trazado_213960" data-name="Trazado 213960" d="M102.839,268.958c-1.257,0-2.515.007-3.772,0a1.331,1.331,0,1,1,0-2.63q3.811-.008,7.622,0c.967,0,1.554.509,1.555,1.314s-.588,1.312-1.553,1.317c-1.283.007-2.566,0-3.849,0" transform="translate(-77.458 -211.512)" fill="#98791b"/>
        <path id="Trazado_213961" data-name="Trazado 213961" d="M58.912,202.519a1.651,1.651,0,0,1-.328.973c-.82,1.238-1.635,2.481-2.477,3.7a1.379,1.379,0,0,1-2.337.206c-.371-.354-.74-.711-1.088-1.087a1.394,1.394,0,0,1-.167-1.82,1.3,1.3,0,0,1,1.79-.276c.362.234.488.166.691-.156q.716-1.138,1.5-2.233a1.22,1.22,0,0,1,1.495-.476,1.346,1.346,0,0,1,.923,1.164" transform="translate(-41.497 -159.845)" fill="#fc4b52"/>
        <path id="Trazado_213962" data-name="Trazado 213962" d="M52.293,257.329a1.275,1.275,0,0,1,1.966-1.182c.436.272.584.178.814-.195.415-.676.859-1.336,1.323-1.979a1.344,1.344,0,1,1,2.2,1.505q-1.22,1.863-2.476,3.7a1.335,1.335,0,0,1-2.262.224c-.407-.39-.8-.8-1.2-1.194a1.148,1.148,0,0,1-.37-.883" transform="translate(-41.53 -201.12)" fill="#fc4b52"/>
        <path id="Trazado_213963" data-name="Trazado 213963" d="M53.512,100.116c.127.014.3-.019.375.05.841.732,1.074-.067,1.417-.555.368-.524.7-1.074,1.076-1.591a1.311,1.311,0,0,1,1.823-.408,1.277,1.277,0,0,1,.415,1.809c-.879,1.382-1.786,2.749-2.732,4.087a1.254,1.254,0,0,1-1.95.223,14.771,14.771,0,0,1-1.464-1.469,1.261,1.261,0,0,1-.148-1.445,1.178,1.178,0,0,1,1.188-.7" transform="translate(-41.429 -77.355)" fill="#fc4b52"/>
        <path id="Trazado_213964" data-name="Trazado 213964" d="M58.9,150.709a1.93,1.93,0,0,1-.34.929c-.842,1.253-1.668,2.517-2.523,3.761a1.3,1.3,0,0,1-2.148.24c-.45-.419-.886-.854-1.3-1.307a1.336,1.336,0,0,1-.053-1.753,1.185,1.185,0,0,1,1.653-.282c.472.336.637.156.876-.221.452-.713.928-1.411,1.412-2.1a1.261,1.261,0,0,1,1.5-.472,1.322,1.322,0,0,1,.918,1.207" transform="translate(-41.486 -118.673)" fill="#fc4b52"/>
      </g>
    </g>
  </g>
</svg>
