<svg xmlns="http://www.w3.org/2000/svg" xmlns:xlink="http://www.w3.org/1999/xlink" width="122" height="122" viewBox="0 0 122 122">
  <defs>
    <clipPath id="clip-path">
      <rect id="Rectángulo_88894" data-name="Rectángulo 88894" width="78.002" height="76.697" fill="none"/>
    </clipPath>
  </defs>
  <g id="Grupo_146849" data-name="Grupo 146849" transform="translate(-1090 -1405)">
    <g id="Elipse_5544" data-name="Elipse 5544" transform="translate(1090 1405)" fill="#f5feff" stroke="#0082b2" stroke-width="2">
      <circle cx="61" cy="61" r="61" stroke="none"/>
      <circle cx="61" cy="61" r="60" fill="none"/>
    </g>
    <circle id="Elipse_5553" data-name="Elipse 5553" cx="43" cy="43" r="43" transform="translate(1108 1423)" fill="#dff7f9"/>
    <g id="Grupo_140632" data-name="Grupo 140632" transform="translate(1112 1428)">
      <g id="Grupo_140632-2" data-name="Grupo 140632" clip-path="url(#clip-path)">
        <path id="Trazado_214059" data-name="Trazado 214059" d="M31.738,158.505q-.008,7.847-.016,15.693a3.972,3.972,0,0,1-4.292,4.258q-11.6,0-23.21,0A4,4,0,0,1,0,174.2q0-19.534,0-39.068a4.007,4.007,0,0,1,4.293-4.261l5.947-.006a1.533,1.533,0,0,1,1.092-.259q5.707-.009,11.414,0a1.837,1.837,0,0,1,1.035.189,1.56,1.56,0,0,1,.267,1.17c.011,1.729,0,3.459.005,5.188,0,1.383,0,1.385,1.35,1.387,1.674,0,3.349,0,5.023,0a5.7,5.7,0,0,1,1.145.09c.277.232.09.558.168.831a1.47,1.47,0,0,1,.248,1.1q.011,8.425,0,16.851a1.454,1.454,0,0,1-.25,1.1" transform="translate(0 -101.765)" fill="#eddb99"/>
        <path id="Trazado_214060" data-name="Trazado 214060" d="M92.689,3.087A18.765,18.765,0,0,1,99.715.407a21.912,21.912,0,0,1,15.913,2.9A21.982,21.982,0,0,1,126.1,18.78c.169.948.253,1.9.332,2.86.064.79-.253.875-.927.873-7.186-.023-14.372-.014-21.558-.014-.355-.109-.49-.43-.651-.709Q98.115,12.825,92.934,3.86a1.3,1.3,0,0,1-.245-.773" transform="translate(-72.22 0)" fill="#a7e446"/>
        <path id="Trazado_214061" data-name="Trazado 214061" d="M53.23,13.981q3.113,5.347,6.225,10.695,2.526,4.354,5.033,8.718L59.18,42.5c-.325.058-.5-.181-.681-.372a14.008,14.008,0,0,1-1.938-2.091L43,40a22.467,22.467,0,0,1,9.371-25.523c.276-.179.571-.329.857-.493" transform="translate(-32.761 -10.894)" fill="#fc4b52"/>
        <path id="Trazado_214062" data-name="Trazado 214062" d="M143.736,178.862q0-9.522,0-19.044c.5-.846,1.041-1.675,1.5-2.544.339-.638.555-.747,1.135-.161,4.519,4.572,9.077,9.106,13.623,13.653l.758.758c.939.939.928.925-.062,1.76a23.036,23.036,0,0,1-6.25,3.913c-.394.041-.579-.273-.805-.5-1.057-1.04-2.113-2.083-3.145-3.148-.425-.439-.742-.407-1.169.007-1.057,1.027-1.072,1.011-.051,2.033.6.6,1.21,1.2,1.8,1.81.2.209.482.388.44.747a16.151,16.151,0,0,1-4.911.814,9.651,9.651,0,0,1-2.871-.1" transform="translate(-111.997 -122.122)" fill="#afafaf"/>
        <path id="Trazado_214063" data-name="Trazado 214063" d="M220.119,287.45c2.12,0,4.239,0,6.359,0a3.959,3.959,0,0,1,4.158,4.143c.006,1.679.009,3.358,0,5.037a3.961,3.961,0,0,1-4.017,4.032q-6.565.017-13.131,0a3.968,3.968,0,0,1-3.994-3.975q-.02-2.6,0-5.2a3.974,3.974,0,0,1,4.021-4.033c2.2-.011,4.4,0,6.606,0" transform="translate(-163.227 -223.975)" fill="#89cbe6"/>
        <path id="Trazado_214064" data-name="Trazado 214064" d="M272.612,36.038c1.734,0,3.469-.011,5.2,0a3.939,3.939,0,0,1,4.046,4q.028,2.6,0,5.2a3.933,3.933,0,0,1-4.045,4q-5.2.025-10.4,0a3.941,3.941,0,0,1-4.047-4.086q-.018-2.519,0-5.037a3.951,3.951,0,0,1,4.129-4.088c1.707-.01,3.413,0,5.12,0" transform="translate(-205.202 -28.077)" fill="#2d80b2"/>
        <path id="Trazado_214065" data-name="Trazado 214065" d="M190.617,131.736c1.733,0,3.467.029,5.2-.013.639-.015.8.2.767.805A22.511,22.511,0,0,1,191.92,145.4c-.5.651-1.061,1.258-1.583,1.895-.206.251-.387.272-.6.018-.052-.064-.116-.117-.175-.176q-7.47-7.47-14.939-14.942c-.095-.095-.176-.2-.372-.433h12.435c-.02.572-.521.8-.846,1.144a.594.594,0,0,0-.008.968c1.1,1.21,1.088,1.221,2.237.072.6-.6,1.191-1.2,1.8-1.792.207-.2.38-.487.744-.418" transform="translate(-135.778 -102.636)" fill="#feca2e"/>
        <path id="Trazado_214066" data-name="Trazado 214066" d="M167.4,235.854c-1-1.02-1.981-2.054-3-3.05-.349-.341-.392-.54-.023-.918,1.418-1.454,1.4-1.465,2.836-.038,1.032,1.024,2.076,2.036,3.115,3.053.94.962,1.888,1.916,2.816,2.89.3.316.66.219,1,.219,7.178.006,14.357.015,21.535-.012.726,0,.981.143.953.924-.064,1.734-.019,1.735-1.774,1.735-7.151,0-14.3-.01-21.452.014a2.506,2.506,0,0,1-1.961-.82c-1.319-1.36-2.692-2.668-4.044-4" transform="translate(-127.88 -179.826)" fill="#e34042"/>
        <path id="Trazado_214067" data-name="Trazado 214067" d="M230.032,113.11c-1.057,1.031-2.13,2.046-3.162,3.1-.367.375-.585.407-.978.015-1.387-1.383-1.4-1.367-.044-2.772.094-.1.172-.21.257-.316,1.547-1.524,3.107-3.035,4.633-4.58a2.269,2.269,0,0,1,1.746-.737q9.946.029,19.892,0c.636,0,.834.144.819.805-.041,1.852-.009,1.853-1.82,1.853q-9.038,0-18.076-.011a1.471,1.471,0,0,0-1.222.5c-.658.735-1.361,1.43-2.045,2.142" transform="translate(-175.193 -84.01)" fill="#e34042"/>
        <path id="Trazado_214068" data-name="Trazado 214068" d="M107.71,131.977l2.619,2.463,5.154,5.26c-.177.254-.446.171-.681.172-2.118.006-4.235-.013-6.353.014-.559.007-.768-.134-.76-.731.033-2.392.018-4.785.02-7.177" transform="translate(-83.911 -102.835)" fill="#edbd33"/>
        <path id="Trazado_214069" data-name="Trazado 214069" d="M25.8,236.18c-2.368,0-4.736-.016-7.1.012-.58.007-.826-.1-.82-.759.015-1.9-.016-1.9,1.9-1.9,4.35,0,8.7.014,13.05-.014.681,0,.972.107.947.886-.055,1.77-.011,1.772-1.781,1.772H25.8" transform="translate(-13.933 -181.958)" fill="#edbd33"/>
        <path id="Trazado_214070" data-name="Trazado 214070" d="M24.462,284.071c-1.955,0-3.909-.016-5.864.01-.528.007-.71-.14-.716-.692-.023-1.962-.044-1.961,1.915-1.961,3.5,0,6.993.015,10.489-.013.634-.005.855.147.844.82-.031,1.836,0,1.837-1.795,1.837H24.462" transform="translate(-13.93 -219.275)" fill="#edbd33"/>
        <path id="Trazado_214071" data-name="Trazado 214071" d="M72.342,260.119c-1.955,0-3.91-.017-5.864.011-.549.008-.694-.176-.7-.709-.019-1.946-.038-1.946,1.93-1.946,3.5,0,6.993.017,10.489-.015.663-.006.835.194.826.837-.026,1.821,0,1.822-1.808,1.822H72.342" transform="translate(-51.251 -200.61)" fill="#edbd33"/>
        <path id="Trazado_214072" data-name="Trazado 214072" d="M48.342,188.3c-1.955,0-3.909-.013-5.864.009-.491.005-.663-.134-.674-.65-.045-2-.064-2,1.956-2,3.5,0,6.993.013,10.489-.013.6,0,.807.145.8.778-.015,1.878.013,1.878-1.835,1.878H48.342" transform="translate(-32.564 -144.649)" fill="#edbd33"/>
        <path id="Trazado_214073" data-name="Trazado 214073" d="M83.1,209.6c1.514,0,3.029.02,4.542-.011.535-.011.705.152.711.7.021,1.956.042,1.956-1.919,1.956-2.643,0-5.286-.015-7.928.011-.571.006-.753-.155-.753-.74,0-1.915-.024-1.915,1.879-1.915H83.1" transform="translate(-60.586 -163.313)" fill="#edbd33"/>
        <path id="Trazado_214074" data-name="Trazado 214074" d="M23.075,212.247c-1.542,0-3.083-.012-4.625.007-.453.006-.614-.131-.633-.606-.08-2.046-.1-2.045,1.912-2.045,2.643,0,5.286.014,7.928-.011.563-.005.759.141.76.734,0,1.921.025,1.921-1.874,1.921H23.075" transform="translate(-13.863 -163.312)" fill="#edbd33"/>
        <path id="Trazado_214075" data-name="Trazado 214075" d="M21.661,260.137c-1.1,0-2.2-.012-3.3.006-.415.007-.567-.125-.591-.562-.115-2.088-.129-2.087,1.952-2.087,1.762,0,3.524.017,5.285-.01.527-.008.711.136.718.691.023,1.963.044,1.963-1.913,1.963H21.661" transform="translate(-13.812 -200.628)" fill="#edbd33"/>
        <path id="Trazado_214076" data-name="Trazado 214076" d="M20.428,152.4c-.688,0-1.377-.019-2.064.006-.436.016-.552-.161-.573-.579-.1-2.071-.117-2.07,1.966-2.07.908,0,1.817.02,2.725-.008.472-.014.6.165.616.622.071,2.03.085,2.029-1.926,2.029h-.743" transform="translate(-13.835 -116.68)" fill="#edbd33"/>
        <path id="Trazado_214077" data-name="Trazado 214077" d="M104.013,236.068h-.661c-2.18,0-2.171,0-1.953-2.165.035-.351.155-.483.5-.481a35.846,35.846,0,0,1,4.288.048c1.044.133.341,1.151.485,1.752.082.341.2.876-.512.85s-1.431-.006-2.147-.005" transform="translate(-78.936 -181.846)" fill="#edbd33"/>
        <path id="Trazado_214078" data-name="Trazado 214078" d="M93.028,281.474H93.6c2.167,0,2.158,0,1.923,2.176-.038.356-.173.471-.507.47-1.369-.008-2.739-.011-4.109,0-.391,0-.556-.153-.521-.535a.6.6,0,0,0,0-.082c-.1-2.03-.1-2.03,1.9-2.03Z" transform="translate(-70.405 -219.321)" fill="#edbd33"/>
        <path id="Trazado_214079" data-name="Trazado 214079" d="M98.878,308.033H98.3c-2,0-1.989,0-1.924-2.015.014-.439.112-.645.6-.636q1.971.037,3.944,0c.476-.009.592.177.607.625.069,2.026.082,2.026-1.911,2.026Z" transform="translate(-75.082 -237.949)" fill="#edbd33"/>
        <path id="Trazado_214080" data-name="Trazado 214080" d="M116.38,186.944c0,1.379,0,1.379-1.492,1.379-1.153,0-1.163,0-1.149-1.554.012-1.3-.188-1.077,1.53-1.086,1.283-.006,1.092-.14,1.11,1.261" transform="translate(-88.623 -144.675)" fill="#edbd33"/>
        <path id="Trazado_214081" data-name="Trazado 214081" d="M249.217,325.988c-1.1,0-2.2-.016-3.3.008-.454.009-.614-.133-.633-.607-.081-2.045-.1-2.044,1.913-2.044,1.789,0,3.578.013,5.366-.009.49-.006.663.133.675.649.047,2,.065,2-1.955,2h-2.064" transform="translate(-191.1 -251.94)" fill="#379dc2"/>
        <path id="Trazado_214082" data-name="Trazado 214082" d="M237.245,302.045c-1.1,0-2.2-.016-3.3.007-.453.01-.614-.132-.633-.606-.081-2.045-.1-2.045,1.912-2.045,1.789,0,3.578.013,5.366-.009.49-.006.664.133.676.649.047,2,.065,2-1.955,2h-2.064" transform="translate(-181.772 -233.284)" fill="#379dc2"/>
        <path id="Trazado_214083" data-name="Trazado 214083" d="M283.961,300.768c0,1.287,0,1.3-1.5,1.283-1.36-.014-1.132.216-1.136-1.56,0-1.292-.19-1.068,1.537-1.075,1.292-.005,1.08-.145,1.1,1.353" transform="translate(-219.194 -233.293)" fill="#379dc2"/>
        <path id="Trazado_214084" data-name="Trazado 214084" d="M222.766,326c-1.284,0-1.3,0-1.28-1.5.014-1.358-.216-1.131,1.562-1.134,1.288,0,1.066-.193,1.073,1.539.005,1.29.145,1.077-1.355,1.1" transform="translate(-172.577 -251.948)" fill="#379dc2"/>
        <path id="Trazado_214085" data-name="Trazado 214085" d="M301.738,74.585c-.686,0-1.372-.015-2.058,0-.415.012-.565-.136-.592-.567-.128-2.082-.141-2.081,1.957-2.081.906,0,1.812.017,2.716-.007.453-.011.613.142.634.611.091,2.04.106,2.039-1.917,2.039h-.741" transform="translate(-233.01 -56.05)" fill="#396794"/>
        <path id="Trazado_214086" data-name="Trazado 214086" d="M289.764,50.642c-.686,0-1.372-.014-2.058,0-.412.011-.568-.13-.6-.564C286.979,48,286.966,48,289.064,48c.906,0,1.812.016,2.716-.007.45-.011.616.136.638.607.093,2.043.108,2.043-1.914,2.043h-.741" transform="translate(-223.675 -37.394)" fill="#396794"/>
        <path id="Trazado_214087" data-name="Trazado 214087" d="M276.621,74.588c-1.505-.023-1.274.2-1.28-1.5,0-1.348-.163-1.133,1.477-1.135,1.381,0,1.148-.174,1.158,1.539.008,1.292.1,1.081-1.356,1.1" transform="translate(-214.536 -56.054)" fill="#396794"/>
        <path id="Trazado_214088" data-name="Trazado 214088" d="M325.864,49.316c-.023,1.555.2,1.324-1.455,1.328-1.407,0-1.18.171-1.184-1.511,0-1.345-.17-1.112,1.573-1.124,1.244-.008,1.049-.092,1.066,1.307" transform="translate(-251.844 -37.402)" fill="#396794"/>
      </g>
    </g>
  </g>
</svg>
