<svg xmlns="http://www.w3.org/2000/svg" width="423.797" height="425" viewBox="0 0 423.797 425">
  <g id="Grupo_146856" data-name="Grupo 146856" transform="translate(-587.203 -3868)">
    <g id="Trazado_219775" data-name="Trazado 219775" transform="translate(746 3868)" fill="#ffedb6">
      <path d="M 55 109 C 47.70959854125977 109 40.63781356811523 107.5723876953125 33.98107147216797 104.7568283081055 C 30.78157234191895 103.4035415649414 27.695556640625 101.728515625 24.80878639221191 99.77824401855469 C 21.94917106628418 97.84632873535156 19.26009941101074 95.62763214111328 16.81622886657715 93.18376922607422 C 14.37237167358398 90.73989868164062 12.15367126464844 88.05082702636719 10.22175693511963 85.19121551513672 C 8.271485328674316 82.304443359375 6.596457004547119 79.21842956542969 5.243171215057373 76.01892852783203 C 2.427614212036133 69.3621826171875 1 62.29040145874023 1 55 C 1 47.70959854125977 2.427614212036133 40.63781356811523 5.243171215057373 33.98107147216797 C 6.596457004547119 30.78157234191895 8.271485328674316 27.695556640625 10.22175693511963 24.80878639221191 C 12.15367126464844 21.94917106628418 14.37237167358398 19.26009941101074 16.81622886657715 16.81622886657715 C 19.26009941101074 14.37237167358398 21.94917106628418 12.15367126464844 24.80878639221191 10.22175693511963 C 27.695556640625 8.271485328674316 30.78157234191895 6.596457004547119 33.98107147216797 5.243171215057373 C 40.63781356811523 2.427614212036133 47.70959854125977 1 55 1 C 62.29040145874023 1 69.3621826171875 2.427614212036133 76.01892852783203 5.243171215057373 C 79.21842956542969 6.596457004547119 82.304443359375 8.271485328674316 85.19121551513672 10.22175693511963 C 88.05082702636719 12.15367126464844 90.73989868164062 14.37237167358398 93.18376922607422 16.81622886657715 C 95.62763214111328 19.26009941101074 97.84632873535156 21.94917106628418 99.77824401855469 24.80878639221191 C 101.728515625 27.695556640625 103.4035415649414 30.78157234191895 104.7568283081055 33.98107147216797 C 107.5723876953125 40.63781356811523 109 47.70959854125977 109 55 C 109 62.29040145874023 107.5723876953125 69.3621826171875 104.7568283081055 76.01892852783203 C 103.4035415649414 79.21842956542969 101.728515625 82.304443359375 99.77824401855469 85.19121551513672 C 97.84632873535156 88.05082702636719 95.62763214111328 90.73989868164062 93.18376922607422 93.18376922607422 C 90.73989868164062 95.62763214111328 88.05082702636719 97.84632873535156 85.19121551513672 99.77824401855469 C 82.304443359375 101.728515625 79.21842956542969 103.4035415649414 76.01892852783203 104.7568283081055 C 69.3621826171875 107.5723876953125 62.29040145874023 109 55 109 Z" stroke="none"/>
      <path d="M 55 2 C 47.84416961669922 2 40.9034423828125 3.401031494140625 34.37061309814453 6.1641845703125 C 28.05966186523438 8.83349609375 22.39141845703125 12.65525817871094 17.52333831787109 17.52333831787109 C 12.65525817871094 22.39141845703125 8.83349609375 28.05966186523438 6.1641845703125 34.37061309814453 C 3.401031494140625 40.9034423828125 2 47.84416961669922 2 55 C 2 62.15583038330078 3.401031494140625 69.0965576171875 6.1641845703125 75.62937927246094 C 8.83349609375 81.94033813476562 12.65525817871094 87.60858154296875 17.52333831787109 92.47666168212891 C 22.39141845703125 97.34474182128906 28.05966186523438 101.16650390625 34.37061309814453 103.8358154296875 C 40.9034423828125 106.5989685058594 47.84416961669922 108 55 108 C 62.15583038330078 108 69.0965576171875 106.5989685058594 75.62937927246094 103.8358154296875 C 81.94033813476562 101.16650390625 87.60858154296875 97.34474182128906 92.47666168212891 92.47666168212891 C 97.34474182128906 87.60858154296875 101.16650390625 81.94033813476562 103.8358154296875 75.62937927246094 C 106.5989685058594 69.0965576171875 108 62.15583038330078 108 55 C 108 47.84416961669922 106.5989685058594 40.9034423828125 103.8358154296875 34.37061309814453 C 101.16650390625 28.05966186523438 97.34474182128906 22.39141845703125 92.47666168212891 17.52333831787109 C 87.60858154296875 12.65525817871094 81.94033813476562 8.83349609375 75.62937927246094 6.1641845703125 C 69.0965576171875 3.401031494140625 62.15583038330078 2 55 2 M 55 0 C 85.37566375732422 0 110 24.62433624267578 110 55 C 110 85.37566375732422 85.37566375732422 110 55 110 C 24.62433624267578 110 0 85.37566375732422 0 55 C 0 24.62433624267578 24.62433624267578 0 55 0 Z" stroke="none" fill="#98791b"/>
    </g>
    <g id="Trazado_219783" data-name="Trazado 219783" transform="translate(746 4183)" fill="#ffedb6">
      <path d="M 55 109 C 47.70959854125977 109 40.63781356811523 107.5723876953125 33.98107147216797 104.7568283081055 C 30.78157234191895 103.4035415649414 27.695556640625 101.728515625 24.80878639221191 99.77824401855469 C 21.94917106628418 97.84632873535156 19.26009941101074 95.62763214111328 16.81622886657715 93.18376922607422 C 14.37237167358398 90.73989868164062 12.15367126464844 88.05082702636719 10.22175693511963 85.19121551513672 C 8.271485328674316 82.304443359375 6.596457004547119 79.21842956542969 5.243171215057373 76.01892852783203 C 2.427614212036133 69.3621826171875 1 62.29040145874023 1 55 C 1 47.70959854125977 2.427614212036133 40.63781356811523 5.243171215057373 33.98107147216797 C 6.596457004547119 30.78157234191895 8.271485328674316 27.695556640625 10.22175693511963 24.80878639221191 C 12.15367126464844 21.94917106628418 14.37237167358398 19.26009941101074 16.81622886657715 16.81622886657715 C 19.26009941101074 14.37237167358398 21.94917106628418 12.15367126464844 24.80878639221191 10.22175693511963 C 27.695556640625 8.271485328674316 30.78157234191895 6.596457004547119 33.98107147216797 5.243171215057373 C 40.63781356811523 2.427614212036133 47.70959854125977 1 55 1 C 62.29040145874023 1 69.3621826171875 2.427614212036133 76.01892852783203 5.243171215057373 C 79.21842956542969 6.596457004547119 82.304443359375 8.271485328674316 85.19121551513672 10.22175693511963 C 88.05082702636719 12.15367126464844 90.73989868164062 14.37237167358398 93.18376922607422 16.81622886657715 C 95.62763214111328 19.26009941101074 97.84632873535156 21.94917106628418 99.77824401855469 24.80878639221191 C 101.728515625 27.695556640625 103.4035415649414 30.78157234191895 104.7568283081055 33.98107147216797 C 107.5723876953125 40.63781356811523 109 47.70959854125977 109 55 C 109 62.29040145874023 107.5723876953125 69.3621826171875 104.7568283081055 76.01892852783203 C 103.4035415649414 79.21842956542969 101.728515625 82.304443359375 99.77824401855469 85.19121551513672 C 97.84632873535156 88.05082702636719 95.62763214111328 90.73989868164062 93.18376922607422 93.18376922607422 C 90.73989868164062 95.62763214111328 88.05082702636719 97.84632873535156 85.19121551513672 99.77824401855469 C 82.304443359375 101.728515625 79.21842956542969 103.4035415649414 76.01892852783203 104.7568283081055 C 69.3621826171875 107.5723876953125 62.29040145874023 109 55 109 Z" stroke="none"/>
      <path d="M 55 2 C 47.84416961669922 2 40.9034423828125 3.401031494140625 34.37061309814453 6.1641845703125 C 28.05966186523438 8.83349609375 22.39141845703125 12.65525817871094 17.52333831787109 17.52333831787109 C 12.65525817871094 22.39141845703125 8.83349609375 28.05966186523438 6.1641845703125 34.37061309814453 C 3.401031494140625 40.9034423828125 2 47.84416961669922 2 55 C 2 62.15583038330078 3.401031494140625 69.0965576171875 6.1641845703125 75.62937927246094 C 8.83349609375 81.94033813476562 12.65525817871094 87.60858154296875 17.52333831787109 92.47666168212891 C 22.39141845703125 97.34474182128906 28.05966186523438 101.16650390625 34.37061309814453 103.8358154296875 C 40.9034423828125 106.5989685058594 47.84416961669922 108 55 108 C 62.15583038330078 108 69.0965576171875 106.5989685058594 75.62937927246094 103.8358154296875 C 81.94033813476562 101.16650390625 87.60858154296875 97.34474182128906 92.47666168212891 92.47666168212891 C 97.34474182128906 87.60858154296875 101.16650390625 81.94033813476562 103.8358154296875 75.62937927246094 C 106.5989685058594 69.0965576171875 108 62.15583038330078 108 55 C 108 47.84416961669922 106.5989685058594 40.9034423828125 103.8358154296875 34.37061309814453 C 101.16650390625 28.05966186523438 97.34474182128906 22.39141845703125 92.47666168212891 17.52333831787109 C 87.60858154296875 12.65525817871094 81.94033813476562 8.83349609375 75.62937927246094 6.1641845703125 C 69.0965576171875 3.401031494140625 62.15583038330078 2 55 2 M 55 0 C 85.37566375732422 0 110 24.62433624267578 110 55 C 110 85.37566375732422 85.37566375732422 110 55 110 C 24.62433624267578 110 0 85.37566375732422 0 55 C 0 24.62433624267578 24.62433624267578 0 55 0 Z" stroke="none" fill="#98791b"/>
    </g>
    <g id="Trazado_219776" data-name="Trazado 219776" transform="translate(733 4013)" fill="#dff7f9">
      <path d="M 67.5 134 C 58.52210998535156 134 49.81330871582031 132.2418975830078 41.61550903320312 128.7745056152344 C 37.67532730102539 127.1079483032227 33.87494659423828 125.045166015625 30.31990814208984 122.6434326171875 C 26.79841804504395 120.2643432617188 23.48690986633301 117.532112121582 20.4773998260498 114.5225982666016 C 17.46789169311523 111.5130920410156 14.73565483093262 108.2015838623047 12.35656356811523 104.6800918579102 C 9.954835891723633 101.1250534057617 7.892054557800293 97.32467651367188 6.225491046905518 93.38449096679688 C 2.758109092712402 85.18669128417969 1 76.47789001464844 1 67.5 C 1 58.52210998535156 2.758109092712402 49.81330871582031 6.225491046905518 41.61550903320312 C 7.892054557800293 37.67532730102539 9.954835891723633 33.87494659423828 12.35656356811523 30.31990814208984 C 14.73565483093262 26.79841804504395 17.46789169311523 23.48690986633301 20.4773998260498 20.4773998260498 C 23.48690986633301 17.46789169311523 26.79841804504395 14.73565483093262 30.31990814208984 12.35656356811523 C 33.87494659423828 9.954835891723633 37.67532730102539 7.892054557800293 41.61550903320312 6.225491046905518 C 49.81330871582031 2.758109092712402 58.52210998535156 1 67.5 1 C 76.47789001464844 1 85.18669128417969 2.758109092712402 93.38449096679688 6.225491046905518 C 97.32467651367188 7.892054557800293 101.1250534057617 9.954835891723633 104.6800918579102 12.35656356811523 C 108.2015838623047 14.73565483093262 111.5130920410156 17.46789169311523 114.5225982666016 20.4773998260498 C 117.532112121582 23.48690986633301 120.2643432617188 26.79841804504395 122.6434326171875 30.31990814208984 C 125.045166015625 33.87494659423828 127.1079483032227 37.67532730102539 128.7745056152344 41.61550903320312 C 132.2418975830078 49.81330871582031 134 58.52210998535156 134 67.5 C 134 76.47789001464844 132.2418975830078 85.18669128417969 128.7745056152344 93.38449096679688 C 127.1079483032227 97.32467651367188 125.045166015625 101.1250534057617 122.6434326171875 104.6800918579102 C 120.2643432617188 108.2015838623047 117.532112121582 111.5130920410156 114.5225982666016 114.5225982666016 C 111.5130920410156 117.532112121582 108.2015838623047 120.2643432617188 104.6800918579102 122.6434326171875 C 101.1250534057617 125.045166015625 97.32467651367188 127.1079483032227 93.38449096679688 128.7745056152344 C 85.18669128417969 132.2418975830078 76.47789001464844 134 67.5 134 Z" stroke="none"/>
      <path d="M 67.5 2 C 58.65667724609375 2 50.07894134521484 3.731536865234375 42.00505828857422 7.146499633789062 C 38.12433624267578 8.78790283203125 34.38124084472656 10.81960296630859 30.87972259521484 13.1851806640625 C 27.41095733642578 15.52864074707031 24.14901733398438 18.22000122070312 21.18450164794922 21.18450164794922 C 18.22000122070312 24.14901733398438 15.52864074707031 27.41095733642578 13.1851806640625 30.87972259521484 C 10.81960296630859 34.38124084472656 8.78790283203125 38.12433624267578 7.146499633789062 42.00505828857422 C 3.731536865234375 50.07894134521484 2 58.65667724609375 2 67.5 C 2 76.34332275390625 3.731536865234375 84.92105865478516 7.146499633789062 92.99494171142578 C 8.78790283203125 96.87565612792969 10.81960296630859 100.6187591552734 13.1851806640625 104.1202774047852 C 15.52864074707031 107.5890426635742 18.22000122070312 110.8509826660156 21.18450164794922 113.8154983520508 C 24.14901733398438 116.7799987792969 27.41095733642578 119.4713592529297 30.87972259521484 121.8148193359375 C 34.38124084472656 124.1803970336914 38.12433624267578 126.2120971679688 42.00505828857422 127.8535003662109 C 50.07894134521484 131.2684631347656 58.65667724609375 133 67.5 133 C 76.34332275390625 133 84.92105865478516 131.2684631347656 92.99494171142578 127.8535003662109 C 96.87565612792969 126.2120971679688 100.6187591552734 124.1803970336914 104.1202774047852 121.8148193359375 C 107.5890426635742 119.4713592529297 110.8509826660156 116.7799987792969 113.8154983520508 113.8154983520508 C 116.7799987792969 110.8509826660156 119.4713592529297 107.5890426635742 121.8148193359375 104.1202774047852 C 124.1803970336914 100.6187591552734 126.2120971679688 96.87565612792969 127.8535003662109 92.99494171142578 C 131.2684631347656 84.92105865478516 133 76.34332275390625 133 67.5 C 133 58.65667724609375 131.2684631347656 50.07894134521484 127.8535003662109 42.00505828857422 C 126.2120971679688 38.12433624267578 124.1803970336914 34.38124084472656 121.8148193359375 30.87972259521484 C 119.4713592529297 27.41095733642578 116.7799987792969 24.14901733398438 113.8154983520508 21.18450164794922 C 110.8509826660156 18.22000122070312 107.5890426635742 15.52864074707031 104.1202774047852 13.1851806640625 C 100.6187591552734 10.81960296630859 96.87565612792969 8.78790283203125 92.99494171142578 7.146499633789062 C 84.92105865478516 3.731536865234375 76.34332275390625 2 67.5 2 M 67.5 0 C 104.7792205810547 0 135 30.22077941894531 135 67.5 C 135 104.7792205810547 104.7792205810547 135 67.5 135 C 30.22077941894531 135 0 104.7792205810547 0 67.5 C 0 30.22077941894531 30.22077941894531 0 67.5 0 Z" stroke="none" fill="#869495"/>
    </g>
    <g id="Trazado_219777" data-name="Trazado 219777" transform="translate(901 4026)" fill="#ffedb6">
      <path d="M 55 109 C 47.70959854125977 109 40.63781356811523 107.5723876953125 33.98107147216797 104.7568283081055 C 30.78157234191895 103.4035415649414 27.695556640625 101.728515625 24.80878639221191 99.77824401855469 C 21.94917106628418 97.84632873535156 19.26009941101074 95.62763214111328 16.81622886657715 93.18376922607422 C 14.37237167358398 90.73989868164062 12.15367126464844 88.05082702636719 10.22175693511963 85.19121551513672 C 8.271485328674316 82.304443359375 6.596457004547119 79.21842956542969 5.243171215057373 76.01892852783203 C 2.427614212036133 69.3621826171875 1 62.29040145874023 1 55 C 1 47.70959854125977 2.427614212036133 40.63781356811523 5.243171215057373 33.98107147216797 C 6.596457004547119 30.78157234191895 8.271485328674316 27.695556640625 10.22175693511963 24.80878639221191 C 12.15367126464844 21.94917106628418 14.37237167358398 19.26009941101074 16.81622886657715 16.81622886657715 C 19.26009941101074 14.37237167358398 21.94917106628418 12.15367126464844 24.80878639221191 10.22175693511963 C 27.695556640625 8.271485328674316 30.78157234191895 6.596457004547119 33.98107147216797 5.243171215057373 C 40.63781356811523 2.427614212036133 47.70959854125977 1 55 1 C 62.29040145874023 1 69.3621826171875 2.427614212036133 76.01892852783203 5.243171215057373 C 79.21842956542969 6.596457004547119 82.304443359375 8.271485328674316 85.19121551513672 10.22175693511963 C 88.05082702636719 12.15367126464844 90.73989868164062 14.37237167358398 93.18376922607422 16.81622886657715 C 95.62763214111328 19.26009941101074 97.84632873535156 21.94917106628418 99.77824401855469 24.80878639221191 C 101.728515625 27.695556640625 103.4035415649414 30.78157234191895 104.7568283081055 33.98107147216797 C 107.5723876953125 40.63781356811523 109 47.70959854125977 109 55 C 109 62.29040145874023 107.5723876953125 69.3621826171875 104.7568283081055 76.01892852783203 C 103.4035415649414 79.21842956542969 101.728515625 82.304443359375 99.77824401855469 85.19121551513672 C 97.84632873535156 88.05082702636719 95.62763214111328 90.73989868164062 93.18376922607422 93.18376922607422 C 90.73989868164062 95.62763214111328 88.05082702636719 97.84632873535156 85.19121551513672 99.77824401855469 C 82.304443359375 101.728515625 79.21842956542969 103.4035415649414 76.01892852783203 104.7568283081055 C 69.3621826171875 107.5723876953125 62.29040145874023 109 55 109 Z" stroke="none"/>
      <path d="M 55 2 C 47.84416961669922 2 40.9034423828125 3.401031494140625 34.37061309814453 6.1641845703125 C 28.05966186523438 8.83349609375 22.39141845703125 12.65525817871094 17.52333831787109 17.52333831787109 C 12.65525817871094 22.39141845703125 8.83349609375 28.05966186523438 6.1641845703125 34.37061309814453 C 3.401031494140625 40.9034423828125 2 47.84416961669922 2 55 C 2 62.15583038330078 3.401031494140625 69.0965576171875 6.1641845703125 75.62937927246094 C 8.83349609375 81.94033813476562 12.65525817871094 87.60858154296875 17.52333831787109 92.47666168212891 C 22.39141845703125 97.34474182128906 28.05966186523438 101.16650390625 34.37061309814453 103.8358154296875 C 40.9034423828125 106.5989685058594 47.84416961669922 108 55 108 C 62.15583038330078 108 69.0965576171875 106.5989685058594 75.62937927246094 103.8358154296875 C 81.94033813476562 101.16650390625 87.60858154296875 97.34474182128906 92.47666168212891 92.47666168212891 C 97.34474182128906 87.60858154296875 101.16650390625 81.94033813476562 103.8358154296875 75.62937927246094 C 106.5989685058594 69.0965576171875 108 62.15583038330078 108 55 C 108 47.84416961669922 106.5989685058594 40.9034423828125 103.8358154296875 34.37061309814453 C 101.16650390625 28.05966186523438 97.34474182128906 22.39141845703125 92.47666168212891 17.52333831787109 C 87.60858154296875 12.65525817871094 81.94033813476562 8.83349609375 75.62937927246094 6.1641845703125 C 69.0965576171875 3.401031494140625 62.15583038330078 2 55 2 M 55 0 C 85.37566375732422 0 110 24.62433624267578 110 55 C 110 85.37566375732422 85.37566375732422 110 55 110 C 24.62433624267578 110 0 85.37566375732422 0 55 C 0 24.62433624267578 24.62433624267578 0 55 0 Z" stroke="none" fill="#98791b"/>
    </g>
    <g id="Trazado_219781" data-name="Trazado 219781" transform="translate(587.203 4026)" fill="#ffedb6">
      <path d="M 55 109 C 47.70959854125977 109 40.63781356811523 107.5723876953125 33.98107147216797 104.7568283081055 C 30.78157234191895 103.4035415649414 27.695556640625 101.728515625 24.80878639221191 99.77824401855469 C 21.94917106628418 97.84632873535156 19.26009941101074 95.62763214111328 16.81622886657715 93.18376922607422 C 14.37237167358398 90.73989868164062 12.15367126464844 88.05082702636719 10.22175693511963 85.19121551513672 C 8.271485328674316 82.304443359375 6.596457004547119 79.21842956542969 5.243171215057373 76.01892852783203 C 2.427614212036133 69.3621826171875 1 62.29040145874023 1 55 C 1 47.70959854125977 2.427614212036133 40.63781356811523 5.243171215057373 33.98107147216797 C 6.596457004547119 30.78157234191895 8.271485328674316 27.695556640625 10.22175693511963 24.80878639221191 C 12.15367126464844 21.94917106628418 14.37237167358398 19.26009941101074 16.81622886657715 16.81622886657715 C 19.26009941101074 14.37237167358398 21.94917106628418 12.15367126464844 24.80878639221191 10.22175693511963 C 27.695556640625 8.271485328674316 30.78157234191895 6.596457004547119 33.98107147216797 5.243171215057373 C 40.63781356811523 2.427614212036133 47.70959854125977 1 55 1 C 62.29040145874023 1 69.3621826171875 2.427614212036133 76.01892852783203 5.243171215057373 C 79.21842956542969 6.596457004547119 82.304443359375 8.271485328674316 85.19121551513672 10.22175693511963 C 88.05082702636719 12.15367126464844 90.73989868164062 14.37237167358398 93.18376922607422 16.81622886657715 C 95.62763214111328 19.26009941101074 97.84632873535156 21.94917106628418 99.77824401855469 24.80878639221191 C 101.728515625 27.695556640625 103.4035415649414 30.78157234191895 104.7568283081055 33.98107147216797 C 107.5723876953125 40.63781356811523 109 47.70959854125977 109 55 C 109 62.29040145874023 107.5723876953125 69.3621826171875 104.7568283081055 76.01892852783203 C 103.4035415649414 79.21842956542969 101.728515625 82.304443359375 99.77824401855469 85.19121551513672 C 97.84632873535156 88.05082702636719 95.62763214111328 90.73989868164062 93.18376922607422 93.18376922607422 C 90.73989868164062 95.62763214111328 88.05082702636719 97.84632873535156 85.19121551513672 99.77824401855469 C 82.304443359375 101.728515625 79.21842956542969 103.4035415649414 76.01892852783203 104.7568283081055 C 69.3621826171875 107.5723876953125 62.29040145874023 109 55 109 Z" stroke="none"/>
      <path d="M 55 2 C 47.84416961669922 2 40.9034423828125 3.401031494140625 34.37061309814453 6.1641845703125 C 28.05966186523438 8.83349609375 22.39141845703125 12.65525817871094 17.52333831787109 17.52333831787109 C 12.65525817871094 22.39141845703125 8.83349609375 28.05966186523438 6.1641845703125 34.37061309814453 C 3.401031494140625 40.9034423828125 2 47.84416961669922 2 55 C 2 62.15583038330078 3.401031494140625 69.0965576171875 6.1641845703125 75.62937927246094 C 8.83349609375 81.94033813476562 12.65525817871094 87.60858154296875 17.52333831787109 92.47666168212891 C 22.39141845703125 97.34474182128906 28.05966186523438 101.16650390625 34.37061309814453 103.8358154296875 C 40.9034423828125 106.5989685058594 47.84416961669922 108 55 108 C 62.15583038330078 108 69.0965576171875 106.5989685058594 75.62937927246094 103.8358154296875 C 81.94033813476562 101.16650390625 87.60858154296875 97.34474182128906 92.47666168212891 92.47666168212891 C 97.34474182128906 87.60858154296875 101.16650390625 81.94033813476562 103.8358154296875 75.62937927246094 C 106.5989685058594 69.0965576171875 108 62.15583038330078 108 55 C 108 47.84416961669922 106.5989685058594 40.9034423828125 103.8358154296875 34.37061309814453 C 101.16650390625 28.05966186523438 97.34474182128906 22.39141845703125 92.47666168212891 17.52333831787109 C 87.60858154296875 12.65525817871094 81.94033813476562 8.83349609375 75.62937927246094 6.1641845703125 C 69.0965576171875 3.401031494140625 62.15583038330078 2 55 2 M 55 0 C 85.37566375732422 0 110 24.62433624267578 110 55 C 110 85.37566375732422 85.37566375732422 110 55 110 C 24.62433624267578 110 0 85.37566375732422 0 55 C 0 24.62433624267578 24.62433624267578 0 55 0 Z" stroke="none" fill="#98791b"/>
    </g>
    <path id="Trazado_216799" data-name="Trazado 216799" d="M42.943,0V7.142H23.2v7.774h19.74v7.142L65,11.029Z" transform="translate(926 4091.058) rotate(180)" fill="#869495"/>
    <path id="Trazado_219778" data-name="Trazado 219778" d="M-33.732-3.315A3.522,3.522,0,0,1-34.918-.786a4.165,4.165,0,0,1-2.82.923,3.745,3.745,0,0,1-3.011-1.289,5.284,5.284,0,0,1-1.1-3.538V-5.3a5.966,5.966,0,0,1,.506-2.529,3.791,3.791,0,0,1,1.446-1.678,4.05,4.05,0,0,1,2.184-.584,4.058,4.058,0,0,1,2.775.923,3.785,3.785,0,0,1,1.217,2.591h-2.051a2.079,2.079,0,0,0-.537-1.4,1.987,1.987,0,0,0-1.4-.434,1.742,1.742,0,0,0-1.535.735,4.118,4.118,0,0,0-.523,2.28v.752a4.408,4.408,0,0,0,.489,2.358,1.71,1.71,0,0,0,1.542.745,2.025,2.025,0,0,0,1.418-.434,1.961,1.961,0,0,0,.537-1.343ZM-30.43,0h-1.982V-10.5h1.982Zm5.913,0a2.194,2.194,0,0,1-.2-.663,2.39,2.39,0,0,1-1.866.8,2.626,2.626,0,0,1-1.8-.629A2.023,2.023,0,0,1-29.1-2.078a2.09,2.09,0,0,1,.872-1.8,4.3,4.3,0,0,1,2.519-.636h.909v-.424a1.219,1.219,0,0,0-.263-.82,1.035,1.035,0,0,0-.831-.308,1.177,1.177,0,0,0-.783.239.813.813,0,0,0-.284.656h-1.976a1.984,1.984,0,0,1,.4-1.189,2.621,2.621,0,0,1,1.121-.858,4.086,4.086,0,0,1,1.627-.311,3.228,3.228,0,0,1,2.17.687,2.4,2.4,0,0,1,.8,1.931v3.206a3.536,3.536,0,0,0,.294,1.593V0Zm-1.634-1.374a1.7,1.7,0,0,0,.807-.195,1.28,1.28,0,0,0,.547-.523V-3.363h-.738q-1.483,0-1.579,1.025l-.007.116a.791.791,0,0,0,.26.608A1.009,1.009,0,0,0-26.151-1.374Zm8.859-.67a.637.637,0,0,0-.359-.571A4.077,4.077,0,0,0-18.8-2.987q-2.639-.554-2.639-2.242a2.032,2.032,0,0,1,.817-1.644,3.3,3.3,0,0,1,2.136-.66,3.547,3.547,0,0,1,2.252.663,2.09,2.09,0,0,1,.844,1.723h-1.976a.956.956,0,0,0-.273-.7,1.157,1.157,0,0,0-.854-.277,1.182,1.182,0,0,0-.772.226.712.712,0,0,0-.273.574.609.609,0,0,0,.311.53,3.2,3.2,0,0,0,1.049.349,8.571,8.571,0,0,1,1.244.332,2.044,2.044,0,0,1,1.565,1.989,1.929,1.929,0,0,1-.868,1.637,3.745,3.745,0,0,1-2.242.625,3.912,3.912,0,0,1-1.651-.332A2.77,2.77,0,0,1-21.263-1.1a2.113,2.113,0,0,1-.41-1.248H-19.8a1.031,1.031,0,0,0,.39.807,1.546,1.546,0,0,0,.971.28,1.43,1.43,0,0,0,.858-.215A.67.67,0,0,0-17.292-2.044ZM-12.014,0H-14V-7.4h1.982Zm-2.1-9.311a.973.973,0,0,1,.3-.731,1.117,1.117,0,0,1,.81-.287,1.12,1.12,0,0,1,.807.287.967.967,0,0,1,.3.731.97.97,0,0,1-.3.738,1.122,1.122,0,0,1-.8.287,1.122,1.122,0,0,1-.8-.287A.97.97,0,0,1-14.113-9.311ZM-9.909,0V-5.947h-1.1V-7.4h1.1v-.342a2.774,2.774,0,0,1,.858-2.15,3.452,3.452,0,0,1,2.382-.755,7.9,7.9,0,0,1,2.242.4l-.287,1.634a8.748,8.748,0,0,0-1.039-.256,5.105,5.105,0,0,0-.793-.058q-1.381,0-1.381,1.224v.3H-6.47v1.449H-7.926V0ZM-3.5,0H-5.486V-7.4H-3.5Zm4.71-1.456a1.3,1.3,0,0,0,.889-.3,1.054,1.054,0,0,0,.355-.8H4.3a2.534,2.534,0,0,1-.41,1.377,2.706,2.706,0,0,1-1.1.971A3.455,3.455,0,0,1,1.241.137a3.211,3.211,0,0,1-2.5-1.008,3.99,3.99,0,0,1-.916-2.786v-.13a3.944,3.944,0,0,1,.909-2.728,3.174,3.174,0,0,1,2.5-1.019,3.111,3.111,0,0,1,2.225.79,2.8,2.8,0,0,1,.851,2.1H2.451A1.358,1.358,0,0,0,2.1-5.58a1.185,1.185,0,0,0-.9-.361,1.19,1.19,0,0,0-1.042.5A2.916,2.916,0,0,0-.2-3.8V-3.6A2.953,2.953,0,0,0,.147-1.956,1.2,1.2,0,0,0,1.207-1.456ZM9.717,0a2.194,2.194,0,0,1-.2-.663,2.39,2.39,0,0,1-1.866.8,2.626,2.626,0,0,1-1.8-.629,2.023,2.023,0,0,1-.714-1.586,2.09,2.09,0,0,1,.872-1.8,4.3,4.3,0,0,1,2.519-.636h.909v-.424a1.219,1.219,0,0,0-.263-.82,1.035,1.035,0,0,0-.831-.308,1.177,1.177,0,0,0-.783.239.813.813,0,0,0-.284.656H5.3a1.984,1.984,0,0,1,.4-1.189,2.621,2.621,0,0,1,1.121-.858,4.086,4.086,0,0,1,1.627-.311,3.228,3.228,0,0,1,2.17.687,2.4,2.4,0,0,1,.8,1.931v3.206a3.536,3.536,0,0,0,.294,1.593V0ZM8.083-1.374a1.7,1.7,0,0,0,.807-.195,1.28,1.28,0,0,0,.547-.523V-3.363H8.7q-1.483,0-1.579,1.025l-.007.116a.791.791,0,0,0,.26.608A1.009,1.009,0,0,0,8.083-1.374Zm7.93-.082a1.3,1.3,0,0,0,.889-.3,1.054,1.054,0,0,0,.355-.8H19.11a2.534,2.534,0,0,1-.41,1.377,2.706,2.706,0,0,1-1.1.971,3.455,3.455,0,0,1-1.548.345,3.211,3.211,0,0,1-2.5-1.008,3.99,3.99,0,0,1-.916-2.786v-.13a3.944,3.944,0,0,1,.909-2.728,3.174,3.174,0,0,1,2.5-1.019,3.111,3.111,0,0,1,2.225.79,2.8,2.8,0,0,1,.851,2.1H17.257A1.358,1.358,0,0,0,16.9-5.58,1.185,1.185,0,0,0,16-5.94a1.19,1.19,0,0,0-1.042.5A2.916,2.916,0,0,0,14.6-3.8V-3.6a2.953,2.953,0,0,0,.349,1.643A1.2,1.2,0,0,0,16.013-1.456ZM22.323,0H20.34V-7.4h1.982Zm-2.1-9.311a.973.973,0,0,1,.3-.731,1.117,1.117,0,0,1,.81-.287,1.12,1.12,0,0,1,.807.287.967.967,0,0,1,.3.731.97.97,0,0,1-.3.738,1.122,1.122,0,0,1-.8.287,1.122,1.122,0,0,1-.8-.287A.97.97,0,0,1,20.224-9.311Zm3.418,5.544a4.387,4.387,0,0,1,.424-1.962,3.1,3.1,0,0,1,1.22-1.333,3.56,3.56,0,0,1,1.849-.472,3.368,3.368,0,0,1,2.444.916,3.676,3.676,0,0,1,1.056,2.488l.014.506A3.866,3.866,0,0,1,29.7-.892,3.3,3.3,0,0,1,27.149.137,3.319,3.319,0,0,1,24.6-.889a3.934,3.934,0,0,1-.954-2.789Zm1.976.14a2.765,2.765,0,0,0,.4,1.612,1.308,1.308,0,0,0,1.135.558,1.311,1.311,0,0,0,1.121-.551,3.025,3.025,0,0,0,.4-1.763,2.737,2.737,0,0,0-.4-1.6,1.311,1.311,0,0,0-1.135-.568,1.29,1.29,0,0,0-1.121.565A3.076,3.076,0,0,0,25.618-3.626ZM27.525-10.5h2.153L27.785-8.381H26.178Zm6.159,3.1.062.854a2.582,2.582,0,0,1,2.126-.991,2.146,2.146,0,0,1,1.75.69,3.221,3.221,0,0,1,.588,2.064V0H36.234V-4.73a1.282,1.282,0,0,0-.273-.913,1.224,1.224,0,0,0-.909-.284,1.359,1.359,0,0,0-1.251.711V0H31.825V-7.4ZM-49.7,14.247a4.457,4.457,0,0,1,.776-2.755,2.517,2.517,0,0,1,2.123-1.025,2.265,2.265,0,0,1,1.784.807V7.5h1.982V18h-1.784l-.1-.786a2.325,2.325,0,0,1-1.9.923,2.511,2.511,0,0,1-2.1-1.029A4.6,4.6,0,0,1-49.7,14.247Zm1.976.147a2.92,2.92,0,0,0,.362,1.6,1.18,1.18,0,0,0,1.053.555,1.322,1.322,0,0,0,1.292-.774V12.847a1.3,1.3,0,0,0-1.278-.774Q-47.729,12.073-47.729,14.394Zm9.625,3.743a3.631,3.631,0,0,1-2.649-1,3.548,3.548,0,0,1-1.022-2.659v-.191a4.468,4.468,0,0,1,.431-1.993,3.161,3.161,0,0,1,1.22-1.354,3.425,3.425,0,0,1,1.8-.475,3.07,3.07,0,0,1,2.389.957,3.889,3.889,0,0,1,.872,2.714v.807h-4.71a1.835,1.835,0,0,0,.578,1.162,1.746,1.746,0,0,0,1.22.438,2.132,2.132,0,0,0,1.784-.827l.971,1.087a2.966,2.966,0,0,1-1.2.981A3.947,3.947,0,0,1-38.1,18.137Zm-.226-6.077a1.234,1.234,0,0,0-.954.4,2.062,2.062,0,0,0-.468,1.14H-37V13.44a1.471,1.471,0,0,0-.355-1.02A1.274,1.274,0,0,0-38.329,12.06Zm9.96,5.94h-1.982V7.5h1.982Zm1.319-3.767a4.387,4.387,0,0,1,.424-1.962,3.1,3.1,0,0,1,1.22-1.333,3.56,3.56,0,0,1,1.849-.472,3.368,3.368,0,0,1,2.444.916,3.676,3.676,0,0,1,1.056,2.488l.014.506a3.866,3.866,0,0,1-.95,2.731,3.3,3.3,0,0,1-2.55,1.029A3.319,3.319,0,0,1-26.1,17.111a3.934,3.934,0,0,1-.954-2.789Zm1.976.14a2.765,2.765,0,0,0,.4,1.612,1.308,1.308,0,0,0,1.135.558,1.311,1.311,0,0,0,1.121-.551,3.025,3.025,0,0,0,.4-1.763,2.737,2.737,0,0,0-.4-1.6,1.311,1.311,0,0,0-1.135-.568,1.29,1.29,0,0,0-1.121.565A3.076,3.076,0,0,0-25.074,14.374Zm10.254,1.582a.637.637,0,0,0-.359-.571,4.077,4.077,0,0,0-1.152-.373q-2.639-.554-2.639-2.242a2.032,2.032,0,0,1,.817-1.644,3.3,3.3,0,0,1,2.136-.66,3.547,3.547,0,0,1,2.252.663,2.09,2.09,0,0,1,.844,1.723H-14.9a.956.956,0,0,0-.273-.7,1.157,1.157,0,0,0-.854-.277,1.182,1.182,0,0,0-.772.226.712.712,0,0,0-.273.574.609.609,0,0,0,.311.53,3.2,3.2,0,0,0,1.049.349,8.571,8.571,0,0,1,1.244.332A2.044,2.044,0,0,1-12.9,15.874a1.929,1.929,0,0,1-.868,1.637,3.745,3.745,0,0,1-2.242.625,3.912,3.912,0,0,1-1.651-.332,2.77,2.77,0,0,1-1.131-.909,2.113,2.113,0,0,1-.41-1.248h1.873a1.031,1.031,0,0,0,.39.807,1.546,1.546,0,0,0,.971.28,1.43,1.43,0,0,0,.858-.215A.67.67,0,0,0-14.82,15.956Zm10.493-1.6H-5.961V18H-8.012V8.047h3.7a4.181,4.181,0,0,1,2.721.786,2.713,2.713,0,0,1,.957,2.222,3.062,3.062,0,0,1-.441,1.7,3.007,3.007,0,0,1-1.336,1.083L-.26,17.9V18h-2.2ZM-5.961,12.7h1.654a1.694,1.694,0,0,0,1.2-.393,1.4,1.4,0,0,0,.424-1.083,1.5,1.5,0,0,0-.4-1.107,1.662,1.662,0,0,0-1.227-.4H-5.961ZM4.2,18.137a3.631,3.631,0,0,1-2.649-1A3.548,3.548,0,0,1,.526,14.479v-.191A4.468,4.468,0,0,1,.957,12.3a3.161,3.161,0,0,1,1.22-1.354,3.425,3.425,0,0,1,1.8-.475,3.07,3.07,0,0,1,2.389.957,3.889,3.889,0,0,1,.872,2.714v.807H2.529a1.835,1.835,0,0,0,.578,1.162,1.746,1.746,0,0,0,1.22.438,2.132,2.132,0,0,0,1.784-.827L7.082,16.8a2.966,2.966,0,0,1-1.2.981A3.947,3.947,0,0,1,4.2,18.137ZM3.972,12.06a1.234,1.234,0,0,0-.954.4A2.062,2.062,0,0,0,2.55,13.6H5.3V13.44a1.471,1.471,0,0,0-.355-1.02A1.274,1.274,0,0,0,3.972,12.06Zm7.465,4.484a1.3,1.3,0,0,0,.889-.3,1.054,1.054,0,0,0,.355-.8h1.853a2.534,2.534,0,0,1-.41,1.377,2.706,2.706,0,0,1-1.1.971,3.455,3.455,0,0,1-1.548.345,3.211,3.211,0,0,1-2.5-1.008,3.99,3.99,0,0,1-.916-2.786v-.13a3.944,3.944,0,0,1,.909-2.728,3.174,3.174,0,0,1,2.5-1.019,3.111,3.111,0,0,1,2.225.79,2.8,2.8,0,0,1,.851,2.1H12.681a1.358,1.358,0,0,0-.355-.938,1.185,1.185,0,0,0-.9-.361,1.19,1.19,0,0,0-1.042.5,2.916,2.916,0,0,0-.352,1.633V14.4a2.953,2.953,0,0,0,.349,1.643A1.2,1.2,0,0,0,11.437,16.544Zm8.654.7a2.477,2.477,0,0,1-2.023.889,2.337,2.337,0,0,1-1.815-.684,2.918,2.918,0,0,1-.639-2V10.6h1.976v4.784q0,1.157,1.053,1.157a1.426,1.426,0,0,0,1.381-.7V10.6H22V18H20.146Zm7.561-4.792a5.367,5.367,0,0,0-.711-.055,1.447,1.447,0,0,0-1.47.759V18H23.5V10.6h1.866l.055.882a1.831,1.831,0,0,1,1.647-1.019,2.07,2.07,0,0,1,.615.089Zm4.956,3.5a.637.637,0,0,0-.359-.571,4.077,4.077,0,0,0-1.152-.373q-2.639-.554-2.639-2.242a2.032,2.032,0,0,1,.817-1.644,3.3,3.3,0,0,1,2.136-.66,3.547,3.547,0,0,1,2.252.663,2.09,2.09,0,0,1,.844,1.723H32.532a.956.956,0,0,0-.273-.7,1.157,1.157,0,0,0-.854-.277,1.182,1.182,0,0,0-.772.226.712.712,0,0,0-.273.574.609.609,0,0,0,.311.53,3.2,3.2,0,0,0,1.049.349,8.571,8.571,0,0,1,1.244.332,2.044,2.044,0,0,1,1.565,1.989,1.929,1.929,0,0,1-.868,1.637,3.745,3.745,0,0,1-2.242.625,3.912,3.912,0,0,1-1.651-.332,2.77,2.77,0,0,1-1.131-.909,2.113,2.113,0,0,1-.41-1.248H30.1a1.031,1.031,0,0,0,.39.807,1.546,1.546,0,0,0,.971.28,1.43,1.43,0,0,0,.858-.215A.67.67,0,0,0,32.607,15.956Zm2.885-1.723a4.387,4.387,0,0,1,.424-1.962,3.1,3.1,0,0,1,1.22-1.333,3.56,3.56,0,0,1,1.849-.472,3.368,3.368,0,0,1,2.444.916,3.676,3.676,0,0,1,1.056,2.488l.014.506a3.866,3.866,0,0,1-.95,2.731,3.683,3.683,0,0,1-5.1,0,3.934,3.934,0,0,1-.954-2.789Zm1.976.14a2.765,2.765,0,0,0,.4,1.612,1.424,1.424,0,0,0,2.256.007,3.025,3.025,0,0,0,.4-1.763,2.737,2.737,0,0,0-.4-1.6,1.311,1.311,0,0,0-1.135-.568,1.29,1.29,0,0,0-1.121.565A3.076,3.076,0,0,0,37.468,14.374Zm10.254,1.582a.637.637,0,0,0-.359-.571,4.077,4.077,0,0,0-1.152-.373q-2.639-.554-2.639-2.242a2.032,2.032,0,0,1,.817-1.644,3.3,3.3,0,0,1,2.136-.66,3.547,3.547,0,0,1,2.252.663,2.09,2.09,0,0,1,.844,1.723H47.646a.956.956,0,0,0-.273-.7,1.157,1.157,0,0,0-.854-.277,1.182,1.182,0,0,0-.772.226.712.712,0,0,0-.273.574.609.609,0,0,0,.311.53,3.2,3.2,0,0,0,1.049.349,8.571,8.571,0,0,1,1.244.332,2.044,2.044,0,0,1,1.565,1.989,1.929,1.929,0,0,1-.868,1.637,3.745,3.745,0,0,1-2.242.625,3.912,3.912,0,0,1-1.651-.332A2.77,2.77,0,0,1,43.75,16.9a2.113,2.113,0,0,1-.41-1.248h1.873a1.031,1.031,0,0,0,.39.807,1.546,1.546,0,0,0,.971.28,1.43,1.43,0,0,0,.858-.215A.67.67,0,0,0,47.722,15.956Z" transform="translate(800 4077)" fill="#12263f"/>
    <path id="Trazado_216800" data-name="Trazado 216800" d="M42.943,0V7.142H23.2v7.774h19.74v7.142L65,11.029Z" transform="translate(674 4069)" fill="#869495"/>
    <path id="Trazado_216801" data-name="Trazado 216801" d="M42.943,0V7.142H23.2v7.774h19.74v7.142L65,11.029Z" transform="translate(811.029 3954.927) rotate(90)" fill="#869495"/>
    <path id="Trazado_216802" data-name="Trazado 216802" d="M42.943,0V7.142H23.2v7.774h19.74v7.142L65,11.029Z" transform="translate(788.971 4206.073) rotate(-90)" fill="#869495"/>
    <path id="Trazado_219779" data-name="Trazado 219779" d="M-21.164,0h-2.051V-4.266h-4V0h-2.051V-9.953h2.051V-5.92h4V-9.953h2.051Zm6.091-.752A2.477,2.477,0,0,1-17.1.137a2.337,2.337,0,0,1-1.815-.684,2.918,2.918,0,0,1-.639-2V-7.4h1.976v4.784q0,1.157,1.053,1.157a1.426,1.426,0,0,0,1.381-.7V-7.4h1.982V0h-1.859ZM-9.816-7.4l.062.827a2.6,2.6,0,0,1,2.126-.964A1.973,1.973,0,0,1-5.667-6.405,2.54,2.54,0,0,1-3.445-7.533a2.206,2.206,0,0,1,1.791.7,3.221,3.221,0,0,1,.588,2.109V0H-3.049V-4.717a1.408,1.408,0,0,0-.246-.919,1.091,1.091,0,0,0-.868-.291,1.233,1.233,0,0,0-1.23.848L-5.387,0H-7.362V-4.71a1.391,1.391,0,0,0-.253-.93,1.1,1.1,0,0,0-.861-.287,1.28,1.28,0,0,0-1.217.7V0h-1.976V-7.4ZM4.737,0a2.194,2.194,0,0,1-.2-.663,2.39,2.39,0,0,1-1.866.8,2.626,2.626,0,0,1-1.8-.629A2.023,2.023,0,0,1,.157-2.078a2.09,2.09,0,0,1,.872-1.8,4.3,4.3,0,0,1,2.519-.636h.909v-.424a1.219,1.219,0,0,0-.263-.82,1.035,1.035,0,0,0-.831-.308,1.177,1.177,0,0,0-.783.239.813.813,0,0,0-.284.656H.321a1.984,1.984,0,0,1,.4-1.189,2.621,2.621,0,0,1,1.121-.858,4.086,4.086,0,0,1,1.627-.311,3.228,3.228,0,0,1,2.17.687,2.4,2.4,0,0,1,.8,1.931v3.206A3.536,3.536,0,0,0,6.733-.116V0ZM3.1-1.374a1.7,1.7,0,0,0,.807-.195,1.28,1.28,0,0,0,.547-.523V-3.363H3.719q-1.483,0-1.579,1.025l-.007.116a.791.791,0,0,0,.26.608A1.009,1.009,0,0,0,3.1-1.374ZM9.775-7.4l.062.854a2.582,2.582,0,0,1,2.126-.991,2.146,2.146,0,0,1,1.75.69A3.221,3.221,0,0,1,14.3-4.778V0H12.325V-4.73a1.282,1.282,0,0,0-.273-.913,1.224,1.224,0,0,0-.909-.284,1.359,1.359,0,0,0-1.251.711V0H7.916V-7.4Zm5.715,3.63a4.387,4.387,0,0,1,.424-1.962,3.1,3.1,0,0,1,1.22-1.333,3.56,3.56,0,0,1,1.849-.472,3.368,3.368,0,0,1,2.444.916,3.676,3.676,0,0,1,1.056,2.488l.014.506a3.866,3.866,0,0,1-.95,2.731A3.3,3.3,0,0,1,19,.137,3.319,3.319,0,0,1,16.444-.889a3.934,3.934,0,0,1-.954-2.789Zm1.976.14a2.765,2.765,0,0,0,.4,1.612A1.308,1.308,0,0,0,19-1.456a1.311,1.311,0,0,0,1.121-.551,3.025,3.025,0,0,0,.4-1.763,2.737,2.737,0,0,0-.4-1.6,1.311,1.311,0,0,0-1.135-.568,1.29,1.29,0,0,0-1.121.565A3.076,3.076,0,0,0,17.466-3.626ZM27.72-2.044a.637.637,0,0,0-.359-.571,4.077,4.077,0,0,0-1.152-.373Q23.57-3.541,23.57-5.229a2.032,2.032,0,0,1,.817-1.644,3.3,3.3,0,0,1,2.136-.66,3.547,3.547,0,0,1,2.252.663,2.09,2.09,0,0,1,.844,1.723H27.645a.956.956,0,0,0-.273-.7,1.157,1.157,0,0,0-.854-.277,1.182,1.182,0,0,0-.772.226.712.712,0,0,0-.273.574.609.609,0,0,0,.311.53,3.2,3.2,0,0,0,1.049.349,8.571,8.571,0,0,1,1.244.332,2.044,2.044,0,0,1,1.565,1.989,1.929,1.929,0,0,1-.868,1.637A3.745,3.745,0,0,1,26.53.137a3.912,3.912,0,0,1-1.651-.332A2.77,2.77,0,0,1,23.748-1.1a2.113,2.113,0,0,1-.41-1.248h1.873a1.031,1.031,0,0,0,.39.807,1.546,1.546,0,0,0,.971.28,1.43,1.43,0,0,0,.858-.215A.67.67,0,0,0,27.72-2.044Z" transform="translate(800 3929)" fill="#12263f"/>
    <path id="Trazado_219780" data-name="Trazado 219780" d="M-29.685-4.067h-3.937V0h-2.051V-9.953h6.48v1.661h-4.43v2.57h3.938ZM-26.048,0h-1.982V-7.4h1.982Zm-2.1-9.311a.973.973,0,0,1,.3-.731,1.117,1.117,0,0,1,.81-.287,1.12,1.12,0,0,1,.807.287.967.967,0,0,1,.3.731.97.97,0,0,1-.3.738,1.122,1.122,0,0,1-.8.287,1.122,1.122,0,0,1-.8-.287A.97.97,0,0,1-28.147-9.311ZM-22.6-7.4l.062.854a2.582,2.582,0,0,1,2.126-.991,2.146,2.146,0,0,1,1.75.69,3.221,3.221,0,0,1,.588,2.064V0h-1.976V-4.73a1.282,1.282,0,0,0-.273-.913,1.224,1.224,0,0,0-.909-.284,1.359,1.359,0,0,0-1.251.711V0h-1.976V-7.4ZM-12.294,0a2.194,2.194,0,0,1-.2-.663,2.39,2.39,0,0,1-1.866.8,2.626,2.626,0,0,1-1.8-.629,2.023,2.023,0,0,1-.714-1.586A2.09,2.09,0,0,1-16-3.883a4.3,4.3,0,0,1,2.519-.636h.909v-.424a1.219,1.219,0,0,0-.263-.82,1.035,1.035,0,0,0-.831-.308,1.177,1.177,0,0,0-.783.239.813.813,0,0,0-.284.656H-16.71a1.984,1.984,0,0,1,.4-1.189,2.621,2.621,0,0,1,1.121-.858,4.086,4.086,0,0,1,1.627-.311,3.228,3.228,0,0,1,2.17.687,2.4,2.4,0,0,1,.8,1.931v3.206A3.536,3.536,0,0,0-10.3-.116V0Zm-1.634-1.374a1.7,1.7,0,0,0,.807-.195,1.28,1.28,0,0,0,.547-.523V-3.363h-.738q-1.483,0-1.579,1.025l-.007.116a.791.791,0,0,0,.26.608A1.009,1.009,0,0,0-13.928-1.374ZM-7.256-7.4l.062.854a2.582,2.582,0,0,1,2.126-.991,2.146,2.146,0,0,1,1.75.69,3.221,3.221,0,0,1,.588,2.064V0H-4.707V-4.73a1.282,1.282,0,0,0-.273-.913,1.224,1.224,0,0,0-.909-.284,1.359,1.359,0,0,0-1.251.711V0H-9.116V-7.4Zm9.1,5.94a1.3,1.3,0,0,0,.889-.3,1.054,1.054,0,0,0,.355-.8H4.939a2.534,2.534,0,0,1-.41,1.377,2.706,2.706,0,0,1-1.1.971A3.455,3.455,0,0,1,1.876.137,3.211,3.211,0,0,1-.625-.872a3.99,3.99,0,0,1-.916-2.786v-.13A3.944,3.944,0,0,1-.632-6.515a3.174,3.174,0,0,1,2.5-1.019,3.111,3.111,0,0,1,2.225.79,2.8,2.8,0,0,1,.851,2.1H3.086a1.358,1.358,0,0,0-.355-.938,1.185,1.185,0,0,0-.9-.361,1.19,1.19,0,0,0-1.042.5A2.916,2.916,0,0,0,.434-3.8V-3.6A2.953,2.953,0,0,0,.783-1.956,1.2,1.2,0,0,0,1.842-1.456ZM8.152,0H6.169V-7.4H8.152Zm-2.1-9.311a.973.973,0,0,1,.3-.731,1.117,1.117,0,0,1,.81-.287,1.12,1.12,0,0,1,.807.287.967.967,0,0,1,.3.731.97.97,0,0,1-.3.738,1.122,1.122,0,0,1-.8.287,1.122,1.122,0,0,1-.8-.287A.97.97,0,0,1,6.053-9.311ZM13.183.137a3.631,3.631,0,0,1-2.649-1A3.548,3.548,0,0,1,9.512-3.521v-.191A4.468,4.468,0,0,1,9.943-5.7a3.161,3.161,0,0,1,1.22-1.354,3.425,3.425,0,0,1,1.8-.475,3.07,3.07,0,0,1,2.389.957,3.889,3.889,0,0,1,.872,2.714v.807h-4.71a1.835,1.835,0,0,0,.578,1.162,1.746,1.746,0,0,0,1.22.438A2.132,2.132,0,0,0,15.1-2.283L16.068-1.2a2.966,2.966,0,0,1-1.2.981A3.947,3.947,0,0,1,13.183.137ZM12.958-5.94a1.234,1.234,0,0,0-.954.4,2.062,2.062,0,0,0-.468,1.14h2.748V-4.56a1.471,1.471,0,0,0-.355-1.02A1.274,1.274,0,0,0,12.958-5.94Zm8.545.4a5.367,5.367,0,0,0-.711-.055,1.447,1.447,0,0,0-1.47.759V0H17.346V-7.4h1.866l.055.882a1.831,1.831,0,0,1,1.647-1.019,2.07,2.07,0,0,1,.615.089Zm.4,1.777a4.387,4.387,0,0,1,.424-1.962,3.1,3.1,0,0,1,1.22-1.333,3.56,3.56,0,0,1,1.849-.472,3.368,3.368,0,0,1,2.444.916,3.676,3.676,0,0,1,1.056,2.488l.014.506a3.866,3.866,0,0,1-.95,2.731A3.3,3.3,0,0,1,25.406.137,3.319,3.319,0,0,1,22.853-.889,3.934,3.934,0,0,1,21.9-3.678Zm1.976.14a2.765,2.765,0,0,0,.4,1.612,1.308,1.308,0,0,0,1.135.558,1.311,1.311,0,0,0,1.121-.551,3.025,3.025,0,0,0,.4-1.763,2.737,2.737,0,0,0-.4-1.6,1.311,1.311,0,0,0-1.135-.568,1.29,1.29,0,0,0-1.121.565A3.076,3.076,0,0,0,23.875-3.626ZM34.128-2.044a.637.637,0,0,0-.359-.571,4.077,4.077,0,0,0-1.152-.373q-2.639-.554-2.639-2.242A2.032,2.032,0,0,1,30.8-6.874a3.3,3.3,0,0,1,2.136-.66,3.547,3.547,0,0,1,2.252.663,2.09,2.09,0,0,1,.844,1.723H34.053a.956.956,0,0,0-.273-.7,1.157,1.157,0,0,0-.854-.277,1.182,1.182,0,0,0-.772.226.712.712,0,0,0-.273.574.609.609,0,0,0,.311.53,3.2,3.2,0,0,0,1.049.349,8.571,8.571,0,0,1,1.244.332,2.044,2.044,0,0,1,1.565,1.989,1.929,1.929,0,0,1-.868,1.637,3.745,3.745,0,0,1-2.242.625,3.912,3.912,0,0,1-1.651-.332A2.77,2.77,0,0,1,30.157-1.1a2.113,2.113,0,0,1-.41-1.248H31.62a1.031,1.031,0,0,0,.39.807,1.546,1.546,0,0,0,.971.28,1.43,1.43,0,0,0,.858-.215A.67.67,0,0,0,34.128-2.044Z" transform="translate(956 4087)" fill="#12263f"/>
    <path id="Trazado_219784" data-name="Trazado 219784" d="M-20.368-8.292h-3.049V0h-2.051V-8.292h-3.008V-9.953h8.107ZM-15.924.137a3.631,3.631,0,0,1-2.649-1A3.548,3.548,0,0,1-19.6-3.521v-.191A4.468,4.468,0,0,1-19.165-5.7a3.161,3.161,0,0,1,1.22-1.354,3.425,3.425,0,0,1,1.8-.475,3.07,3.07,0,0,1,2.389.957,3.889,3.889,0,0,1,.872,2.714v.807h-4.71a1.835,1.835,0,0,0,.578,1.162,1.746,1.746,0,0,0,1.22.438,2.132,2.132,0,0,0,1.784-.827L-13.04-1.2a2.966,2.966,0,0,1-1.2.981A3.947,3.947,0,0,1-15.924.137ZM-16.15-5.94a1.234,1.234,0,0,0-.954.4,2.062,2.062,0,0,0-.468,1.14h2.748V-4.56a1.471,1.471,0,0,0-.355-1.02A1.274,1.274,0,0,0-16.15-5.94Zm.178-4.56h2.153l-1.894,2.119h-1.606Zm7.287,9.044a1.3,1.3,0,0,0,.889-.3,1.054,1.054,0,0,0,.355-.8h1.853A2.534,2.534,0,0,1-6-1.179a2.706,2.706,0,0,1-1.1.971A3.455,3.455,0,0,1-8.651.137a3.211,3.211,0,0,1-2.5-1.008,3.99,3.99,0,0,1-.916-2.786v-.13a3.944,3.944,0,0,1,.909-2.728,3.174,3.174,0,0,1,2.5-1.019,3.111,3.111,0,0,1,2.225.79,2.8,2.8,0,0,1,.851,2.1H-7.441A1.358,1.358,0,0,0-7.8-5.58a1.185,1.185,0,0,0-.9-.361,1.19,1.19,0,0,0-1.042.5A2.916,2.916,0,0,0-10.093-3.8V-3.6a2.953,2.953,0,0,0,.349,1.643A1.2,1.2,0,0,0-8.685-1.456ZM-2.642-7.4l.062.854A2.582,2.582,0,0,1-.455-7.533a2.146,2.146,0,0,1,1.75.69,3.221,3.221,0,0,1,.588,2.064V0H-.092V-4.73a1.282,1.282,0,0,0-.273-.913,1.224,1.224,0,0,0-.909-.284,1.359,1.359,0,0,0-1.251.711V0H-4.5V-7.4ZM5.465,0H3.483V-7.4H5.465Zm-2.1-9.311a.973.973,0,0,1,.3-.731,1.117,1.117,0,0,1,.81-.287,1.12,1.12,0,0,1,.807.287.967.967,0,0,1,.3.731.97.97,0,0,1-.3.738,1.122,1.122,0,0,1-.8.287,1.122,1.122,0,0,1-.8-.287A.97.97,0,0,1,3.367-9.311Zm6.8,7.854a1.3,1.3,0,0,0,.889-.3,1.054,1.054,0,0,0,.355-.8h1.853a2.534,2.534,0,0,1-.41,1.377,2.706,2.706,0,0,1-1.1.971A3.455,3.455,0,0,1,10.2.137,3.211,3.211,0,0,1,7.7-.872a3.99,3.99,0,0,1-.916-2.786v-.13a3.944,3.944,0,0,1,.909-2.728,3.174,3.174,0,0,1,2.5-1.019,3.111,3.111,0,0,1,2.225.79,2.8,2.8,0,0,1,.851,2.1H11.413a1.358,1.358,0,0,0-.355-.938,1.185,1.185,0,0,0-.9-.361,1.19,1.19,0,0,0-1.042.5A2.916,2.916,0,0,0,8.76-3.8V-3.6a2.953,2.953,0,0,0,.349,1.643A1.2,1.2,0,0,0,10.168-1.456Zm3.917-2.311a4.387,4.387,0,0,1,.424-1.962,3.1,3.1,0,0,1,1.22-1.333,3.56,3.56,0,0,1,1.849-.472,3.368,3.368,0,0,1,2.444.916,3.676,3.676,0,0,1,1.056,2.488l.014.506a3.866,3.866,0,0,1-.95,2.731A3.3,3.3,0,0,1,17.592.137,3.319,3.319,0,0,1,15.039-.889a3.934,3.934,0,0,1-.954-2.789Zm1.976.14a2.765,2.765,0,0,0,.4,1.612,1.308,1.308,0,0,0,1.135.558,1.311,1.311,0,0,0,1.121-.551,3.025,3.025,0,0,0,.4-1.763,2.737,2.737,0,0,0-.4-1.6,1.311,1.311,0,0,0-1.135-.568,1.29,1.29,0,0,0-1.121.565A3.076,3.076,0,0,0,16.061-3.626ZM26.315-2.044a.637.637,0,0,0-.359-.571A4.077,4.077,0,0,0,24.8-2.987q-2.639-.554-2.639-2.242a2.032,2.032,0,0,1,.817-1.644,3.3,3.3,0,0,1,2.136-.66,3.547,3.547,0,0,1,2.252.663,2.09,2.09,0,0,1,.844,1.723H26.24a.956.956,0,0,0-.273-.7,1.157,1.157,0,0,0-.854-.277,1.182,1.182,0,0,0-.772.226.712.712,0,0,0-.273.574.609.609,0,0,0,.311.53,3.2,3.2,0,0,0,1.049.349,8.571,8.571,0,0,1,1.244.332,2.044,2.044,0,0,1,1.565,1.989,1.929,1.929,0,0,1-.868,1.637,3.745,3.745,0,0,1-2.242.625,3.912,3.912,0,0,1-1.651-.332A2.77,2.77,0,0,1,22.343-1.1a2.113,2.113,0,0,1-.41-1.248h1.873a1.031,1.031,0,0,0,.39.807,1.546,1.546,0,0,0,.971.28,1.43,1.43,0,0,0,.858-.215A.67.67,0,0,0,26.315-2.044Z" transform="translate(800 4243)" fill="#12263f"/>
    <path id="Trazado_219782" data-name="Trazado 219782" d="M-34.135-8.292h-3.049V0h-2.051V-8.292h-3.008V-9.953h8.107ZM-29.692.137a3.631,3.631,0,0,1-2.649-1,3.548,3.548,0,0,1-1.022-2.659v-.191A4.468,4.468,0,0,1-32.932-5.7a3.161,3.161,0,0,1,1.22-1.354,3.425,3.425,0,0,1,1.8-.475,3.07,3.07,0,0,1,2.389.957,3.889,3.889,0,0,1,.872,2.714v.807h-4.71a1.835,1.835,0,0,0,.578,1.162,1.746,1.746,0,0,0,1.22.438,2.132,2.132,0,0,0,1.784-.827l.971,1.087a2.966,2.966,0,0,1-1.2.981A3.947,3.947,0,0,1-29.692.137Zm-.226-6.077a1.234,1.234,0,0,0-.954.4,2.062,2.062,0,0,0-.468,1.14h2.748V-4.56a1.471,1.471,0,0,0-.355-1.02A1.274,1.274,0,0,0-29.917-5.94Zm7.465,4.484a1.3,1.3,0,0,0,.889-.3,1.054,1.054,0,0,0,.355-.8h1.853a2.534,2.534,0,0,1-.41,1.377,2.706,2.706,0,0,1-1.1.971,3.455,3.455,0,0,1-1.548.345,3.211,3.211,0,0,1-2.5-1.008,3.99,3.99,0,0,1-.916-2.786v-.13a3.944,3.944,0,0,1,.909-2.728,3.174,3.174,0,0,1,2.5-1.019,3.111,3.111,0,0,1,2.225.79,2.8,2.8,0,0,1,.851,2.1h-1.853a1.358,1.358,0,0,0-.355-.938,1.185,1.185,0,0,0-.9-.361,1.19,1.19,0,0,0-1.042.5A2.916,2.916,0,0,0-23.861-3.8V-3.6a2.953,2.953,0,0,0,.349,1.643A1.2,1.2,0,0,0-22.453-1.456ZM-16.41-7.4l.062.854a2.582,2.582,0,0,1,2.126-.991,2.146,2.146,0,0,1,1.75.69,3.221,3.221,0,0,1,.588,2.064V0H-13.86V-4.73a1.282,1.282,0,0,0-.273-.913,1.224,1.224,0,0,0-.909-.284,1.359,1.359,0,0,0-1.251.711V0h-1.976V-7.4Zm5.715,3.63a4.387,4.387,0,0,1,.424-1.962,3.1,3.1,0,0,1,1.22-1.333A3.56,3.56,0,0,1-7.2-7.533a3.368,3.368,0,0,1,2.444.916A3.676,3.676,0,0,1-3.7-4.129l.014.506a3.866,3.866,0,0,1-.95,2.731A3.3,3.3,0,0,1-7.188.137,3.319,3.319,0,0,1-9.741-.889a3.934,3.934,0,0,1-.954-2.789Zm1.976.14a2.765,2.765,0,0,0,.4,1.612,1.308,1.308,0,0,0,1.135.558,1.311,1.311,0,0,0,1.121-.551,3.025,3.025,0,0,0,.4-1.763,2.737,2.737,0,0,0-.4-1.6A1.311,1.311,0,0,0-7.2-5.94a1.29,1.29,0,0,0-1.121.565A3.076,3.076,0,0,0-8.719-3.626ZM-.386,0H-2.369V-10.5H-.386ZM.933-3.767a4.387,4.387,0,0,1,.424-1.962,3.1,3.1,0,0,1,1.22-1.333,3.56,3.56,0,0,1,1.849-.472,3.368,3.368,0,0,1,2.444.916A3.676,3.676,0,0,1,7.926-4.129l.014.506A3.866,3.866,0,0,1,6.99-.892,3.3,3.3,0,0,1,4.44.137,3.319,3.319,0,0,1,1.887-.889,3.934,3.934,0,0,1,.933-3.678Zm1.976.14a2.765,2.765,0,0,0,.4,1.612,1.308,1.308,0,0,0,1.135.558,1.311,1.311,0,0,0,1.121-.551,3.025,3.025,0,0,0,.4-1.763,2.737,2.737,0,0,0-.4-1.6A1.311,1.311,0,0,0,4.426-5.94a1.29,1.29,0,0,0-1.121.565A3.076,3.076,0,0,0,2.909-3.626ZM4.816-10.5H6.969L5.076-8.381H3.469ZM8.87-3.753a4.335,4.335,0,0,1,.81-2.741,2.625,2.625,0,0,1,2.184-1.039,2.3,2.3,0,0,1,1.894.834l.082-.7H15.63v7.15a3.161,3.161,0,0,1-.441,1.688,2.832,2.832,0,0,1-1.241,1.094,4.362,4.362,0,0,1-1.873.376,4.056,4.056,0,0,1-1.586-.325A2.815,2.815,0,0,1,9.321,1.75L10.2.547a2.314,2.314,0,0,0,1.791.827A1.694,1.694,0,0,0,13.21.954a1.577,1.577,0,0,0,.438-1.193v-.4a2.285,2.285,0,0,1-1.8.772A2.618,2.618,0,0,1,9.693-.906,4.334,4.334,0,0,1,8.87-3.671Zm1.976.147a2.7,2.7,0,0,0,.4,1.578,1.283,1.283,0,0,0,1.107.572,1.372,1.372,0,0,0,1.292-.678V-5.249a1.369,1.369,0,0,0-1.278-.678,1.291,1.291,0,0,0-1.118.582A3.042,3.042,0,0,0,10.845-3.606ZM19.233,0H17.25V-7.4h1.982Zm-2.1-9.311a.973.973,0,0,1,.3-.731,1.117,1.117,0,0,1,.81-.287,1.12,1.12,0,0,1,.807.287.967.967,0,0,1,.3.731.97.97,0,0,1-.3.738,1.122,1.122,0,0,1-.8.287,1.122,1.122,0,0,1-.8-.287A.97.97,0,0,1,17.134-9.311Zm6.8,7.854a1.3,1.3,0,0,0,.889-.3,1.054,1.054,0,0,0,.355-.8h1.853a2.534,2.534,0,0,1-.41,1.377,2.706,2.706,0,0,1-1.1.971A3.455,3.455,0,0,1,23.97.137a3.211,3.211,0,0,1-2.5-1.008,3.99,3.99,0,0,1-.916-2.786v-.13a3.944,3.944,0,0,1,.909-2.728,3.174,3.174,0,0,1,2.5-1.019,3.111,3.111,0,0,1,2.225.79,2.8,2.8,0,0,1,.851,2.1H25.18a1.358,1.358,0,0,0-.355-.938,1.185,1.185,0,0,0-.9-.361,1.19,1.19,0,0,0-1.042.5A2.916,2.916,0,0,0,22.528-3.8V-3.6a2.953,2.953,0,0,0,.349,1.643A1.2,1.2,0,0,0,23.936-1.456Zm3.917-2.311a4.387,4.387,0,0,1,.424-1.962A3.1,3.1,0,0,1,29.5-7.062a3.56,3.56,0,0,1,1.849-.472,3.368,3.368,0,0,1,2.444.916,3.676,3.676,0,0,1,1.056,2.488l.014.506a3.866,3.866,0,0,1-.95,2.731A3.3,3.3,0,0,1,31.36.137,3.319,3.319,0,0,1,28.807-.889a3.934,3.934,0,0,1-.954-2.789Zm1.976.14a2.765,2.765,0,0,0,.4,1.612,1.308,1.308,0,0,0,1.135.558,1.311,1.311,0,0,0,1.121-.551,3.025,3.025,0,0,0,.4-1.763,2.737,2.737,0,0,0-.4-1.6,1.311,1.311,0,0,0-1.135-.568,1.29,1.29,0,0,0-1.121.565A3.076,3.076,0,0,0,29.829-3.626ZM40.083-2.044a.637.637,0,0,0-.359-.571,4.077,4.077,0,0,0-1.152-.373q-2.639-.554-2.639-2.242a2.032,2.032,0,0,1,.817-1.644,3.3,3.3,0,0,1,2.136-.66,3.547,3.547,0,0,1,2.252.663,2.09,2.09,0,0,1,.844,1.723H40.007a.956.956,0,0,0-.273-.7,1.157,1.157,0,0,0-.854-.277,1.182,1.182,0,0,0-.772.226.712.712,0,0,0-.273.574.609.609,0,0,0,.311.53,3.2,3.2,0,0,0,1.049.349,8.571,8.571,0,0,1,1.244.332A2.044,2.044,0,0,1,42-2.126a1.929,1.929,0,0,1-.868,1.637,3.745,3.745,0,0,1-2.242.625,3.912,3.912,0,0,1-1.651-.332A2.77,2.77,0,0,1,36.111-1.1a2.113,2.113,0,0,1-.41-1.248h1.873a1.031,1.031,0,0,0,.39.807,1.546,1.546,0,0,0,.971.28,1.43,1.43,0,0,0,.858-.215A.67.67,0,0,0,40.083-2.044Z" transform="translate(642 4086)" fill="#12263f"/>
  </g>
</svg>
