<svg xmlns="http://www.w3.org/2000/svg" xmlns:xlink="http://www.w3.org/1999/xlink" width="122" height="122" viewBox="0 0 122 122">
  <defs>
    <clipPath id="clip-path">
      <rect id="Rectángulo_88896" data-name="Rectángulo 88896" width="74.682" height="74.824" fill="none"/>
    </clipPath>
  </defs>
  <g id="Grupo_146850" data-name="Grupo 146850" transform="translate(7038 10277)">
    <g id="Elipse_5554" data-name="Elipse 5554" transform="translate(-7038 -10277)" fill="#f5feff" stroke="#0082b2" stroke-width="2">
      <circle cx="61" cy="61" r="61" stroke="none"/>
      <circle cx="61" cy="61" r="60" fill="none"/>
    </g>
    <circle id="Elipse_5557" data-name="Elipse 5557" cx="43" cy="43" r="43" transform="translate(-7020 -10259)" fill="#dff7f9"/>
    <g id="Grupo_140635" data-name="Grupo 140635" transform="translate(-7014 -10253)">
      <g id="Grupo_140634" data-name="Grupo 140634" transform="translate(0 0)" clip-path="url(#clip-path)">
        <path id="Trazado_214116" data-name="Trazado 214116" d="M46.971,78.126q-23.187,0-46.373.014c-.5,0-.6-.1-.6-.6q.024-32.8.014-65.6a.957.957,0,0,1,.931-.58c.17-.006.34-.008.51-.008q11.3,0,22.592,0a1.856,1.856,0,0,1,1.13.191c.256.307.036.559-.13.776a32.025,32.025,0,0,0-2.541,3.826,1.644,1.644,0,0,1-1.623.762q-3.427-.006-6.853,0-3.353,0-6.707,0a4.239,4.239,0,0,0-.728.031.663.663,0,0,0-.587.566.71.71,0,0,0,.378.8,2.386,2.386,0,0,0,1.2.213q6.051,0,12.1,0c1.5,0,1.619.166,1.161,1.614-.551,1.741-.551,1.741-2.372,1.742q-5.577,0-11.153,0c-.942,0-1.314.227-1.323.779-.008.532.432.822,1.309.825,3.621.011,7.242,0,10.862,0a8.017,8.017,0,0,1,.875.019c.686.076.913.324.851,1-.035.389-.046.776-.062,1.166-.038.923-.257,1.135-1.2,1.168-.267.01-.534,0-.8,0q-5.139,0-10.279,0a2.4,2.4,0,0,0-1.137.194A.719.719,0,0,0,6,27.809a.683.683,0,0,0,.573.586,3.384,3.384,0,0,0,.871.052q5.285,0,10.57,0c.268,0,.535-.009.8.013.725.059.934.252,1.023.977A25.569,25.569,0,0,0,21.288,35.6c.379.977.82,1.923,1.284,2.861.158.318.4.631.162,1.018a1.367,1.367,0,0,1-.9.219c-.558.008-1.117-.008-1.676.013a.817.817,0,0,0-.878.863c-.014.268-.012.535-.012.8q0,14.823,0,29.646c0,1.544,0,1.537,1.534,1.549.9.006,1.8-.052,2.694.044.968-.1,1.939-.035,2.908-.045,1.294-.012,1.312-.02,1.313-1.294q0-10.716.008-21.432a26.343,26.343,0,0,1,.084-3.926c.3-.553.661-.242.955-.03a25.353,25.353,0,0,0,2.825,1.887c.446.239.876.506,1.34.713a1,1,0,0,1,.694.768,3.891,3.891,0,0,1,.079,1.162q0,10.223,0,20.447c0,.292,0,.585.007.876,0,.578.292.822.863.829,1.117.015,2.235-.058,3.35.045,1.018-.1,2.04-.03,3.06-.046,1.078-.016,1.167-.091,1.168-1.167q.007-9.5,0-18.993a2.252,2.252,0,0,1,.183-1.282c.419-.429.971-.216,1.455-.266.986-.1,1.985-.068,2.97-.223a.774.774,0,0,1,.743.188,1.594,1.594,0,0,1,.195.984q0,12.408,0,24.817c0,.607.033,1.252-.729,1.5" transform="translate(0 -3.316)" fill="#b2c5c7"/>
        <path id="Trazado_214117" data-name="Trazado 214117" d="M60.8,42.543a3.815,3.815,0,0,0-1.081.716,23.98,23.98,0,0,1-9.986,4.256,28.618,28.618,0,0,1-4.951.329,1.234,1.234,0,0,1-.822.211,16.059,16.059,0,0,1-3.688-.571,24.158,24.158,0,0,1-3.726-1.154,1.426,1.426,0,0,1-.793-.6,31.82,31.82,0,0,1-5.385-3.37A6.717,6.717,0,0,1,28.216,40.6,32.531,32.531,0,0,1,25.7,37.5c-.225-.446-.667-.8-.609-1.369a24.958,24.958,0,0,1-2.806-7.392,21.8,21.8,0,0,1-.386-2.665c-.035-.532-.22-.632-.7-.63-3.862.016-7.725.009-11.587.008-1.15,0-1.658-.324-1.669-1.062-.011-.759.545-1.13,1.7-1.13,3.789,0,7.579-.02,11.368.017.691.006.892-.218.855-.861a4.414,4.414,0,0,1,.093-1.232c.131-.569,0-.749-.616-.745-3.911.027-7.822.016-11.733.011a3.523,3.523,0,0,1-.866-.07.988.988,0,0,1-.79-1.079,1.008,1.008,0,0,1,.887-1.008,4,4,0,0,1,.726-.031c4.081,0,8.162-.009,12.243.009.5,0,.743-.1.829-.637a6.443,6.443,0,0,1,.481-1.525c.254-.58.067-.676-.5-.674-4.324.019-8.648.012-12.972.006a3.8,3.8,0,0,1-.936-.093.965.965,0,0,1-.76-1.093.973.973,0,0,1,.917-.97,6.843,6.843,0,0,1,.8-.03c4.616,0,9.231-.012,13.846.013A1.079,1.079,0,0,0,24.65,12.6a26.189,26.189,0,0,1,2.892-4.278c-.035-.362.21-.582.424-.808A24.083,24.083,0,0,1,40.735.286c.9-.19,1.825-.1,2.723-.285H43.9c.091.1.21.067.321.074.137-.016.288.042.408-.074h1.9A.54.54,0,0,0,47.1,0h.729c1.049.376,2.174.345,3.244.633,9.46,2.55,15.547,8.537,17.836,18.076a23.007,23.007,0,0,1-3.788,19.071,7.121,7.121,0,0,0-1.12,1.674,10.556,10.556,0,0,1-3.2,3.087" transform="translate(-2.321 0)" fill="#12263f"/>
        <path id="Trazado_214118" data-name="Trazado 214118" d="M30.611,51.047l.748,1.217a3.938,3.938,0,0,1,.278,1.565q-.01,14.662-.008,29.324c0,.453.09.936-.292,1.308-1.238.007-2.476,0-3.714.023-.527.008-.75-.265-.781-.749-.013-.194-.006-.389-.006-.584V52.426c0-1.246.133-1.379,1.371-1.38q1.2,0,2.4,0" transform="translate(-7.843 -14.919)" fill="#feca2e"/>
        <path id="Trazado_214119" data-name="Trazado 214119" d="M33.2,84.964q0-15.7,0-31.394c0-.268.014-.535.023-.8a33.181,33.181,0,0,0,4.532,5.018q-.011,6.525-.019,13.049-.005,6.561,0,13.123c0,.96-.08,1.04-1.043,1.038-1.164,0-2.327-.021-3.491-.032" transform="translate(-9.702 -15.422)" fill="#cba124"/>
        <path id="Trazado_214120" data-name="Trazado 214120" d="M13.223,63.833c1.212-.01,2.424-.016,3.637-.032.553-.007.793.28.8.807,0,.171,0,.34,0,.511V86.926c0,1.27-.035,1.31-1.3,1.3-1.091-.006-2.181-.028-3.272-.042a1.172,1.172,0,0,1-.3-.943q-.005-11.2,0-22.406c0-.391,0-.795.431-1.006" transform="translate(-3.737 -18.646)" fill="#c93c41"/>
        <path id="Trazado_214121" data-name="Trazado 214121" d="M11.5,63.842a1.587,1.587,0,0,0-.137.924q0,11.715,0,23.43c-1.236.008-2.474.011-3.709.028a.652.652,0,0,1-.745-.7c-.013-.218-.013-.437-.013-.655q0-10.865,0-21.73c0-1.224.089-1.312,1.33-1.311,1.091,0,2.183.007,3.275.011" transform="translate(-2.015 -18.655)" fill="#fc4b52"/>
        <path id="Trazado_214122" data-name="Trazado 214122" d="M47.235,64.619a30.219,30.219,0,0,0,4.489,1.5,1.5,1.5,0,0,1,.3,1.023q0,10.17,0,20.342a1.186,1.186,0,0,1-.292.944c-1.239.006-2.479,0-3.718.021a.694.694,0,0,1-.788-.745c0-.073,0-.146,0-.219q.006-11.434.012-22.866" transform="translate(-13.801 -18.886)" fill="#a7e446"/>
        <path id="Trazado_214123" data-name="Trazado 214123" d="M53.591,89.048q0-11.154-.008-22.308a26.233,26.233,0,0,0,4.539.609q-.005,10.257-.009,20.516c0,1.184-.031,1.218-1.245,1.214-1.092,0-2.185-.02-3.277-.03" transform="translate(-15.66 -19.505)" fill="#85b638"/>
        <path id="Trazado_214124" data-name="Trazado 214124" d="M13.268,40c1.311,0,2.622-.009,3.934,0,.827.008,1.3.395,1.319,1.041.022.676-.459,1.134-1.316,1.14q-3.969.029-7.939,0c-.846-.006-1.343-.472-1.322-1.139S8.428,40.007,9.262,40c1.335-.013,2.67,0,4.006,0" transform="translate(-2.321 -11.688)" fill="#12263f"/>
        <path id="Trazado_214125" data-name="Trazado 214125" d="M82.63,58.835a29.348,29.348,0,0,1,2.186-2.113c.3-.352.452-.89,1.018-.975q3.515,3.5,7.028,7,2.634,2.629,5.254,5.271a2.254,2.254,0,0,1-1.279,3.871,2.058,2.058,0,0,1-1.8-.6q-6.21-6.22-12.4-12.456" transform="translate(-24.149 -16.293)" fill="#12263f"/>
        <path id="Trazado_214126" data-name="Trazado 214126" d="M50.781,45.047a18.21,18.21,0,0,1-9.935-4.305A18.675,18.675,0,0,1,34.037,28.1a18.889,18.889,0,0,1,5.75-16.166A18.673,18.673,0,0,1,51.3,6.568a13.774,13.774,0,0,1,6.317,1.758,19.381,19.381,0,0,1,8.3,8.053A19.059,19.059,0,0,1,68.2,23.5a19.176,19.176,0,0,1-4.374,14.912A18.885,18.885,0,0,1,53.163,45a7.386,7.386,0,0,1-2.382.049" transform="translate(-9.909 -1.919)" fill="#b4fbfe"/>
        <path id="Trazado_214127" data-name="Trazado 214127" d="M57.75,44.987a17.192,17.192,0,0,0,9.859-3.894A18.934,18.934,0,0,0,74.662,29.76a19.326,19.326,0,0,0-1.251-11.827,18.626,18.626,0,0,0-3.847-5.706A18.927,18.927,0,0,0,58.979,6.678c-.238-.041-.471-.113-.706-.17a16.191,16.191,0,0,1,4.849.081,19.135,19.135,0,0,1,11.868,6.633,18.739,18.739,0,0,1,4.442,10.039,18.91,18.91,0,0,1-4,14.554,18.764,18.764,0,0,1-12.266,7.153,14.859,14.859,0,0,1-5.417.019" transform="translate(-16.878 -1.86)" fill="#71f5fb"/>
      </g>
    </g>
  </g>
</svg>
