<svg xmlns="http://www.w3.org/2000/svg" xmlns:xlink="http://www.w3.org/1999/xlink" width="122" height="122" viewBox="0 0 122 122">
  <defs>
    <clipPath id="clip-path">
      <rect id="Rectángulo_88893" data-name="Rectángulo 88893" width="80.052" height="80.086" fill="none"/>
    </clipPath>
  </defs>
  <g id="Grupo_146851" data-name="Grupo 146851" transform="translate(6686 10277)">
    <g id="Elipse_5555" data-name="Elipse 5555" transform="translate(-6686 -10277)" fill="#f5feff" stroke="#0082b2" stroke-width="2">
      <circle cx="61" cy="61" r="61" stroke="none"/>
      <circle cx="61" cy="61" r="60" fill="none"/>
    </g>
    <circle id="Elipse_5559" data-name="Elipse 5559" cx="43" cy="43" r="43" transform="translate(-6668 -10259)" fill="#dff7f9"/>
    <g id="Grupo_140631" data-name="Grupo 140631" transform="translate(-6665 -10256)">
      <g id="Grupo_140630" data-name="Grupo 140630" clip-path="url(#clip-path)">
        <path id="Trazado_214028" data-name="Trazado 214028" d="M0,104.916a17.628,17.628,0,0,0,.589-3.09q3.985-17.9,21.179-24.22A29.776,29.776,0,0,1,32.029,75.9a.678.678,0,0,1,.242.553,49.833,49.833,0,0,1-.068,5.443c-.374.581-1.013.5-1.548.526a24.512,24.512,0,0,0-14.932,5.838,24.919,24.919,0,0,0-8.951,15.733,22.082,22.082,0,0,0-.321,3.26c0,.309,0,.64-.37.793a52.485,52.485,0,0,1-5.514.07A.84.84,0,0,1,0,107.887v-.938a1.2,1.2,0,0,0,0-.938Z" transform="translate(0 -60.039)" fill="#c93c41"/>
        <path id="Trazado_214029" data-name="Trazado 214029" d="M0,228.024l6.245-.007a1.481,1.481,0,0,1,1.038-.245q11.887-.006,23.775,0a2.2,2.2,0,0,1,.844.109.358.358,0,0,1,.19.2c-.273.458-.733.311-1.121.313-3.465.014-6.93.008-10.394.008q-6.526,0-13.052,0c-1.012,0-1.107.07-1.037,1.056a25.218,25.218,0,0,0,6.963,16.159,27.715,27.715,0,0,0,5.093,4.239,1.331,1.331,0,0,1,.409.356.84.84,0,0,1-.143.8c-.813,1.443-1.68,2.855-2.512,4.287-.1.169-.17.391-.429.4a20.908,20.908,0,0,1-4.409-3.039A31.769,31.769,0,0,1,.887,235.61a38.333,38.333,0,0,1-.719-4.056c-.02-.15.009-.319-.168-.4v-.782c.169-.294.04-.615.081-.92-.037-.266.083-.547-.081-.8Z" transform="translate(0 -180.176)" fill="#cba124"/>
        <path id="Trazado_214030" data-name="Trazado 214030" d="M196.621,18.3q3.1-5.333,6.19-10.666c.875-1.508,1.754-3.014,2.614-4.531A5.548,5.548,0,0,1,209.5.136c.062-.01.114-.089.17-.136h.625a1.191,1.191,0,0,1,.151.235,10.423,10.423,0,0,1,.032,2.482.743.743,0,0,1-.1.242c-.018.018-.035.048-.056.051-1.454.243-2.107,1.331-2.771,2.492-3.672,6.419-7.383,12.815-11.073,19.223-1.131,1.964-.082,3.833,2.165,3.833,3.958,0,7.916.037,11.875-.023,3.659-.03,7.317-.011,10.974-.011a1.479,1.479,0,0,1,.97.2c.044.451-.332.386-.568.419a11.4,11.4,0,0,1-1.554.031c-2.879,0-5.757,0-8.636,0-1.11,0-1.14.042-1.159,1.126a2.72,2.72,0,0,1-.146,1.223c-.294.36-.71.27-1.088.27-3.668,0-7.335.036-11,.02a5.627,5.627,0,0,1-5.244-7.549,5.171,5.171,0,0,1,.24-.574c.95-1.613,1.881-3.239,2.824-4.857.122-.21.164-.514.495-.54" transform="translate(-152.448)" fill="#fc4b52"/>
        <path id="Trazado_214031" data-name="Trazado 214031" d="M0,220.011a.7.7,0,0,1,0,.938Z" transform="translate(0 -174.039)" fill="#df647c"/>
        <path id="Trazado_214032" data-name="Trazado 214032" d="M.15,235.537c-.051.31.145.659-.15.93v-.938c.054-.074.1-.067.15.008" transform="translate(0 -186.273)" fill="#dbcf98"/>
        <path id="Trazado_214033" data-name="Trazado 214033" d="M276.844.154q0-.077,0-.154h.782a.62.62,0,0,1,.03.128.548.548,0,0,1-.811.026" transform="translate(-218.996)" fill="#fd8790"/>
        <path id="Trazado_214034" data-name="Trazado 214034" d="M.15,232.774q-.075-.007-.15-.008v-.782c.26.223.123.522.15.79" transform="translate(0 -183.51)" fill="#f0cd74"/>
        <path id="Trazado_214035" data-name="Trazado 214035" d="M203.392,172.386l10.533-5.054c-.366-.126-.575-.193-.782-.269a1.3,1.3,0,0,1-.944-1.563,1.317,1.317,0,0,1,1.671-.9c1.035.24,2.047.579,3.086.8,2.374.495,2.446,1.342,1.422,3.182-.48.863-.886,1.767-1.33,2.651s-.979,1.152-1.717.838-.945-.984-.589-1.881a2.6,2.6,0,0,0,.079-.318c-.109,0-.189-.023-.244,0q-5.268,2.541-10.532,5.092a2.412,2.412,0,0,0-.316.22,13.292,13.292,0,0,1-3.534,1.726,1.293,1.293,0,0,1-1.551-.61c-.457-.692-.943-1.366-1.359-2.085-1.116-1.74-.784-1.445-2.389-.785-5.107,2.1-10.217,4.2-15.31,6.331-.288.121-.577.244-.873.341a1.463,1.463,0,0,1-1.879-.807,1.419,1.419,0,0,1,.738-1.9c.884-.446,1.816-.788,2.731-1.164q7.839-3.23,15.665-6.492c.12-.05.246-.087.369-.128a1.77,1.77,0,0,1,2.112.911c.516.844,1.054,1.675,1.6,2.5a.689.689,0,0,0,.984.3c.5-.22.986-.473,1.483-.7.276-.127.533-.347.876-.239" transform="translate(-139.779 -130.171)" fill="#636363"/>
        <path id="Trazado_214036" data-name="Trazado 214036" d="M276.768.637l.811-.026a5.426,5.426,0,0,1,4.145,2.954q4.8,8.343,9.612,16.678c.727,1.26,1.483,2.5,2.172,3.785a5.433,5.433,0,0,1-3.405,7.93,7.91,7.91,0,0,1-2.088.209l-9.365.038a1.917,1.917,0,0,1-1.609.162.43.43,0,0,1-.279-.3c0-.6.049-1.2,0-1.793-.06-.675.148-.893.856-.885,3.51.037,7.02.019,10.53.013.276,0,.577.09.822-.13.086-.149.243-.183.386-.244a2.465,2.465,0,0,0,1.365-3.8c-1.19-2.165-2.458-4.287-3.695-6.426q-3.768-6.518-7.517-13.047c-.58-1.013-1.164-1.99-2.458-2.192-.137-.022-.2-.151-.274-.262q0-1.336,0-2.673" transform="translate(-218.921 -0.483)" fill="#c93c41"/>
        <path id="Trazado_214037" data-name="Trazado 214037" d="M354.052,253.334c-.19.194-.436.141-.664.14-1.64,0-3.28,0-4.919-.024-1.053-.013-1.326-.3-1.326-1.368q0-15.816,0-31.631c0-.955.259-1.223,1.184-1.228.859,0,1.718.007,2.576.012a2.037,2.037,0,0,1,.248,1.429q.009,15.363.005,30.726c0,1.824-.078,1.656,1.637,1.68.431.006.9-.095,1.259.265" transform="translate(-274.606 -173.414)" fill="#a7e446"/>
        <path id="Trazado_214038" data-name="Trazado 214038" d="M368.233,253.291c-.832-.005-1.666-.037-2.5-.005-.521.02-.719-.175-.655-.677a2.5,2.5,0,0,0,0-.312q0-16.553,0-33.1c.91-.009,1.82-.023,2.73-.024.71,0,1.024.373,1.023,1.077q-.007,16,0,32.005c0,.466-.057.894-.6,1.042" transform="translate(-288.787 -173.371)" fill="#85b638"/>
        <path id="Trazado_214039" data-name="Trazado 214039" d="M75.927,341.1l3.06-5.308a.29.29,0,0,1,.247-.063c1.26.488,2.424,1.187,3.7,1.656a27.465,27.465,0,0,0,7.742,1.655,41.539,41.539,0,0,0,4.425-.118c.261-.01.524-.048.711.2a2.092,2.092,0,0,1,.139.99c.008,1.729-.016,3.458.046,5.186a31.8,31.8,0,0,1-19.423-3.769c-.225-.123-.43-.285-.644-.43" transform="translate(-60.062 -265.573)" fill="#85b638"/>
        <path id="Trazado_214040" data-name="Trazado 214040" d="M294.189,242.135c.886,0,1.772,0,2.657.013.827.011,1.174.351,1.227,1.182.008.13,0,.261,0,.391q0,13.055,0,26.11c0,.563-.013,1.108-.62,1.4a23.95,23.95,0,0,1-2.951.076c-.331.017-.465-.172-.523-.457a5.777,5.777,0,0,1-.057-1.167q0-12.61,0-25.22,0-.2,0-.391c0-1.511,0-1.5-1.482-1.521a2.2,2.2,0,0,1-1.362-.209c-.1-.2.051-.312.19-.332a5.156,5.156,0,0,1,2.917.128" transform="translate(-230.234 -191.322)" fill="#85b638"/>
        <path id="Trazado_214041" data-name="Trazado 214041" d="M287.736,243.867c.728,0,1.46.051,2.183-.01.741-.063.969.169.964.936-.033,5.2-.018,10.4-.018,15.605,0,3.875.013,7.751-.014,11.626,0,.623.18.822.8.787.829-.048,1.663-.012,2.5-.012-.236.243-.54.148-.815.148-1.562,0-3.124,0-4.687-.009-1.167,0-1.512-.359-1.514-1.555q-.013-7.539-.024-15.078a1.255,1.255,0,0,1-.235-.957c-.007-3.327-.019-6.655.009-9.982.005-.624-.049-1.358.859-1.5" transform="translate(-226.919 -192.895)" fill="#a7e446"/>
        <path id="Trazado_214042" data-name="Trazado 214042" d="M269.939,217.382c-.589.26-.6.782-.6,1.313q0,5.019,0,10.038c0,.363-.022.725-.033,1.088a41.911,41.911,0,0,1-3.257,4.728c-.45.533-.924,1.046-1.387,1.569a.772.772,0,0,1-.273-.7c.006-3.408-.09-6.816.045-10.222a33.08,33.08,0,0,0,2.03-6.96,26.744,26.744,0,0,0,.173-6.464c-.043-.45-.387-1,.16-1.407.426.653.844,1.311,1.28,1.956a1.306,1.306,0,0,0,1.877.516,33.134,33.134,0,0,1,3.117-1.413,25.562,25.562,0,0,1,.005,5.8,15.253,15.253,0,0,0-3.138.16" transform="translate(-209.122 -166.409)" fill="#85b638"/>
        <path id="Trazado_214043" data-name="Trazado 214043" d="M235.626,290.763c-.19.194-.435.139-.662.139-1.635,0-3.271,0-4.906-.021-1.055-.011-1.329-.3-1.338-1.351-.009-.96-.021-1.92-.032-2.88a1.256,1.256,0,0,1-.208-.884c0-2.194-.031-4.389.016-6.583-.045-3.7-.029-7.4-.007-11.1.006-1.054.443-1.494,1.481-1.493a5.618,5.618,0,0,1,2.539.19,2.294,2.294,0,0,1,.218,1.437q.01,10.382,0,20.764c0,1.509,0,1.5,1.48,1.52.48.007,1-.125,1.415.259" transform="translate(-180.727 -210.848)" fill="#feca2e"/>
        <path id="Trazado_214044" data-name="Trazado 214044" d="M250.769,290.736c-.806,0-1.615-.044-2.418,0-.6.033-.744-.188-.742-.759.02-4.683.012-9.366.011-14.048V266.8a5.7,5.7,0,0,1,3.328-.079c.446.092.582.539.645.972a6.289,6.289,0,0,1-.185,1.761q0,5.539,0,11.078-.016,4.556-.03,9.112c0,.483,0,.959-.611,1.1" transform="translate(-195.87 -210.821)" fill="#cba124"/>
        <path id="Trazado_214045" data-name="Trazado 214045" d="M191.493,307.681c-.028.466-.024.936-.1,1.395a.71.71,0,0,1-.54.606,24.1,24.1,0,0,1-2.948.076.477.477,0,0,1-.536-.445,4.463,4.463,0,0,1-.056-.932q0-8.11,0-16.219c0-.508-.1-1.055.349-1.464a6.534,6.534,0,0,1,3.079-.082c.648.1.91.642.957,1.266.052.675.025,1.352.024,2.028,0,2.34.018,4.681-.011,7.021.033,1.928.009,3.855.012,5.783a1.484,1.484,0,0,1-.238.967" transform="translate(-148.174 -229.778)" fill="#c93c41"/>
        <path id="Trazado_214046" data-name="Trazado 214046" d="M173.543,290.783a1.422,1.422,0,0,0-.156.9c0,5.715.013,11.43-.017,17.144,0,.707.211.9.884.856.8-.055,1.609-.012,2.414-.011a7.36,7.36,0,0,1-2.53.141c-1.037.033-2.077-.023-3.115-.02a1.923,1.923,0,0,1-1.107-.3,2.243,2.243,0,0,1-.242-1.2c0-1.68-.019-3.359-.031-5.039a1.38,1.38,0,0,1-.26-1.03c0-3.249-.015-6.5,0-9.747.008-1.477.515-2,1.972-1.967.729.016,1.51-.246,2.184.265" transform="translate(-133.984 -229.771)" fill="#fc4b52"/>
        <path id="Trazado_214047" data-name="Trazado 214047" d="M255.629,151.511l1.689.006a33.151,33.151,0,0,1,3.884,10.492c-.862.415-1.73.815-2.58,1.252-.356.183-.538.113-.743-.223-.567-.925-1.206-1.808-1.753-2.744a1.654,1.654,0,0,0-1.931-.919c-.417-.01-.466-.365-.567-.641a25.711,25.711,0,0,0-3.441-6.278,2.462,2.462,0,0,1-.179-.256c-.11-.2-.321-.4-.181-.636.122-.2.382-.1.578-.1,1.741.023,3.484-.068,5.224.045" transform="translate(-197.588 -119.795)" fill="#85b638"/>
        <path id="Trazado_214048" data-name="Trazado 214048" d="M207.316,336.321q0-3.378,0-6.757a1.182,1.182,0,0,1,.636-.533,22.5,22.5,0,0,0,3.34-2.082c.192-.143.368-.4.668-.195q0,3.733,0,7.466a30.36,30.36,0,0,1-4.641,2.1" transform="translate(-163.996 -258.417)" fill="#85b638"/>
        <path id="Trazado_214049" data-name="Trazado 214049" d="M165.428,78.337l-3.067,5.322a1.075,1.075,0,0,1-1.044,0,22.9,22.9,0,0,0-6.562-1.212,3.917,3.917,0,0,1-1.369-.265l-.1-.094q0-3.1-.005-6.193a32.23,32.23,0,0,1,11.449,2.111c.238.092.464.218.7.328" transform="translate(-121.255 -60.039)" fill="#85b638"/>
        <path id="Trazado_214050" data-name="Trazado 214050" d="M55.668,131.293l-24.688-.01c-.364,0-.729-.009-1.093-.014a24.54,24.54,0,0,1,2.863-11.748,25.488,25.488,0,0,1,15.963-13,20.893,20.893,0,0,1,5.576-.9,8.442,8.442,0,0,1,1.387-.143l.057-.009a1.633,1.633,0,0,1,.213,1.051q.006,11.837,0,23.674c0,.382.06.793-.276,1.1" transform="translate(-23.642 -83.428)" fill="#fc4b52"/>
        <path id="Trazado_214051" data-name="Trazado 214051" d="M103.944,131.313c.012-.311.036-.622.036-.933q0-11.977,0-23.955c0-.312.018-.623.027-.934a29.037,29.037,0,0,1,8.111,1.394,2.026,2.026,0,0,0,.9.182,5.46,5.46,0,0,0,1.345,6.733,4.877,4.877,0,0,0,3.127,1.244c4.088.016,8.176,0,12.263-.009l.2.129h-5.824c.49.708.9,1.29,1.3,1.882a23.067,23.067,0,0,1,2.778,5.456.986.986,0,0,0,.313.526q-5.561,2.328-11.123,4.655c-2.514,1.05-5.033,2.087-7.546,3.14a1.2,1.2,0,0,0-.731,1.639,1.238,1.238,0,0,0,1.709.716c5.685-2.344,11.374-4.68,17.043-7.061.6-.251.873-.167,1.135.371a9.316,9.316,0,0,0,.582.917c-.041,1.385.2,2.754.192,4.144a26.2,26.2,0,0,1-2.046,9.9c-.088.214-.189.421-.284.632-.01-.571-.025-1.142-.028-1.713a.862.862,0,0,0-.957-.972c-.934,0-1.869.02-2.8.032-.884-.006-1.768-.022-2.651-.014-.828.007-1.1.291-1.106,1.143q-.008,5.148,0,10.3c0,.311-.017.623-.026.934a31.462,31.462,0,0,1-4.644,2.81q-.016-4.282-.031-8.564c0-1.392-.21-1.6-1.63-1.6-.7,0-1.4.016-2.1.024-.78-.006-1.561-.016-2.341-.017-1.286,0-1.526.245-1.527,1.566q0,5.037,0,10.074c0,.286-.019.571-.03.857a28.361,28.361,0,0,1-3.541.282,30.294,30.294,0,0,1-5.373-.581,27.547,27.547,0,0,1-7.037-2.592c-.224-.12-.494-.177-.64-.418-.2-.357.087-.594.232-.845,2.5-4.3,5.045-8.577,7.558-12.871Q101,136.1,103.248,132.3a2.506,2.506,0,0,1,.674-.849.166.166,0,0,0,.022-.14" transform="translate(-71.918 -83.448)" fill="#a7e446"/>
        <path id="Trazado_214052" data-name="Trazado 214052" d="M55.625,229.688q-2.683,4.6-5.367,9.208-3.72,6.347-7.455,12.685a2.046,2.046,0,0,0-.115.285q-.071.02-.143.037a29.75,29.75,0,0,1-5.973-4.959,25.19,25.19,0,0,1-5.9-10.916,26.65,26.65,0,0,1-.806-5.521c-.03-.652.179-.834.829-.832q12.466.031,24.933.014" transform="translate(-23.62 -181.683)" fill="#feca2e"/>
        <path id="Trazado_214053" data-name="Trazado 214053" d="M274.364,13.526c1.587.137,2.284,1.276,2.991,2.512,3.568,6.245,7.183,12.463,10.776,18.695a4.092,4.092,0,0,1,.8,2.076,2.563,2.563,0,0,1-2.372,2.684l-12.2-.035a.93.93,0,0,1-.1-.984.777.777,0,0,1,.436-.3c.993-.425,1.415-.993,1.323-1.77-.1-.851-.647-1.314-1.731-1.463A.378.378,0,0,1,274,34.7a10.879,10.879,0,0,0,.133-2.326,1.832,1.832,0,0,1,.13-.839c.13-.2.354-.265.536-.391a1.735,1.735,0,0,0,.88-1.706c-.053-1.9.159-3.78.174-5.671a15.763,15.763,0,0,1,.129-2.716,2.834,2.834,0,0,0,.009-.777c-.1-.994-.547-1.377-1.666-1.414a.69.69,0,0,1-.624-.23,2.563,2.563,0,0,0,.427-1.682c-.033-.777-.012-1.556-.006-2.335a1.383,1.383,0,0,1,.232-.961c0-.044.006-.089.008-.133" transform="translate(-216.512 -10.7)" fill="#cba124"/>
        <path id="Trazado_214054" data-name="Trazado 214054" d="M221.959,38.888q0,.533,0,1.066c-4.009.005-8.018.033-12.026.007a2.553,2.553,0,0,1-2.1-3.914c1.031-1.866,2.124-3.7,3.189-5.544q4.23-7.331,8.452-14.666a2.665,2.665,0,0,1,2.485-1.682c0,1.353-.034,2.708.022,4.059a.79.79,0,0,1-.645.935c-1.357,1.166-.823,2.729-.809,4.149.009.848.126,1.705.095,2.559-.055,1.481.223,2.945.183,4.425a1.423,1.423,0,0,0,.711,1.3.973.973,0,0,1,.444.42c0,.817-.008,1.634.009,2.451a.8.8,0,0,1-.32.8c-.084.21-.292.284-.452.41a1.6,1.6,0,0,0,.295,2.906,1.954,1.954,0,0,1,.406.225l.06.093" transform="translate(-164.117 -11.196)" fill="#feca2e"/>
        <path id="Trazado_214055" data-name="Trazado 214055" d="M275.873,38.115c1.2-.11,1.88.434,1.85,1.6-.08,3.172-.2,6.343-.329,9.514a1.489,1.489,0,0,1-1.037,1.57c-.441.166-.626-.062-.7-.457a4.7,4.7,0,0,1-.044-.853q0-5.055,0-10.109a1.752,1.752,0,0,1,.256-1.263" transform="translate(-218.022 -30.14)" fill="#c93c41"/>
        <path id="Trazado_214056" data-name="Trazado 214056" d="M270.295,38.084q0,5.962,0,11.924c0,.354-.1.775.487.759-.128.167-.319.13-.492.152-1.156-.4-1.371-.718-1.409-1.93q-.144-4.678-.318-9.355a1.412,1.412,0,0,1,1.1-1.571l.63.022" transform="translate(-212.443 -30.109)" fill="#fc4b52"/>
        <path id="Trazado_214057" data-name="Trazado 214057" d="M275.724,115.269a1.734,1.734,0,0,1,1.867,1.664c.065,1.092-.637,1.819-1.877,1.943l.016-.038a5.368,5.368,0,0,1-.006-3.569" transform="translate(-217.871 -91.183)" fill="#c93c41"/>
        <path id="Trazado_214058" data-name="Trazado 214058" d="M270.213,115.165q0,1.784.006,3.569a1.749,1.749,0,0,1-1.738-1.441,1.826,1.826,0,0,1,1.413-2.156l.319.027" transform="translate(-212.36 -91.079)" fill="#fc4b52"/>
      </g>
    </g>
  </g>
</svg>
