<svg xmlns="http://www.w3.org/2000/svg" xmlns:xlink="http://www.w3.org/1999/xlink" width="122" height="122" viewBox="0 0 122 122">
  <defs>
    <clipPath id="clip-path">
      <path id="Trazado_213917" data-name="Trazado 213917" d="M52.5,0C81.495,0,112,29.272,112,58.267S81.495,105,52.5,105-4.591,90.718-4.591,61.723,23.505,0,52.5,0Z" transform="translate(748 1014)" fill="#a7e446"/>
    </clipPath>
    <clipPath id="clip-path-2">
      <rect id="Rectángulo_88895" data-name="Rectángulo 88895" width="89.221" height="102.212" fill="none"/>
    </clipPath>
  </defs>
  <g id="Grupo_146852" data-name="Grupo 146852" transform="translate(6336 10277)">
    <g id="Elipse_5556" data-name="Elipse 5556" transform="translate(-6336 -10277)" fill="#f5feff" stroke="#0082b2" stroke-width="2">
      <circle cx="61" cy="61" r="61" stroke="none"/>
      <circle cx="61" cy="61" r="60" fill="none"/>
    </g>
    <circle id="Elipse_5561" data-name="Elipse 5561" cx="43" cy="43" r="43" transform="translate(-6318 -10259)" fill="#dff7f9"/>
    <g id="Enmascarar_grupo_117503" data-name="Enmascarar grupo 117503" transform="translate(-7076 -11283)" clip-path="url(#clip-path)">
      <g id="Grupo_140633" data-name="Grupo 140633" transform="translate(756.39 1024)">
        <g id="Grupo_140633-2" data-name="Grupo 140633" clip-path="url(#clip-path-2)">
          <path id="Trazado_214090" data-name="Trazado 214090" d="M219.653,328.513c-3.076-2.207-6.123-4.457-9.24-6.605a2.932,2.932,0,0,1-.856-4.219,3.115,3.115,0,0,1,3.939-.6c1.81,1.088,3.627,2.166,5.42,3.281.61.379.782.271.759-.433-.04-1.216-.026-2.433-.034-3.65a.822.822,0,0,1-.18-.286,11.584,11.584,0,0,1-.08-2.343c0-2.96-.036-5.92.018-8.88q0-2.433,0-4.868a4.806,4.806,0,0,1,.34-1.869,3.139,3.139,0,0,1,3.063-2.008,3.215,3.215,0,0,1,3.058,2.168,8.479,8.479,0,0,1,.31,3.179c-.03,2.839.007,5.679-.02,8.538,1.582-2.287,4.075-2.164,5.914.369a3.191,3.191,0,0,1,3.026-1.977,3.416,3.416,0,0,1,3.06,1.956c.69-1.052,1.472-1.917,2.823-1.885.381.35.035.627-.114.9a38.778,38.778,0,0,1-4.735,6.637,65.347,65.347,0,0,1-14.311,12.178c-.3.191-.636.263-.94.424Z" transform="translate(-168.944 -239.301)" fill="#fdc8a2"/>
          <path id="Trazado_214091" data-name="Trazado 214091" d="M269.3,394.7c2.149-1.563-.346-13.055,1.738-14.714,3.338-2.655,12.866-10.037,15.606-13.319a48.326,48.326,0,0,0,4.546-6.541c.333-.4.748-.261,1.119-.122a3.5,3.5,0,0,1,2.361,2.975,27.654,27.654,0,0,1,.049,4.43.631.631,0,0,1-.207.464c0,4.08.162,24.078.158,28.158Z" transform="translate(-219.05 -290.904)" fill="#fdbf92"/>
          <path id="Trazado_214092" data-name="Trazado 214092" d="M83.039,128.928a.438.438,0,0,1,.014.146c-7.173,0-14.347.1-21.518-.022-6.88-.118-13.759-.016-20.638-.084-.29,0-.579-.024-.869-.036q0-32.234,0-64.468l6.08-.026c.437.608.285,1.34.388,2.01a4.4,4.4,0,0,0,4.337,3.87c2.233.04,4.467.026,6.7,0a2.1,2.1,0,0,1,1.745.758c1.858,2.109,3.69,4.242,5.555,6.345a2.253,2.253,0,0,1,.694,1.083c-.067.32-.337.458-.572.621a21.219,21.219,0,0,0-8.921,13.533c-.285,1.341-.206,2.716-.435,4.06a27.149,27.149,0,0,0,1.164,6.731,20.92,20.92,0,0,0,5.131,8.252A20.446,20.446,0,0,0,71,117.15c.373.112.821.115,1.006.571,0,.535-.42.808-.739,1.128q-4.547,4.564-9.106,9.114a3.8,3.8,0,0,0-.61.66,1.332,1.332,0,0,0,.735.06q9.75.006,19.5.007a1.7,1.7,0,0,1,1.249.236" transform="translate(-32.358 -52.09)" fill="#feca2e"/>
          <path id="Trazado_214093" data-name="Trazado 214093" d="M315.817,178c-.01-1.47,0-2.94-.035-4.41a3.181,3.181,0,0,0-3.287-3.337c-1.594.257-2.188.731-2.919,2.406a3.191,3.191,0,0,0-3.083-2.407,3.106,3.106,0,0,0-3.058,2.523,3.208,3.208,0,0,0-2.825-2.515,3.414,3.414,0,0,0-3.279,1.891v-8.917c.468-.748,1.284-1.118,1.878-1.729.3-.307.6-.609.893-.925a20.792,20.792,0,0,0,6.015-12.552,20.45,20.45,0,0,0-.288-6.654,1.67,1.67,0,0,1-.063-.688c1.358-1.436,2.78-2.81,4.188-4.2a1.09,1.09,0,0,1,.526-.283c1.789-.14,3.58-.021,5.368-.071.379-.011.917.135,1.014-.406a2.966,2.966,0,0,0-.114-2.025c-.128-.229-.473-.159-.73-.172a13.883,13.883,0,0,1-2.245-.085c-.506-.222-.236-.528-.031-.738a21.1,21.1,0,0,1,2.67-2.566c.476-.146.535-.518.551-.947a5.74,5.74,0,0,1,.132-1.951c.43-.283.425.132.456.329a2.939,2.939,0,0,1-.026,1.376c1.113-1.25,2.421-2.528,3.763-3.77.282-.261.63-.327.813.167a5.385,5.385,0,0,1,.088,1.388q0,24.774,0,49.547a2.368,2.368,0,0,1-.267,1.6,6.128,6.128,0,0,1-2.211.126c-1.3.029-2.592,0-3.888,0" transform="translate(-240.352 -101.024)" fill="#98791b"/>
          <path id="Trazado_214094" data-name="Trazado 214094" d="M212.155,87.428q-2,2.032-4,4.059c-.071.072-.21.078-.317.115-.4-.194-.4-.607-.507-.954a20.434,20.434,0,0,0-5.465-9.085,20.733,20.733,0,0,0-13.639-6.123A21.936,21.936,0,0,0,178.635,77c-.29.113-.57.313-.907.141a.912.912,0,0,1-.315-.51c-.469-1.8-.941-3.592-1.345-5.4-.172-.77.021-.946.987-.954,2.64-.021,5.279-.011,7.919-.005a4.94,4.94,0,0,0,2.276-.478,4.6,4.6,0,0,0,2.522-4.174c.029-.421-.093-.883.279-1.229q16.587,0,33.173,0c.2,0,.4.023.607.036a1.584,1.584,0,0,1,.284,1.152q.009,4.695,0,9.39c0,.4.047.824-.305,1.133-.4.024-.582.357-.822.594-1.172,1.159-2.333,2.328-3.563,3.56-.3-.725.116-1.46-.3-2.06a1.868,1.868,0,0,1-1.329.269c-2.607.008-5.213-.005-7.82.012-.4,0-.977-.174-1.118.388a2.811,2.811,0,0,0,.077,1.953c.17.34.625.228.963.23,2.375.01,4.75,0,7.125.01a1.606,1.606,0,0,1,1.235.271l-2.788,2.962c-.39.359-.876.23-1.328.25-.492.021-.987.019-1.479,0-.647-.019-.976.241-.948.921s-.128,1.4.441,1.967" transform="translate(-142.281 -52.048)" fill="#feca2e"/>
          <path id="Trazado_214095" data-name="Trazado 214095" d="M105.774,12.343c-.089.773-.018,1.55-.171,2.33a4.645,4.645,0,0,1-4.523,3.8q-4.26.019-8.52,0c-.449,0-.723.025-.571.593.534,2.006,1.046,4.018,1.566,6.027a5.257,5.257,0,0,1,.711,2.122c.24.836.456,1.682.624,2.537.045.229.065.48-.183.619a.379.379,0,0,1-.478-.1,21.033,21.033,0,0,1-3.118-3.813c-2.188-2.5-4.388-4.992-6.551-7.514a1.285,1.285,0,0,0-1.119-.472q-3.479.02-6.958,0a4.61,4.61,0,0,1-4.569-4.136c-.087-.664-.091-1.324-.156-1.984.164-2.433.033-4.87.07-7.3A5,5,0,0,1,73,1.588,4.419,4.419,0,0,1,76.362.015q12.405-.02,24.81,0a4.6,4.6,0,0,1,4.536,4.845c.022,2.176,0,4.352.007,6.528,0,.318.038.635.058.952" transform="translate(-58.006 -0.001)" fill="#a7e446"/>
          <path id="Trazado_214097" data-name="Trazado 214097" d="M184,248.241a12.643,12.643,0,0,1-2.819,2.433,21.066,21.066,0,0,0-.081-2.342,3.054,3.054,0,0,0-3.445-2.9,3.148,3.148,0,0,0-2.719,3.367c-.015,1.652-.017,3.3-.025,4.957a1.407,1.407,0,0,1-.972.5,22.269,22.269,0,0,1-8.921.288,2.118,2.118,0,0,1-1.259-.511,21.924,21.924,0,0,1-8.9-4.563,4.992,4.992,0,0,1-1.212-1.226c.058-.344.333-.534.554-.755q6.877-6.885,13.763-13.761c.242-.242.459-.533.84-.578.417.043.646.366.908.627q6.864,6.854,13.719,13.717a1.608,1.608,0,0,1,.57.749" transform="translate(-124.2 -188.469)" fill="#fc4b52"/>
          <path id="Trazado_214098" data-name="Trazado 214098" d="M160.715,340.968a22.6,22.6,0,0,0,11.152-.274q-.013,5.775-.026,11.55H149.882c.034-.421.352-.57.562-.781q4.826-4.845,9.663-9.678c.239-.24.57-.423.607-.818" transform="translate(-121.16 -275.406)" fill="#98791b"/>
          <path id="Trazado_214099" data-name="Trazado 214099" d="M130.325,123.819l3.477,3.889.174-.1-1.208-5.158a21.543,21.543,0,0,1,23.739,3.779c.185.177.341.386.51.58-.086.367-.389.57-.631.812q-6.864,6.873-13.734,13.74a2.429,2.429,0,0,1-1.217.8,2.9,2.9,0,0,1-.948.092q-9.458.006-18.917,0c-.452,0-.939.082-1.3-.314a21.648,21.648,0,0,1,4.226-12.728,19.954,19.954,0,0,1,5.831-5.392" transform="translate(-97.221 -97.367)" fill="#a7e446"/>
          <path id="Trazado_214100" data-name="Trazado 214100" d="M120.268,232.588q6.217.019,12.435.038,4.564.018,9.128.052l0,.048q-6.157,6.133-12.315,12.264c-.944.939-1.9,1.866-2.848,2.8a18.633,18.633,0,0,1-4.709-6.872,21.909,21.909,0,0,1-1.687-8.331" transform="translate(-97.221 -188.017)" fill="#afafaf"/>
          <path id="Trazado_214101" data-name="Trazado 214101" d="M69.776,340.236c-1.508,0-3.017-.025-4.525.012-.617.015-.785-.2-.789-.8-.013-2.183-.034-2.183,2.175-2.183,2.553,0,5.105.02,7.657-.014.657-.009.836.2.834.843-.007,2.14.018,2.14-2.133,2.14h-3.22" transform="translate(-52.108 -272.624)" fill="#cba124"/>
          <path id="Trazado_214102" data-name="Trazado 214102" d="M69.114,136.371c1.3,0,2.61.018,3.914-.009.52-.011.742.151.709.693-.036.578-.022,1.16,0,1.739.016.527-.23.716-.738.714-2.61-.011-5.219-.017-7.829.005-.554,0-.7-.219-.678-.724a15.388,15.388,0,0,0,0-1.739c-.034-.548.2-.7.714-.688,1.3.026,2.609.009,3.914.009" transform="translate(-52.126 -110.23)" fill="#cba124"/>
          <path id="Trazado_214103" data-name="Trazado 214103" d="M68.289,171.344c-1.015,0-2.03-.023-3.044.009-.542.017-.812-.123-.768-.722a12.992,12.992,0,0,0,0-1.738c-.034-.547.2-.694.713-.689q3.087.031,6.175,0c.622-.007.785.261.8.838.05,2.3.065,2.3-2.223,2.3H68.289" transform="translate(-52.117 -135.97)" fill="#cba124"/>
          <path id="Trazado_214104" data-name="Trazado 214104" d="M68.228,307.732c-1.044,0-2.088-.019-3.131.008-.512.013-.7-.141-.721-.685-.078-2.456-.1-2.456,2.336-2.456,1.508,0,3.015.016,4.523-.008.586-.009.818.19.835.8.065,2.339.083,2.338-2.276,2.338H68.228" transform="translate(-52.021 -246.222)" fill="#cba124"/>
          <path id="Trazado_214105" data-name="Trazado 214105" d="M232.77,168.913l0-.048a4.761,4.761,0,0,1,.37-.475q7.2-7.211,14.416-14.415a4.987,4.987,0,0,1,.4-.328,20.2,20.2,0,0,1,5.545,9.36c.073.249.144.5.217.749a21.546,21.546,0,0,1-2.75,16.551,14.452,14.452,0,0,1-3.012,3.668c-.748-.726-1.5-1.443-2.242-2.18q-6.1-6.085-12.184-12.176c-.245-.245-.509-.471-.765-.706" transform="translate(-188.164 -124.203)" fill="#7eb357"/>
          <path id="Trazado_214106" data-name="Trazado 214106" d="M355.22,139.544c-2.982,0-5.964-.02-8.946.011-.657.007-.832-.2-.832-.842,0-2.3-.02-2.305,2.307-2.3l8.338,0c0,.768-.044,1.541.019,2.3.06.719-.254.913-.886.829" transform="translate(-279.244 -110.269)" fill="#cba124"/>
          <path id="Trazado_214107" data-name="Trazado 214107" d="M350.746,320.933c1.507,0,3.014.019,4.521-.01.555-.011.8.149.757.734a13.007,13.007,0,0,0,0,1.738c.035.556-.216.683-.72.68q-4.608-.024-9.216,0c-.514,0-.7-.146-.718-.688-.078-2.455-.094-2.455,2.334-2.455h3.043" transform="translate(-279.167 -259.423)" fill="#cba124"/>
          <path id="Trazado_214108" data-name="Trazado 214108" d="M361.665,171.327c-.513.058-.714-.143-.7-.684.073-2.962-.429-2.391,2.37-2.453.548-.012,1.1,0,1.645-.005.953,0,1.908.028,2.86-.008.577-.022.811.128.817.764.024,2.381.047,2.38-2.31,2.381q-2.34,0-4.68,0" transform="translate(-291.791 -135.948)" fill="#cba124"/>
          <path id="Trazado_214109" data-name="Trazado 214109" d="M364.59,292.064c-1.043,0-2.086-.016-3.128.007-.474.01-.651-.142-.675-.64-.113-2.332-.128-2.332,2.193-2.332,1.564,0,3.129.021,4.692-.011.587-.012.805.148.809.775.016,2.2.039,2.2-2.153,2.2H364.59" transform="translate(-291.617 -233.689)" fill="#cba124"/>
          <path id="Trazado_214110" data-name="Trazado 214110" d="M322.535,91.354c-1.541,0-1.541,0-1.541-1.571s0-1.562,1.549-1.562c1.584,0,1.584,0,1.584,1.614,0,1.519,0,1.519-1.593,1.519" transform="translate(-259.481 -71.315)" fill="#cba124"/>
          <path id="Trazado_214111" data-name="Trazado 214111" d="M355.961,89.785c0,1.569,0,1.57-1.55,1.569-1.726,0-1.583.148-1.584-1.595,0-1.538,0-1.538,1.581-1.538,1.553,0,1.553,0,1.553,1.564" transform="translate(-285.213 -71.315)" fill="#cba124"/>
          <path id="Trazado_214112" data-name="Trazado 214112" d="M385.434,89.727c.028-1.765-.244-1.522,1.5-1.523,1.694,0,1.453-.231,1.466,1.468.013,1.659,0,1.659-1.628,1.659a2.913,2.913,0,0,0-.433,0c-.726.11-1.011-.2-.91-.914a5.037,5.037,0,0,0,.005-.693" transform="translate(-311.553 -71.293)" fill="#cba124"/>
          <path id="Trazado_214113" data-name="Trazado 214113" d="M108.63,56.317c3.773,0,7.546.017,11.319-.015.711-.006.95.177.938.916-.033,2.069,0,2.069-2.033,2.069-7.2,0-14.4-.011-21.594.016-.754,0-1-.175-.983-.962.047-2.024.008-2.025,1.991-2.025H108.63" transform="translate(-77.827 -45.512)" fill="#64892a"/>
          <path id="Trazado_214114" data-name="Trazado 214114" d="M137.431,26.758c-2.814,0-5.629-.019-8.443.014-.653.007-.838-.19-.837-.838,0-2.307-.021-2.307,2.285-2.307,5.078,0,10.156.015,15.233-.016.749,0,1,.167.987.958-.045,2.189-.007,2.19-2.174,2.19h-7.051" transform="translate(-103.592 -19.085)" fill="#64892a"/>
          <path id="Trazado_214115" data-name="Trazado 214115" d="M97.928,26.815c-1.545,0-1.545,0-1.545-1.572s0-1.56,1.558-1.56c1.73,0,1.573-.135,1.574,1.6,0,1.53,0,1.53-1.588,1.53" transform="translate(-77.913 -19.143)" fill="#64892a"/>
        </g>
      </g>
    </g>
  </g>
</svg>
