<svg xmlns="http://www.w3.org/2000/svg" xmlns:xlink="http://www.w3.org/1999/xlink" width="122" height="122" viewBox="0 0 122 122">
  <defs>
    <clipPath id="clip-path">
      <path id="Trazado_213941" data-name="Trazado 213941" d="M52.5,0C81.495,0,112,29.272,112,58.267S81.495,105,52.5,105-4.591,90.718-4.591,61.723,23.505,0,52.5,0Z" transform="translate(748 1014)" fill="#a7e446"/>
    </clipPath>
    <clipPath id="clip-path-2">
      <rect id="Rectángulo_88891" data-name="Rectángulo 88891" width="89.655" height="89.499" fill="none"/>
    </clipPath>
  </defs>
  <g id="Grupo_146853" data-name="Grupo 146853" transform="translate(5986 10277)">
    <g id="Elipse_5562" data-name="Elipse 5562" transform="translate(-5986 -10277)" fill="#f5feff" stroke="#0082b2" stroke-width="2">
      <circle cx="61" cy="61" r="61" stroke="none"/>
      <circle cx="61" cy="61" r="60" fill="none"/>
    </g>
    <circle id="Elipse_5563" data-name="Elipse 5563" cx="43" cy="43" r="43" transform="translate(-5968 -10259)" fill="#dff7f9"/>
    <g id="Enmascarar_grupo_117505" data-name="Enmascarar grupo 117505" transform="translate(-6726 -11283)" clip-path="url(#clip-path)">
      <g id="Grupo_140628" data-name="Grupo 140628" transform="translate(756.877 1030.501)">
        <g id="Grupo_140628-2" data-name="Grupo 140628" clip-path="url(#clip-path-2)">
          <path id="Trazado_213965" data-name="Trazado 213965" d="M.51,78.227c-.384-.393-.183-1-.51-1.409v-2.1C.973,71.5,2.874,70.1,6.285,70.1c2.624,0,5.248,0,7.873,0a9.9,9.9,0,0,1,1.4-.024c.718.028,1-.307.969-1-.018-.348,0-.7,0-1.047q0-23.164,0-46.329a2.976,2.976,0,0,1,.224-1.7,1.594,1.594,0,0,1,1.08-.252q7.8-.013,15.61,0a2.9,2.9,0,0,1,.776.078c.593.227.39.647.191,1a3.938,3.938,0,0,1-1.934,1.817A2.07,2.07,0,0,0,31.1,24.472a9.933,9.933,0,0,0,0,2.26,2,2,0,0,0,1.3,1.8,4.044,4.044,0,0,1,2.078,2.026,1.6,1.6,0,0,1,.262,1.026c-.153.334-.475.5-.737.722a3.824,3.824,0,0,0-1.351,4.266,4.018,4.018,0,0,0,3.725,2.776c2.394-.064,4.786-.021,7.178-.029a2.606,2.606,0,0,1,1.2.154c.405.322.325.785.328,1.21.014,1.833,0,3.668.007,5.5A29.429,29.429,0,0,0,48.148,60.2,9.748,9.748,0,0,1,49.2,63.689a1.5,1.5,0,0,1-.118,1.1.762.762,0,0,1-.476.2c-.565.028-.722.351-.728.869a12.352,12.352,0,0,1-.082,2.437,1.261,1.261,0,0,1-.757.682,73.3,73.3,0,0,1-7.462,2.984,1.281,1.281,0,0,1-.515.08c-.375-.081-.55-.411-.793-.651a2.448,2.448,0,0,0-2.64-.662,2.49,2.49,0,0,0-1.752,2.088c-.057.336,0,.709-.294.976a36.418,36.418,0,0,1-4.965,1.306c-2.6.613-5.227,1.132-7.879,1.5-.337.047-.695.173-.973-.157.076-.479.516-.5.841-.628,2.417-.942,4.839-1.875,7.281-2.752a2.552,2.552,0,0,0,1.457-1.278c1.956-3.575,3.881-7.167,5.871-10.724.071-.127.134-.26.217-.38.145-.21.267-.5.583-.429.258.062.281.35.342.568.149.532.282,1.071.467,1.592a1.115,1.115,0,0,0,1.485.826,1.087,1.087,0,0,0,.739-1.452c-.476-1.831-.973-3.657-1.451-5.488a1.183,1.183,0,0,0-1.717-.944c-1.63.559-3.317.909-4.963,1.408a2.583,2.583,0,0,0-.884.362,1.1,1.1,0,0,0,.624,2,5.384,5.384,0,0,0,1.455-.273c.414-.1.917-.4,1.245-.041.353.387-.066.823-.258,1.185-1.187,2.237-2.427,4.446-3.631,6.674-.581,1.076-1.2,2.131-1.746,3.225a2.436,2.436,0,0,1-1.385,1.25c-3.078,1.175-6.172,2.3-9.253,3.471-1.343.509-1.375.539-1.357,2.022a.788.788,0,0,1-.1.419.976.976,0,0,1-.759.368,100.676,100.676,0,0,1-10.415.724,5.63,5.63,0,0,0-1.822.087,7.058,7.058,0,0,1-2.121.007" transform="translate(0 -7.436)" fill="#e2edf7"/>
          <path id="Trazado_213966" data-name="Trazado 213966" d="M0,60.874V15.435a5.581,5.581,0,0,1,5.955-4.618c1.511,0,3.021,0,4.532,0a1.83,1.83,0,0,1,1.1.192.93.93,0,0,1,.208.651c-.024,1.976.11,3.954-.1,5.93-.163,1.56-.1,3.133-.214,4.7A121.314,121.314,0,0,1,8.888,40.941,62.2,62.2,0,0,1,3.38,56.262,33.894,33.894,0,0,1,.859,60.244c-.209.289-.38.684-.859.631" transform="translate(0 -4.075)" fill="#b2c5c7"/>
          <path id="Trazado_213967" data-name="Trazado 213967" d="M11.563,11.237c2.446-.134,2.443-.134,2.447,2.251,0,1.1.016,2.2.025,3.3a2.642,2.642,0,0,1,.256,1.693q.009,23.44,0,46.881c0,.291,0,.582-.009.872a1.221,1.221,0,0,1-.3.886q-3.9.006-7.791.011A5.689,5.689,0,0,0,.241,71.165c-.052.13-.072.287-.241.336V61.015a21.5,21.5,0,0,0,2.967-4.373A65.141,65.141,0,0,0,9.448,37.163c.662-3.551,1.124-7.129,1.433-10.731.236-2.741.394-5.483.546-8.229.129-2.325.056-4.645.136-6.965" transform="translate(0 -4.217)" fill="#869495"/>
          <path id="Trazado_213968" data-name="Trazado 213968" d="M123.255,29.058a10.077,10.077,0,0,1,8.4,5.445v.175a1.74,1.74,0,0,1-1.241.269c-1.882.007-3.763,0-5.645,0a2.454,2.454,0,0,0-1.188.157c-.762,1.618-1.835,3.178-1.011,5.1.348.811.359,1.762,1.021,2.442a2.7,2.7,0,0,0,1.2.142c1.876,0,3.754,0,5.631,0a1.731,1.731,0,0,1,1.238.269v.174a10.069,10.069,0,0,1-6.445,5.121c-.641.156-1.306.219-1.959.325a2.237,2.237,0,0,1-1.618.163,9.751,9.751,0,0,1-5.8-2.805,2.511,2.511,0,0,1-.577-.965,6.379,6.379,0,0,0-3.36-4.045.765.765,0,0,1-.429-.415c.075-.439.49-.464.784-.6a21.014,21.014,0,0,0,6.6-4.483,15.169,15.169,0,0,0,3.284-5.3,2.487,2.487,0,0,1,.6-1.237.489.489,0,0,1,.51.055" transform="translate(-42.004 -10.91)" fill="#ebb100"/>
          <path id="Trazado_213969" data-name="Trazado 213969" d="M75.6.194l.341-.2h3.152a2.7,2.7,0,0,1,2.028,1.892,4.134,4.134,0,0,0,2.334,1.988c-.351.935-1.248.838-1.9.781-2.176-.186-4.108-.916-5.071-3.109-.224-.51-.784-.78-.88-1.357" transform="translate(-28.486 0)" fill="#c93c41"/>
          <path id="Trazado_213970" data-name="Trazado 213970" d="M76.227,95.484c.009-.925.07-1.854.012-2.775-.044-.711.15-1.028.892-.9a2.393,2.393,0,0,0,.519-.023,1.478,1.478,0,0,1,1-.251q9-.01,18,0a2.654,2.654,0,0,1,.691.075c.56.179.485.661.5,1.086a26.325,26.325,0,0,1-3.675,14.279,34.258,34.258,0,0,1-14.052,13.14c-.825.437-1.65.874-2.51,1.238a2.088,2.088,0,0,1-1.323.345q-.013-5.983-.027-11.964c0-.378-.02-.755-.03-1.134a1.749,1.749,0,0,1-.251-1.165q-.008-5.344,0-10.689a2.459,2.459,0,0,1,.258-1.26" transform="translate(-28.625 -34.488)" fill="#a7e446"/>
          <path id="Trazado_213971" data-name="Trazado 213971" d="M116.107,56.042a9.95,9.95,0,0,0,7.357,2.852q0,16.554,0,33.109c0,2.181-1.033,3.213-3.213,3.214l-6.565.007c-.416-.4-.3-.921-.3-1.4-.011-4.6-.024-9.2.01-13.793.006-.824-.2-1.343-1.061-1.471-.57-.56-.165-1.208-.163-1.82a15.955,15.955,0,0,1,1.866-5.326A20.662,20.662,0,0,0,116.2,60.6c-.1-1.331-.2-2.665-.416-3.987,0-.249-.039-.525.324-.57" transform="translate(-42.213 -21.117)" fill="#c3dbef"/>
          <path id="Trazado_213972" data-name="Trazado 213972" d="M98.824,91.825c1.4.073,1.4.074,1.4,1.457q.013,7.678.028,15.357c-.009,4.829-.036,9.659-.009,14.488,0,.727-.176.9-.9.9q-10.976-.045-21.953,0c-.785,0-1.106-.177-.987-.986a10.471,10.471,0,0,0,.036-1.306A43.013,43.013,0,0,0,83.8,117.8a32.493,32.493,0,0,0,11.61-13.383,27.137,27.137,0,0,0,2.221-8.095c.168-1.484.077-2.958.148-4.434a.751.751,0,0,1,1.048-.059" transform="translate(-28.778 -34.531)" fill="#85b638"/>
          <path id="Trazado_213973" data-name="Trazado 213973" d="M47.91,97.876q0,6.557,0,13.114-21.109,0-42.217-.006a5.3,5.3,0,0,1-4.872-3.312c.675-.39,1.412-.092,2.114-.188.567-.232,1.187.074,1.754-.171a69.314,69.314,0,0,0,9.581-.7c.56-.079,1.251.312,1.658-.407a3.125,3.125,0,0,0,2.887-.178c.386-.186.793-.52,1.288-.243a9.575,9.575,0,0,0,2.966-.318c3.657-.593,7.243-1.521,10.849-2.353.331.09.384.406.527.649a2.574,2.574,0,0,0,4.836-1.537c-.026-.281-.162-.568.037-.839a77.787,77.787,0,0,0,8.6-3.512" transform="translate(-0.309 -36.88)" fill="#d1e3f2"/>
          <path id="Trazado_213974" data-name="Trazado 213974" d="M65.745.312a3.043,3.043,0,0,1,1.243,1.623c.64,1.727,4.192,3.257,6.218,2.377A.717.717,0,0,0,73.6,4a5.843,5.843,0,0,0,2.99.518c-.181.475-.5.33-.695.274a4.541,4.541,0,0,1,1.583,1.6,2.586,2.586,0,0,1,.384,2.472,5.033,5.033,0,0,0,2.674,6.192,2.146,2.146,0,0,1,1.18,1.432,8.075,8.075,0,0,1,.08,3.288,2.088,2.088,0,0,1-1.439,1.812c-.757.251-1.169,1.076-2.007,1.185a10.821,10.821,0,0,0-1.769.011,11.579,11.579,0,0,0-2.058-.023,1.314,1.314,0,0,1-.88-1.024,6,6,0,0,1,.514-1.546A6.782,6.782,0,1,0,61.68,21.562c.16.328.569.677.072,1.067a11.3,11.3,0,0,1-2.7.117c-1.049.025-2.1.039-3.147,0a5.715,5.715,0,0,0-2.953.617,3.834,3.834,0,0,0-2.025-1.934,1.952,1.952,0,0,1-1.407-1.8,10.779,10.779,0,0,1,.041-2.86,1.907,1.907,0,0,1,1.3-1.59A3.729,3.729,0,0,0,53.137,12.7a4.261,4.261,0,0,0,.318-3.992A1.912,1.912,0,0,1,53.747,6.6a13.439,13.439,0,0,1,1.605-1.716,2.486,2.486,0,0,1,2.864-.527c1.995.784,5.088-.605,5.983-2.576C64.521,1.069,64.85.4,65.745.312" transform="translate(-18.632 -0.118)" fill="#fc4b52"/>
          <path id="Trazado_213975" data-name="Trazado 213975" d="M96.98,71.739l-1.048.059q-8.242-.015-16.485-.031c-1.162,0-2.325-.018-3.487-.027a10.145,10.145,0,0,0-1.151-4.518A27.6,27.6,0,0,1,71.894,56.2c-.205-3.2-.042-6.4-.136-9.6a1.594,1.594,0,0,1-.27-1.15c0-2.047-.036-4.1.045-6.142a1.775,1.775,0,0,1,.3-.869.277.277,0,0,1,.251-.1c.407.267.45.731.588,1.134a8.115,8.115,0,0,0,3.805,4.6c.917.518.988.98.26,1.764A2.772,2.772,0,0,1,75,46.775c-.561.062-.747.259-.618.848,1.327,6.008,3.929,11.325,8.568,15.486a26.608,26.608,0,0,0,10.837,5.837c.871.24,1.737.5,2.63.656.287.05.586.093.712.421q-.076.858-.152,1.716" transform="translate(-26.934 -14.445)" fill="#feb88c"/>
          <path id="Trazado_213976" data-name="Trazado 213976" d="M22.442,70.506c.007-.378.022-.755.022-1.133q0-24.034,0-48.066c0-.378.017-.755.026-1.132l2.768.019q0,24.743.019,49.485c0,.634-.15.907-.826.851s-1.34-.019-2.01-.023" transform="translate(-8.456 -7.602)" fill="#c3dbef"/>
          <path id="Trazado_213977" data-name="Trazado 213977" d="M29.113,97.653c-.735.274-1.478.529-2.2.828a1.576,1.576,0,0,1-1.971-.408c-.432-1.3-.2-1.777,1.089-2.261Q30.85,94,35.674,92.2a1.546,1.546,0,0,0,.944-.7q2.968-5.488,5.966-10.961c.054-.1.085-.211.151-.375a8.208,8.208,0,0,0-2.133.457c-.765.161-1.468.136-1.854-.7A1.362,1.362,0,0,1,39.8,77.929c1.316-.372,2.643-.707,3.961-1.071.475-.131.944-.287,1.408-.453a1.4,1.4,0,0,1,1.964,1q.724,2.782,1.443,5.566c.249.968-.082,1.653-.89,1.872-.887.241-1.5-.153-1.8-1.164-.1-.334-.2-.668-.292-1s-.174-.669-.262-1.01c-.335.072-.365.375-.482.588-1.989,3.621-3.985,7.237-5.938,10.877a2.967,2.967,0,0,1-1.706,1.5c-2.708.983-5.4,2.017-8.095,3.031" transform="translate(-9.322 -28.747)" fill="#98791b"/>
          <path id="Trazado_213978" data-name="Trazado 213978" d="M64.468,38.162l-.188.7c-.191,2.211-1.637,3.58-3.294,4.761a17.884,17.884,0,0,1-5.432,2.708A4.179,4.179,0,0,1,53.8,38.535c.122-.078.242-.161.363-.241a1.547,1.547,0,0,1,1.31-.564c2.836-.044,5.672-.1,8.508.027a.584.584,0,0,1,.492.405" transform="translate(-19.474 -14.197)" fill="#feca2e"/>
          <path id="Trazado_213979" data-name="Trazado 213979" d="M59.323,102.536a2.847,2.847,0,0,1-2.841,4,2.774,2.774,0,0,1-1.038-5.265c1.4-.737,2.763-.278,3.878,1.267" transform="translate(-20.317 -38.029)" fill="#98791b"/>
          <path id="Trazado_213980" data-name="Trazado 213980" d="M32.865,88.92c-.014-.583-.55-.783-.864-1.138a1.47,1.47,0,0,1-.1-2.162A1.493,1.493,0,0,1,34,85.778c.358.312.558.845,1.14.866q1,.931,1.938,1.934c.031.605.588.817.917,1.192.695.79.763,1.519.14,2.14s-1.356.552-2.144-.143c-.374-.33-.585-.887-1.194-.913q-1-.931-1.936-1.933" transform="translate(-11.858 -32.124)" fill="#98791b"/>
          <path id="Trazado_213981" data-name="Trazado 213981" d="M57.9,47.042c.249-.423.735-.442,1.118-.6a18.671,18.671,0,0,0,5.406-3.234,7.222,7.222,0,0,0,2.2-3.638q.008,3.747.017,7.493L57.9,47.042" transform="translate(-21.815 -14.912)" fill="#ebb100"/>
          <path id="Trazado_213982" data-name="Trazado 213982" d="M65.406,37.249c-2.5.009-4.993.033-7.489.021a7.479,7.479,0,0,0-2.481.337l-.362-.856c.4-.888,1.259-.834,1.994-.853,2.326-.059,4.654-.037,6.981-.047a1.95,1.95,0,0,1,1.357,1.4" transform="translate(-20.752 -13.509)" fill="#fc4b52"/>
          <path id="Trazado_213983" data-name="Trazado 213983" d="M39.3,88.568a4.223,4.223,0,0,1-1.938-1.934A14.361,14.361,0,0,1,38.4,85.58a1.386,1.386,0,0,1,1.958,1.954A14.623,14.623,0,0,1,39.3,88.568" transform="translate(-14.079 -32.114)" fill="#98791b"/>
          <path id="Trazado_213984" data-name="Trazado 213984" d="M32.834,91.137A4.22,4.22,0,0,1,34.77,93.07a14.55,14.55,0,0,1-1.095,1.106,1.324,1.324,0,0,1-1.874-.14,1.283,1.283,0,0,1-.077-1.808,13.011,13.011,0,0,1,1.109-1.091" transform="translate(-11.827 -34.341)" fill="#98791b"/>
          <path id="Trazado_213985" data-name="Trazado 213985" d="M5.964,113.005c-.555.353-1.17.1-1.754.171.556-.349,1.171-.095,1.754-.171" transform="translate(-1.586 -42.574)" fill="#d4e5f3"/>
          <path id="Trazado_213986" data-name="Trazado 213986" d="M101.947,20.188l13.829.007a.733.733,0,0,1,.218.466,23.039,23.039,0,0,1-.2,5.637,1.168,1.168,0,0,1-.683.626,9.522,9.522,0,0,0-4.161,3.825,1.55,1.55,0,0,1-1.558.866c-.811-.032-1.624-.007-2.436,0a6.74,6.74,0,0,1-1.564-.072,7.584,7.584,0,0,0-2.607-1.55c-.012-.619.471-.862.911-1.034a2.558,2.558,0,0,0,1.7-2.907c-.026-.346,0-.7-.007-1.046A2.245,2.245,0,0,0,104,22.782a4.116,4.116,0,0,1-1.916-1.721c-.156-.265-.386-.538-.135-.874" transform="translate(-38.372 -7.607)" fill="#e3eef7"/>
          <path id="Trazado_213987" data-name="Trazado 213987" d="M98.014,14.937a3.66,3.66,0,0,0,2.2,2.431,2.144,2.144,0,0,1,1.451,2.154c.026.668.022,1.339,0,2.007a2.106,2.106,0,0,1-1.44,2.158,2.5,2.5,0,0,0-1.376,1.019,6.956,6.956,0,0,0-2.432,1.531.925.925,0,0,1-.648.014,9.693,9.693,0,0,1-1.617-1.413c.909-.487,1.684-1.178,2.623-1.632.54-.26.589-.937.647-1.461a11.527,11.527,0,0,0,.006-2.431,2.321,2.321,0,0,0-1.624-2.027c-1.513-.629-2.078-2.1-2.529-3.563a3.367,3.367,0,0,1-.052-2.047c.619-1.983.268-3.039-1.407-4.357-.11-.086-.232-.157-.423-.285.342-.245.759,0,1-.282.821-.171,1.593-.848,2.49-.278A7.594,7.594,0,0,1,97.83,9.605a1.4,1.4,0,0,1-.087,1.258,4.281,4.281,0,0,0,.271,4.074" transform="translate(-34.44 -2.356)" fill="#c93c41"/>
          <path id="Trazado_213988" data-name="Trazado 213988" d="M123.918,26.433a52.819,52.819,0,0,0,.178-6.241,3.822,3.822,0,0,1,2.8.606,2.807,2.807,0,0,1,1.05,2.27c-.014.895,0,1.789,0,2.684l-.523.057a11.547,11.547,0,0,1-3.5.625" transform="translate(-46.693 -7.604)" fill="#c3dbef"/>
          <path id="Trazado_213989" data-name="Trazado 213989" d="M107.622,49.267c-.229.131-.156.348-.155.544-.419.469-.634-.042-.831-.227a11.277,11.277,0,0,0-2.438-1.829,8.966,8.966,0,0,0-3.693-.988c-1.425-.085-2.858-.033-4.288-.015a2.27,2.27,0,0,0-.688.117,1.809,1.809,0,0,0,.031,3.469,4.025,4.025,0,0,0,1.215.114c1.342.006,2.685-.03,4.026.015a1.63,1.63,0,1,1,.027,3.254c-.553.031-1.109.017-1.663.01-.507-.007-.751.207-.754.725a5.6,5.6,0,0,0,1.785,4.39c1.054.961,1.278,1.911.578,2.7-.722.815-1.747.681-2.815-.316A8.474,8.474,0,0,1,95.133,54.7a1.2,1.2,0,0,0-.915-1.347,4.972,4.972,0,0,1-3.146-5.834,1.224,1.224,0,0,0-.474-1.56,2.561,2.561,0,0,1-1.058-2.118c-.047-1.571-.037-3.144,0-4.716a1.605,1.605,0,0,1,.308-.984.268.268,0,0,1,.254-.079,3.211,3.211,0,0,1,.621,1.418A8.081,8.081,0,0,0,93.5,43.315c.388.292.786.537,1.28.289.467-.234.348-.695.353-1.086.019-1.279,0-2.558-.009-3.837.14-.242.292-.467.626-.423a2.616,2.616,0,0,1,.576,1.248,9.577,9.577,0,0,0,1.842,3.036,2.982,2.982,0,0,0,2.845.929,3.653,3.653,0,0,1,.824.069c.468.183,1.062.013,1.42.5a6.586,6.586,0,0,1,3.957,4.472,3.889,3.889,0,0,0,.411.753" transform="translate(-33.727 -14.341)" fill="#feb88c"/>
          <path id="Trazado_213990" data-name="Trazado 213990" d="M110.7,40.7l-1.422-.322c.494-1.191.176-2.442.274-3.662.052-.644-.179-1.328.259-1.919a10.885,10.885,0,0,0,3.039-.1c.924-.291,1.114-1.525,1.789-2.234a11.671,11.671,0,0,1,3.76-2.638,9.829,9.829,0,0,1,3.5-.624,16.189,16.189,0,0,1-8.721,10.265c-.819.424-1.654.821-2.482,1.231" transform="translate(-41.178 -11)" fill="#feca2e"/>
          <path id="Trazado_213991" data-name="Trazado 213991" d="M129.551,38.664V46.4c-.416-1.193-.826-2.388-1.251-3.578a.8.8,0,0,1,0-.58c.425-1.189.835-2.384,1.251-3.577" transform="translate(-48.323 -14.569)" fill="#c4dbee"/>
          <path id="Trazado_213992" data-name="Trazado 213992" d="M83.5,36.332a31.637,31.637,0,0,0-.151,5.91,2.447,2.447,0,0,0,1.392,2.088c.353.2.452.381.3.745a4.847,4.847,0,0,0,3.411,6.443c.6.1.484.585.464.969a8.715,8.715,0,0,0,1.547,5.426,10.835,10.835,0,0,0,1.615,1.708A1.421,1.421,0,1,0,93.9,57.473a5.6,5.6,0,0,1-2.048-3.328,9.163,9.163,0,0,1-.134-1.9c-.026-.412.161-.573.568-.563.612.017,1.224,0,1.837,0,1.2,0,1.805-.487,1.786-1.422-.019-.909-.6-1.372-1.745-1.374-1.428,0-2.857,0-4.285,0a2.127,2.127,0,0,1-2.361-2.12A2.1,2.1,0,0,1,89.844,44.7a37.119,37.119,0,0,1,5.315.15,9.243,9.243,0,0,1,4.778,2.334c.331.3.484.868,1.084.818a13.866,13.866,0,0,1,.468,3.586,20.608,20.608,0,0,1-2.063,11.148,17.135,17.135,0,0,0-1.945,5.375c-1.738-.451-3.5-.8-5.2-1.414a26.613,26.613,0,0,1-11.231-7.433,28.7,28.7,0,0,1-6.317-12.65c-.033-.141-.075-.28-.112-.42-.321-1.25-.322-1.253.912-1.564a3.131,3.131,0,0,0,1.083-.545c.972-.712.937-1.233-.077-1.822a8.658,8.658,0,0,1-4.084-5.8c-.237-.639.34-.843.654-1.166a2.549,2.549,0,0,1,1.162-.555,2.968,2.968,0,0,1,1.24-.007,3,3,0,0,1,2,1.484A2.725,2.725,0,0,1,77.64,37a1.967,1.967,0,0,1,.3,1.248c.006,1.223-.045,2.447.017,3.668a2.553,2.553,0,0,0,3.525,2.341,2.388,2.388,0,0,0,.91-.662c.357-.406.406-.725-.147-1.033a8.247,8.247,0,0,1-4.206-5.522c-.087-.373-.3.251-.379-.059a4.652,4.652,0,0,0-.1-.67,1.931,1.931,0,0,1,.313-1.5,3.047,3.047,0,0,1,3.07-1.513,1.685,1.685,0,0,1,1.478.894l.7.916c.474.3.429.763.376,1.226" transform="translate(-27.281 -12.535)" fill="#fed0b4"/>
          <path id="Trazado_213993" data-name="Trazado 213993" d="M82.086,29.969c-1.728-1.174-3-.965-4.372.719-.813.512-1.628.157-2.442,0H73.888c-2.027.566-2.541.163-2.313-2.1a7.242,7.242,0,0,1,8.985-6.3,2.411,2.411,0,0,1,1.546.887,6.912,6.912,0,0,1-.021,6.8" transform="translate(-26.951 -8.314)" fill="#e3eef7"/>
          <path id="Trazado_213994" data-name="Trazado 213994" d="M80.53,21.6A6.981,6.981,0,0,0,70.2,27.8c0,1.3.014,1.313,1.322,1.315.262,0,.525,0,.787.006-.712.378-1.482.689-1.761,1.555l-.181.034-.34-.226-1.357-1.4a7.041,7.041,0,0,1-.523-7.362,6.69,6.69,0,0,1,5.522-3.78,6.883,6.883,0,0,1,6.753,3.331,1.292,1.292,0,0,1,.108.325" transform="translate(-25.374 -6.747)" fill="#c3dbef"/>
          <path id="Trazado_213995" data-name="Trazado 213995" d="M95.561,37.8a21.841,21.841,0,0,1,.123,4.837c0,.474-1,.692-1.516.356a8.454,8.454,0,0,1-3.706-5.712,1.5,1.5,0,0,1,1.56-1.276A3.227,3.227,0,0,1,93.805,36a3.111,3.111,0,0,1,1.588,1.3c.186.127.347.262.168.509" transform="translate(-34.087 -13.519)" fill="#fed0b4"/>
          <path id="Trazado_213996" data-name="Trazado 213996" d="M91.7,36a3.089,3.089,0,0,0-1.559,1.277.438.438,0,0,0-.163.032c-.309-.353-.185-.838-.376-1.227A2.98,2.98,0,0,1,91.7,36" transform="translate(-33.761 -13.507)" fill="#fc4b52"/>
          <path id="Trazado_213997" data-name="Trazado 213997" d="M104.687,42.871c-2.329.014-3.79-1.128-4.726-3.711-.206-.569-.378-1.15-.566-1.725-.045-.032-.06-.063-.045-.095s.03-.048.045-.048a2.885,2.885,0,0,1,2.452-1.429,2.8,2.8,0,0,1,2.487,1.443.929.929,0,0,1,.557.827A36.666,36.666,0,0,1,104.9,42.4a.79.79,0,0,1-.214.469" transform="translate(-37.433 -13.513)" fill="#fed0b4"/>
          <path id="Trazado_213998" data-name="Trazado 213998" d="M107.7,43.744c0-1.357-.021-2.715-.006-4.073a2.69,2.69,0,0,0-.347-1.491l1.736,0c0,1.61,0,3.219.009,4.829,0,.4.021.775-.542.753l-.85-.021" transform="translate(-40.45 -14.386)" fill="#ebb100"/>
          <path id="Trazado_213999" data-name="Trazado 213999" d="M99.03,38.154a.457.457,0,0,1,0,.143c-.163.122-.2.418-.489.363l-.168-.509.656,0" transform="translate(-37.068 -14.375)" fill="#fec933"/>
          <path id="Trazado_214000" data-name="Trazado 214000" d="M80.81,38.991l.366-.436a10.113,10.113,0,0,0,2.042,4.021,7.908,7.908,0,0,0,2.457,1.885c.509.242.641.449.271.965A2.785,2.785,0,0,1,80.837,44c-.026-1.1-.016-2.208,0-3.312a6.79,6.79,0,0,0-.156-1.721c.055-.059.1-.052.131.023" transform="translate(-30.4 -14.528)" fill="#feb88d"/>
          <path id="Trazado_214001" data-name="Trazado 214001" d="M77.539,35.9l2.442,0a2.4,2.4,0,0,0-.338,1.4.248.248,0,0,1-.338.017A3.683,3.683,0,0,0,77.539,35.9" transform="translate(-29.217 -13.528)" fill="#c4dbee"/>
          <path id="Trazado_214002" data-name="Trazado 214002" d="M80.373,38.159l.338-.017q-.007.347-.016.694a.624.624,0,0,1-.131-.023l-.191-.653" transform="translate(-30.285 -14.372)" fill="#edb413"/>
        </g>
      </g>
    </g>
  </g>
</svg>
